# Tiled2Unity generated file. Do not modify by hand.
# Wavefront file for 'untitled_mesh_0003.obj'

# Vertices (Count = 88)
v -13 -1 0
v -14 -1 0
v -14 0 0
v -13 0 0
v -14 -1 0
v -15 -1 0
v -15 0 0
v -14 0 0
v -15 -1 0
v -16 -1 0
v -16 0 0
v -15 0 0
v -13 -2 0
v -14 -2 0
v -14 -1 0
v -13 -1 0
v -14 -2 0
v -15 -2 0
v -15 -1 0
v -14 -1 0
v -15 -2 0
v -16 -2 0
v -16 -1 0
v -15 -1 0
v -13 -3 0
v -14 -3 0
v -14 -2 0
v -13 -2 0
v -14 -3 0
v -15 -3 0
v -15 -2 0
v -14 -2 0
v -15 -3 0
v -16 -3 0
v -16 -2 0
v -15 -2 0
v -13 -4 0
v -14 -4 0
v -14 -3 0
v -13 -3 0
v -13 -5 0
v -14 -5 0
v -14 -4 0
v -13 -4 0
v -14 -5 0
v -15 -5 0
v -15 -4 0
v -14 -4 0
v -15 -5 0
v -16 -5 0
v -16 -4 0
v -15 -4 0
v -13 -6 0
v -14 -6 0
v -14 -5 0
v -13 -5 0
v -14 -6 0
v -15 -6 0
v -15 -5 0
v -14 -5 0
v -15 -6 0
v -16 -6 0
v -16 -5 0
v -15 -5 0
v -13 -7 0
v -14 -7 0
v -14 -6 0
v -13 -6 0
v -14 -7 0
v -15 -7 0
v -15 -6 0
v -14 -6 0
v -15 -7 0
v -16 -7 0
v -16 -6 0
v -15 -6 0
v -13 -8 0
v -14 -8 0
v -14 -7 0
v -13 -7 0
v -14 -8 0
v -15 -8 0
v -15 -7 0
v -14 -7 0
v -15 -8 0
v -16 -8 0
v -16 -7 0
v -15 -7 0

# Texture cooridinates (Count = 31)
vt 0.875 0.9375
vt 0.9375 0.9375
vt 0.9375 1
vt 0.875 1
vt 0.6875 0.8125
vt 0.75 0.8125
vt 0.75 0.875
vt 0.6875 0.875
vt 0.8125 0.8125
vt 0.8125 0.875
vt 0.875 0.875
vt 0.9375 0.875
vt 0.875 0.8125
vt 0.9375 0.8125
vt 1 0.8125
vt 1 0.875
vt 0.875 0.75
vt 0.9375 0.75
vt 1 0.75
vt 0.25 0.5
vt 0.3125 0.5
vt 0.3125 0.5625
vt 0.25 0.5625
vt 0.375 0.5
vt 0.375 0.5625
vt 0.25 0.4375
vt 0.3125 0.4375
vt 0.375 0.4375
vt 0.25 0.375
vt 0.3125 0.375
vt 0.375 0.375

# Normal
vn 0 0 -1

# Mesh description
g untitled_mesh_0003

# Faces
f 1/1/1 2/2/1 3/3/1 4/4/1
f 5/5/1 6/6/1 7/7/1 8/8/1
f 9/6/1 10/9/1 11/10/1 12/7/1
f 13/11/1 14/12/1 15/2/1 16/1/1
f 17/13/1 18/14/1 19/12/1 20/11/1
f 21/14/1 22/15/1 23/16/1 24/12/1
f 25/1/1 26/2/1 27/3/1 28/4/1
f 29/17/1 30/18/1 31/14/1 32/13/1
f 33/18/1 34/19/1 35/15/1 36/14/1
f 37/11/1 38/12/1 39/2/1 40/1/1
f 41/1/1 42/2/1 43/3/1 44/4/1
f 45/20/1 46/21/1 47/22/1 48/23/1
f 49/21/1 50/24/1 51/25/1 52/22/1
f 53/11/1 54/12/1 55/2/1 56/1/1
f 57/26/1 58/27/1 59/21/1 60/20/1
f 61/27/1 62/28/1 63/24/1 64/21/1
f 65/1/1 66/2/1 67/3/1 68/4/1
f 69/29/1 70/30/1 71/27/1 72/26/1
f 73/30/1 74/31/1 75/28/1 76/27/1
f 77/11/1 78/12/1 79/2/1 80/1/1
f 81/5/1 82/6/1 83/7/1 84/8/1
f 85/6/1 86/9/1 87/10/1 88/7/1

