# Tiled2Unity generated file. Do not modify by hand.
# Wavefront file for 'arty_mesh_0021.obj'

# Vertices (Count = 128)
v 0 -1 0
v -2 -1 0
v -2 1 0
v 0 1 0
v -1 -1 0
v -3 -1 0
v -3 1 0
v -1 1 0
v 0 -2 0
v -2 -2 0
v -2 0 0
v 0 0 0
v -1 -2 0
v -3 -2 0
v -3 0 0
v -1 0 0
v 0 -3 0
v -2 -3 0
v -2 -1 0
v 0 -1 0
v -1 -3 0
v -3 -3 0
v -3 -1 0
v -1 -1 0
v 0 -4 0
v -2 -4 0
v -2 -2 0
v 0 -2 0
v -1 -4 0
v -3 -4 0
v -3 -2 0
v -1 -2 0
v 0 -5 0
v -2 -5 0
v -2 -3 0
v 0 -3 0
v -1 -5 0
v -3 -5 0
v -3 -3 0
v -1 -3 0
v 0 -6 0
v -2 -6 0
v -2 -4 0
v 0 -4 0
v -1 -6 0
v -3 -6 0
v -3 -4 0
v -1 -4 0
v 0 -7 0
v -2 -7 0
v -2 -5 0
v 0 -5 0
v -1 -7 0
v -3 -7 0
v -3 -5 0
v -1 -5 0
v 0 -8 0
v -2 -8 0
v -2 -6 0
v 0 -6 0
v -1 -8 0
v -3 -8 0
v -3 -6 0
v -1 -6 0
v 0 -9 0
v -2 -9 0
v -2 -7 0
v 0 -7 0
v -1 -9 0
v -3 -9 0
v -3 -7 0
v -1 -7 0
v 0 -10 0
v -2 -10 0
v -2 -8 0
v 0 -8 0
v -1 -10 0
v -3 -10 0
v -3 -8 0
v -1 -8 0
v 0 -11 0
v -2 -11 0
v -2 -9 0
v 0 -9 0
v -1 -11 0
v -3 -11 0
v -3 -9 0
v -1 -9 0
v 0 -12 0
v -2 -12 0
v -2 -10 0
v 0 -10 0
v -1 -12 0
v -3 -12 0
v -3 -10 0
v -1 -10 0
v 0 -13 0
v -2 -13 0
v -2 -11 0
v 0 -11 0
v -1 -13 0
v -3 -13 0
v -3 -11 0
v -1 -11 0
v 0 -14 0
v -2 -14 0
v -2 -12 0
v 0 -12 0
v -1 -14 0
v -3 -14 0
v -3 -12 0
v -1 -12 0
v 0 -15 0
v -2 -15 0
v -2 -13 0
v 0 -13 0
v -1 -15 0
v -3 -15 0
v -3 -13 0
v -1 -13 0
v 0 -16 0
v -2 -16 0
v -2 -14 0
v 0 -14 0
v -1 -16 0
v -3 -16 0
v -3 -14 0
v -1 -14 0

# Texture cooridinates (Count = 12)
vt 0.125 0.875
vt 0.25 0.875
vt 0.25 1
vt 0.125 1
vt 0.125 0.5
vt 0.25 0.5
vt 0.25 0.625
vt 0.125 0.625
vt 0.125 0.75
vt 0.25 0.75
vt 0 0.5
vt 0 0.625

# Normal
vn 0 0 -1

# Mesh description
g arty_mesh_0021

# Faces
f 1/1/1 2/2/1 3/3/1 4/4/1
f 5/5/1 6/6/1 7/7/1 8/8/1
f 9/9/1 10/10/1 11/2/1 12/1/1
f 13/11/1 14/5/1 15/8/1 16/12/1
f 17/9/1 18/10/1 19/2/1 20/1/1
f 21/1/1 22/2/1 23/3/1 24/4/1
f 25/9/1 26/10/1 27/2/1 28/1/1
f 29/11/1 30/5/1 31/8/1 32/12/1
f 33/9/1 34/10/1 35/2/1 36/1/1
f 37/9/1 38/10/1 39/2/1 40/1/1
f 41/11/1 42/5/1 43/8/1 44/12/1
f 45/11/1 46/5/1 47/8/1 48/12/1
f 49/1/1 50/2/1 51/3/1 52/4/1
f 53/1/1 54/2/1 55/3/1 56/4/1
f 57/11/1 58/5/1 59/8/1 60/12/1
f 61/5/1 62/6/1 63/7/1 64/8/1
f 65/5/1 66/6/1 67/7/1 68/8/1
f 69/1/1 70/2/1 71/3/1 72/4/1
f 73/11/1 74/5/1 75/8/1 76/12/1
f 77/5/1 78/6/1 79/7/1 80/8/1
f 81/11/1 82/5/1 83/8/1 84/12/1
f 85/9/1 86/10/1 87/2/1 88/1/1
f 89/5/1 90/6/1 91/7/1 92/8/1
f 93/5/1 94/6/1 95/7/1 96/8/1
f 97/11/1 98/5/1 99/8/1 100/12/1
f 101/5/1 102/6/1 103/7/1 104/8/1
f 105/5/1 106/6/1 107/7/1 108/8/1
f 109/9/1 110/10/1 111/2/1 112/1/1
f 113/9/1 114/10/1 115/2/1 116/1/1
f 117/1/1 118/2/1 119/3/1 120/4/1
f 121/1/1 122/2/1 123/3/1 124/4/1
f 125/5/1 126/6/1 127/7/1 128/8/1

