# Tiled2Unity generated file. Do not modify by hand.
# Wavefront file for 'arty_mesh_0019.obj'

# Vertices (Count = 384)
v -10 -1 0
v -12 -1 0
v -12 1 0
v -10 1 0
v -11 -1 0
v -13 -1 0
v -13 1 0
v -11 1 0
v -12 -1 0
v -14 -1 0
v -14 1 0
v -12 1 0
v -13 -1 0
v -15 -1 0
v -15 1 0
v -13 1 0
v -14 -1 0
v -16 -1 0
v -16 1 0
v -14 1 0
v -15 -1 0
v -17 -1 0
v -17 1 0
v -15 1 0
v -10 -2 0
v -12 -2 0
v -12 0 0
v -10 0 0
v -11 -2 0
v -13 -2 0
v -13 0 0
v -11 0 0
v -12 -2 0
v -14 -2 0
v -14 0 0
v -12 0 0
v -13 -2 0
v -15 -2 0
v -15 0 0
v -13 0 0
v -14 -2 0
v -16 -2 0
v -16 0 0
v -14 0 0
v -15 -2 0
v -17 -2 0
v -17 0 0
v -15 0 0
v -10 -3 0
v -12 -3 0
v -12 -1 0
v -10 -1 0
v -11 -3 0
v -13 -3 0
v -13 -1 0
v -11 -1 0
v -12 -3 0
v -14 -3 0
v -14 -1 0
v -12 -1 0
v -13 -3 0
v -15 -3 0
v -15 -1 0
v -13 -1 0
v -14 -3 0
v -16 -3 0
v -16 -1 0
v -14 -1 0
v -15 -3 0
v -17 -3 0
v -17 -1 0
v -15 -1 0
v -10 -4 0
v -12 -4 0
v -12 -2 0
v -10 -2 0
v -11 -4 0
v -13 -4 0
v -13 -2 0
v -11 -2 0
v -12 -4 0
v -14 -4 0
v -14 -2 0
v -12 -2 0
v -13 -4 0
v -15 -4 0
v -15 -2 0
v -13 -2 0
v -14 -4 0
v -16 -4 0
v -16 -2 0
v -14 -2 0
v -15 -4 0
v -17 -4 0
v -17 -2 0
v -15 -2 0
v -10 -5 0
v -12 -5 0
v -12 -3 0
v -10 -3 0
v -11 -5 0
v -13 -5 0
v -13 -3 0
v -11 -3 0
v -12 -5 0
v -14 -5 0
v -14 -3 0
v -12 -3 0
v -13 -5 0
v -15 -5 0
v -15 -3 0
v -13 -3 0
v -14 -5 0
v -16 -5 0
v -16 -3 0
v -14 -3 0
v -15 -5 0
v -17 -5 0
v -17 -3 0
v -15 -3 0
v -10 -6 0
v -12 -6 0
v -12 -4 0
v -10 -4 0
v -11 -6 0
v -13 -6 0
v -13 -4 0
v -11 -4 0
v -12 -6 0
v -14 -6 0
v -14 -4 0
v -12 -4 0
v -13 -6 0
v -15 -6 0
v -15 -4 0
v -13 -4 0
v -14 -6 0
v -16 -6 0
v -16 -4 0
v -14 -4 0
v -15 -6 0
v -17 -6 0
v -17 -4 0
v -15 -4 0
v -10 -7 0
v -12 -7 0
v -12 -5 0
v -10 -5 0
v -11 -7 0
v -13 -7 0
v -13 -5 0
v -11 -5 0
v -12 -7 0
v -14 -7 0
v -14 -5 0
v -12 -5 0
v -13 -7 0
v -15 -7 0
v -15 -5 0
v -13 -5 0
v -14 -7 0
v -16 -7 0
v -16 -5 0
v -14 -5 0
v -15 -7 0
v -17 -7 0
v -17 -5 0
v -15 -5 0
v -10 -8 0
v -12 -8 0
v -12 -6 0
v -10 -6 0
v -11 -8 0
v -13 -8 0
v -13 -6 0
v -11 -6 0
v -12 -8 0
v -14 -8 0
v -14 -6 0
v -12 -6 0
v -13 -8 0
v -15 -8 0
v -15 -6 0
v -13 -6 0
v -14 -8 0
v -16 -8 0
v -16 -6 0
v -14 -6 0
v -15 -8 0
v -17 -8 0
v -17 -6 0
v -15 -6 0
v -10 -9 0
v -12 -9 0
v -12 -7 0
v -10 -7 0
v -11 -9 0
v -13 -9 0
v -13 -7 0
v -11 -7 0
v -12 -9 0
v -14 -9 0
v -14 -7 0
v -12 -7 0
v -13 -9 0
v -15 -9 0
v -15 -7 0
v -13 -7 0
v -14 -9 0
v -16 -9 0
v -16 -7 0
v -14 -7 0
v -15 -9 0
v -17 -9 0
v -17 -7 0
v -15 -7 0
v -10 -10 0
v -12 -10 0
v -12 -8 0
v -10 -8 0
v -11 -10 0
v -13 -10 0
v -13 -8 0
v -11 -8 0
v -12 -10 0
v -14 -10 0
v -14 -8 0
v -12 -8 0
v -13 -10 0
v -15 -10 0
v -15 -8 0
v -13 -8 0
v -14 -10 0
v -16 -10 0
v -16 -8 0
v -14 -8 0
v -15 -10 0
v -17 -10 0
v -17 -8 0
v -15 -8 0
v -10 -11 0
v -12 -11 0
v -12 -9 0
v -10 -9 0
v -11 -11 0
v -13 -11 0
v -13 -9 0
v -11 -9 0
v -12 -11 0
v -14 -11 0
v -14 -9 0
v -12 -9 0
v -13 -11 0
v -15 -11 0
v -15 -9 0
v -13 -9 0
v -14 -11 0
v -16 -11 0
v -16 -9 0
v -14 -9 0
v -15 -11 0
v -17 -11 0
v -17 -9 0
v -15 -9 0
v -10 -12 0
v -12 -12 0
v -12 -10 0
v -10 -10 0
v -11 -12 0
v -13 -12 0
v -13 -10 0
v -11 -10 0
v -12 -12 0
v -14 -12 0
v -14 -10 0
v -12 -10 0
v -13 -12 0
v -15 -12 0
v -15 -10 0
v -13 -10 0
v -14 -12 0
v -16 -12 0
v -16 -10 0
v -14 -10 0
v -15 -12 0
v -17 -12 0
v -17 -10 0
v -15 -10 0
v -10 -13 0
v -12 -13 0
v -12 -11 0
v -10 -11 0
v -11 -13 0
v -13 -13 0
v -13 -11 0
v -11 -11 0
v -12 -13 0
v -14 -13 0
v -14 -11 0
v -12 -11 0
v -13 -13 0
v -15 -13 0
v -15 -11 0
v -13 -11 0
v -14 -13 0
v -16 -13 0
v -16 -11 0
v -14 -11 0
v -15 -13 0
v -17 -13 0
v -17 -11 0
v -15 -11 0
v -10 -14 0
v -12 -14 0
v -12 -12 0
v -10 -12 0
v -11 -14 0
v -13 -14 0
v -13 -12 0
v -11 -12 0
v -12 -14 0
v -14 -14 0
v -14 -12 0
v -12 -12 0
v -13 -14 0
v -15 -14 0
v -15 -12 0
v -13 -12 0
v -14 -14 0
v -16 -14 0
v -16 -12 0
v -14 -12 0
v -15 -14 0
v -17 -14 0
v -17 -12 0
v -15 -12 0
v -10 -15 0
v -12 -15 0
v -12 -13 0
v -10 -13 0
v -11 -15 0
v -13 -15 0
v -13 -13 0
v -11 -13 0
v -12 -15 0
v -14 -15 0
v -14 -13 0
v -12 -13 0
v -13 -15 0
v -15 -15 0
v -15 -13 0
v -13 -13 0
v -14 -15 0
v -16 -15 0
v -16 -13 0
v -14 -13 0
v -15 -15 0
v -17 -15 0
v -17 -13 0
v -15 -13 0
v -10 -16 0
v -12 -16 0
v -12 -14 0
v -10 -14 0
v -11 -16 0
v -13 -16 0
v -13 -14 0
v -11 -14 0
v -12 -16 0
v -14 -16 0
v -14 -14 0
v -12 -14 0
v -13 -16 0
v -15 -16 0
v -15 -14 0
v -13 -14 0
v -14 -16 0
v -16 -16 0
v -16 -14 0
v -14 -14 0
v -15 -16 0
v -17 -16 0
v -17 -14 0
v -15 -14 0

# Texture cooridinates (Count = 12)
vt 0.125 0.5
vt 0.25 0.5
vt 0.25 0.625
vt 0.125 0.625
vt 0 0.5
vt 0 0.625
vt 0.125 0.875
vt 0.25 0.875
vt 0.25 1
vt 0.125 1
vt 0.125 0.75
vt 0.25 0.75

# Normal
vn 0 0 -1

# Mesh description
g arty_mesh_0019

# Faces
f 1/1/1 2/2/1 3/3/1 4/4/1
f 5/5/1 6/1/1 7/4/1 8/6/1
f 9/1/1 10/2/1 11/3/1 12/4/1
f 13/7/1 14/8/1 15/9/1 16/10/1
f 17/1/1 18/2/1 19/3/1 20/4/1
f 21/7/1 22/8/1 23/9/1 24/10/1
f 25/5/1 26/1/1 27/4/1 28/6/1
f 29/11/1 30/12/1 31/8/1 32/7/1
f 33/5/1 34/1/1 35/4/1 36/6/1
f 37/5/1 38/1/1 39/4/1 40/6/1
f 41/11/1 42/12/1 43/8/1 44/7/1
f 45/1/1 46/2/1 47/3/1 48/4/1
f 49/1/1 50/2/1 51/3/1 52/4/1
f 53/11/1 54/12/1 55/8/1 56/7/1
f 57/1/1 58/2/1 59/3/1 60/4/1
f 61/11/1 62/12/1 63/8/1 64/7/1
f 65/7/1 66/8/1 67/9/1 68/10/1
f 69/7/1 70/8/1 71/9/1 72/10/1
f 73/5/1 74/1/1 75/4/1 76/6/1
f 77/1/1 78/2/1 79/3/1 80/4/1
f 81/11/1 82/12/1 83/8/1 84/7/1
f 85/11/1 86/12/1 87/8/1 88/7/1
f 89/1/1 90/2/1 91/3/1 92/4/1
f 93/7/1 94/8/1 95/9/1 96/10/1
f 97/5/1 98/1/1 99/4/1 100/6/1
f 101/11/1 102/12/1 103/8/1 104/7/1
f 105/11/1 106/12/1 107/8/1 108/7/1
f 109/11/1 110/12/1 111/8/1 112/7/1
f 113/1/1 114/2/1 115/3/1 116/4/1
f 117/1/1 118/2/1 119/3/1 120/4/1
f 121/1/1 122/2/1 123/3/1 124/4/1
f 125/7/1 126/8/1 127/9/1 128/10/1
f 129/11/1 130/12/1 131/8/1 132/7/1
f 133/7/1 134/8/1 135/9/1 136/10/1
f 137/7/1 138/8/1 139/9/1 140/10/1
f 141/11/1 142/12/1 143/8/1 144/7/1
f 145/11/1 146/12/1 147/8/1 148/7/1
f 149/5/1 150/1/1 151/4/1 152/6/1
f 153/1/1 154/2/1 155/3/1 156/4/1
f 157/5/1 158/1/1 159/4/1 160/6/1
f 161/11/1 162/12/1 163/8/1 164/7/1
f 165/5/1 166/1/1 167/4/1 168/6/1
f 169/5/1 170/1/1 171/4/1 172/6/1
f 173/5/1 174/1/1 175/4/1 176/6/1
f 177/5/1 178/1/1 179/4/1 180/6/1
f 181/1/1 182/2/1 183/3/1 184/4/1
f 185/11/1 186/12/1 187/8/1 188/7/1
f 189/5/1 190/1/1 191/4/1 192/6/1
f 193/5/1 194/1/1 195/4/1 196/6/1
f 197/5/1 198/1/1 199/4/1 200/6/1
f 201/11/1 202/12/1 203/8/1 204/7/1
f 205/11/1 206/12/1 207/8/1 208/7/1
f 209/5/1 210/1/1 211/4/1 212/6/1
f 213/1/1 214/2/1 215/3/1 216/4/1
f 217/1/1 218/2/1 219/3/1 220/4/1
f 221/5/1 222/1/1 223/4/1 224/6/1
f 225/7/1 226/8/1 227/9/1 228/10/1
f 229/11/1 230/12/1 231/8/1 232/7/1
f 233/1/1 234/2/1 235/3/1 236/4/1
f 237/11/1 238/12/1 239/8/1 240/7/1
f 241/5/1 242/1/1 243/4/1 244/6/1
f 245/5/1 246/1/1 247/4/1 248/6/1
f 249/5/1 250/1/1 251/4/1 252/6/1
f 253/1/1 254/2/1 255/3/1 256/4/1
f 257/7/1 258/8/1 259/9/1 260/10/1
f 261/11/1 262/12/1 263/8/1 264/7/1
f 265/5/1 266/1/1 267/4/1 268/6/1
f 269/11/1 270/12/1 271/8/1 272/7/1
f 273/7/1 274/8/1 275/9/1 276/10/1
f 277/5/1 278/1/1 279/4/1 280/6/1
f 281/1/1 282/2/1 283/3/1 284/4/1
f 285/5/1 286/1/1 287/4/1 288/6/1
f 289/1/1 290/2/1 291/3/1 292/4/1
f 293/7/1 294/8/1 295/9/1 296/10/1
f 297/5/1 298/1/1 299/4/1 300/6/1
f 301/7/1 302/8/1 303/9/1 304/10/1
f 305/5/1 306/1/1 307/4/1 308/6/1
f 309/7/1 310/8/1 311/9/1 312/10/1
f 313/7/1 314/8/1 315/9/1 316/10/1
f 317/5/1 318/1/1 319/4/1 320/6/1
f 321/5/1 322/1/1 323/4/1 324/6/1
f 325/1/1 326/2/1 327/3/1 328/4/1
f 329/7/1 330/8/1 331/9/1 332/10/1
f 333/11/1 334/12/1 335/8/1 336/7/1
f 337/1/1 338/2/1 339/3/1 340/4/1
f 341/5/1 342/1/1 343/4/1 344/6/1
f 345/7/1 346/8/1 347/9/1 348/10/1
f 349/11/1 350/12/1 351/8/1 352/7/1
f 353/1/1 354/2/1 355/3/1 356/4/1
f 357/5/1 358/1/1 359/4/1 360/6/1
f 361/1/1 362/2/1 363/3/1 364/4/1
f 365/7/1 366/8/1 367/9/1 368/10/1
f 369/7/1 370/8/1 371/9/1 372/10/1
f 373/11/1 374/12/1 375/8/1 376/7/1
f 377/7/1 378/8/1 379/9/1 380/10/1
f 381/7/1 382/8/1 383/9/1 384/10/1

