# Tiled2Unity generated file. Do not modify by hand.
# Wavefront file for 'arty_mesh_0023.obj'

# Vertices (Count = 768)
v 0 -1 0
v -2 -1 0
v -2 1 0
v 0 1 0
v -1 -1 0
v -3 -1 0
v -3 1 0
v -1 1 0
v -2 -1 0
v -4 -1 0
v -4 1 0
v -2 1 0
v -3 -1 0
v -5 -1 0
v -5 1 0
v -3 1 0
v -4 -1 0
v -6 -1 0
v -6 1 0
v -4 1 0
v -5 -1 0
v -7 -1 0
v -7 1 0
v -5 1 0
v -6 -1 0
v -8 -1 0
v -8 1 0
v -6 1 0
v -7 -1 0
v -9 -1 0
v -9 1 0
v -7 1 0
v -8 -1 0
v -10 -1 0
v -10 1 0
v -8 1 0
v -9 -1 0
v -11 -1 0
v -11 1 0
v -9 1 0
v -10 -1 0
v -12 -1 0
v -12 1 0
v -10 1 0
v -11 -1 0
v -13 -1 0
v -13 1 0
v -11 1 0
v -12 -1 0
v -14 -1 0
v -14 1 0
v -12 1 0
v -13 -1 0
v -15 -1 0
v -15 1 0
v -13 1 0
v -14 -1 0
v -16 -1 0
v -16 1 0
v -14 1 0
v -15 -1 0
v -17 -1 0
v -17 1 0
v -15 1 0
v 0 -2 0
v -2 -2 0
v -2 0 0
v 0 0 0
v -1 -2 0
v -3 -2 0
v -3 0 0
v -1 0 0
v -2 -2 0
v -4 -2 0
v -4 0 0
v -2 0 0
v -3 -2 0
v -5 -2 0
v -5 0 0
v -3 0 0
v -4 -2 0
v -6 -2 0
v -6 0 0
v -4 0 0
v -5 -2 0
v -7 -2 0
v -7 0 0
v -5 0 0
v -6 -2 0
v -8 -2 0
v -8 0 0
v -6 0 0
v -7 -2 0
v -9 -2 0
v -9 0 0
v -7 0 0
v -8 -2 0
v -10 -2 0
v -10 0 0
v -8 0 0
v -9 -2 0
v -11 -2 0
v -11 0 0
v -9 0 0
v -10 -2 0
v -12 -2 0
v -12 0 0
v -10 0 0
v -11 -2 0
v -13 -2 0
v -13 0 0
v -11 0 0
v -12 -2 0
v -14 -2 0
v -14 0 0
v -12 0 0
v -13 -2 0
v -15 -2 0
v -15 0 0
v -13 0 0
v -14 -2 0
v -16 -2 0
v -16 0 0
v -14 0 0
v -15 -2 0
v -17 -2 0
v -17 0 0
v -15 0 0
v 0 -3 0
v -2 -3 0
v -2 -1 0
v 0 -1 0
v -1 -3 0
v -3 -3 0
v -3 -1 0
v -1 -1 0
v -2 -3 0
v -4 -3 0
v -4 -1 0
v -2 -1 0
v -3 -3 0
v -5 -3 0
v -5 -1 0
v -3 -1 0
v -4 -3 0
v -6 -3 0
v -6 -1 0
v -4 -1 0
v -5 -3 0
v -7 -3 0
v -7 -1 0
v -5 -1 0
v -6 -3 0
v -8 -3 0
v -8 -1 0
v -6 -1 0
v -7 -3 0
v -9 -3 0
v -9 -1 0
v -7 -1 0
v -8 -3 0
v -10 -3 0
v -10 -1 0
v -8 -1 0
v -9 -3 0
v -11 -3 0
v -11 -1 0
v -9 -1 0
v -10 -3 0
v -12 -3 0
v -12 -1 0
v -10 -1 0
v -11 -3 0
v -13 -3 0
v -13 -1 0
v -11 -1 0
v -12 -3 0
v -14 -3 0
v -14 -1 0
v -12 -1 0
v -13 -3 0
v -15 -3 0
v -15 -1 0
v -13 -1 0
v -14 -3 0
v -16 -3 0
v -16 -1 0
v -14 -1 0
v -15 -3 0
v -17 -3 0
v -17 -1 0
v -15 -1 0
v 0 -4 0
v -2 -4 0
v -2 -2 0
v 0 -2 0
v -1 -4 0
v -3 -4 0
v -3 -2 0
v -1 -2 0
v -2 -4 0
v -4 -4 0
v -4 -2 0
v -2 -2 0
v -3 -4 0
v -5 -4 0
v -5 -2 0
v -3 -2 0
v -4 -4 0
v -6 -4 0
v -6 -2 0
v -4 -2 0
v -5 -4 0
v -7 -4 0
v -7 -2 0
v -5 -2 0
v -6 -4 0
v -8 -4 0
v -8 -2 0
v -6 -2 0
v -7 -4 0
v -9 -4 0
v -9 -2 0
v -7 -2 0
v -8 -4 0
v -10 -4 0
v -10 -2 0
v -8 -2 0
v -9 -4 0
v -11 -4 0
v -11 -2 0
v -9 -2 0
v -10 -4 0
v -12 -4 0
v -12 -2 0
v -10 -2 0
v -11 -4 0
v -13 -4 0
v -13 -2 0
v -11 -2 0
v -12 -4 0
v -14 -4 0
v -14 -2 0
v -12 -2 0
v -13 -4 0
v -15 -4 0
v -15 -2 0
v -13 -2 0
v -14 -4 0
v -16 -4 0
v -16 -2 0
v -14 -2 0
v -15 -4 0
v -17 -4 0
v -17 -2 0
v -15 -2 0
v 0 -5 0
v -2 -5 0
v -2 -3 0
v 0 -3 0
v -1 -5 0
v -3 -5 0
v -3 -3 0
v -1 -3 0
v -2 -5 0
v -4 -5 0
v -4 -3 0
v -2 -3 0
v -3 -5 0
v -5 -5 0
v -5 -3 0
v -3 -3 0
v -4 -5 0
v -6 -5 0
v -6 -3 0
v -4 -3 0
v -5 -5 0
v -7 -5 0
v -7 -3 0
v -5 -3 0
v -6 -5 0
v -8 -5 0
v -8 -3 0
v -6 -3 0
v -7 -5 0
v -9 -5 0
v -9 -3 0
v -7 -3 0
v -8 -5 0
v -10 -5 0
v -10 -3 0
v -8 -3 0
v -9 -5 0
v -11 -5 0
v -11 -3 0
v -9 -3 0
v -10 -5 0
v -12 -5 0
v -12 -3 0
v -10 -3 0
v -11 -5 0
v -13 -5 0
v -13 -3 0
v -11 -3 0
v -12 -5 0
v -14 -5 0
v -14 -3 0
v -12 -3 0
v -13 -5 0
v -15 -5 0
v -15 -3 0
v -13 -3 0
v -14 -5 0
v -16 -5 0
v -16 -3 0
v -14 -3 0
v -15 -5 0
v -17 -5 0
v -17 -3 0
v -15 -3 0
v 0 -6 0
v -2 -6 0
v -2 -4 0
v 0 -4 0
v -1 -6 0
v -3 -6 0
v -3 -4 0
v -1 -4 0
v -2 -6 0
v -4 -6 0
v -4 -4 0
v -2 -4 0
v -3 -6 0
v -5 -6 0
v -5 -4 0
v -3 -4 0
v -4 -6 0
v -6 -6 0
v -6 -4 0
v -4 -4 0
v -5 -6 0
v -7 -6 0
v -7 -4 0
v -5 -4 0
v -6 -6 0
v -8 -6 0
v -8 -4 0
v -6 -4 0
v -7 -6 0
v -9 -6 0
v -9 -4 0
v -7 -4 0
v -8 -6 0
v -10 -6 0
v -10 -4 0
v -8 -4 0
v -9 -6 0
v -11 -6 0
v -11 -4 0
v -9 -4 0
v -10 -6 0
v -12 -6 0
v -12 -4 0
v -10 -4 0
v -11 -6 0
v -13 -6 0
v -13 -4 0
v -11 -4 0
v -12 -6 0
v -14 -6 0
v -14 -4 0
v -12 -4 0
v -13 -6 0
v -15 -6 0
v -15 -4 0
v -13 -4 0
v -14 -6 0
v -16 -6 0
v -16 -4 0
v -14 -4 0
v -15 -6 0
v -17 -6 0
v -17 -4 0
v -15 -4 0
v 0 -7 0
v -2 -7 0
v -2 -5 0
v 0 -5 0
v -1 -7 0
v -3 -7 0
v -3 -5 0
v -1 -5 0
v -2 -7 0
v -4 -7 0
v -4 -5 0
v -2 -5 0
v -3 -7 0
v -5 -7 0
v -5 -5 0
v -3 -5 0
v -4 -7 0
v -6 -7 0
v -6 -5 0
v -4 -5 0
v -5 -7 0
v -7 -7 0
v -7 -5 0
v -5 -5 0
v -6 -7 0
v -8 -7 0
v -8 -5 0
v -6 -5 0
v -7 -7 0
v -9 -7 0
v -9 -5 0
v -7 -5 0
v -8 -7 0
v -10 -7 0
v -10 -5 0
v -8 -5 0
v -9 -7 0
v -11 -7 0
v -11 -5 0
v -9 -5 0
v -10 -7 0
v -12 -7 0
v -12 -5 0
v -10 -5 0
v -11 -7 0
v -13 -7 0
v -13 -5 0
v -11 -5 0
v -12 -7 0
v -14 -7 0
v -14 -5 0
v -12 -5 0
v -13 -7 0
v -15 -7 0
v -15 -5 0
v -13 -5 0
v -14 -7 0
v -16 -7 0
v -16 -5 0
v -14 -5 0
v -15 -7 0
v -17 -7 0
v -17 -5 0
v -15 -5 0
v 0 -8 0
v -2 -8 0
v -2 -6 0
v 0 -6 0
v -1 -8 0
v -3 -8 0
v -3 -6 0
v -1 -6 0
v -2 -8 0
v -4 -8 0
v -4 -6 0
v -2 -6 0
v -3 -8 0
v -5 -8 0
v -5 -6 0
v -3 -6 0
v -4 -8 0
v -6 -8 0
v -6 -6 0
v -4 -6 0
v -5 -8 0
v -7 -8 0
v -7 -6 0
v -5 -6 0
v -6 -8 0
v -8 -8 0
v -8 -6 0
v -6 -6 0
v -7 -8 0
v -9 -8 0
v -9 -6 0
v -7 -6 0
v -8 -8 0
v -10 -8 0
v -10 -6 0
v -8 -6 0
v -9 -8 0
v -11 -8 0
v -11 -6 0
v -9 -6 0
v -10 -8 0
v -12 -8 0
v -12 -6 0
v -10 -6 0
v -11 -8 0
v -13 -8 0
v -13 -6 0
v -11 -6 0
v -12 -8 0
v -14 -8 0
v -14 -6 0
v -12 -6 0
v -13 -8 0
v -15 -8 0
v -15 -6 0
v -13 -6 0
v -14 -8 0
v -16 -8 0
v -16 -6 0
v -14 -6 0
v -15 -8 0
v -17 -8 0
v -17 -6 0
v -15 -6 0
v 0 -9 0
v -2 -9 0
v -2 -7 0
v 0 -7 0
v -1 -9 0
v -3 -9 0
v -3 -7 0
v -1 -7 0
v -2 -9 0
v -4 -9 0
v -4 -7 0
v -2 -7 0
v -3 -9 0
v -5 -9 0
v -5 -7 0
v -3 -7 0
v -4 -9 0
v -6 -9 0
v -6 -7 0
v -4 -7 0
v -5 -9 0
v -7 -9 0
v -7 -7 0
v -5 -7 0
v -6 -9 0
v -8 -9 0
v -8 -7 0
v -6 -7 0
v -7 -9 0
v -9 -9 0
v -9 -7 0
v -7 -7 0
v -8 -9 0
v -10 -9 0
v -10 -7 0
v -8 -7 0
v -9 -9 0
v -11 -9 0
v -11 -7 0
v -9 -7 0
v -10 -9 0
v -12 -9 0
v -12 -7 0
v -10 -7 0
v -11 -9 0
v -13 -9 0
v -13 -7 0
v -11 -7 0
v -12 -9 0
v -14 -9 0
v -14 -7 0
v -12 -7 0
v -13 -9 0
v -15 -9 0
v -15 -7 0
v -13 -7 0
v -14 -9 0
v -16 -9 0
v -16 -7 0
v -14 -7 0
v -15 -9 0
v -17 -9 0
v -17 -7 0
v -15 -7 0
v 0 -10 0
v -2 -10 0
v -2 -8 0
v 0 -8 0
v -1 -10 0
v -3 -10 0
v -3 -8 0
v -1 -8 0
v -2 -10 0
v -4 -10 0
v -4 -8 0
v -2 -8 0
v -3 -10 0
v -5 -10 0
v -5 -8 0
v -3 -8 0
v -4 -10 0
v -6 -10 0
v -6 -8 0
v -4 -8 0
v -5 -10 0
v -7 -10 0
v -7 -8 0
v -5 -8 0
v -6 -10 0
v -8 -10 0
v -8 -8 0
v -6 -8 0
v -7 -10 0
v -9 -10 0
v -9 -8 0
v -7 -8 0
v -8 -10 0
v -10 -10 0
v -10 -8 0
v -8 -8 0
v -9 -10 0
v -11 -10 0
v -11 -8 0
v -9 -8 0
v -10 -10 0
v -12 -10 0
v -12 -8 0
v -10 -8 0
v -11 -10 0
v -13 -10 0
v -13 -8 0
v -11 -8 0
v -12 -10 0
v -14 -10 0
v -14 -8 0
v -12 -8 0
v -13 -10 0
v -15 -10 0
v -15 -8 0
v -13 -8 0
v -14 -10 0
v -16 -10 0
v -16 -8 0
v -14 -8 0
v -15 -10 0
v -17 -10 0
v -17 -8 0
v -15 -8 0
v 0 -11 0
v -2 -11 0
v -2 -9 0
v 0 -9 0
v -1 -11 0
v -3 -11 0
v -3 -9 0
v -1 -9 0
v -2 -11 0
v -4 -11 0
v -4 -9 0
v -2 -9 0
v -3 -11 0
v -5 -11 0
v -5 -9 0
v -3 -9 0
v -4 -11 0
v -6 -11 0
v -6 -9 0
v -4 -9 0
v -5 -11 0
v -7 -11 0
v -7 -9 0
v -5 -9 0
v -6 -11 0
v -8 -11 0
v -8 -9 0
v -6 -9 0
v -7 -11 0
v -9 -11 0
v -9 -9 0
v -7 -9 0
v -8 -11 0
v -10 -11 0
v -10 -9 0
v -8 -9 0
v -9 -11 0
v -11 -11 0
v -11 -9 0
v -9 -9 0
v -10 -11 0
v -12 -11 0
v -12 -9 0
v -10 -9 0
v -11 -11 0
v -13 -11 0
v -13 -9 0
v -11 -9 0
v -12 -11 0
v -14 -11 0
v -14 -9 0
v -12 -9 0
v -13 -11 0
v -15 -11 0
v -15 -9 0
v -13 -9 0
v -14 -11 0
v -16 -11 0
v -16 -9 0
v -14 -9 0
v -15 -11 0
v -17 -11 0
v -17 -9 0
v -15 -9 0
v 0 -12 0
v -2 -12 0
v -2 -10 0
v 0 -10 0
v -1 -12 0
v -3 -12 0
v -3 -10 0
v -1 -10 0
v -2 -12 0
v -4 -12 0
v -4 -10 0
v -2 -10 0
v -3 -12 0
v -5 -12 0
v -5 -10 0
v -3 -10 0
v -4 -12 0
v -6 -12 0
v -6 -10 0
v -4 -10 0
v -5 -12 0
v -7 -12 0
v -7 -10 0
v -5 -10 0
v -6 -12 0
v -8 -12 0
v -8 -10 0
v -6 -10 0
v -7 -12 0
v -9 -12 0
v -9 -10 0
v -7 -10 0
v -8 -12 0
v -10 -12 0
v -10 -10 0
v -8 -10 0
v -9 -12 0
v -11 -12 0
v -11 -10 0
v -9 -10 0
v -10 -12 0
v -12 -12 0
v -12 -10 0
v -10 -10 0
v -11 -12 0
v -13 -12 0
v -13 -10 0
v -11 -10 0
v -12 -12 0
v -14 -12 0
v -14 -10 0
v -12 -10 0
v -13 -12 0
v -15 -12 0
v -15 -10 0
v -13 -10 0
v -14 -12 0
v -16 -12 0
v -16 -10 0
v -14 -10 0
v -15 -12 0
v -17 -12 0
v -17 -10 0
v -15 -10 0

# Texture cooridinates (Count = 12)
vt 0 0.5
vt 0.125 0.5
vt 0.125 0.625
vt 0 0.625
vt 0.125 0.875
vt 0.25 0.875
vt 0.25 1
vt 0.125 1
vt 0.25 0.5
vt 0.25 0.625
vt 0.125 0.75
vt 0.25 0.75

# Normal
vn 0 0 -1

# Mesh description
g arty_mesh_0023

# Faces
f 1/1/1 2/2/1 3/3/1 4/4/1
f 5/1/1 6/2/1 7/3/1 8/4/1
f 9/5/1 10/6/1 11/7/1 12/8/1
f 13/2/1 14/9/1 15/10/1 16/3/1
f 17/5/1 18/6/1 19/7/1 20/8/1
f 21/2/1 22/9/1 23/10/1 24/3/1
f 25/1/1 26/2/1 27/3/1 28/4/1
f 29/1/1 30/2/1 31/3/1 32/4/1
f 33/11/1 34/12/1 35/6/1 36/5/1
f 37/1/1 38/2/1 39/3/1 40/4/1
f 41/11/1 42/12/1 43/6/1 44/5/1
f 45/11/1 46/12/1 47/6/1 48/5/1
f 49/11/1 50/12/1 51/6/1 52/5/1
f 53/1/1 54/2/1 55/3/1 56/4/1
f 57/11/1 58/12/1 59/6/1 60/5/1
f 61/2/1 62/9/1 63/10/1 64/3/1
f 65/5/1 66/6/1 67/7/1 68/8/1
f 69/1/1 70/2/1 71/3/1 72/4/1
f 73/11/1 74/12/1 75/6/1 76/5/1
f 77/5/1 78/6/1 79/7/1 80/8/1
f 81/11/1 82/12/1 83/6/1 84/5/1
f 85/2/1 86/9/1 87/10/1 88/3/1
f 89/11/1 90/12/1 91/6/1 92/5/1
f 93/2/1 94/9/1 95/10/1 96/3/1
f 97/1/1 98/2/1 99/3/1 100/4/1
f 101/5/1 102/6/1 103/7/1 104/8/1
f 105/2/1 106/9/1 107/10/1 108/3/1
f 109/2/1 110/9/1 111/10/1 112/3/1
f 113/11/1 114/12/1 115/6/1 116/5/1
f 117/5/1 118/6/1 119/7/1 120/8/1
f 121/1/1 122/2/1 123/3/1 124/4/1
f 125/2/1 126/9/1 127/10/1 128/3/1
f 129/11/1 130/12/1 131/6/1 132/5/1
f 133/11/1 134/12/1 135/6/1 136/5/1
f 137/2/1 138/9/1 139/10/1 140/3/1
f 141/2/1 142/9/1 143/10/1 144/3/1
f 145/2/1 146/9/1 147/10/1 148/3/1
f 149/11/1 150/12/1 151/6/1 152/5/1
f 153/5/1 154/6/1 155/7/1 156/8/1
f 157/11/1 158/12/1 159/6/1 160/5/1
f 161/2/1 162/9/1 163/10/1 164/3/1
f 165/2/1 166/9/1 167/10/1 168/3/1
f 169/5/1 170/6/1 171/7/1 172/8/1
f 173/11/1 174/12/1 175/6/1 176/5/1
f 177/1/1 178/2/1 179/3/1 180/4/1
f 181/2/1 182/9/1 183/10/1 184/3/1
f 185/2/1 186/9/1 187/10/1 188/3/1
f 189/5/1 190/6/1 191/7/1 192/8/1
f 193/5/1 194/6/1 195/7/1 196/8/1
f 197/11/1 198/12/1 199/6/1 200/5/1
f 201/11/1 202/12/1 203/6/1 204/5/1
f 205/11/1 206/12/1 207/6/1 208/5/1
f 209/2/1 210/9/1 211/10/1 212/3/1
f 213/5/1 214/6/1 215/7/1 216/8/1
f 217/11/1 218/12/1 219/6/1 220/5/1
f 221/2/1 222/9/1 223/10/1 224/3/1
f 225/2/1 226/9/1 227/10/1 228/3/1
f 229/5/1 230/6/1 231/7/1 232/8/1
f 233/5/1 234/6/1 235/7/1 236/8/1
f 237/5/1 238/6/1 239/7/1 240/8/1
f 241/2/1 242/9/1 243/10/1 244/3/1
f 245/1/1 246/2/1 247/3/1 248/4/1
f 249/11/1 250/12/1 251/6/1 252/5/1
f 253/1/1 254/2/1 255/3/1 256/4/1
f 257/2/1 258/9/1 259/10/1 260/3/1
f 261/1/1 262/2/1 263/3/1 264/4/1
f 265/5/1 266/6/1 267/7/1 268/8/1
f 269/11/1 270/12/1 271/6/1 272/5/1
f 273/1/1 274/2/1 275/3/1 276/4/1
f 277/5/1 278/6/1 279/7/1 280/8/1
f 281/5/1 282/6/1 283/7/1 284/8/1
f 285/1/1 286/2/1 287/3/1 288/4/1
f 289/5/1 290/6/1 291/7/1 292/8/1
f 293/11/1 294/12/1 295/6/1 296/5/1
f 297/11/1 298/12/1 299/6/1 300/5/1
f 301/2/1 302/9/1 303/10/1 304/3/1
f 305/2/1 306/9/1 307/10/1 308/3/1
f 309/1/1 310/2/1 311/3/1 312/4/1
f 313/2/1 314/9/1 315/10/1 316/3/1
f 317/1/1 318/2/1 319/3/1 320/4/1
f 321/11/1 322/12/1 323/6/1 324/5/1
f 325/5/1 326/6/1 327/7/1 328/8/1
f 329/11/1 330/12/1 331/6/1 332/5/1
f 333/11/1 334/12/1 335/6/1 336/5/1
f 337/1/1 338/2/1 339/3/1 340/4/1
f 341/11/1 342/12/1 343/6/1 344/5/1
f 345/2/1 346/9/1 347/10/1 348/3/1
f 349/1/1 350/2/1 351/3/1 352/4/1
f 353/2/1 354/9/1 355/10/1 356/3/1
f 357/11/1 358/12/1 359/6/1 360/5/1
f 361/2/1 362/9/1 363/10/1 364/3/1
f 365/11/1 366/12/1 367/6/1 368/5/1
f 369/2/1 370/9/1 371/10/1 372/3/1
f 373/2/1 374/9/1 375/10/1 376/3/1
f 377/11/1 378/12/1 379/6/1 380/5/1
f 381/2/1 382/9/1 383/10/1 384/3/1
f 385/5/1 386/6/1 387/7/1 388/8/1
f 389/11/1 390/12/1 391/6/1 392/5/1
f 393/5/1 394/6/1 395/7/1 396/8/1
f 397/11/1 398/12/1 399/6/1 400/5/1
f 401/2/1 402/9/1 403/10/1 404/3/1
f 405/2/1 406/9/1 407/10/1 408/3/1
f 409/2/1 410/9/1 411/10/1 412/3/1
f 413/11/1 414/12/1 415/6/1 416/5/1
f 417/5/1 418/6/1 419/7/1 420/8/1
f 421/1/1 422/2/1 423/3/1 424/4/1
f 425/5/1 426/6/1 427/7/1 428/8/1
f 429/1/1 430/2/1 431/3/1 432/4/1
f 433/1/1 434/2/1 435/3/1 436/4/1
f 437/1/1 438/2/1 439/3/1 440/4/1
f 441/2/1 442/9/1 443/10/1 444/3/1
f 445/11/1 446/12/1 447/6/1 448/5/1
f 449/5/1 450/6/1 451/7/1 452/8/1
f 453/11/1 454/12/1 455/6/1 456/5/1
f 457/11/1 458/12/1 459/6/1 460/5/1
f 461/1/1 462/2/1 463/3/1 464/4/1
f 465/1/1 466/2/1 467/3/1 468/4/1
f 469/11/1 470/12/1 471/6/1 472/5/1
f 473/2/1 474/9/1 475/10/1 476/3/1
f 477/5/1 478/6/1 479/7/1 480/8/1
f 481/1/1 482/2/1 483/3/1 484/4/1
f 485/2/1 486/9/1 487/10/1 488/3/1
f 489/5/1 490/6/1 491/7/1 492/8/1
f 493/5/1 494/6/1 495/7/1 496/8/1
f 497/5/1 498/6/1 499/7/1 500/8/1
f 501/11/1 502/12/1 503/6/1 504/5/1
f 505/2/1 506/9/1 507/10/1 508/3/1
f 509/11/1 510/12/1 511/6/1 512/5/1
f 513/5/1 514/6/1 515/7/1 516/8/1
f 517/11/1 518/12/1 519/6/1 520/5/1
f 521/5/1 522/6/1 523/7/1 524/8/1
f 525/5/1 526/6/1 527/7/1 528/8/1
f 529/11/1 530/12/1 531/6/1 532/5/1
f 533/2/1 534/9/1 535/10/1 536/3/1
f 537/5/1 538/6/1 539/7/1 540/8/1
f 541/2/1 542/9/1 543/10/1 544/3/1
f 545/1/1 546/2/1 547/3/1 548/4/1
f 549/2/1 550/9/1 551/10/1 552/3/1
f 553/5/1 554/6/1 555/7/1 556/8/1
f 557/2/1 558/9/1 559/10/1 560/3/1
f 561/11/1 562/12/1 563/6/1 564/5/1
f 565/11/1 566/12/1 567/6/1 568/5/1
f 569/11/1 570/12/1 571/6/1 572/5/1
f 573/5/1 574/6/1 575/7/1 576/8/1
f 577/1/1 578/2/1 579/3/1 580/4/1
f 581/2/1 582/9/1 583/10/1 584/3/1
f 585/1/1 586/2/1 587/3/1 588/4/1
f 589/11/1 590/12/1 591/6/1 592/5/1
f 593/5/1 594/6/1 595/7/1 596/8/1
f 597/2/1 598/9/1 599/10/1 600/3/1
f 601/11/1 602/12/1 603/6/1 604/5/1
f 605/2/1 606/9/1 607/10/1 608/3/1
f 609/2/1 610/9/1 611/10/1 612/3/1
f 613/11/1 614/12/1 615/6/1 616/5/1
f 617/11/1 618/12/1 619/6/1 620/5/1
f 621/2/1 622/9/1 623/10/1 624/3/1
f 625/11/1 626/12/1 627/6/1 628/5/1
f 629/11/1 630/12/1 631/6/1 632/5/1
f 633/1/1 634/2/1 635/3/1 636/4/1
f 637/11/1 638/12/1 639/6/1 640/5/1
f 641/2/1 642/9/1 643/10/1 644/3/1
f 645/1/1 646/2/1 647/3/1 648/4/1
f 649/11/1 650/12/1 651/6/1 652/5/1
f 653/1/1 654/2/1 655/3/1 656/4/1
f 657/2/1 658/9/1 659/10/1 660/3/1
f 661/11/1 662/12/1 663/6/1 664/5/1
f 665/5/1 666/6/1 667/7/1 668/8/1
f 669/11/1 670/12/1 671/6/1 672/5/1
f 673/5/1 674/6/1 675/7/1 676/8/1
f 677/5/1 678/6/1 679/7/1 680/8/1
f 681/2/1 682/9/1 683/10/1 684/3/1
f 685/1/1 686/2/1 687/3/1 688/4/1
f 689/11/1 690/12/1 691/6/1 692/5/1
f 693/5/1 694/6/1 695/7/1 696/8/1
f 697/1/1 698/2/1 699/3/1 700/4/1
f 701/1/1 702/2/1 703/3/1 704/4/1
f 705/11/1 706/12/1 707/6/1 708/5/1
f 709/11/1 710/12/1 711/6/1 712/5/1
f 713/5/1 714/6/1 715/7/1 716/8/1
f 717/2/1 718/9/1 719/10/1 720/3/1
f 721/1/1 722/2/1 723/3/1 724/4/1
f 725/2/1 726/9/1 727/10/1 728/3/1
f 729/2/1 730/9/1 731/10/1 732/3/1
f 733/1/1 734/2/1 735/3/1 736/4/1
f 737/11/1 738/12/1 739/6/1 740/5/1
f 741/1/1 742/2/1 743/3/1 744/4/1
f 745/2/1 746/9/1 747/10/1 748/3/1
f 749/11/1 750/12/1 751/6/1 752/5/1
f 753/2/1 754/9/1 755/10/1 756/3/1
f 757/5/1 758/6/1 759/7/1 760/8/1
f 761/11/1 762/12/1 763/6/1 764/5/1
f 765/1/1 766/2/1 767/3/1 768/4/1

