# Tiled2Unity generated file. Do not modify by hand.
# Wavefront file for 'arty_mesh_0020.obj'

# Vertices (Count = 1024)
v 0 -1 0
v -2 -1 0
v -2 1 0
v 0 1 0
v -1 -1 0
v -3 -1 0
v -3 1 0
v -1 1 0
v -2 -1 0
v -4 -1 0
v -4 1 0
v -2 1 0
v -3 -1 0
v -5 -1 0
v -5 1 0
v -3 1 0
v -4 -1 0
v -6 -1 0
v -6 1 0
v -4 1 0
v -5 -1 0
v -7 -1 0
v -7 1 0
v -5 1 0
v -6 -1 0
v -8 -1 0
v -8 1 0
v -6 1 0
v -7 -1 0
v -9 -1 0
v -9 1 0
v -7 1 0
v -8 -1 0
v -10 -1 0
v -10 1 0
v -8 1 0
v -9 -1 0
v -11 -1 0
v -11 1 0
v -9 1 0
v -10 -1 0
v -12 -1 0
v -12 1 0
v -10 1 0
v -11 -1 0
v -13 -1 0
v -13 1 0
v -11 1 0
v -12 -1 0
v -14 -1 0
v -14 1 0
v -12 1 0
v -13 -1 0
v -15 -1 0
v -15 1 0
v -13 1 0
v -14 -1 0
v -16 -1 0
v -16 1 0
v -14 1 0
v -15 -1 0
v -17 -1 0
v -17 1 0
v -15 1 0
v 0 -2 0
v -2 -2 0
v -2 0 0
v 0 0 0
v -1 -2 0
v -3 -2 0
v -3 0 0
v -1 0 0
v -2 -2 0
v -4 -2 0
v -4 0 0
v -2 0 0
v -3 -2 0
v -5 -2 0
v -5 0 0
v -3 0 0
v -4 -2 0
v -6 -2 0
v -6 0 0
v -4 0 0
v -5 -2 0
v -7 -2 0
v -7 0 0
v -5 0 0
v -6 -2 0
v -8 -2 0
v -8 0 0
v -6 0 0
v -7 -2 0
v -9 -2 0
v -9 0 0
v -7 0 0
v -8 -2 0
v -10 -2 0
v -10 0 0
v -8 0 0
v -9 -2 0
v -11 -2 0
v -11 0 0
v -9 0 0
v -10 -2 0
v -12 -2 0
v -12 0 0
v -10 0 0
v -11 -2 0
v -13 -2 0
v -13 0 0
v -11 0 0
v -12 -2 0
v -14 -2 0
v -14 0 0
v -12 0 0
v -13 -2 0
v -15 -2 0
v -15 0 0
v -13 0 0
v -14 -2 0
v -16 -2 0
v -16 0 0
v -14 0 0
v -15 -2 0
v -17 -2 0
v -17 0 0
v -15 0 0
v 0 -3 0
v -2 -3 0
v -2 -1 0
v 0 -1 0
v -1 -3 0
v -3 -3 0
v -3 -1 0
v -1 -1 0
v -2 -3 0
v -4 -3 0
v -4 -1 0
v -2 -1 0
v -3 -3 0
v -5 -3 0
v -5 -1 0
v -3 -1 0
v -4 -3 0
v -6 -3 0
v -6 -1 0
v -4 -1 0
v -5 -3 0
v -7 -3 0
v -7 -1 0
v -5 -1 0
v -6 -3 0
v -8 -3 0
v -8 -1 0
v -6 -1 0
v -7 -3 0
v -9 -3 0
v -9 -1 0
v -7 -1 0
v -8 -3 0
v -10 -3 0
v -10 -1 0
v -8 -1 0
v -9 -3 0
v -11 -3 0
v -11 -1 0
v -9 -1 0
v -10 -3 0
v -12 -3 0
v -12 -1 0
v -10 -1 0
v -11 -3 0
v -13 -3 0
v -13 -1 0
v -11 -1 0
v -12 -3 0
v -14 -3 0
v -14 -1 0
v -12 -1 0
v -13 -3 0
v -15 -3 0
v -15 -1 0
v -13 -1 0
v -14 -3 0
v -16 -3 0
v -16 -1 0
v -14 -1 0
v -15 -3 0
v -17 -3 0
v -17 -1 0
v -15 -1 0
v 0 -4 0
v -2 -4 0
v -2 -2 0
v 0 -2 0
v -1 -4 0
v -3 -4 0
v -3 -2 0
v -1 -2 0
v -2 -4 0
v -4 -4 0
v -4 -2 0
v -2 -2 0
v -3 -4 0
v -5 -4 0
v -5 -2 0
v -3 -2 0
v -4 -4 0
v -6 -4 0
v -6 -2 0
v -4 -2 0
v -5 -4 0
v -7 -4 0
v -7 -2 0
v -5 -2 0
v -6 -4 0
v -8 -4 0
v -8 -2 0
v -6 -2 0
v -7 -4 0
v -9 -4 0
v -9 -2 0
v -7 -2 0
v -8 -4 0
v -10 -4 0
v -10 -2 0
v -8 -2 0
v -9 -4 0
v -11 -4 0
v -11 -2 0
v -9 -2 0
v -10 -4 0
v -12 -4 0
v -12 -2 0
v -10 -2 0
v -11 -4 0
v -13 -4 0
v -13 -2 0
v -11 -2 0
v -12 -4 0
v -14 -4 0
v -14 -2 0
v -12 -2 0
v -13 -4 0
v -15 -4 0
v -15 -2 0
v -13 -2 0
v -14 -4 0
v -16 -4 0
v -16 -2 0
v -14 -2 0
v -15 -4 0
v -17 -4 0
v -17 -2 0
v -15 -2 0
v 0 -5 0
v -2 -5 0
v -2 -3 0
v 0 -3 0
v -1 -5 0
v -3 -5 0
v -3 -3 0
v -1 -3 0
v -2 -5 0
v -4 -5 0
v -4 -3 0
v -2 -3 0
v -3 -5 0
v -5 -5 0
v -5 -3 0
v -3 -3 0
v -4 -5 0
v -6 -5 0
v -6 -3 0
v -4 -3 0
v -5 -5 0
v -7 -5 0
v -7 -3 0
v -5 -3 0
v -6 -5 0
v -8 -5 0
v -8 -3 0
v -6 -3 0
v -7 -5 0
v -9 -5 0
v -9 -3 0
v -7 -3 0
v -8 -5 0
v -10 -5 0
v -10 -3 0
v -8 -3 0
v -9 -5 0
v -11 -5 0
v -11 -3 0
v -9 -3 0
v -10 -5 0
v -12 -5 0
v -12 -3 0
v -10 -3 0
v -11 -5 0
v -13 -5 0
v -13 -3 0
v -11 -3 0
v -12 -5 0
v -14 -5 0
v -14 -3 0
v -12 -3 0
v -13 -5 0
v -15 -5 0
v -15 -3 0
v -13 -3 0
v -14 -5 0
v -16 -5 0
v -16 -3 0
v -14 -3 0
v -15 -5 0
v -17 -5 0
v -17 -3 0
v -15 -3 0
v 0 -6 0
v -2 -6 0
v -2 -4 0
v 0 -4 0
v -1 -6 0
v -3 -6 0
v -3 -4 0
v -1 -4 0
v -2 -6 0
v -4 -6 0
v -4 -4 0
v -2 -4 0
v -3 -6 0
v -5 -6 0
v -5 -4 0
v -3 -4 0
v -4 -6 0
v -6 -6 0
v -6 -4 0
v -4 -4 0
v -5 -6 0
v -7 -6 0
v -7 -4 0
v -5 -4 0
v -6 -6 0
v -8 -6 0
v -8 -4 0
v -6 -4 0
v -7 -6 0
v -9 -6 0
v -9 -4 0
v -7 -4 0
v -8 -6 0
v -10 -6 0
v -10 -4 0
v -8 -4 0
v -9 -6 0
v -11 -6 0
v -11 -4 0
v -9 -4 0
v -10 -6 0
v -12 -6 0
v -12 -4 0
v -10 -4 0
v -11 -6 0
v -13 -6 0
v -13 -4 0
v -11 -4 0
v -12 -6 0
v -14 -6 0
v -14 -4 0
v -12 -4 0
v -13 -6 0
v -15 -6 0
v -15 -4 0
v -13 -4 0
v -14 -6 0
v -16 -6 0
v -16 -4 0
v -14 -4 0
v -15 -6 0
v -17 -6 0
v -17 -4 0
v -15 -4 0
v 0 -7 0
v -2 -7 0
v -2 -5 0
v 0 -5 0
v -1 -7 0
v -3 -7 0
v -3 -5 0
v -1 -5 0
v -2 -7 0
v -4 -7 0
v -4 -5 0
v -2 -5 0
v -3 -7 0
v -5 -7 0
v -5 -5 0
v -3 -5 0
v -4 -7 0
v -6 -7 0
v -6 -5 0
v -4 -5 0
v -5 -7 0
v -7 -7 0
v -7 -5 0
v -5 -5 0
v -6 -7 0
v -8 -7 0
v -8 -5 0
v -6 -5 0
v -7 -7 0
v -9 -7 0
v -9 -5 0
v -7 -5 0
v -8 -7 0
v -10 -7 0
v -10 -5 0
v -8 -5 0
v -9 -7 0
v -11 -7 0
v -11 -5 0
v -9 -5 0
v -10 -7 0
v -12 -7 0
v -12 -5 0
v -10 -5 0
v -11 -7 0
v -13 -7 0
v -13 -5 0
v -11 -5 0
v -12 -7 0
v -14 -7 0
v -14 -5 0
v -12 -5 0
v -13 -7 0
v -15 -7 0
v -15 -5 0
v -13 -5 0
v -14 -7 0
v -16 -7 0
v -16 -5 0
v -14 -5 0
v -15 -7 0
v -17 -7 0
v -17 -5 0
v -15 -5 0
v 0 -8 0
v -2 -8 0
v -2 -6 0
v 0 -6 0
v -1 -8 0
v -3 -8 0
v -3 -6 0
v -1 -6 0
v -2 -8 0
v -4 -8 0
v -4 -6 0
v -2 -6 0
v -3 -8 0
v -5 -8 0
v -5 -6 0
v -3 -6 0
v -4 -8 0
v -6 -8 0
v -6 -6 0
v -4 -6 0
v -5 -8 0
v -7 -8 0
v -7 -6 0
v -5 -6 0
v -6 -8 0
v -8 -8 0
v -8 -6 0
v -6 -6 0
v -7 -8 0
v -9 -8 0
v -9 -6 0
v -7 -6 0
v -8 -8 0
v -10 -8 0
v -10 -6 0
v -8 -6 0
v -9 -8 0
v -11 -8 0
v -11 -6 0
v -9 -6 0
v -10 -8 0
v -12 -8 0
v -12 -6 0
v -10 -6 0
v -11 -8 0
v -13 -8 0
v -13 -6 0
v -11 -6 0
v -12 -8 0
v -14 -8 0
v -14 -6 0
v -12 -6 0
v -13 -8 0
v -15 -8 0
v -15 -6 0
v -13 -6 0
v -14 -8 0
v -16 -8 0
v -16 -6 0
v -14 -6 0
v -15 -8 0
v -17 -8 0
v -17 -6 0
v -15 -6 0
v 0 -9 0
v -2 -9 0
v -2 -7 0
v 0 -7 0
v -1 -9 0
v -3 -9 0
v -3 -7 0
v -1 -7 0
v -2 -9 0
v -4 -9 0
v -4 -7 0
v -2 -7 0
v -3 -9 0
v -5 -9 0
v -5 -7 0
v -3 -7 0
v -4 -9 0
v -6 -9 0
v -6 -7 0
v -4 -7 0
v -5 -9 0
v -7 -9 0
v -7 -7 0
v -5 -7 0
v -6 -9 0
v -8 -9 0
v -8 -7 0
v -6 -7 0
v -7 -9 0
v -9 -9 0
v -9 -7 0
v -7 -7 0
v -8 -9 0
v -10 -9 0
v -10 -7 0
v -8 -7 0
v -9 -9 0
v -11 -9 0
v -11 -7 0
v -9 -7 0
v -10 -9 0
v -12 -9 0
v -12 -7 0
v -10 -7 0
v -11 -9 0
v -13 -9 0
v -13 -7 0
v -11 -7 0
v -12 -9 0
v -14 -9 0
v -14 -7 0
v -12 -7 0
v -13 -9 0
v -15 -9 0
v -15 -7 0
v -13 -7 0
v -14 -9 0
v -16 -9 0
v -16 -7 0
v -14 -7 0
v -15 -9 0
v -17 -9 0
v -17 -7 0
v -15 -7 0
v 0 -10 0
v -2 -10 0
v -2 -8 0
v 0 -8 0
v -1 -10 0
v -3 -10 0
v -3 -8 0
v -1 -8 0
v -2 -10 0
v -4 -10 0
v -4 -8 0
v -2 -8 0
v -3 -10 0
v -5 -10 0
v -5 -8 0
v -3 -8 0
v -4 -10 0
v -6 -10 0
v -6 -8 0
v -4 -8 0
v -5 -10 0
v -7 -10 0
v -7 -8 0
v -5 -8 0
v -6 -10 0
v -8 -10 0
v -8 -8 0
v -6 -8 0
v -7 -10 0
v -9 -10 0
v -9 -8 0
v -7 -8 0
v -8 -10 0
v -10 -10 0
v -10 -8 0
v -8 -8 0
v -9 -10 0
v -11 -10 0
v -11 -8 0
v -9 -8 0
v -10 -10 0
v -12 -10 0
v -12 -8 0
v -10 -8 0
v -11 -10 0
v -13 -10 0
v -13 -8 0
v -11 -8 0
v -12 -10 0
v -14 -10 0
v -14 -8 0
v -12 -8 0
v -13 -10 0
v -15 -10 0
v -15 -8 0
v -13 -8 0
v -14 -10 0
v -16 -10 0
v -16 -8 0
v -14 -8 0
v -15 -10 0
v -17 -10 0
v -17 -8 0
v -15 -8 0
v 0 -11 0
v -2 -11 0
v -2 -9 0
v 0 -9 0
v -1 -11 0
v -3 -11 0
v -3 -9 0
v -1 -9 0
v -2 -11 0
v -4 -11 0
v -4 -9 0
v -2 -9 0
v -3 -11 0
v -5 -11 0
v -5 -9 0
v -3 -9 0
v -4 -11 0
v -6 -11 0
v -6 -9 0
v -4 -9 0
v -5 -11 0
v -7 -11 0
v -7 -9 0
v -5 -9 0
v -6 -11 0
v -8 -11 0
v -8 -9 0
v -6 -9 0
v -7 -11 0
v -9 -11 0
v -9 -9 0
v -7 -9 0
v -8 -11 0
v -10 -11 0
v -10 -9 0
v -8 -9 0
v -9 -11 0
v -11 -11 0
v -11 -9 0
v -9 -9 0
v -10 -11 0
v -12 -11 0
v -12 -9 0
v -10 -9 0
v -11 -11 0
v -13 -11 0
v -13 -9 0
v -11 -9 0
v -12 -11 0
v -14 -11 0
v -14 -9 0
v -12 -9 0
v -13 -11 0
v -15 -11 0
v -15 -9 0
v -13 -9 0
v -14 -11 0
v -16 -11 0
v -16 -9 0
v -14 -9 0
v -15 -11 0
v -17 -11 0
v -17 -9 0
v -15 -9 0
v 0 -12 0
v -2 -12 0
v -2 -10 0
v 0 -10 0
v -1 -12 0
v -3 -12 0
v -3 -10 0
v -1 -10 0
v -2 -12 0
v -4 -12 0
v -4 -10 0
v -2 -10 0
v -3 -12 0
v -5 -12 0
v -5 -10 0
v -3 -10 0
v -4 -12 0
v -6 -12 0
v -6 -10 0
v -4 -10 0
v -5 -12 0
v -7 -12 0
v -7 -10 0
v -5 -10 0
v -6 -12 0
v -8 -12 0
v -8 -10 0
v -6 -10 0
v -7 -12 0
v -9 -12 0
v -9 -10 0
v -7 -10 0
v -8 -12 0
v -10 -12 0
v -10 -10 0
v -8 -10 0
v -9 -12 0
v -11 -12 0
v -11 -10 0
v -9 -10 0
v -10 -12 0
v -12 -12 0
v -12 -10 0
v -10 -10 0
v -11 -12 0
v -13 -12 0
v -13 -10 0
v -11 -10 0
v -12 -12 0
v -14 -12 0
v -14 -10 0
v -12 -10 0
v -13 -12 0
v -15 -12 0
v -15 -10 0
v -13 -10 0
v -14 -12 0
v -16 -12 0
v -16 -10 0
v -14 -10 0
v -15 -12 0
v -17 -12 0
v -17 -10 0
v -15 -10 0
v 0 -13 0
v -2 -13 0
v -2 -11 0
v 0 -11 0
v -1 -13 0
v -3 -13 0
v -3 -11 0
v -1 -11 0
v -2 -13 0
v -4 -13 0
v -4 -11 0
v -2 -11 0
v -3 -13 0
v -5 -13 0
v -5 -11 0
v -3 -11 0
v -4 -13 0
v -6 -13 0
v -6 -11 0
v -4 -11 0
v -5 -13 0
v -7 -13 0
v -7 -11 0
v -5 -11 0
v -6 -13 0
v -8 -13 0
v -8 -11 0
v -6 -11 0
v -7 -13 0
v -9 -13 0
v -9 -11 0
v -7 -11 0
v -8 -13 0
v -10 -13 0
v -10 -11 0
v -8 -11 0
v -9 -13 0
v -11 -13 0
v -11 -11 0
v -9 -11 0
v -10 -13 0
v -12 -13 0
v -12 -11 0
v -10 -11 0
v -11 -13 0
v -13 -13 0
v -13 -11 0
v -11 -11 0
v -12 -13 0
v -14 -13 0
v -14 -11 0
v -12 -11 0
v -13 -13 0
v -15 -13 0
v -15 -11 0
v -13 -11 0
v -14 -13 0
v -16 -13 0
v -16 -11 0
v -14 -11 0
v -15 -13 0
v -17 -13 0
v -17 -11 0
v -15 -11 0
v 0 -14 0
v -2 -14 0
v -2 -12 0
v 0 -12 0
v -1 -14 0
v -3 -14 0
v -3 -12 0
v -1 -12 0
v -2 -14 0
v -4 -14 0
v -4 -12 0
v -2 -12 0
v -3 -14 0
v -5 -14 0
v -5 -12 0
v -3 -12 0
v -4 -14 0
v -6 -14 0
v -6 -12 0
v -4 -12 0
v -5 -14 0
v -7 -14 0
v -7 -12 0
v -5 -12 0
v -6 -14 0
v -8 -14 0
v -8 -12 0
v -6 -12 0
v -7 -14 0
v -9 -14 0
v -9 -12 0
v -7 -12 0
v -8 -14 0
v -10 -14 0
v -10 -12 0
v -8 -12 0
v -9 -14 0
v -11 -14 0
v -11 -12 0
v -9 -12 0
v -10 -14 0
v -12 -14 0
v -12 -12 0
v -10 -12 0
v -11 -14 0
v -13 -14 0
v -13 -12 0
v -11 -12 0
v -12 -14 0
v -14 -14 0
v -14 -12 0
v -12 -12 0
v -13 -14 0
v -15 -14 0
v -15 -12 0
v -13 -12 0
v -14 -14 0
v -16 -14 0
v -16 -12 0
v -14 -12 0
v -15 -14 0
v -17 -14 0
v -17 -12 0
v -15 -12 0
v 0 -15 0
v -2 -15 0
v -2 -13 0
v 0 -13 0
v -1 -15 0
v -3 -15 0
v -3 -13 0
v -1 -13 0
v -2 -15 0
v -4 -15 0
v -4 -13 0
v -2 -13 0
v -3 -15 0
v -5 -15 0
v -5 -13 0
v -3 -13 0
v -4 -15 0
v -6 -15 0
v -6 -13 0
v -4 -13 0
v -5 -15 0
v -7 -15 0
v -7 -13 0
v -5 -13 0
v -6 -15 0
v -8 -15 0
v -8 -13 0
v -6 -13 0
v -7 -15 0
v -9 -15 0
v -9 -13 0
v -7 -13 0
v -8 -15 0
v -10 -15 0
v -10 -13 0
v -8 -13 0
v -9 -15 0
v -11 -15 0
v -11 -13 0
v -9 -13 0
v -10 -15 0
v -12 -15 0
v -12 -13 0
v -10 -13 0
v -11 -15 0
v -13 -15 0
v -13 -13 0
v -11 -13 0
v -12 -15 0
v -14 -15 0
v -14 -13 0
v -12 -13 0
v -13 -15 0
v -15 -15 0
v -15 -13 0
v -13 -13 0
v -14 -15 0
v -16 -15 0
v -16 -13 0
v -14 -13 0
v -15 -15 0
v -17 -15 0
v -17 -13 0
v -15 -13 0
v 0 -16 0
v -2 -16 0
v -2 -14 0
v 0 -14 0
v -1 -16 0
v -3 -16 0
v -3 -14 0
v -1 -14 0
v -2 -16 0
v -4 -16 0
v -4 -14 0
v -2 -14 0
v -3 -16 0
v -5 -16 0
v -5 -14 0
v -3 -14 0
v -4 -16 0
v -6 -16 0
v -6 -14 0
v -4 -14 0
v -5 -16 0
v -7 -16 0
v -7 -14 0
v -5 -14 0
v -6 -16 0
v -8 -16 0
v -8 -14 0
v -6 -14 0
v -7 -16 0
v -9 -16 0
v -9 -14 0
v -7 -14 0
v -8 -16 0
v -10 -16 0
v -10 -14 0
v -8 -14 0
v -9 -16 0
v -11 -16 0
v -11 -14 0
v -9 -14 0
v -10 -16 0
v -12 -16 0
v -12 -14 0
v -10 -14 0
v -11 -16 0
v -13 -16 0
v -13 -14 0
v -11 -14 0
v -12 -16 0
v -14 -16 0
v -14 -14 0
v -12 -14 0
v -13 -16 0
v -15 -16 0
v -15 -14 0
v -13 -14 0
v -14 -16 0
v -16 -16 0
v -16 -14 0
v -14 -14 0
v -15 -16 0
v -17 -16 0
v -17 -14 0
v -15 -14 0

# Texture cooridinates (Count = 12)
vt 0.125 0.75
vt 0.25 0.75
vt 0.25 0.875
vt 0.125 0.875
vt 0.125 0.5
vt 0.25 0.5
vt 0.25 0.625
vt 0.125 0.625
vt 0 0.5
vt 0 0.625
vt 0.25 1
vt 0.125 1

# Normal
vn 0 0 -1

# Mesh description
g arty_mesh_0020

# Faces
f 1/1/1 2/2/1 3/3/1 4/4/1
f 5/1/1 6/2/1 7/3/1 8/4/1
f 9/5/1 10/6/1 11/7/1 12/8/1
f 13/5/1 14/6/1 15/7/1 16/8/1
f 17/9/1 18/5/1 19/8/1 20/10/1
f 21/5/1 22/6/1 23/7/1 24/8/1
f 25/4/1 26/3/1 27/11/1 28/12/1
f 29/1/1 30/2/1 31/3/1 32/4/1
f 33/9/1 34/5/1 35/8/1 36/10/1
f 37/1/1 38/2/1 39/3/1 40/4/1
f 41/5/1 42/6/1 43/7/1 44/8/1
f 45/9/1 46/5/1 47/8/1 48/10/1
f 49/5/1 50/6/1 51/7/1 52/8/1
f 53/4/1 54/3/1 55/11/1 56/12/1
f 57/4/1 58/3/1 59/11/1 60/12/1
f 61/9/1 62/5/1 63/8/1 64/10/1
f 65/9/1 66/5/1 67/8/1 68/10/1
f 69/1/1 70/2/1 71/3/1 72/4/1
f 73/9/1 74/5/1 75/8/1 76/10/1
f 77/5/1 78/6/1 79/7/1 80/8/1
f 81/4/1 82/3/1 83/11/1 84/12/1
f 85/1/1 86/2/1 87/3/1 88/4/1
f 89/5/1 90/6/1 91/7/1 92/8/1
f 93/9/1 94/5/1 95/8/1 96/10/1
f 97/9/1 98/5/1 99/8/1 100/10/1
f 101/1/1 102/2/1 103/3/1 104/4/1
f 105/9/1 106/5/1 107/8/1 108/10/1
f 109/9/1 110/5/1 111/8/1 112/10/1
f 113/1/1 114/2/1 115/3/1 116/4/1
f 117/5/1 118/6/1 119/7/1 120/8/1
f 121/1/1 122/2/1 123/3/1 124/4/1
f 125/9/1 126/5/1 127/8/1 128/10/1
f 129/9/1 130/5/1 131/8/1 132/10/1
f 133/9/1 134/5/1 135/8/1 136/10/1
f 137/5/1 138/6/1 139/7/1 140/8/1
f 141/4/1 142/3/1 143/11/1 144/12/1
f 145/1/1 146/2/1 147/3/1 148/4/1
f 149/9/1 150/5/1 151/8/1 152/10/1
f 153/1/1 154/2/1 155/3/1 156/4/1
f 157/9/1 158/5/1 159/8/1 160/10/1
f 161/4/1 162/3/1 163/11/1 164/12/1
f 165/5/1 166/6/1 167/7/1 168/8/1
f 169/5/1 170/6/1 171/7/1 172/8/1
f 173/4/1 174/3/1 175/11/1 176/12/1
f 177/1/1 178/2/1 179/3/1 180/4/1
f 181/4/1 182/3/1 183/11/1 184/12/1
f 185/9/1 186/5/1 187/8/1 188/10/1
f 189/1/1 190/2/1 191/3/1 192/4/1
f 193/9/1 194/5/1 195/8/1 196/10/1
f 197/5/1 198/6/1 199/7/1 200/8/1
f 201/4/1 202/3/1 203/11/1 204/12/1
f 205/4/1 206/3/1 207/11/1 208/12/1
f 209/5/1 210/6/1 211/7/1 212/8/1
f 213/9/1 214/5/1 215/8/1 216/10/1
f 217/4/1 218/3/1 219/11/1 220/12/1
f 221/4/1 222/3/1 223/11/1 224/12/1
f 225/4/1 226/3/1 227/11/1 228/12/1
f 229/4/1 230/3/1 231/11/1 232/12/1
f 233/1/1 234/2/1 235/3/1 236/4/1
f 237/4/1 238/3/1 239/11/1 240/12/1
f 241/9/1 242/5/1 243/8/1 244/10/1
f 245/1/1 246/2/1 247/3/1 248/4/1
f 249/9/1 250/5/1 251/8/1 252/10/1
f 253/4/1 254/3/1 255/11/1 256/12/1
f 257/1/1 258/2/1 259/3/1 260/4/1
f 261/1/1 262/2/1 263/3/1 264/4/1
f 265/1/1 266/2/1 267/3/1 268/4/1
f 269/9/1 270/5/1 271/8/1 272/10/1
f 273/9/1 274/5/1 275/8/1 276/10/1
f 277/9/1 278/5/1 279/8/1 280/10/1
f 281/4/1 282/3/1 283/11/1 284/12/1
f 285/5/1 286/6/1 287/7/1 288/8/1
f 289/4/1 290/3/1 291/11/1 292/12/1
f 293/1/1 294/2/1 295/3/1 296/4/1
f 297/9/1 298/5/1 299/8/1 300/10/1
f 301/5/1 302/6/1 303/7/1 304/8/1
f 305/9/1 306/5/1 307/8/1 308/10/1
f 309/1/1 310/2/1 311/3/1 312/4/1
f 313/4/1 314/3/1 315/11/1 316/12/1
f 317/1/1 318/2/1 319/3/1 320/4/1
f 321/5/1 322/6/1 323/7/1 324/8/1
f 325/9/1 326/5/1 327/8/1 328/10/1
f 329/1/1 330/2/1 331/3/1 332/4/1
f 333/9/1 334/5/1 335/8/1 336/10/1
f 337/1/1 338/2/1 339/3/1 340/4/1
f 341/1/1 342/2/1 343/3/1 344/4/1
f 345/4/1 346/3/1 347/11/1 348/12/1
f 349/4/1 350/3/1 351/11/1 352/12/1
f 353/1/1 354/2/1 355/3/1 356/4/1
f 357/5/1 358/6/1 359/7/1 360/8/1
f 361/9/1 362/5/1 363/8/1 364/10/1
f 365/5/1 366/6/1 367/7/1 368/8/1
f 369/1/1 370/2/1 371/3/1 372/4/1
f 373/1/1 374/2/1 375/3/1 376/4/1
f 377/1/1 378/2/1 379/3/1 380/4/1
f 381/5/1 382/6/1 383/7/1 384/8/1
f 385/9/1 386/5/1 387/8/1 388/10/1
f 389/9/1 390/5/1 391/8/1 392/10/1
f 393/5/1 394/6/1 395/7/1 396/8/1
f 397/9/1 398/5/1 399/8/1 400/10/1
f 401/5/1 402/6/1 403/7/1 404/8/1
f 405/9/1 406/5/1 407/8/1 408/10/1
f 409/5/1 410/6/1 411/7/1 412/8/1
f 413/9/1 414/5/1 415/8/1 416/10/1
f 417/9/1 418/5/1 419/8/1 420/10/1
f 421/9/1 422/5/1 423/8/1 424/10/1
f 425/9/1 426/5/1 427/8/1 428/10/1
f 429/4/1 430/3/1 431/11/1 432/12/1
f 433/1/1 434/2/1 435/3/1 436/4/1
f 437/1/1 438/2/1 439/3/1 440/4/1
f 441/5/1 442/6/1 443/7/1 444/8/1
f 445/9/1 446/5/1 447/8/1 448/10/1
f 449/4/1 450/3/1 451/11/1 452/12/1
f 453/9/1 454/5/1 455/8/1 456/10/1
f 457/9/1 458/5/1 459/8/1 460/10/1
f 461/9/1 462/5/1 463/8/1 464/10/1
f 465/5/1 466/6/1 467/7/1 468/8/1
f 469/1/1 470/2/1 471/3/1 472/4/1
f 473/1/1 474/2/1 475/3/1 476/4/1
f 477/5/1 478/6/1 479/7/1 480/8/1
f 481/1/1 482/2/1 483/3/1 484/4/1
f 485/4/1 486/3/1 487/11/1 488/12/1
f 489/4/1 490/3/1 491/11/1 492/12/1
f 493/5/1 494/6/1 495/7/1 496/8/1
f 497/1/1 498/2/1 499/3/1 500/4/1
f 501/9/1 502/5/1 503/8/1 504/10/1
f 505/4/1 506/3/1 507/11/1 508/12/1
f 509/9/1 510/5/1 511/8/1 512/10/1
f 513/1/1 514/2/1 515/3/1 516/4/1
f 517/9/1 518/5/1 519/8/1 520/10/1
f 521/4/1 522/3/1 523/11/1 524/12/1
f 525/4/1 526/3/1 527/11/1 528/12/1
f 529/9/1 530/5/1 531/8/1 532/10/1
f 533/5/1 534/6/1 535/7/1 536/8/1
f 537/1/1 538/2/1 539/3/1 540/4/1
f 541/9/1 542/5/1 543/8/1 544/10/1
f 545/1/1 546/2/1 547/3/1 548/4/1
f 549/5/1 550/6/1 551/7/1 552/8/1
f 553/4/1 554/3/1 555/11/1 556/12/1
f 557/9/1 558/5/1 559/8/1 560/10/1
f 561/1/1 562/2/1 563/3/1 564/4/1
f 565/4/1 566/3/1 567/11/1 568/12/1
f 569/5/1 570/6/1 571/7/1 572/8/1
f 573/4/1 574/3/1 575/11/1 576/12/1
f 577/1/1 578/2/1 579/3/1 580/4/1
f 581/4/1 582/3/1 583/11/1 584/12/1
f 585/1/1 586/2/1 587/3/1 588/4/1
f 589/4/1 590/3/1 591/11/1 592/12/1
f 593/5/1 594/6/1 595/7/1 596/8/1
f 597/5/1 598/6/1 599/7/1 600/8/1
f 601/5/1 602/6/1 603/7/1 604/8/1
f 605/1/1 606/2/1 607/3/1 608/4/1
f 609/5/1 610/6/1 611/7/1 612/8/1
f 613/5/1 614/6/1 615/7/1 616/8/1
f 617/1/1 618/2/1 619/3/1 620/4/1
f 621/9/1 622/5/1 623/8/1 624/10/1
f 625/1/1 626/2/1 627/3/1 628/4/1
f 629/9/1 630/5/1 631/8/1 632/10/1
f 633/1/1 634/2/1 635/3/1 636/4/1
f 637/5/1 638/6/1 639/7/1 640/8/1
f 641/9/1 642/5/1 643/8/1 644/10/1
f 645/5/1 646/6/1 647/7/1 648/8/1
f 649/9/1 650/5/1 651/8/1 652/10/1
f 653/1/1 654/2/1 655/3/1 656/4/1
f 657/9/1 658/5/1 659/8/1 660/10/1
f 661/5/1 662/6/1 663/7/1 664/8/1
f 665/1/1 666/2/1 667/3/1 668/4/1
f 669/5/1 670/6/1 671/7/1 672/8/1
f 673/5/1 674/6/1 675/7/1 676/8/1
f 677/9/1 678/5/1 679/8/1 680/10/1
f 681/4/1 682/3/1 683/11/1 684/12/1
f 685/4/1 686/3/1 687/11/1 688/12/1
f 689/5/1 690/6/1 691/7/1 692/8/1
f 693/5/1 694/6/1 695/7/1 696/8/1
f 697/4/1 698/3/1 699/11/1 700/12/1
f 701/5/1 702/6/1 703/7/1 704/8/1
f 705/1/1 706/2/1 707/3/1 708/4/1
f 709/9/1 710/5/1 711/8/1 712/10/1
f 713/5/1 714/6/1 715/7/1 716/8/1
f 717/5/1 718/6/1 719/7/1 720/8/1
f 721/1/1 722/2/1 723/3/1 724/4/1
f 725/5/1 726/6/1 727/7/1 728/8/1
f 729/9/1 730/5/1 731/8/1 732/10/1
f 733/4/1 734/3/1 735/11/1 736/12/1
f 737/9/1 738/5/1 739/8/1 740/10/1
f 741/9/1 742/5/1 743/8/1 744/10/1
f 745/9/1 746/5/1 747/8/1 748/10/1
f 749/4/1 750/3/1 751/11/1 752/12/1
f 753/9/1 754/5/1 755/8/1 756/10/1
f 757/1/1 758/2/1 759/3/1 760/4/1
f 761/4/1 762/3/1 763/11/1 764/12/1
f 765/5/1 766/6/1 767/7/1 768/8/1
f 769/9/1 770/5/1 771/8/1 772/10/1
f 773/1/1 774/2/1 775/3/1 776/4/1
f 777/4/1 778/3/1 779/11/1 780/12/1
f 781/9/1 782/5/1 783/8/1 784/10/1
f 785/9/1 786/5/1 787/8/1 788/10/1
f 789/5/1 790/6/1 791/7/1 792/8/1
f 793/1/1 794/2/1 795/3/1 796/4/1
f 797/9/1 798/5/1 799/8/1 800/10/1
f 801/4/1 802/3/1 803/11/1 804/12/1
f 805/5/1 806/6/1 807/7/1 808/8/1
f 809/9/1 810/5/1 811/8/1 812/10/1
f 813/5/1 814/6/1 815/7/1 816/8/1
f 817/9/1 818/5/1 819/8/1 820/10/1
f 821/4/1 822/3/1 823/11/1 824/12/1
f 825/4/1 826/3/1 827/11/1 828/12/1
f 829/1/1 830/2/1 831/3/1 832/4/1
f 833/1/1 834/2/1 835/3/1 836/4/1
f 837/9/1 838/5/1 839/8/1 840/10/1
f 841/5/1 842/6/1 843/7/1 844/8/1
f 845/4/1 846/3/1 847/11/1 848/12/1
f 849/9/1 850/5/1 851/8/1 852/10/1
f 853/9/1 854/5/1 855/8/1 856/10/1
f 857/5/1 858/6/1 859/7/1 860/8/1
f 861/5/1 862/6/1 863/7/1 864/8/1
f 865/5/1 866/6/1 867/7/1 868/8/1
f 869/9/1 870/5/1 871/8/1 872/10/1
f 873/4/1 874/3/1 875/11/1 876/12/1
f 877/5/1 878/6/1 879/7/1 880/8/1
f 881/9/1 882/5/1 883/8/1 884/10/1
f 885/4/1 886/3/1 887/11/1 888/12/1
f 889/1/1 890/2/1 891/3/1 892/4/1
f 893/1/1 894/2/1 895/3/1 896/4/1
f 897/5/1 898/6/1 899/7/1 900/8/1
f 901/9/1 902/5/1 903/8/1 904/10/1
f 905/5/1 906/6/1 907/7/1 908/8/1
f 909/4/1 910/3/1 911/11/1 912/12/1
f 913/4/1 914/3/1 915/11/1 916/12/1
f 917/4/1 918/3/1 919/11/1 920/12/1
f 921/9/1 922/5/1 923/8/1 924/10/1
f 925/4/1 926/3/1 927/11/1 928/12/1
f 929/5/1 930/6/1 931/7/1 932/8/1
f 933/9/1 934/5/1 935/8/1 936/10/1
f 937/4/1 938/3/1 939/11/1 940/12/1
f 941/5/1 942/6/1 943/7/1 944/8/1
f 945/5/1 946/6/1 947/7/1 948/8/1
f 949/9/1 950/5/1 951/8/1 952/10/1
f 953/9/1 954/5/1 955/8/1 956/10/1
f 957/5/1 958/6/1 959/7/1 960/8/1
f 961/4/1 962/3/1 963/11/1 964/12/1
f 965/5/1 966/6/1 967/7/1 968/8/1
f 969/9/1 970/5/1 971/8/1 972/10/1
f 973/5/1 974/6/1 975/7/1 976/8/1
f 977/4/1 978/3/1 979/11/1 980/12/1
f 981/9/1 982/5/1 983/8/1 984/10/1
f 985/1/1 986/2/1 987/3/1 988/4/1
f 989/5/1 990/6/1 991/7/1 992/8/1
f 993/9/1 994/5/1 995/8/1 996/10/1
f 997/1/1 998/2/1 999/3/1 1000/4/1
f 1001/5/1 1002/6/1 1003/7/1 1004/8/1
f 1005/4/1 1006/3/1 1007/11/1 1008/12/1
f 1009/5/1 1010/6/1 1011/7/1 1012/8/1
f 1013/4/1 1014/3/1 1015/11/1 1016/12/1
f 1017/1/1 1018/2/1 1019/3/1 1020/4/1
f 1021/9/1 1022/5/1 1023/8/1 1024/10/1

