# Tiled2Unity generated file. Do not modify by hand.
# Wavefront file for 'testmap1_mesh_0668.obj'

# Vertices (Count = 1024)
v 0 -1 0
v -1 -1 0
v -1 0 0
v 0 0 0
v -1 -1 0
v -2 -1 0
v -2 0 0
v -1 0 0
v -2 -1 0
v -3 -1 0
v -3 0 0
v -2 0 0
v -3 -1 0
v -4 -1 0
v -4 0 0
v -3 0 0
v -4 -1 0
v -5 -1 0
v -5 0 0
v -4 0 0
v -5 -1 0
v -6 -1 0
v -6 0 0
v -5 0 0
v -6 -1 0
v -7 -1 0
v -7 0 0
v -6 0 0
v -7 -1 0
v -8 -1 0
v -8 0 0
v -7 0 0
v -8 -1 0
v -9 -1 0
v -9 0 0
v -8 0 0
v -9 -1 0
v -10 -1 0
v -10 0 0
v -9 0 0
v -10 -1 0
v -11 -1 0
v -11 0 0
v -10 0 0
v -11 -1 0
v -12 -1 0
v -12 0 0
v -11 0 0
v -12 -1 0
v -13 -1 0
v -13 0 0
v -12 0 0
v -13 -1 0
v -14 -1 0
v -14 0 0
v -13 0 0
v -14 -1 0
v -15 -1 0
v -15 0 0
v -14 0 0
v -15 -1 0
v -16 -1 0
v -16 0 0
v -15 0 0
v 0 -2 0
v -1 -2 0
v -1 -1 0
v 0 -1 0
v -1 -2 0
v -2 -2 0
v -2 -1 0
v -1 -1 0
v -2 -2 0
v -3 -2 0
v -3 -1 0
v -2 -1 0
v -3 -2 0
v -4 -2 0
v -4 -1 0
v -3 -1 0
v -4 -2 0
v -5 -2 0
v -5 -1 0
v -4 -1 0
v -5 -2 0
v -6 -2 0
v -6 -1 0
v -5 -1 0
v -6 -2 0
v -7 -2 0
v -7 -1 0
v -6 -1 0
v -7 -2 0
v -8 -2 0
v -8 -1 0
v -7 -1 0
v -8 -2 0
v -9 -2 0
v -9 -1 0
v -8 -1 0
v -9 -2 0
v -10 -2 0
v -10 -1 0
v -9 -1 0
v -10 -2 0
v -11 -2 0
v -11 -1 0
v -10 -1 0
v -11 -2 0
v -12 -2 0
v -12 -1 0
v -11 -1 0
v -12 -2 0
v -13 -2 0
v -13 -1 0
v -12 -1 0
v -13 -2 0
v -14 -2 0
v -14 -1 0
v -13 -1 0
v -14 -2 0
v -15 -2 0
v -15 -1 0
v -14 -1 0
v -15 -2 0
v -16 -2 0
v -16 -1 0
v -15 -1 0
v 0 -3 0
v -1 -3 0
v -1 -2 0
v 0 -2 0
v -1 -3 0
v -2 -3 0
v -2 -2 0
v -1 -2 0
v -2 -3 0
v -3 -3 0
v -3 -2 0
v -2 -2 0
v -3 -3 0
v -4 -3 0
v -4 -2 0
v -3 -2 0
v -4 -3 0
v -5 -3 0
v -5 -2 0
v -4 -2 0
v -5 -3 0
v -6 -3 0
v -6 -2 0
v -5 -2 0
v -6 -3 0
v -7 -3 0
v -7 -2 0
v -6 -2 0
v -7 -3 0
v -8 -3 0
v -8 -2 0
v -7 -2 0
v -8 -3 0
v -9 -3 0
v -9 -2 0
v -8 -2 0
v -9 -3 0
v -10 -3 0
v -10 -2 0
v -9 -2 0
v -10 -3 0
v -11 -3 0
v -11 -2 0
v -10 -2 0
v -11 -3 0
v -12 -3 0
v -12 -2 0
v -11 -2 0
v -12 -3 0
v -13 -3 0
v -13 -2 0
v -12 -2 0
v -13 -3 0
v -14 -3 0
v -14 -2 0
v -13 -2 0
v -14 -3 0
v -15 -3 0
v -15 -2 0
v -14 -2 0
v -15 -3 0
v -16 -3 0
v -16 -2 0
v -15 -2 0
v 0 -4 0
v -1 -4 0
v -1 -3 0
v 0 -3 0
v -1 -4 0
v -2 -4 0
v -2 -3 0
v -1 -3 0
v -2 -4 0
v -3 -4 0
v -3 -3 0
v -2 -3 0
v -3 -4 0
v -4 -4 0
v -4 -3 0
v -3 -3 0
v -4 -4 0
v -5 -4 0
v -5 -3 0
v -4 -3 0
v -5 -4 0
v -6 -4 0
v -6 -3 0
v -5 -3 0
v -6 -4 0
v -7 -4 0
v -7 -3 0
v -6 -3 0
v -7 -4 0
v -8 -4 0
v -8 -3 0
v -7 -3 0
v -8 -4 0
v -9 -4 0
v -9 -3 0
v -8 -3 0
v -9 -4 0
v -10 -4 0
v -10 -3 0
v -9 -3 0
v -10 -4 0
v -11 -4 0
v -11 -3 0
v -10 -3 0
v -11 -4 0
v -12 -4 0
v -12 -3 0
v -11 -3 0
v -12 -4 0
v -13 -4 0
v -13 -3 0
v -12 -3 0
v -13 -4 0
v -14 -4 0
v -14 -3 0
v -13 -3 0
v -14 -4 0
v -15 -4 0
v -15 -3 0
v -14 -3 0
v -15 -4 0
v -16 -4 0
v -16 -3 0
v -15 -3 0
v 0 -5 0
v -1 -5 0
v -1 -4 0
v 0 -4 0
v -1 -5 0
v -2 -5 0
v -2 -4 0
v -1 -4 0
v -2 -5 0
v -3 -5 0
v -3 -4 0
v -2 -4 0
v -3 -5 0
v -4 -5 0
v -4 -4 0
v -3 -4 0
v -4 -5 0
v -5 -5 0
v -5 -4 0
v -4 -4 0
v -5 -5 0
v -6 -5 0
v -6 -4 0
v -5 -4 0
v -6 -5 0
v -7 -5 0
v -7 -4 0
v -6 -4 0
v -7 -5 0
v -8 -5 0
v -8 -4 0
v -7 -4 0
v -8 -5 0
v -9 -5 0
v -9 -4 0
v -8 -4 0
v -9 -5 0
v -10 -5 0
v -10 -4 0
v -9 -4 0
v -10 -5 0
v -11 -5 0
v -11 -4 0
v -10 -4 0
v -11 -5 0
v -12 -5 0
v -12 -4 0
v -11 -4 0
v -12 -5 0
v -13 -5 0
v -13 -4 0
v -12 -4 0
v -13 -5 0
v -14 -5 0
v -14 -4 0
v -13 -4 0
v -14 -5 0
v -15 -5 0
v -15 -4 0
v -14 -4 0
v -15 -5 0
v -16 -5 0
v -16 -4 0
v -15 -4 0
v 0 -6 0
v -1 -6 0
v -1 -5 0
v 0 -5 0
v -1 -6 0
v -2 -6 0
v -2 -5 0
v -1 -5 0
v -2 -6 0
v -3 -6 0
v -3 -5 0
v -2 -5 0
v -3 -6 0
v -4 -6 0
v -4 -5 0
v -3 -5 0
v -4 -6 0
v -5 -6 0
v -5 -5 0
v -4 -5 0
v -5 -6 0
v -6 -6 0
v -6 -5 0
v -5 -5 0
v -6 -6 0
v -7 -6 0
v -7 -5 0
v -6 -5 0
v -7 -6 0
v -8 -6 0
v -8 -5 0
v -7 -5 0
v -8 -6 0
v -9 -6 0
v -9 -5 0
v -8 -5 0
v -9 -6 0
v -10 -6 0
v -10 -5 0
v -9 -5 0
v -10 -6 0
v -11 -6 0
v -11 -5 0
v -10 -5 0
v -11 -6 0
v -12 -6 0
v -12 -5 0
v -11 -5 0
v -12 -6 0
v -13 -6 0
v -13 -5 0
v -12 -5 0
v -13 -6 0
v -14 -6 0
v -14 -5 0
v -13 -5 0
v -14 -6 0
v -15 -6 0
v -15 -5 0
v -14 -5 0
v -15 -6 0
v -16 -6 0
v -16 -5 0
v -15 -5 0
v 0 -7 0
v -1 -7 0
v -1 -6 0
v 0 -6 0
v -1 -7 0
v -2 -7 0
v -2 -6 0
v -1 -6 0
v -2 -7 0
v -3 -7 0
v -3 -6 0
v -2 -6 0
v -3 -7 0
v -4 -7 0
v -4 -6 0
v -3 -6 0
v -4 -7 0
v -5 -7 0
v -5 -6 0
v -4 -6 0
v -5 -7 0
v -6 -7 0
v -6 -6 0
v -5 -6 0
v -6 -7 0
v -7 -7 0
v -7 -6 0
v -6 -6 0
v -7 -7 0
v -8 -7 0
v -8 -6 0
v -7 -6 0
v -8 -7 0
v -9 -7 0
v -9 -6 0
v -8 -6 0
v -9 -7 0
v -10 -7 0
v -10 -6 0
v -9 -6 0
v -10 -7 0
v -11 -7 0
v -11 -6 0
v -10 -6 0
v -11 -7 0
v -12 -7 0
v -12 -6 0
v -11 -6 0
v -12 -7 0
v -13 -7 0
v -13 -6 0
v -12 -6 0
v -13 -7 0
v -14 -7 0
v -14 -6 0
v -13 -6 0
v -14 -7 0
v -15 -7 0
v -15 -6 0
v -14 -6 0
v -15 -7 0
v -16 -7 0
v -16 -6 0
v -15 -6 0
v 0 -8 0
v -1 -8 0
v -1 -7 0
v 0 -7 0
v -1 -8 0
v -2 -8 0
v -2 -7 0
v -1 -7 0
v -2 -8 0
v -3 -8 0
v -3 -7 0
v -2 -7 0
v -3 -8 0
v -4 -8 0
v -4 -7 0
v -3 -7 0
v -4 -8 0
v -5 -8 0
v -5 -7 0
v -4 -7 0
v -5 -8 0
v -6 -8 0
v -6 -7 0
v -5 -7 0
v -6 -8 0
v -7 -8 0
v -7 -7 0
v -6 -7 0
v -7 -8 0
v -8 -8 0
v -8 -7 0
v -7 -7 0
v -8 -8 0
v -9 -8 0
v -9 -7 0
v -8 -7 0
v -9 -8 0
v -10 -8 0
v -10 -7 0
v -9 -7 0
v -10 -8 0
v -11 -8 0
v -11 -7 0
v -10 -7 0
v -11 -8 0
v -12 -8 0
v -12 -7 0
v -11 -7 0
v -12 -8 0
v -13 -8 0
v -13 -7 0
v -12 -7 0
v -13 -8 0
v -14 -8 0
v -14 -7 0
v -13 -7 0
v -14 -8 0
v -15 -8 0
v -15 -7 0
v -14 -7 0
v -15 -8 0
v -16 -8 0
v -16 -7 0
v -15 -7 0
v 0 -9 0
v -1 -9 0
v -1 -8 0
v 0 -8 0
v -1 -9 0
v -2 -9 0
v -2 -8 0
v -1 -8 0
v -2 -9 0
v -3 -9 0
v -3 -8 0
v -2 -8 0
v -3 -9 0
v -4 -9 0
v -4 -8 0
v -3 -8 0
v -4 -9 0
v -5 -9 0
v -5 -8 0
v -4 -8 0
v -5 -9 0
v -6 -9 0
v -6 -8 0
v -5 -8 0
v -6 -9 0
v -7 -9 0
v -7 -8 0
v -6 -8 0
v -7 -9 0
v -8 -9 0
v -8 -8 0
v -7 -8 0
v -8 -9 0
v -9 -9 0
v -9 -8 0
v -8 -8 0
v -9 -9 0
v -10 -9 0
v -10 -8 0
v -9 -8 0
v -10 -9 0
v -11 -9 0
v -11 -8 0
v -10 -8 0
v -11 -9 0
v -12 -9 0
v -12 -8 0
v -11 -8 0
v -12 -9 0
v -13 -9 0
v -13 -8 0
v -12 -8 0
v -13 -9 0
v -14 -9 0
v -14 -8 0
v -13 -8 0
v -14 -9 0
v -15 -9 0
v -15 -8 0
v -14 -8 0
v -15 -9 0
v -16 -9 0
v -16 -8 0
v -15 -8 0
v 0 -10 0
v -1 -10 0
v -1 -9 0
v 0 -9 0
v -1 -10 0
v -2 -10 0
v -2 -9 0
v -1 -9 0
v -2 -10 0
v -3 -10 0
v -3 -9 0
v -2 -9 0
v -3 -10 0
v -4 -10 0
v -4 -9 0
v -3 -9 0
v -4 -10 0
v -5 -10 0
v -5 -9 0
v -4 -9 0
v -5 -10 0
v -6 -10 0
v -6 -9 0
v -5 -9 0
v -6 -10 0
v -7 -10 0
v -7 -9 0
v -6 -9 0
v -7 -10 0
v -8 -10 0
v -8 -9 0
v -7 -9 0
v -8 -10 0
v -9 -10 0
v -9 -9 0
v -8 -9 0
v -9 -10 0
v -10 -10 0
v -10 -9 0
v -9 -9 0
v -10 -10 0
v -11 -10 0
v -11 -9 0
v -10 -9 0
v -11 -10 0
v -12 -10 0
v -12 -9 0
v -11 -9 0
v -12 -10 0
v -13 -10 0
v -13 -9 0
v -12 -9 0
v -13 -10 0
v -14 -10 0
v -14 -9 0
v -13 -9 0
v -14 -10 0
v -15 -10 0
v -15 -9 0
v -14 -9 0
v -15 -10 0
v -16 -10 0
v -16 -9 0
v -15 -9 0
v 0 -11 0
v -1 -11 0
v -1 -10 0
v 0 -10 0
v -1 -11 0
v -2 -11 0
v -2 -10 0
v -1 -10 0
v -2 -11 0
v -3 -11 0
v -3 -10 0
v -2 -10 0
v -3 -11 0
v -4 -11 0
v -4 -10 0
v -3 -10 0
v -4 -11 0
v -5 -11 0
v -5 -10 0
v -4 -10 0
v -5 -11 0
v -6 -11 0
v -6 -10 0
v -5 -10 0
v -6 -11 0
v -7 -11 0
v -7 -10 0
v -6 -10 0
v -7 -11 0
v -8 -11 0
v -8 -10 0
v -7 -10 0
v -8 -11 0
v -9 -11 0
v -9 -10 0
v -8 -10 0
v -9 -11 0
v -10 -11 0
v -10 -10 0
v -9 -10 0
v -10 -11 0
v -11 -11 0
v -11 -10 0
v -10 -10 0
v -11 -11 0
v -12 -11 0
v -12 -10 0
v -11 -10 0
v -12 -11 0
v -13 -11 0
v -13 -10 0
v -12 -10 0
v -13 -11 0
v -14 -11 0
v -14 -10 0
v -13 -10 0
v -14 -11 0
v -15 -11 0
v -15 -10 0
v -14 -10 0
v -15 -11 0
v -16 -11 0
v -16 -10 0
v -15 -10 0
v 0 -12 0
v -1 -12 0
v -1 -11 0
v 0 -11 0
v -1 -12 0
v -2 -12 0
v -2 -11 0
v -1 -11 0
v -2 -12 0
v -3 -12 0
v -3 -11 0
v -2 -11 0
v -3 -12 0
v -4 -12 0
v -4 -11 0
v -3 -11 0
v -4 -12 0
v -5 -12 0
v -5 -11 0
v -4 -11 0
v -5 -12 0
v -6 -12 0
v -6 -11 0
v -5 -11 0
v -6 -12 0
v -7 -12 0
v -7 -11 0
v -6 -11 0
v -7 -12 0
v -8 -12 0
v -8 -11 0
v -7 -11 0
v -8 -12 0
v -9 -12 0
v -9 -11 0
v -8 -11 0
v -9 -12 0
v -10 -12 0
v -10 -11 0
v -9 -11 0
v -10 -12 0
v -11 -12 0
v -11 -11 0
v -10 -11 0
v -11 -12 0
v -12 -12 0
v -12 -11 0
v -11 -11 0
v -12 -12 0
v -13 -12 0
v -13 -11 0
v -12 -11 0
v -13 -12 0
v -14 -12 0
v -14 -11 0
v -13 -11 0
v -14 -12 0
v -15 -12 0
v -15 -11 0
v -14 -11 0
v -15 -12 0
v -16 -12 0
v -16 -11 0
v -15 -11 0
v 0 -13 0
v -1 -13 0
v -1 -12 0
v 0 -12 0
v -1 -13 0
v -2 -13 0
v -2 -12 0
v -1 -12 0
v -2 -13 0
v -3 -13 0
v -3 -12 0
v -2 -12 0
v -3 -13 0
v -4 -13 0
v -4 -12 0
v -3 -12 0
v -4 -13 0
v -5 -13 0
v -5 -12 0
v -4 -12 0
v -5 -13 0
v -6 -13 0
v -6 -12 0
v -5 -12 0
v -6 -13 0
v -7 -13 0
v -7 -12 0
v -6 -12 0
v -7 -13 0
v -8 -13 0
v -8 -12 0
v -7 -12 0
v -8 -13 0
v -9 -13 0
v -9 -12 0
v -8 -12 0
v -9 -13 0
v -10 -13 0
v -10 -12 0
v -9 -12 0
v -10 -13 0
v -11 -13 0
v -11 -12 0
v -10 -12 0
v -11 -13 0
v -12 -13 0
v -12 -12 0
v -11 -12 0
v -12 -13 0
v -13 -13 0
v -13 -12 0
v -12 -12 0
v -13 -13 0
v -14 -13 0
v -14 -12 0
v -13 -12 0
v -14 -13 0
v -15 -13 0
v -15 -12 0
v -14 -12 0
v -15 -13 0
v -16 -13 0
v -16 -12 0
v -15 -12 0
v 0 -14 0
v -1 -14 0
v -1 -13 0
v 0 -13 0
v -1 -14 0
v -2 -14 0
v -2 -13 0
v -1 -13 0
v -2 -14 0
v -3 -14 0
v -3 -13 0
v -2 -13 0
v -3 -14 0
v -4 -14 0
v -4 -13 0
v -3 -13 0
v -4 -14 0
v -5 -14 0
v -5 -13 0
v -4 -13 0
v -5 -14 0
v -6 -14 0
v -6 -13 0
v -5 -13 0
v -6 -14 0
v -7 -14 0
v -7 -13 0
v -6 -13 0
v -7 -14 0
v -8 -14 0
v -8 -13 0
v -7 -13 0
v -8 -14 0
v -9 -14 0
v -9 -13 0
v -8 -13 0
v -9 -14 0
v -10 -14 0
v -10 -13 0
v -9 -13 0
v -10 -14 0
v -11 -14 0
v -11 -13 0
v -10 -13 0
v -11 -14 0
v -12 -14 0
v -12 -13 0
v -11 -13 0
v -12 -14 0
v -13 -14 0
v -13 -13 0
v -12 -13 0
v -13 -14 0
v -14 -14 0
v -14 -13 0
v -13 -13 0
v -14 -14 0
v -15 -14 0
v -15 -13 0
v -14 -13 0
v -15 -14 0
v -16 -14 0
v -16 -13 0
v -15 -13 0
v 0 -15 0
v -1 -15 0
v -1 -14 0
v 0 -14 0
v -1 -15 0
v -2 -15 0
v -2 -14 0
v -1 -14 0
v -2 -15 0
v -3 -15 0
v -3 -14 0
v -2 -14 0
v -3 -15 0
v -4 -15 0
v -4 -14 0
v -3 -14 0
v -4 -15 0
v -5 -15 0
v -5 -14 0
v -4 -14 0
v -5 -15 0
v -6 -15 0
v -6 -14 0
v -5 -14 0
v -6 -15 0
v -7 -15 0
v -7 -14 0
v -6 -14 0
v -7 -15 0
v -8 -15 0
v -8 -14 0
v -7 -14 0
v -8 -15 0
v -9 -15 0
v -9 -14 0
v -8 -14 0
v -9 -15 0
v -10 -15 0
v -10 -14 0
v -9 -14 0
v -10 -15 0
v -11 -15 0
v -11 -14 0
v -10 -14 0
v -11 -15 0
v -12 -15 0
v -12 -14 0
v -11 -14 0
v -12 -15 0
v -13 -15 0
v -13 -14 0
v -12 -14 0
v -13 -15 0
v -14 -15 0
v -14 -14 0
v -13 -14 0
v -14 -15 0
v -15 -15 0
v -15 -14 0
v -14 -14 0
v -15 -15 0
v -16 -15 0
v -16 -14 0
v -15 -14 0
v 0 -16 0
v -1 -16 0
v -1 -15 0
v 0 -15 0
v -1 -16 0
v -2 -16 0
v -2 -15 0
v -1 -15 0
v -2 -16 0
v -3 -16 0
v -3 -15 0
v -2 -15 0
v -3 -16 0
v -4 -16 0
v -4 -15 0
v -3 -15 0
v -4 -16 0
v -5 -16 0
v -5 -15 0
v -4 -15 0
v -5 -16 0
v -6 -16 0
v -6 -15 0
v -5 -15 0
v -6 -16 0
v -7 -16 0
v -7 -15 0
v -6 -15 0
v -7 -16 0
v -8 -16 0
v -8 -15 0
v -7 -15 0
v -8 -16 0
v -9 -16 0
v -9 -15 0
v -8 -15 0
v -9 -16 0
v -10 -16 0
v -10 -15 0
v -9 -15 0
v -10 -16 0
v -11 -16 0
v -11 -15 0
v -10 -15 0
v -11 -16 0
v -12 -16 0
v -12 -15 0
v -11 -15 0
v -12 -16 0
v -13 -16 0
v -13 -15 0
v -12 -15 0
v -13 -16 0
v -14 -16 0
v -14 -15 0
v -13 -15 0
v -14 -16 0
v -15 -16 0
v -15 -15 0
v -14 -15 0
v -15 -16 0
v -16 -16 0
v -16 -15 0
v -15 -15 0

# Texture cooridinates (Count = 8)
vt 0.71875 0.8125
vt 0.75 0.8125
vt 0.75 0.84375
vt 0.71875 0.84375
vt 0.6875 0.8125
vt 0.6875 0.84375
vt 0.65625 0.8125
vt 0.65625 0.84375

# Normal
vn 0 0 -1

# Mesh description
g testmap1_mesh_0668

# Faces
f 1/1/1 2/2/1 3/3/1 4/4/1
f 5/5/1 6/1/1 7/4/1 8/6/1
f 9/7/1 10/5/1 11/6/1 12/8/1
f 13/7/1 14/5/1 15/6/1 16/8/1
f 17/1/1 18/2/1 19/3/1 20/4/1
f 21/7/1 22/5/1 23/6/1 24/8/1
f 25/7/1 26/5/1 27/6/1 28/8/1
f 29/1/1 30/2/1 31/3/1 32/4/1
f 33/1/1 34/2/1 35/3/1 36/4/1
f 37/1/1 38/2/1 39/3/1 40/4/1
f 41/7/1 42/5/1 43/6/1 44/8/1
f 45/5/1 46/1/1 47/4/1 48/6/1
f 49/5/1 50/1/1 51/4/1 52/6/1
f 53/5/1 54/1/1 55/4/1 56/6/1
f 57/7/1 58/5/1 59/6/1 60/8/1
f 61/1/1 62/2/1 63/3/1 64/4/1
f 65/7/1 66/5/1 67/6/1 68/8/1
f 69/1/1 70/2/1 71/3/1 72/4/1
f 73/7/1 74/5/1 75/6/1 76/8/1
f 77/1/1 78/2/1 79/3/1 80/4/1
f 81/5/1 82/1/1 83/4/1 84/6/1
f 85/1/1 86/2/1 87/3/1 88/4/1
f 89/5/1 90/1/1 91/4/1 92/6/1
f 93/5/1 94/1/1 95/4/1 96/6/1
f 97/1/1 98/2/1 99/3/1 100/4/1
f 101/5/1 102/1/1 103/4/1 104/6/1
f 105/5/1 106/1/1 107/4/1 108/6/1
f 109/5/1 110/1/1 111/4/1 112/6/1
f 113/5/1 114/1/1 115/4/1 116/6/1
f 117/5/1 118/1/1 119/4/1 120/6/1
f 121/5/1 122/1/1 123/4/1 124/6/1
f 125/7/1 126/5/1 127/6/1 128/8/1
f 129/1/1 130/2/1 131/3/1 132/4/1
f 133/1/1 134/2/1 135/3/1 136/4/1
f 137/1/1 138/2/1 139/3/1 140/4/1
f 141/7/1 142/5/1 143/6/1 144/8/1
f 145/7/1 146/5/1 147/6/1 148/8/1
f 149/7/1 150/5/1 151/6/1 152/8/1
f 153/7/1 154/5/1 155/6/1 156/8/1
f 157/5/1 158/1/1 159/4/1 160/6/1
f 161/7/1 162/5/1 163/6/1 164/8/1
f 165/5/1 166/1/1 167/4/1 168/6/1
f 169/7/1 170/5/1 171/6/1 172/8/1
f 173/5/1 174/1/1 175/4/1 176/6/1
f 177/1/1 178/2/1 179/3/1 180/4/1
f 181/7/1 182/5/1 183/6/1 184/8/1
f 185/5/1 186/1/1 187/4/1 188/6/1
f 189/5/1 190/1/1 191/4/1 192/6/1
f 193/7/1 194/5/1 195/6/1 196/8/1
f 197/1/1 198/2/1 199/3/1 200/4/1
f 201/1/1 202/2/1 203/3/1 204/4/1
f 205/7/1 206/5/1 207/6/1 208/8/1
f 209/5/1 210/1/1 211/4/1 212/6/1
f 213/7/1 214/5/1 215/6/1 216/8/1
f 217/1/1 218/2/1 219/3/1 220/4/1
f 221/5/1 222/1/1 223/4/1 224/6/1
f 225/7/1 226/5/1 227/6/1 228/8/1
f 229/1/1 230/2/1 231/3/1 232/4/1
f 233/1/1 234/2/1 235/3/1 236/4/1
f 237/1/1 238/2/1 239/3/1 240/4/1
f 241/7/1 242/5/1 243/6/1 244/8/1
f 245/1/1 246/2/1 247/3/1 248/4/1
f 249/7/1 250/5/1 251/6/1 252/8/1
f 253/7/1 254/5/1 255/6/1 256/8/1
f 257/7/1 258/5/1 259/6/1 260/8/1
f 261/1/1 262/2/1 263/3/1 264/4/1
f 265/1/1 266/2/1 267/3/1 268/4/1
f 269/1/1 270/2/1 271/3/1 272/4/1
f 273/5/1 274/1/1 275/4/1 276/6/1
f 277/7/1 278/5/1 279/6/1 280/8/1
f 281/1/1 282/2/1 283/3/1 284/4/1
f 285/1/1 286/2/1 287/3/1 288/4/1
f 289/7/1 290/5/1 291/6/1 292/8/1
f 293/7/1 294/5/1 295/6/1 296/8/1
f 297/5/1 298/1/1 299/4/1 300/6/1
f 301/7/1 302/5/1 303/6/1 304/8/1
f 305/7/1 306/5/1 307/6/1 308/8/1
f 309/7/1 310/5/1 311/6/1 312/8/1
f 313/1/1 314/2/1 315/3/1 316/4/1
f 317/7/1 318/5/1 319/6/1 320/8/1
f 321/7/1 322/5/1 323/6/1 324/8/1
f 325/1/1 326/2/1 327/3/1 328/4/1
f 329/7/1 330/5/1 331/6/1 332/8/1
f 333/1/1 334/2/1 335/3/1 336/4/1
f 337/1/1 338/2/1 339/3/1 340/4/1
f 341/1/1 342/2/1 343/3/1 344/4/1
f 345/1/1 346/2/1 347/3/1 348/4/1
f 349/5/1 350/1/1 351/4/1 352/6/1
f 353/7/1 354/5/1 355/6/1 356/8/1
f 357/1/1 358/2/1 359/3/1 360/4/1
f 361/7/1 362/5/1 363/6/1 364/8/1
f 365/5/1 366/1/1 367/4/1 368/6/1
f 369/7/1 370/5/1 371/6/1 372/8/1
f 373/5/1 374/1/1 375/4/1 376/6/1
f 377/1/1 378/2/1 379/3/1 380/4/1
f 381/7/1 382/5/1 383/6/1 384/8/1
f 385/7/1 386/5/1 387/6/1 388/8/1
f 389/7/1 390/5/1 391/6/1 392/8/1
f 393/1/1 394/2/1 395/3/1 396/4/1
f 397/7/1 398/5/1 399/6/1 400/8/1
f 401/7/1 402/5/1 403/6/1 404/8/1
f 405/5/1 406/1/1 407/4/1 408/6/1
f 409/7/1 410/5/1 411/6/1 412/8/1
f 413/7/1 414/5/1 415/6/1 416/8/1
f 417/7/1 418/5/1 419/6/1 420/8/1
f 421/1/1 422/2/1 423/3/1 424/4/1
f 425/1/1 426/2/1 427/3/1 428/4/1
f 429/5/1 430/1/1 431/4/1 432/6/1
f 433/5/1 434/1/1 435/4/1 436/6/1
f 437/7/1 438/5/1 439/6/1 440/8/1
f 441/7/1 442/5/1 443/6/1 444/8/1
f 445/5/1 446/1/1 447/4/1 448/6/1
f 449/5/1 450/1/1 451/4/1 452/6/1
f 453/7/1 454/5/1 455/6/1 456/8/1
f 457/1/1 458/2/1 459/3/1 460/4/1
f 461/7/1 462/5/1 463/6/1 464/8/1
f 465/5/1 466/1/1 467/4/1 468/6/1
f 469/5/1 470/1/1 471/4/1 472/6/1
f 473/1/1 474/2/1 475/3/1 476/4/1
f 477/5/1 478/1/1 479/4/1 480/6/1
f 481/1/1 482/2/1 483/3/1 484/4/1
f 485/1/1 486/2/1 487/3/1 488/4/1
f 489/7/1 490/5/1 491/6/1 492/8/1
f 493/5/1 494/1/1 495/4/1 496/6/1
f 497/5/1 498/1/1 499/4/1 500/6/1
f 501/1/1 502/2/1 503/3/1 504/4/1
f 505/1/1 506/2/1 507/3/1 508/4/1
f 509/7/1 510/5/1 511/6/1 512/8/1
f 513/5/1 514/1/1 515/4/1 516/6/1
f 517/1/1 518/2/1 519/3/1 520/4/1
f 521/1/1 522/2/1 523/3/1 524/4/1
f 525/5/1 526/1/1 527/4/1 528/6/1
f 529/1/1 530/2/1 531/3/1 532/4/1
f 533/7/1 534/5/1 535/6/1 536/8/1
f 537/5/1 538/1/1 539/4/1 540/6/1
f 541/5/1 542/1/1 543/4/1 544/6/1
f 545/7/1 546/5/1 547/6/1 548/8/1
f 549/5/1 550/1/1 551/4/1 552/6/1
f 553/1/1 554/2/1 555/3/1 556/4/1
f 557/5/1 558/1/1 559/4/1 560/6/1
f 561/5/1 562/1/1 563/4/1 564/6/1
f 565/1/1 566/2/1 567/3/1 568/4/1
f 569/5/1 570/1/1 571/4/1 572/6/1
f 573/1/1 574/2/1 575/3/1 576/4/1
f 577/7/1 578/5/1 579/6/1 580/8/1
f 581/5/1 582/1/1 583/4/1 584/6/1
f 585/7/1 586/5/1 587/6/1 588/8/1
f 589/7/1 590/5/1 591/6/1 592/8/1
f 593/7/1 594/5/1 595/6/1 596/8/1
f 597/1/1 598/2/1 599/3/1 600/4/1
f 601/1/1 602/2/1 603/3/1 604/4/1
f 605/1/1 606/2/1 607/3/1 608/4/1
f 609/5/1 610/1/1 611/4/1 612/6/1
f 613/5/1 614/1/1 615/4/1 616/6/1
f 617/7/1 618/5/1 619/6/1 620/8/1
f 621/1/1 622/2/1 623/3/1 624/4/1
f 625/1/1 626/2/1 627/3/1 628/4/1
f 629/5/1 630/1/1 631/4/1 632/6/1
f 633/1/1 634/2/1 635/3/1 636/4/1
f 637/5/1 638/1/1 639/4/1 640/6/1
f 641/7/1 642/5/1 643/6/1 644/8/1
f 645/7/1 646/5/1 647/6/1 648/8/1
f 649/5/1 650/1/1 651/4/1 652/6/1
f 653/7/1 654/5/1 655/6/1 656/8/1
f 657/5/1 658/1/1 659/4/1 660/6/1
f 661/7/1 662/5/1 663/6/1 664/8/1
f 665/1/1 666/2/1 667/3/1 668/4/1
f 669/5/1 670/1/1 671/4/1 672/6/1
f 673/7/1 674/5/1 675/6/1 676/8/1
f 677/1/1 678/2/1 679/3/1 680/4/1
f 681/1/1 682/2/1 683/3/1 684/4/1
f 685/5/1 686/1/1 687/4/1 688/6/1
f 689/1/1 690/2/1 691/3/1 692/4/1
f 693/5/1 694/1/1 695/4/1 696/6/1
f 697/5/1 698/1/1 699/4/1 700/6/1
f 701/5/1 702/1/1 703/4/1 704/6/1
f 705/5/1 706/1/1 707/4/1 708/6/1
f 709/1/1 710/2/1 711/3/1 712/4/1
f 713/1/1 714/2/1 715/3/1 716/4/1
f 717/7/1 718/5/1 719/6/1 720/8/1
f 721/5/1 722/1/1 723/4/1 724/6/1
f 725/5/1 726/1/1 727/4/1 728/6/1
f 729/5/1 730/1/1 731/4/1 732/6/1
f 733/7/1 734/5/1 735/6/1 736/8/1
f 737/1/1 738/2/1 739/3/1 740/4/1
f 741/5/1 742/1/1 743/4/1 744/6/1
f 745/1/1 746/2/1 747/3/1 748/4/1
f 749/1/1 750/2/1 751/3/1 752/4/1
f 753/1/1 754/2/1 755/3/1 756/4/1
f 757/1/1 758/2/1 759/3/1 760/4/1
f 761/1/1 762/2/1 763/3/1 764/4/1
f 765/5/1 766/1/1 767/4/1 768/6/1
f 769/1/1 770/2/1 771/3/1 772/4/1
f 773/5/1 774/1/1 775/4/1 776/6/1
f 777/7/1 778/5/1 779/6/1 780/8/1
f 781/7/1 782/5/1 783/6/1 784/8/1
f 785/7/1 786/5/1 787/6/1 788/8/1
f 789/7/1 790/5/1 791/6/1 792/8/1
f 793/1/1 794/2/1 795/3/1 796/4/1
f 797/7/1 798/5/1 799/6/1 800/8/1
f 801/5/1 802/1/1 803/4/1 804/6/1
f 805/5/1 806/1/1 807/4/1 808/6/1
f 809/1/1 810/2/1 811/3/1 812/4/1
f 813/7/1 814/5/1 815/6/1 816/8/1
f 817/5/1 818/1/1 819/4/1 820/6/1
f 821/7/1 822/5/1 823/6/1 824/8/1
f 825/1/1 826/2/1 827/3/1 828/4/1
f 829/5/1 830/1/1 831/4/1 832/6/1
f 833/5/1 834/1/1 835/4/1 836/6/1
f 837/5/1 838/1/1 839/4/1 840/6/1
f 841/1/1 842/2/1 843/3/1 844/4/1
f 845/1/1 846/2/1 847/3/1 848/4/1
f 849/7/1 850/5/1 851/6/1 852/8/1
f 853/7/1 854/5/1 855/6/1 856/8/1
f 857/1/1 858/2/1 859/3/1 860/4/1
f 861/5/1 862/1/1 863/4/1 864/6/1
f 865/1/1 866/2/1 867/3/1 868/4/1
f 869/5/1 870/1/1 871/4/1 872/6/1
f 873/1/1 874/2/1 875/3/1 876/4/1
f 877/1/1 878/2/1 879/3/1 880/4/1
f 881/1/1 882/2/1 883/3/1 884/4/1
f 885/5/1 886/1/1 887/4/1 888/6/1
f 889/1/1 890/2/1 891/3/1 892/4/1
f 893/7/1 894/5/1 895/6/1 896/8/1
f 897/7/1 898/5/1 899/6/1 900/8/1
f 901/1/1 902/2/1 903/3/1 904/4/1
f 905/1/1 906/2/1 907/3/1 908/4/1
f 909/7/1 910/5/1 911/6/1 912/8/1
f 913/7/1 914/5/1 915/6/1 916/8/1
f 917/5/1 918/1/1 919/4/1 920/6/1
f 921/7/1 922/5/1 923/6/1 924/8/1
f 925/5/1 926/1/1 927/4/1 928/6/1
f 929/5/1 930/1/1 931/4/1 932/6/1
f 933/1/1 934/2/1 935/3/1 936/4/1
f 937/5/1 938/1/1 939/4/1 940/6/1
f 941/7/1 942/5/1 943/6/1 944/8/1
f 945/1/1 946/2/1 947/3/1 948/4/1
f 949/7/1 950/5/1 951/6/1 952/8/1
f 953/1/1 954/2/1 955/3/1 956/4/1
f 957/7/1 958/5/1 959/6/1 960/8/1
f 961/7/1 962/5/1 963/6/1 964/8/1
f 965/5/1 966/1/1 967/4/1 968/6/1
f 969/5/1 970/1/1 971/4/1 972/6/1
f 973/7/1 974/5/1 975/6/1 976/8/1
f 977/7/1 978/5/1 979/6/1 980/8/1
f 981/7/1 982/5/1 983/6/1 984/8/1
f 985/7/1 986/5/1 987/6/1 988/8/1
f 989/5/1 990/1/1 991/4/1 992/6/1
f 993/1/1 994/2/1 995/3/1 996/4/1
f 997/1/1 998/2/1 999/3/1 1000/4/1
f 1001/1/1 1002/2/1 1003/3/1 1004/4/1
f 1005/5/1 1006/1/1 1007/4/1 1008/6/1
f 1009/5/1 1010/1/1 1011/4/1 1012/6/1
f 1013/1/1 1014/2/1 1015/3/1 1016/4/1
f 1017/1/1 1018/2/1 1019/3/1 1020/4/1
f 1021/7/1 1022/5/1 1023/6/1 1024/8/1

