# Tiled2Unity generated file. Do not modify by hand.
# Wavefront file for 'testmap1_mesh_0400.obj'

# Vertices (Count = 640)
v 0 -7 0
v -1 -7 0
v -1 -6 0
v 0 -6 0
v -1 -7 0
v -2 -7 0
v -2 -6 0
v -1 -6 0
v -2 -7 0
v -3 -7 0
v -3 -6 0
v -2 -6 0
v -3 -7 0
v -4 -7 0
v -4 -6 0
v -3 -6 0
v -4 -7 0
v -5 -7 0
v -5 -6 0
v -4 -6 0
v -5 -7 0
v -6 -7 0
v -6 -6 0
v -5 -6 0
v -6 -7 0
v -7 -7 0
v -7 -6 0
v -6 -6 0
v -7 -7 0
v -8 -7 0
v -8 -6 0
v -7 -6 0
v -8 -7 0
v -9 -7 0
v -9 -6 0
v -8 -6 0
v -9 -7 0
v -10 -7 0
v -10 -6 0
v -9 -6 0
v -10 -7 0
v -11 -7 0
v -11 -6 0
v -10 -6 0
v -11 -7 0
v -12 -7 0
v -12 -6 0
v -11 -6 0
v -12 -7 0
v -13 -7 0
v -13 -6 0
v -12 -6 0
v -13 -7 0
v -14 -7 0
v -14 -6 0
v -13 -6 0
v -14 -7 0
v -15 -7 0
v -15 -6 0
v -14 -6 0
v -15 -7 0
v -16 -7 0
v -16 -6 0
v -15 -6 0
v 0 -8 0
v -1 -8 0
v -1 -7 0
v 0 -7 0
v -1 -8 0
v -2 -8 0
v -2 -7 0
v -1 -7 0
v -2 -8 0
v -3 -8 0
v -3 -7 0
v -2 -7 0
v -3 -8 0
v -4 -8 0
v -4 -7 0
v -3 -7 0
v -4 -8 0
v -5 -8 0
v -5 -7 0
v -4 -7 0
v -5 -8 0
v -6 -8 0
v -6 -7 0
v -5 -7 0
v -6 -8 0
v -7 -8 0
v -7 -7 0
v -6 -7 0
v -7 -8 0
v -8 -8 0
v -8 -7 0
v -7 -7 0
v -8 -8 0
v -9 -8 0
v -9 -7 0
v -8 -7 0
v -9 -8 0
v -10 -8 0
v -10 -7 0
v -9 -7 0
v -10 -8 0
v -11 -8 0
v -11 -7 0
v -10 -7 0
v -11 -8 0
v -12 -8 0
v -12 -7 0
v -11 -7 0
v -12 -8 0
v -13 -8 0
v -13 -7 0
v -12 -7 0
v -13 -8 0
v -14 -8 0
v -14 -7 0
v -13 -7 0
v -14 -8 0
v -15 -8 0
v -15 -7 0
v -14 -7 0
v -15 -8 0
v -16 -8 0
v -16 -7 0
v -15 -7 0
v 0 -9 0
v -1 -9 0
v -1 -8 0
v 0 -8 0
v -1 -9 0
v -2 -9 0
v -2 -8 0
v -1 -8 0
v -2 -9 0
v -3 -9 0
v -3 -8 0
v -2 -8 0
v -3 -9 0
v -4 -9 0
v -4 -8 0
v -3 -8 0
v -4 -9 0
v -5 -9 0
v -5 -8 0
v -4 -8 0
v -5 -9 0
v -6 -9 0
v -6 -8 0
v -5 -8 0
v -6 -9 0
v -7 -9 0
v -7 -8 0
v -6 -8 0
v -7 -9 0
v -8 -9 0
v -8 -8 0
v -7 -8 0
v -8 -9 0
v -9 -9 0
v -9 -8 0
v -8 -8 0
v -9 -9 0
v -10 -9 0
v -10 -8 0
v -9 -8 0
v -10 -9 0
v -11 -9 0
v -11 -8 0
v -10 -8 0
v -11 -9 0
v -12 -9 0
v -12 -8 0
v -11 -8 0
v -12 -9 0
v -13 -9 0
v -13 -8 0
v -12 -8 0
v -13 -9 0
v -14 -9 0
v -14 -8 0
v -13 -8 0
v -14 -9 0
v -15 -9 0
v -15 -8 0
v -14 -8 0
v -15 -9 0
v -16 -9 0
v -16 -8 0
v -15 -8 0
v 0 -10 0
v -1 -10 0
v -1 -9 0
v 0 -9 0
v -1 -10 0
v -2 -10 0
v -2 -9 0
v -1 -9 0
v -2 -10 0
v -3 -10 0
v -3 -9 0
v -2 -9 0
v -3 -10 0
v -4 -10 0
v -4 -9 0
v -3 -9 0
v -4 -10 0
v -5 -10 0
v -5 -9 0
v -4 -9 0
v -5 -10 0
v -6 -10 0
v -6 -9 0
v -5 -9 0
v -6 -10 0
v -7 -10 0
v -7 -9 0
v -6 -9 0
v -7 -10 0
v -8 -10 0
v -8 -9 0
v -7 -9 0
v -8 -10 0
v -9 -10 0
v -9 -9 0
v -8 -9 0
v -9 -10 0
v -10 -10 0
v -10 -9 0
v -9 -9 0
v -10 -10 0
v -11 -10 0
v -11 -9 0
v -10 -9 0
v -11 -10 0
v -12 -10 0
v -12 -9 0
v -11 -9 0
v -12 -10 0
v -13 -10 0
v -13 -9 0
v -12 -9 0
v -13 -10 0
v -14 -10 0
v -14 -9 0
v -13 -9 0
v -14 -10 0
v -15 -10 0
v -15 -9 0
v -14 -9 0
v -15 -10 0
v -16 -10 0
v -16 -9 0
v -15 -9 0
v 0 -11 0
v -1 -11 0
v -1 -10 0
v 0 -10 0
v -1 -11 0
v -2 -11 0
v -2 -10 0
v -1 -10 0
v -2 -11 0
v -3 -11 0
v -3 -10 0
v -2 -10 0
v -3 -11 0
v -4 -11 0
v -4 -10 0
v -3 -10 0
v -4 -11 0
v -5 -11 0
v -5 -10 0
v -4 -10 0
v -5 -11 0
v -6 -11 0
v -6 -10 0
v -5 -10 0
v -6 -11 0
v -7 -11 0
v -7 -10 0
v -6 -10 0
v -7 -11 0
v -8 -11 0
v -8 -10 0
v -7 -10 0
v -8 -11 0
v -9 -11 0
v -9 -10 0
v -8 -10 0
v -9 -11 0
v -10 -11 0
v -10 -10 0
v -9 -10 0
v -10 -11 0
v -11 -11 0
v -11 -10 0
v -10 -10 0
v -11 -11 0
v -12 -11 0
v -12 -10 0
v -11 -10 0
v -12 -11 0
v -13 -11 0
v -13 -10 0
v -12 -10 0
v -13 -11 0
v -14 -11 0
v -14 -10 0
v -13 -10 0
v -14 -11 0
v -15 -11 0
v -15 -10 0
v -14 -10 0
v -15 -11 0
v -16 -11 0
v -16 -10 0
v -15 -10 0
v 0 -12 0
v -1 -12 0
v -1 -11 0
v 0 -11 0
v -1 -12 0
v -2 -12 0
v -2 -11 0
v -1 -11 0
v -2 -12 0
v -3 -12 0
v -3 -11 0
v -2 -11 0
v -3 -12 0
v -4 -12 0
v -4 -11 0
v -3 -11 0
v -4 -12 0
v -5 -12 0
v -5 -11 0
v -4 -11 0
v -5 -12 0
v -6 -12 0
v -6 -11 0
v -5 -11 0
v -6 -12 0
v -7 -12 0
v -7 -11 0
v -6 -11 0
v -7 -12 0
v -8 -12 0
v -8 -11 0
v -7 -11 0
v -8 -12 0
v -9 -12 0
v -9 -11 0
v -8 -11 0
v -9 -12 0
v -10 -12 0
v -10 -11 0
v -9 -11 0
v -10 -12 0
v -11 -12 0
v -11 -11 0
v -10 -11 0
v -11 -12 0
v -12 -12 0
v -12 -11 0
v -11 -11 0
v -12 -12 0
v -13 -12 0
v -13 -11 0
v -12 -11 0
v -13 -12 0
v -14 -12 0
v -14 -11 0
v -13 -11 0
v -14 -12 0
v -15 -12 0
v -15 -11 0
v -14 -11 0
v -15 -12 0
v -16 -12 0
v -16 -11 0
v -15 -11 0
v 0 -13 0
v -1 -13 0
v -1 -12 0
v 0 -12 0
v -1 -13 0
v -2 -13 0
v -2 -12 0
v -1 -12 0
v -2 -13 0
v -3 -13 0
v -3 -12 0
v -2 -12 0
v -3 -13 0
v -4 -13 0
v -4 -12 0
v -3 -12 0
v -4 -13 0
v -5 -13 0
v -5 -12 0
v -4 -12 0
v -5 -13 0
v -6 -13 0
v -6 -12 0
v -5 -12 0
v -6 -13 0
v -7 -13 0
v -7 -12 0
v -6 -12 0
v -7 -13 0
v -8 -13 0
v -8 -12 0
v -7 -12 0
v -8 -13 0
v -9 -13 0
v -9 -12 0
v -8 -12 0
v -9 -13 0
v -10 -13 0
v -10 -12 0
v -9 -12 0
v -10 -13 0
v -11 -13 0
v -11 -12 0
v -10 -12 0
v -11 -13 0
v -12 -13 0
v -12 -12 0
v -11 -12 0
v -12 -13 0
v -13 -13 0
v -13 -12 0
v -12 -12 0
v -13 -13 0
v -14 -13 0
v -14 -12 0
v -13 -12 0
v -14 -13 0
v -15 -13 0
v -15 -12 0
v -14 -12 0
v -15 -13 0
v -16 -13 0
v -16 -12 0
v -15 -12 0
v 0 -14 0
v -1 -14 0
v -1 -13 0
v 0 -13 0
v -1 -14 0
v -2 -14 0
v -2 -13 0
v -1 -13 0
v -2 -14 0
v -3 -14 0
v -3 -13 0
v -2 -13 0
v -3 -14 0
v -4 -14 0
v -4 -13 0
v -3 -13 0
v -4 -14 0
v -5 -14 0
v -5 -13 0
v -4 -13 0
v -5 -14 0
v -6 -14 0
v -6 -13 0
v -5 -13 0
v -6 -14 0
v -7 -14 0
v -7 -13 0
v -6 -13 0
v -7 -14 0
v -8 -14 0
v -8 -13 0
v -7 -13 0
v -8 -14 0
v -9 -14 0
v -9 -13 0
v -8 -13 0
v -9 -14 0
v -10 -14 0
v -10 -13 0
v -9 -13 0
v -10 -14 0
v -11 -14 0
v -11 -13 0
v -10 -13 0
v -11 -14 0
v -12 -14 0
v -12 -13 0
v -11 -13 0
v -12 -14 0
v -13 -14 0
v -13 -13 0
v -12 -13 0
v -13 -14 0
v -14 -14 0
v -14 -13 0
v -13 -13 0
v -14 -14 0
v -15 -14 0
v -15 -13 0
v -14 -13 0
v -15 -14 0
v -16 -14 0
v -16 -13 0
v -15 -13 0
v 0 -15 0
v -1 -15 0
v -1 -14 0
v 0 -14 0
v -1 -15 0
v -2 -15 0
v -2 -14 0
v -1 -14 0
v -2 -15 0
v -3 -15 0
v -3 -14 0
v -2 -14 0
v -3 -15 0
v -4 -15 0
v -4 -14 0
v -3 -14 0
v -4 -15 0
v -5 -15 0
v -5 -14 0
v -4 -14 0
v -5 -15 0
v -6 -15 0
v -6 -14 0
v -5 -14 0
v -6 -15 0
v -7 -15 0
v -7 -14 0
v -6 -14 0
v -7 -15 0
v -8 -15 0
v -8 -14 0
v -7 -14 0
v -8 -15 0
v -9 -15 0
v -9 -14 0
v -8 -14 0
v -9 -15 0
v -10 -15 0
v -10 -14 0
v -9 -14 0
v -10 -15 0
v -11 -15 0
v -11 -14 0
v -10 -14 0
v -11 -15 0
v -12 -15 0
v -12 -14 0
v -11 -14 0
v -12 -15 0
v -13 -15 0
v -13 -14 0
v -12 -14 0
v -13 -15 0
v -14 -15 0
v -14 -14 0
v -13 -14 0
v -14 -15 0
v -15 -15 0
v -15 -14 0
v -14 -14 0
v -15 -15 0
v -16 -15 0
v -16 -14 0
v -15 -14 0
v 0 -16 0
v -1 -16 0
v -1 -15 0
v 0 -15 0
v -1 -16 0
v -2 -16 0
v -2 -15 0
v -1 -15 0
v -2 -16 0
v -3 -16 0
v -3 -15 0
v -2 -15 0
v -3 -16 0
v -4 -16 0
v -4 -15 0
v -3 -15 0
v -4 -16 0
v -5 -16 0
v -5 -15 0
v -4 -15 0
v -5 -16 0
v -6 -16 0
v -6 -15 0
v -5 -15 0
v -6 -16 0
v -7 -16 0
v -7 -15 0
v -6 -15 0
v -7 -16 0
v -8 -16 0
v -8 -15 0
v -7 -15 0
v -8 -16 0
v -9 -16 0
v -9 -15 0
v -8 -15 0
v -9 -16 0
v -10 -16 0
v -10 -15 0
v -9 -15 0
v -10 -16 0
v -11 -16 0
v -11 -15 0
v -10 -15 0
v -11 -16 0
v -12 -16 0
v -12 -15 0
v -11 -15 0
v -12 -16 0
v -13 -16 0
v -13 -15 0
v -12 -15 0
v -13 -16 0
v -14 -16 0
v -14 -15 0
v -13 -15 0
v -14 -16 0
v -15 -16 0
v -15 -15 0
v -14 -15 0
v -15 -16 0
v -16 -16 0
v -16 -15 0
v -15 -15 0

# Texture cooridinates (Count = 8)
vt 0.71875 0.8125
vt 0.75 0.8125
vt 0.75 0.84375
vt 0.71875 0.84375
vt 0.6875 0.8125
vt 0.6875 0.84375
vt 0.65625 0.8125
vt 0.65625 0.84375

# Normal
vn 0 0 -1

# Mesh description
g testmap1_mesh_0400

# Faces
f 1/1/1 2/2/1 3/3/1 4/4/1
f 5/5/1 6/1/1 7/4/1 8/6/1
f 9/5/1 10/1/1 11/4/1 12/6/1
f 13/5/1 14/1/1 15/4/1 16/6/1
f 17/1/1 18/2/1 19/3/1 20/4/1
f 21/7/1 22/5/1 23/6/1 24/8/1
f 25/5/1 26/1/1 27/4/1 28/6/1
f 29/7/1 30/5/1 31/6/1 32/8/1
f 33/5/1 34/1/1 35/4/1 36/6/1
f 37/7/1 38/5/1 39/6/1 40/8/1
f 41/7/1 42/5/1 43/6/1 44/8/1
f 45/7/1 46/5/1 47/6/1 48/8/1
f 49/5/1 50/1/1 51/4/1 52/6/1
f 53/1/1 54/2/1 55/3/1 56/4/1
f 57/1/1 58/2/1 59/3/1 60/4/1
f 61/1/1 62/2/1 63/3/1 64/4/1
f 65/7/1 66/5/1 67/6/1 68/8/1
f 69/1/1 70/2/1 71/3/1 72/4/1
f 73/5/1 74/1/1 75/4/1 76/6/1
f 77/1/1 78/2/1 79/3/1 80/4/1
f 81/1/1 82/2/1 83/3/1 84/4/1
f 85/7/1 86/5/1 87/6/1 88/8/1
f 89/5/1 90/1/1 91/4/1 92/6/1
f 93/1/1 94/2/1 95/3/1 96/4/1
f 97/5/1 98/1/1 99/4/1 100/6/1
f 101/7/1 102/5/1 103/6/1 104/8/1
f 105/7/1 106/5/1 107/6/1 108/8/1
f 109/7/1 110/5/1 111/6/1 112/8/1
f 113/1/1 114/2/1 115/3/1 116/4/1
f 117/7/1 118/5/1 119/6/1 120/8/1
f 121/5/1 122/1/1 123/4/1 124/6/1
f 125/1/1 126/2/1 127/3/1 128/4/1
f 129/1/1 130/2/1 131/3/1 132/4/1
f 133/1/1 134/2/1 135/3/1 136/4/1
f 137/7/1 138/5/1 139/6/1 140/8/1
f 141/7/1 142/5/1 143/6/1 144/8/1
f 145/5/1 146/1/1 147/4/1 148/6/1
f 149/5/1 150/1/1 151/4/1 152/6/1
f 153/5/1 154/1/1 155/4/1 156/6/1
f 157/7/1 158/5/1 159/6/1 160/8/1
f 161/7/1 162/5/1 163/6/1 164/8/1
f 165/5/1 166/1/1 167/4/1 168/6/1
f 169/1/1 170/2/1 171/3/1 172/4/1
f 173/7/1 174/5/1 175/6/1 176/8/1
f 177/7/1 178/5/1 179/6/1 180/8/1
f 181/5/1 182/1/1 183/4/1 184/6/1
f 185/5/1 186/1/1 187/4/1 188/6/1
f 189/5/1 190/1/1 191/4/1 192/6/1
f 193/5/1 194/1/1 195/4/1 196/6/1
f 197/1/1 198/2/1 199/3/1 200/4/1
f 201/1/1 202/2/1 203/3/1 204/4/1
f 205/7/1 206/5/1 207/6/1 208/8/1
f 209/5/1 210/1/1 211/4/1 212/6/1
f 213/7/1 214/5/1 215/6/1 216/8/1
f 217/7/1 218/5/1 219/6/1 220/8/1
f 221/5/1 222/1/1 223/4/1 224/6/1
f 225/7/1 226/5/1 227/6/1 228/8/1
f 229/7/1 230/5/1 231/6/1 232/8/1
f 233/5/1 234/1/1 235/4/1 236/6/1
f 237/1/1 238/2/1 239/3/1 240/4/1
f 241/7/1 242/5/1 243/6/1 244/8/1
f 245/7/1 246/5/1 247/6/1 248/8/1
f 249/1/1 250/2/1 251/3/1 252/4/1
f 253/5/1 254/1/1 255/4/1 256/6/1
f 257/1/1 258/2/1 259/3/1 260/4/1
f 261/7/1 262/5/1 263/6/1 264/8/1
f 265/1/1 266/2/1 267/3/1 268/4/1
f 269/7/1 270/5/1 271/6/1 272/8/1
f 273/1/1 274/2/1 275/3/1 276/4/1
f 277/7/1 278/5/1 279/6/1 280/8/1
f 281/1/1 282/2/1 283/3/1 284/4/1
f 285/5/1 286/1/1 287/4/1 288/6/1
f 289/7/1 290/5/1 291/6/1 292/8/1
f 293/5/1 294/1/1 295/4/1 296/6/1
f 297/5/1 298/1/1 299/4/1 300/6/1
f 301/1/1 302/2/1 303/3/1 304/4/1
f 305/5/1 306/1/1 307/4/1 308/6/1
f 309/7/1 310/5/1 311/6/1 312/8/1
f 313/5/1 314/1/1 315/4/1 316/6/1
f 317/1/1 318/2/1 319/3/1 320/4/1
f 321/5/1 322/1/1 323/4/1 324/6/1
f 325/7/1 326/5/1 327/6/1 328/8/1
f 329/7/1 330/5/1 331/6/1 332/8/1
f 333/7/1 334/5/1 335/6/1 336/8/1
f 337/1/1 338/2/1 339/3/1 340/4/1
f 341/7/1 342/5/1 343/6/1 344/8/1
f 345/1/1 346/2/1 347/3/1 348/4/1
f 349/7/1 350/5/1 351/6/1 352/8/1
f 353/7/1 354/5/1 355/6/1 356/8/1
f 357/7/1 358/5/1 359/6/1 360/8/1
f 361/7/1 362/5/1 363/6/1 364/8/1
f 365/7/1 366/5/1 367/6/1 368/8/1
f 369/1/1 370/2/1 371/3/1 372/4/1
f 373/5/1 374/1/1 375/4/1 376/6/1
f 377/1/1 378/2/1 379/3/1 380/4/1
f 381/1/1 382/2/1 383/3/1 384/4/1
f 385/1/1 386/2/1 387/3/1 388/4/1
f 389/5/1 390/1/1 391/4/1 392/6/1
f 393/5/1 394/1/1 395/4/1 396/6/1
f 397/7/1 398/5/1 399/6/1 400/8/1
f 401/7/1 402/5/1 403/6/1 404/8/1
f 405/7/1 406/5/1 407/6/1 408/8/1
f 409/1/1 410/2/1 411/3/1 412/4/1
f 413/1/1 414/2/1 415/3/1 416/4/1
f 417/5/1 418/1/1 419/4/1 420/6/1
f 421/5/1 422/1/1 423/4/1 424/6/1
f 425/1/1 426/2/1 427/3/1 428/4/1
f 429/5/1 430/1/1 431/4/1 432/6/1
f 433/1/1 434/2/1 435/3/1 436/4/1
f 437/5/1 438/1/1 439/4/1 440/6/1
f 441/5/1 442/1/1 443/4/1 444/6/1
f 445/1/1 446/2/1 447/3/1 448/4/1
f 449/5/1 450/1/1 451/4/1 452/6/1
f 453/1/1 454/2/1 455/3/1 456/4/1
f 457/7/1 458/5/1 459/6/1 460/8/1
f 461/1/1 462/2/1 463/3/1 464/4/1
f 465/1/1 466/2/1 467/3/1 468/4/1
f 469/7/1 470/5/1 471/6/1 472/8/1
f 473/1/1 474/2/1 475/3/1 476/4/1
f 477/5/1 478/1/1 479/4/1 480/6/1
f 481/5/1 482/1/1 483/4/1 484/6/1
f 485/5/1 486/1/1 487/4/1 488/6/1
f 489/7/1 490/5/1 491/6/1 492/8/1
f 493/5/1 494/1/1 495/4/1 496/6/1
f 497/7/1 498/5/1 499/6/1 500/8/1
f 501/1/1 502/2/1 503/3/1 504/4/1
f 505/7/1 506/5/1 507/6/1 508/8/1
f 509/5/1 510/1/1 511/4/1 512/6/1
f 513/5/1 514/1/1 515/4/1 516/6/1
f 517/5/1 518/1/1 519/4/1 520/6/1
f 521/7/1 522/5/1 523/6/1 524/8/1
f 525/1/1 526/2/1 527/3/1 528/4/1
f 529/5/1 530/1/1 531/4/1 532/6/1
f 533/1/1 534/2/1 535/3/1 536/4/1
f 537/5/1 538/1/1 539/4/1 540/6/1
f 541/1/1 542/2/1 543/3/1 544/4/1
f 545/1/1 546/2/1 547/3/1 548/4/1
f 549/7/1 550/5/1 551/6/1 552/8/1
f 553/1/1 554/2/1 555/3/1 556/4/1
f 557/7/1 558/5/1 559/6/1 560/8/1
f 561/7/1 562/5/1 563/6/1 564/8/1
f 565/7/1 566/5/1 567/6/1 568/8/1
f 569/7/1 570/5/1 571/6/1 572/8/1
f 573/7/1 574/5/1 575/6/1 576/8/1
f 577/7/1 578/5/1 579/6/1 580/8/1
f 581/5/1 582/1/1 583/4/1 584/6/1
f 585/1/1 586/2/1 587/3/1 588/4/1
f 589/5/1 590/1/1 591/4/1 592/6/1
f 593/5/1 594/1/1 595/4/1 596/6/1
f 597/7/1 598/5/1 599/6/1 600/8/1
f 601/5/1 602/1/1 603/4/1 604/6/1
f 605/7/1 606/5/1 607/6/1 608/8/1
f 609/1/1 610/2/1 611/3/1 612/4/1
f 613/5/1 614/1/1 615/4/1 616/6/1
f 617/1/1 618/2/1 619/3/1 620/4/1
f 621/1/1 622/2/1 623/3/1 624/4/1
f 625/7/1 626/5/1 627/6/1 628/8/1
f 629/5/1 630/1/1 631/4/1 632/6/1
f 633/5/1 634/1/1 635/4/1 636/6/1
f 637/5/1 638/1/1 639/4/1 640/6/1

