# Tiled2Unity generated file. Do not modify by hand.
# Wavefront file for 'testmap1_mesh_0523.obj'

# Vertices (Count = 1024)
v 0 -1 0
v -1 -1 0
v -1 0 0
v 0 0 0
v -1 -1 0
v -2 -1 0
v -2 0 0
v -1 0 0
v -2 -1 0
v -3 -1 0
v -3 0 0
v -2 0 0
v -3 -1 0
v -4 -1 0
v -4 0 0
v -3 0 0
v -4 -1 0
v -5 -1 0
v -5 0 0
v -4 0 0
v -5 -1 0
v -6 -1 0
v -6 0 0
v -5 0 0
v -6 -1 0
v -7 -1 0
v -7 0 0
v -6 0 0
v -7 -1 0
v -8 -1 0
v -8 0 0
v -7 0 0
v -8 -1 0
v -9 -1 0
v -9 0 0
v -8 0 0
v -9 -1 0
v -10 -1 0
v -10 0 0
v -9 0 0
v -10 -1 0
v -11 -1 0
v -11 0 0
v -10 0 0
v -11 -1 0
v -12 -1 0
v -12 0 0
v -11 0 0
v -12 -1 0
v -13 -1 0
v -13 0 0
v -12 0 0
v -13 -1 0
v -14 -1 0
v -14 0 0
v -13 0 0
v -14 -1 0
v -15 -1 0
v -15 0 0
v -14 0 0
v -15 -1 0
v -16 -1 0
v -16 0 0
v -15 0 0
v 0 -2 0
v -1 -2 0
v -1 -1 0
v 0 -1 0
v -1 -2 0
v -2 -2 0
v -2 -1 0
v -1 -1 0
v -2 -2 0
v -3 -2 0
v -3 -1 0
v -2 -1 0
v -3 -2 0
v -4 -2 0
v -4 -1 0
v -3 -1 0
v -4 -2 0
v -5 -2 0
v -5 -1 0
v -4 -1 0
v -5 -2 0
v -6 -2 0
v -6 -1 0
v -5 -1 0
v -6 -2 0
v -7 -2 0
v -7 -1 0
v -6 -1 0
v -7 -2 0
v -8 -2 0
v -8 -1 0
v -7 -1 0
v -8 -2 0
v -9 -2 0
v -9 -1 0
v -8 -1 0
v -9 -2 0
v -10 -2 0
v -10 -1 0
v -9 -1 0
v -10 -2 0
v -11 -2 0
v -11 -1 0
v -10 -1 0
v -11 -2 0
v -12 -2 0
v -12 -1 0
v -11 -1 0
v -12 -2 0
v -13 -2 0
v -13 -1 0
v -12 -1 0
v -13 -2 0
v -14 -2 0
v -14 -1 0
v -13 -1 0
v -14 -2 0
v -15 -2 0
v -15 -1 0
v -14 -1 0
v -15 -2 0
v -16 -2 0
v -16 -1 0
v -15 -1 0
v 0 -3 0
v -1 -3 0
v -1 -2 0
v 0 -2 0
v -1 -3 0
v -2 -3 0
v -2 -2 0
v -1 -2 0
v -2 -3 0
v -3 -3 0
v -3 -2 0
v -2 -2 0
v -3 -3 0
v -4 -3 0
v -4 -2 0
v -3 -2 0
v -4 -3 0
v -5 -3 0
v -5 -2 0
v -4 -2 0
v -5 -3 0
v -6 -3 0
v -6 -2 0
v -5 -2 0
v -6 -3 0
v -7 -3 0
v -7 -2 0
v -6 -2 0
v -7 -3 0
v -8 -3 0
v -8 -2 0
v -7 -2 0
v -8 -3 0
v -9 -3 0
v -9 -2 0
v -8 -2 0
v -9 -3 0
v -10 -3 0
v -10 -2 0
v -9 -2 0
v -10 -3 0
v -11 -3 0
v -11 -2 0
v -10 -2 0
v -11 -3 0
v -12 -3 0
v -12 -2 0
v -11 -2 0
v -12 -3 0
v -13 -3 0
v -13 -2 0
v -12 -2 0
v -13 -3 0
v -14 -3 0
v -14 -2 0
v -13 -2 0
v -14 -3 0
v -15 -3 0
v -15 -2 0
v -14 -2 0
v -15 -3 0
v -16 -3 0
v -16 -2 0
v -15 -2 0
v 0 -4 0
v -1 -4 0
v -1 -3 0
v 0 -3 0
v -1 -4 0
v -2 -4 0
v -2 -3 0
v -1 -3 0
v -2 -4 0
v -3 -4 0
v -3 -3 0
v -2 -3 0
v -3 -4 0
v -4 -4 0
v -4 -3 0
v -3 -3 0
v -4 -4 0
v -5 -4 0
v -5 -3 0
v -4 -3 0
v -5 -4 0
v -6 -4 0
v -6 -3 0
v -5 -3 0
v -6 -4 0
v -7 -4 0
v -7 -3 0
v -6 -3 0
v -7 -4 0
v -8 -4 0
v -8 -3 0
v -7 -3 0
v -8 -4 0
v -9 -4 0
v -9 -3 0
v -8 -3 0
v -9 -4 0
v -10 -4 0
v -10 -3 0
v -9 -3 0
v -10 -4 0
v -11 -4 0
v -11 -3 0
v -10 -3 0
v -11 -4 0
v -12 -4 0
v -12 -3 0
v -11 -3 0
v -12 -4 0
v -13 -4 0
v -13 -3 0
v -12 -3 0
v -13 -4 0
v -14 -4 0
v -14 -3 0
v -13 -3 0
v -14 -4 0
v -15 -4 0
v -15 -3 0
v -14 -3 0
v -15 -4 0
v -16 -4 0
v -16 -3 0
v -15 -3 0
v 0 -5 0
v -1 -5 0
v -1 -4 0
v 0 -4 0
v -1 -5 0
v -2 -5 0
v -2 -4 0
v -1 -4 0
v -2 -5 0
v -3 -5 0
v -3 -4 0
v -2 -4 0
v -3 -5 0
v -4 -5 0
v -4 -4 0
v -3 -4 0
v -4 -5 0
v -5 -5 0
v -5 -4 0
v -4 -4 0
v -5 -5 0
v -6 -5 0
v -6 -4 0
v -5 -4 0
v -6 -5 0
v -7 -5 0
v -7 -4 0
v -6 -4 0
v -7 -5 0
v -8 -5 0
v -8 -4 0
v -7 -4 0
v -8 -5 0
v -9 -5 0
v -9 -4 0
v -8 -4 0
v -9 -5 0
v -10 -5 0
v -10 -4 0
v -9 -4 0
v -10 -5 0
v -11 -5 0
v -11 -4 0
v -10 -4 0
v -11 -5 0
v -12 -5 0
v -12 -4 0
v -11 -4 0
v -12 -5 0
v -13 -5 0
v -13 -4 0
v -12 -4 0
v -13 -5 0
v -14 -5 0
v -14 -4 0
v -13 -4 0
v -14 -5 0
v -15 -5 0
v -15 -4 0
v -14 -4 0
v -15 -5 0
v -16 -5 0
v -16 -4 0
v -15 -4 0
v 0 -6 0
v -1 -6 0
v -1 -5 0
v 0 -5 0
v -1 -6 0
v -2 -6 0
v -2 -5 0
v -1 -5 0
v -2 -6 0
v -3 -6 0
v -3 -5 0
v -2 -5 0
v -3 -6 0
v -4 -6 0
v -4 -5 0
v -3 -5 0
v -4 -6 0
v -5 -6 0
v -5 -5 0
v -4 -5 0
v -5 -6 0
v -6 -6 0
v -6 -5 0
v -5 -5 0
v -6 -6 0
v -7 -6 0
v -7 -5 0
v -6 -5 0
v -7 -6 0
v -8 -6 0
v -8 -5 0
v -7 -5 0
v -8 -6 0
v -9 -6 0
v -9 -5 0
v -8 -5 0
v -9 -6 0
v -10 -6 0
v -10 -5 0
v -9 -5 0
v -10 -6 0
v -11 -6 0
v -11 -5 0
v -10 -5 0
v -11 -6 0
v -12 -6 0
v -12 -5 0
v -11 -5 0
v -12 -6 0
v -13 -6 0
v -13 -5 0
v -12 -5 0
v -13 -6 0
v -14 -6 0
v -14 -5 0
v -13 -5 0
v -14 -6 0
v -15 -6 0
v -15 -5 0
v -14 -5 0
v -15 -6 0
v -16 -6 0
v -16 -5 0
v -15 -5 0
v 0 -7 0
v -1 -7 0
v -1 -6 0
v 0 -6 0
v -1 -7 0
v -2 -7 0
v -2 -6 0
v -1 -6 0
v -2 -7 0
v -3 -7 0
v -3 -6 0
v -2 -6 0
v -3 -7 0
v -4 -7 0
v -4 -6 0
v -3 -6 0
v -4 -7 0
v -5 -7 0
v -5 -6 0
v -4 -6 0
v -5 -7 0
v -6 -7 0
v -6 -6 0
v -5 -6 0
v -6 -7 0
v -7 -7 0
v -7 -6 0
v -6 -6 0
v -7 -7 0
v -8 -7 0
v -8 -6 0
v -7 -6 0
v -8 -7 0
v -9 -7 0
v -9 -6 0
v -8 -6 0
v -9 -7 0
v -10 -7 0
v -10 -6 0
v -9 -6 0
v -10 -7 0
v -11 -7 0
v -11 -6 0
v -10 -6 0
v -11 -7 0
v -12 -7 0
v -12 -6 0
v -11 -6 0
v -12 -7 0
v -13 -7 0
v -13 -6 0
v -12 -6 0
v -13 -7 0
v -14 -7 0
v -14 -6 0
v -13 -6 0
v -14 -7 0
v -15 -7 0
v -15 -6 0
v -14 -6 0
v -15 -7 0
v -16 -7 0
v -16 -6 0
v -15 -6 0
v 0 -8 0
v -1 -8 0
v -1 -7 0
v 0 -7 0
v -1 -8 0
v -2 -8 0
v -2 -7 0
v -1 -7 0
v -2 -8 0
v -3 -8 0
v -3 -7 0
v -2 -7 0
v -3 -8 0
v -4 -8 0
v -4 -7 0
v -3 -7 0
v -4 -8 0
v -5 -8 0
v -5 -7 0
v -4 -7 0
v -5 -8 0
v -6 -8 0
v -6 -7 0
v -5 -7 0
v -6 -8 0
v -7 -8 0
v -7 -7 0
v -6 -7 0
v -7 -8 0
v -8 -8 0
v -8 -7 0
v -7 -7 0
v -8 -8 0
v -9 -8 0
v -9 -7 0
v -8 -7 0
v -9 -8 0
v -10 -8 0
v -10 -7 0
v -9 -7 0
v -10 -8 0
v -11 -8 0
v -11 -7 0
v -10 -7 0
v -11 -8 0
v -12 -8 0
v -12 -7 0
v -11 -7 0
v -12 -8 0
v -13 -8 0
v -13 -7 0
v -12 -7 0
v -13 -8 0
v -14 -8 0
v -14 -7 0
v -13 -7 0
v -14 -8 0
v -15 -8 0
v -15 -7 0
v -14 -7 0
v -15 -8 0
v -16 -8 0
v -16 -7 0
v -15 -7 0
v 0 -9 0
v -1 -9 0
v -1 -8 0
v 0 -8 0
v -1 -9 0
v -2 -9 0
v -2 -8 0
v -1 -8 0
v -2 -9 0
v -3 -9 0
v -3 -8 0
v -2 -8 0
v -3 -9 0
v -4 -9 0
v -4 -8 0
v -3 -8 0
v -4 -9 0
v -5 -9 0
v -5 -8 0
v -4 -8 0
v -5 -9 0
v -6 -9 0
v -6 -8 0
v -5 -8 0
v -6 -9 0
v -7 -9 0
v -7 -8 0
v -6 -8 0
v -7 -9 0
v -8 -9 0
v -8 -8 0
v -7 -8 0
v -8 -9 0
v -9 -9 0
v -9 -8 0
v -8 -8 0
v -9 -9 0
v -10 -9 0
v -10 -8 0
v -9 -8 0
v -10 -9 0
v -11 -9 0
v -11 -8 0
v -10 -8 0
v -11 -9 0
v -12 -9 0
v -12 -8 0
v -11 -8 0
v -12 -9 0
v -13 -9 0
v -13 -8 0
v -12 -8 0
v -13 -9 0
v -14 -9 0
v -14 -8 0
v -13 -8 0
v -14 -9 0
v -15 -9 0
v -15 -8 0
v -14 -8 0
v -15 -9 0
v -16 -9 0
v -16 -8 0
v -15 -8 0
v 0 -10 0
v -1 -10 0
v -1 -9 0
v 0 -9 0
v -1 -10 0
v -2 -10 0
v -2 -9 0
v -1 -9 0
v -2 -10 0
v -3 -10 0
v -3 -9 0
v -2 -9 0
v -3 -10 0
v -4 -10 0
v -4 -9 0
v -3 -9 0
v -4 -10 0
v -5 -10 0
v -5 -9 0
v -4 -9 0
v -5 -10 0
v -6 -10 0
v -6 -9 0
v -5 -9 0
v -6 -10 0
v -7 -10 0
v -7 -9 0
v -6 -9 0
v -7 -10 0
v -8 -10 0
v -8 -9 0
v -7 -9 0
v -8 -10 0
v -9 -10 0
v -9 -9 0
v -8 -9 0
v -9 -10 0
v -10 -10 0
v -10 -9 0
v -9 -9 0
v -10 -10 0
v -11 -10 0
v -11 -9 0
v -10 -9 0
v -11 -10 0
v -12 -10 0
v -12 -9 0
v -11 -9 0
v -12 -10 0
v -13 -10 0
v -13 -9 0
v -12 -9 0
v -13 -10 0
v -14 -10 0
v -14 -9 0
v -13 -9 0
v -14 -10 0
v -15 -10 0
v -15 -9 0
v -14 -9 0
v -15 -10 0
v -16 -10 0
v -16 -9 0
v -15 -9 0
v 0 -11 0
v -1 -11 0
v -1 -10 0
v 0 -10 0
v -1 -11 0
v -2 -11 0
v -2 -10 0
v -1 -10 0
v -2 -11 0
v -3 -11 0
v -3 -10 0
v -2 -10 0
v -3 -11 0
v -4 -11 0
v -4 -10 0
v -3 -10 0
v -4 -11 0
v -5 -11 0
v -5 -10 0
v -4 -10 0
v -5 -11 0
v -6 -11 0
v -6 -10 0
v -5 -10 0
v -6 -11 0
v -7 -11 0
v -7 -10 0
v -6 -10 0
v -7 -11 0
v -8 -11 0
v -8 -10 0
v -7 -10 0
v -8 -11 0
v -9 -11 0
v -9 -10 0
v -8 -10 0
v -9 -11 0
v -10 -11 0
v -10 -10 0
v -9 -10 0
v -10 -11 0
v -11 -11 0
v -11 -10 0
v -10 -10 0
v -11 -11 0
v -12 -11 0
v -12 -10 0
v -11 -10 0
v -12 -11 0
v -13 -11 0
v -13 -10 0
v -12 -10 0
v -13 -11 0
v -14 -11 0
v -14 -10 0
v -13 -10 0
v -14 -11 0
v -15 -11 0
v -15 -10 0
v -14 -10 0
v -15 -11 0
v -16 -11 0
v -16 -10 0
v -15 -10 0
v 0 -12 0
v -1 -12 0
v -1 -11 0
v 0 -11 0
v -1 -12 0
v -2 -12 0
v -2 -11 0
v -1 -11 0
v -2 -12 0
v -3 -12 0
v -3 -11 0
v -2 -11 0
v -3 -12 0
v -4 -12 0
v -4 -11 0
v -3 -11 0
v -4 -12 0
v -5 -12 0
v -5 -11 0
v -4 -11 0
v -5 -12 0
v -6 -12 0
v -6 -11 0
v -5 -11 0
v -6 -12 0
v -7 -12 0
v -7 -11 0
v -6 -11 0
v -7 -12 0
v -8 -12 0
v -8 -11 0
v -7 -11 0
v -8 -12 0
v -9 -12 0
v -9 -11 0
v -8 -11 0
v -9 -12 0
v -10 -12 0
v -10 -11 0
v -9 -11 0
v -10 -12 0
v -11 -12 0
v -11 -11 0
v -10 -11 0
v -11 -12 0
v -12 -12 0
v -12 -11 0
v -11 -11 0
v -12 -12 0
v -13 -12 0
v -13 -11 0
v -12 -11 0
v -13 -12 0
v -14 -12 0
v -14 -11 0
v -13 -11 0
v -14 -12 0
v -15 -12 0
v -15 -11 0
v -14 -11 0
v -15 -12 0
v -16 -12 0
v -16 -11 0
v -15 -11 0
v 0 -13 0
v -1 -13 0
v -1 -12 0
v 0 -12 0
v -1 -13 0
v -2 -13 0
v -2 -12 0
v -1 -12 0
v -2 -13 0
v -3 -13 0
v -3 -12 0
v -2 -12 0
v -3 -13 0
v -4 -13 0
v -4 -12 0
v -3 -12 0
v -4 -13 0
v -5 -13 0
v -5 -12 0
v -4 -12 0
v -5 -13 0
v -6 -13 0
v -6 -12 0
v -5 -12 0
v -6 -13 0
v -7 -13 0
v -7 -12 0
v -6 -12 0
v -7 -13 0
v -8 -13 0
v -8 -12 0
v -7 -12 0
v -8 -13 0
v -9 -13 0
v -9 -12 0
v -8 -12 0
v -9 -13 0
v -10 -13 0
v -10 -12 0
v -9 -12 0
v -10 -13 0
v -11 -13 0
v -11 -12 0
v -10 -12 0
v -11 -13 0
v -12 -13 0
v -12 -12 0
v -11 -12 0
v -12 -13 0
v -13 -13 0
v -13 -12 0
v -12 -12 0
v -13 -13 0
v -14 -13 0
v -14 -12 0
v -13 -12 0
v -14 -13 0
v -15 -13 0
v -15 -12 0
v -14 -12 0
v -15 -13 0
v -16 -13 0
v -16 -12 0
v -15 -12 0
v 0 -14 0
v -1 -14 0
v -1 -13 0
v 0 -13 0
v -1 -14 0
v -2 -14 0
v -2 -13 0
v -1 -13 0
v -2 -14 0
v -3 -14 0
v -3 -13 0
v -2 -13 0
v -3 -14 0
v -4 -14 0
v -4 -13 0
v -3 -13 0
v -4 -14 0
v -5 -14 0
v -5 -13 0
v -4 -13 0
v -5 -14 0
v -6 -14 0
v -6 -13 0
v -5 -13 0
v -6 -14 0
v -7 -14 0
v -7 -13 0
v -6 -13 0
v -7 -14 0
v -8 -14 0
v -8 -13 0
v -7 -13 0
v -8 -14 0
v -9 -14 0
v -9 -13 0
v -8 -13 0
v -9 -14 0
v -10 -14 0
v -10 -13 0
v -9 -13 0
v -10 -14 0
v -11 -14 0
v -11 -13 0
v -10 -13 0
v -11 -14 0
v -12 -14 0
v -12 -13 0
v -11 -13 0
v -12 -14 0
v -13 -14 0
v -13 -13 0
v -12 -13 0
v -13 -14 0
v -14 -14 0
v -14 -13 0
v -13 -13 0
v -14 -14 0
v -15 -14 0
v -15 -13 0
v -14 -13 0
v -15 -14 0
v -16 -14 0
v -16 -13 0
v -15 -13 0
v 0 -15 0
v -1 -15 0
v -1 -14 0
v 0 -14 0
v -1 -15 0
v -2 -15 0
v -2 -14 0
v -1 -14 0
v -2 -15 0
v -3 -15 0
v -3 -14 0
v -2 -14 0
v -3 -15 0
v -4 -15 0
v -4 -14 0
v -3 -14 0
v -4 -15 0
v -5 -15 0
v -5 -14 0
v -4 -14 0
v -5 -15 0
v -6 -15 0
v -6 -14 0
v -5 -14 0
v -6 -15 0
v -7 -15 0
v -7 -14 0
v -6 -14 0
v -7 -15 0
v -8 -15 0
v -8 -14 0
v -7 -14 0
v -8 -15 0
v -9 -15 0
v -9 -14 0
v -8 -14 0
v -9 -15 0
v -10 -15 0
v -10 -14 0
v -9 -14 0
v -10 -15 0
v -11 -15 0
v -11 -14 0
v -10 -14 0
v -11 -15 0
v -12 -15 0
v -12 -14 0
v -11 -14 0
v -12 -15 0
v -13 -15 0
v -13 -14 0
v -12 -14 0
v -13 -15 0
v -14 -15 0
v -14 -14 0
v -13 -14 0
v -14 -15 0
v -15 -15 0
v -15 -14 0
v -14 -14 0
v -15 -15 0
v -16 -15 0
v -16 -14 0
v -15 -14 0
v 0 -16 0
v -1 -16 0
v -1 -15 0
v 0 -15 0
v -1 -16 0
v -2 -16 0
v -2 -15 0
v -1 -15 0
v -2 -16 0
v -3 -16 0
v -3 -15 0
v -2 -15 0
v -3 -16 0
v -4 -16 0
v -4 -15 0
v -3 -15 0
v -4 -16 0
v -5 -16 0
v -5 -15 0
v -4 -15 0
v -5 -16 0
v -6 -16 0
v -6 -15 0
v -5 -15 0
v -6 -16 0
v -7 -16 0
v -7 -15 0
v -6 -15 0
v -7 -16 0
v -8 -16 0
v -8 -15 0
v -7 -15 0
v -8 -16 0
v -9 -16 0
v -9 -15 0
v -8 -15 0
v -9 -16 0
v -10 -16 0
v -10 -15 0
v -9 -15 0
v -10 -16 0
v -11 -16 0
v -11 -15 0
v -10 -15 0
v -11 -16 0
v -12 -16 0
v -12 -15 0
v -11 -15 0
v -12 -16 0
v -13 -16 0
v -13 -15 0
v -12 -15 0
v -13 -16 0
v -14 -16 0
v -14 -15 0
v -13 -15 0
v -14 -16 0
v -15 -16 0
v -15 -15 0
v -14 -15 0
v -15 -16 0
v -16 -16 0
v -16 -15 0
v -15 -15 0

# Texture cooridinates (Count = 8)
vt 0.71875 0.8125
vt 0.75 0.8125
vt 0.75 0.84375
vt 0.71875 0.84375
vt 0.65625 0.8125
vt 0.6875 0.8125
vt 0.6875 0.84375
vt 0.65625 0.84375

# Normal
vn 0 0 -1

# Mesh description
g testmap1_mesh_0523

# Faces
f 1/1/1 2/2/1 3/3/1 4/4/1
f 5/5/1 6/6/1 7/7/1 8/8/1
f 9/1/1 10/2/1 11/3/1 12/4/1
f 13/5/1 14/6/1 15/7/1 16/8/1
f 17/1/1 18/2/1 19/3/1 20/4/1
f 21/1/1 22/2/1 23/3/1 24/4/1
f 25/6/1 26/1/1 27/4/1 28/7/1
f 29/5/1 30/6/1 31/7/1 32/8/1
f 33/6/1 34/1/1 35/4/1 36/7/1
f 37/1/1 38/2/1 39/3/1 40/4/1
f 41/6/1 42/1/1 43/4/1 44/7/1
f 45/1/1 46/2/1 47/3/1 48/4/1
f 49/6/1 50/1/1 51/4/1 52/7/1
f 53/6/1 54/1/1 55/4/1 56/7/1
f 57/1/1 58/2/1 59/3/1 60/4/1
f 61/6/1 62/1/1 63/4/1 64/7/1
f 65/1/1 66/2/1 67/3/1 68/4/1
f 69/1/1 70/2/1 71/3/1 72/4/1
f 73/6/1 74/1/1 75/4/1 76/7/1
f 77/5/1 78/6/1 79/7/1 80/8/1
f 81/6/1 82/1/1 83/4/1 84/7/1
f 85/1/1 86/2/1 87/3/1 88/4/1
f 89/5/1 90/6/1 91/7/1 92/8/1
f 93/5/1 94/6/1 95/7/1 96/8/1
f 97/5/1 98/6/1 99/7/1 100/8/1
f 101/6/1 102/1/1 103/4/1 104/7/1
f 105/5/1 106/6/1 107/7/1 108/8/1
f 109/5/1 110/6/1 111/7/1 112/8/1
f 113/6/1 114/1/1 115/4/1 116/7/1
f 117/6/1 118/1/1 119/4/1 120/7/1
f 121/1/1 122/2/1 123/3/1 124/4/1
f 125/6/1 126/1/1 127/4/1 128/7/1
f 129/1/1 130/2/1 131/3/1 132/4/1
f 133/1/1 134/2/1 135/3/1 136/4/1
f 137/6/1 138/1/1 139/4/1 140/7/1
f 141/5/1 142/6/1 143/7/1 144/8/1
f 145/1/1 146/2/1 147/3/1 148/4/1
f 149/5/1 150/6/1 151/7/1 152/8/1
f 153/1/1 154/2/1 155/3/1 156/4/1
f 157/5/1 158/6/1 159/7/1 160/8/1
f 161/5/1 162/6/1 163/7/1 164/8/1
f 165/5/1 166/6/1 167/7/1 168/8/1
f 169/5/1 170/6/1 171/7/1 172/8/1
f 173/6/1 174/1/1 175/4/1 176/7/1
f 177/6/1 178/1/1 179/4/1 180/7/1
f 181/1/1 182/2/1 183/3/1 184/4/1
f 185/1/1 186/2/1 187/3/1 188/4/1
f 189/6/1 190/1/1 191/4/1 192/7/1
f 193/5/1 194/6/1 195/7/1 196/8/1
f 197/1/1 198/2/1 199/3/1 200/4/1
f 201/6/1 202/1/1 203/4/1 204/7/1
f 205/6/1 206/1/1 207/4/1 208/7/1
f 209/5/1 210/6/1 211/7/1 212/8/1
f 213/6/1 214/1/1 215/4/1 216/7/1
f 217/6/1 218/1/1 219/4/1 220/7/1
f 221/5/1 222/6/1 223/7/1 224/8/1
f 225/6/1 226/1/1 227/4/1 228/7/1
f 229/1/1 230/2/1 231/3/1 232/4/1
f 233/6/1 234/1/1 235/4/1 236/7/1
f 237/5/1 238/6/1 239/7/1 240/8/1
f 241/1/1 242/2/1 243/3/1 244/4/1
f 245/1/1 246/2/1 247/3/1 248/4/1
f 249/5/1 250/6/1 251/7/1 252/8/1
f 253/1/1 254/2/1 255/3/1 256/4/1
f 257/1/1 258/2/1 259/3/1 260/4/1
f 261/6/1 262/1/1 263/4/1 264/7/1
f 265/5/1 266/6/1 267/7/1 268/8/1
f 269/5/1 270/6/1 271/7/1 272/8/1
f 273/1/1 274/2/1 275/3/1 276/4/1
f 277/5/1 278/6/1 279/7/1 280/8/1
f 281/6/1 282/1/1 283/4/1 284/7/1
f 285/5/1 286/6/1 287/7/1 288/8/1
f 289/1/1 290/2/1 291/3/1 292/4/1
f 293/1/1 294/2/1 295/3/1 296/4/1
f 297/1/1 298/2/1 299/3/1 300/4/1
f 301/1/1 302/2/1 303/3/1 304/4/1
f 305/5/1 306/6/1 307/7/1 308/8/1
f 309/5/1 310/6/1 311/7/1 312/8/1
f 313/5/1 314/6/1 315/7/1 316/8/1
f 317/5/1 318/6/1 319/7/1 320/8/1
f 321/6/1 322/1/1 323/4/1 324/7/1
f 325/5/1 326/6/1 327/7/1 328/8/1
f 329/1/1 330/2/1 331/3/1 332/4/1
f 333/6/1 334/1/1 335/4/1 336/7/1
f 337/1/1 338/2/1 339/3/1 340/4/1
f 341/5/1 342/6/1 343/7/1 344/8/1
f 345/5/1 346/6/1 347/7/1 348/8/1
f 349/6/1 350/1/1 351/4/1 352/7/1
f 353/1/1 354/2/1 355/3/1 356/4/1
f 357/1/1 358/2/1 359/3/1 360/4/1
f 361/1/1 362/2/1 363/3/1 364/4/1
f 365/5/1 366/6/1 367/7/1 368/8/1
f 369/6/1 370/1/1 371/4/1 372/7/1
f 373/5/1 374/6/1 375/7/1 376/8/1
f 377/6/1 378/1/1 379/4/1 380/7/1
f 381/1/1 382/2/1 383/3/1 384/4/1
f 385/1/1 386/2/1 387/3/1 388/4/1
f 389/5/1 390/6/1 391/7/1 392/8/1
f 393/6/1 394/1/1 395/4/1 396/7/1
f 397/1/1 398/2/1 399/3/1 400/4/1
f 401/6/1 402/1/1 403/4/1 404/7/1
f 405/5/1 406/6/1 407/7/1 408/8/1
f 409/1/1 410/2/1 411/3/1 412/4/1
f 413/6/1 414/1/1 415/4/1 416/7/1
f 417/6/1 418/1/1 419/4/1 420/7/1
f 421/6/1 422/1/1 423/4/1 424/7/1
f 425/1/1 426/2/1 427/3/1 428/4/1
f 429/6/1 430/1/1 431/4/1 432/7/1
f 433/1/1 434/2/1 435/3/1 436/4/1
f 437/5/1 438/6/1 439/7/1 440/8/1
f 441/1/1 442/2/1 443/3/1 444/4/1
f 445/6/1 446/1/1 447/4/1 448/7/1
f 449/5/1 450/6/1 451/7/1 452/8/1
f 453/1/1 454/2/1 455/3/1 456/4/1
f 457/5/1 458/6/1 459/7/1 460/8/1
f 461/5/1 462/6/1 463/7/1 464/8/1
f 465/6/1 466/1/1 467/4/1 468/7/1
f 469/6/1 470/1/1 471/4/1 472/7/1
f 473/1/1 474/2/1 475/3/1 476/4/1
f 477/1/1 478/2/1 479/3/1 480/4/1
f 481/6/1 482/1/1 483/4/1 484/7/1
f 485/1/1 486/2/1 487/3/1 488/4/1
f 489/1/1 490/2/1 491/3/1 492/4/1
f 493/5/1 494/6/1 495/7/1 496/8/1
f 497/5/1 498/6/1 499/7/1 500/8/1
f 501/1/1 502/2/1 503/3/1 504/4/1
f 505/6/1 506/1/1 507/4/1 508/7/1
f 509/1/1 510/2/1 511/3/1 512/4/1
f 513/5/1 514/6/1 515/7/1 516/8/1
f 517/6/1 518/1/1 519/4/1 520/7/1
f 521/5/1 522/6/1 523/7/1 524/8/1
f 525/1/1 526/2/1 527/3/1 528/4/1
f 529/6/1 530/1/1 531/4/1 532/7/1
f 533/6/1 534/1/1 535/4/1 536/7/1
f 537/5/1 538/6/1 539/7/1 540/8/1
f 541/1/1 542/2/1 543/3/1 544/4/1
f 545/1/1 546/2/1 547/3/1 548/4/1
f 549/1/1 550/2/1 551/3/1 552/4/1
f 553/6/1 554/1/1 555/4/1 556/7/1
f 557/6/1 558/1/1 559/4/1 560/7/1
f 561/5/1 562/6/1 563/7/1 564/8/1
f 565/1/1 566/2/1 567/3/1 568/4/1
f 569/1/1 570/2/1 571/3/1 572/4/1
f 573/1/1 574/2/1 575/3/1 576/4/1
f 577/1/1 578/2/1 579/3/1 580/4/1
f 581/5/1 582/6/1 583/7/1 584/8/1
f 585/6/1 586/1/1 587/4/1 588/7/1
f 589/6/1 590/1/1 591/4/1 592/7/1
f 593/6/1 594/1/1 595/4/1 596/7/1
f 597/6/1 598/1/1 599/4/1 600/7/1
f 601/1/1 602/2/1 603/3/1 604/4/1
f 605/6/1 606/1/1 607/4/1 608/7/1
f 609/6/1 610/1/1 611/4/1 612/7/1
f 613/1/1 614/2/1 615/3/1 616/4/1
f 617/6/1 618/1/1 619/4/1 620/7/1
f 621/5/1 622/6/1 623/7/1 624/8/1
f 625/5/1 626/6/1 627/7/1 628/8/1
f 629/1/1 630/2/1 631/3/1 632/4/1
f 633/1/1 634/2/1 635/3/1 636/4/1
f 637/1/1 638/2/1 639/3/1 640/4/1
f 641/6/1 642/1/1 643/4/1 644/7/1
f 645/5/1 646/6/1 647/7/1 648/8/1
f 649/1/1 650/2/1 651/3/1 652/4/1
f 653/6/1 654/1/1 655/4/1 656/7/1
f 657/6/1 658/1/1 659/4/1 660/7/1
f 661/1/1 662/2/1 663/3/1 664/4/1
f 665/1/1 666/2/1 667/3/1 668/4/1
f 669/5/1 670/6/1 671/7/1 672/8/1
f 673/6/1 674/1/1 675/4/1 676/7/1
f 677/1/1 678/2/1 679/3/1 680/4/1
f 681/6/1 682/1/1 683/4/1 684/7/1
f 685/5/1 686/6/1 687/7/1 688/8/1
f 689/1/1 690/2/1 691/3/1 692/4/1
f 693/5/1 694/6/1 695/7/1 696/8/1
f 697/6/1 698/1/1 699/4/1 700/7/1
f 701/6/1 702/1/1 703/4/1 704/7/1
f 705/1/1 706/2/1 707/3/1 708/4/1
f 709/5/1 710/6/1 711/7/1 712/8/1
f 713/6/1 714/1/1 715/4/1 716/7/1
f 717/5/1 718/6/1 719/7/1 720/8/1
f 721/6/1 722/1/1 723/4/1 724/7/1
f 725/6/1 726/1/1 727/4/1 728/7/1
f 729/6/1 730/1/1 731/4/1 732/7/1
f 733/5/1 734/6/1 735/7/1 736/8/1
f 737/1/1 738/2/1 739/3/1 740/4/1
f 741/1/1 742/2/1 743/3/1 744/4/1
f 745/1/1 746/2/1 747/3/1 748/4/1
f 749/5/1 750/6/1 751/7/1 752/8/1
f 753/1/1 754/2/1 755/3/1 756/4/1
f 757/5/1 758/6/1 759/7/1 760/8/1
f 761/5/1 762/6/1 763/7/1 764/8/1
f 765/6/1 766/1/1 767/4/1 768/7/1
f 769/6/1 770/1/1 771/4/1 772/7/1
f 773/1/1 774/2/1 775/3/1 776/4/1
f 777/1/1 778/2/1 779/3/1 780/4/1
f 781/6/1 782/1/1 783/4/1 784/7/1
f 785/5/1 786/6/1 787/7/1 788/8/1
f 789/6/1 790/1/1 791/4/1 792/7/1
f 793/6/1 794/1/1 795/4/1 796/7/1
f 797/6/1 798/1/1 799/4/1 800/7/1
f 801/6/1 802/1/1 803/4/1 804/7/1
f 805/5/1 806/6/1 807/7/1 808/8/1
f 809/6/1 810/1/1 811/4/1 812/7/1
f 813/5/1 814/6/1 815/7/1 816/8/1
f 817/6/1 818/1/1 819/4/1 820/7/1
f 821/6/1 822/1/1 823/4/1 824/7/1
f 825/6/1 826/1/1 827/4/1 828/7/1
f 829/1/1 830/2/1 831/3/1 832/4/1
f 833/1/1 834/2/1 835/3/1 836/4/1
f 837/6/1 838/1/1 839/4/1 840/7/1
f 841/5/1 842/6/1 843/7/1 844/8/1
f 845/1/1 846/2/1 847/3/1 848/4/1
f 849/6/1 850/1/1 851/4/1 852/7/1
f 853/6/1 854/1/1 855/4/1 856/7/1
f 857/5/1 858/6/1 859/7/1 860/8/1
f 861/6/1 862/1/1 863/4/1 864/7/1
f 865/1/1 866/2/1 867/3/1 868/4/1
f 869/5/1 870/6/1 871/7/1 872/8/1
f 873/5/1 874/6/1 875/7/1 876/8/1
f 877/6/1 878/1/1 879/4/1 880/7/1
f 881/5/1 882/6/1 883/7/1 884/8/1
f 885/6/1 886/1/1 887/4/1 888/7/1
f 889/5/1 890/6/1 891/7/1 892/8/1
f 893/6/1 894/1/1 895/4/1 896/7/1
f 897/6/1 898/1/1 899/4/1 900/7/1
f 901/1/1 902/2/1 903/3/1 904/4/1
f 905/5/1 906/6/1 907/7/1 908/8/1
f 909/5/1 910/6/1 911/7/1 912/8/1
f 913/1/1 914/2/1 915/3/1 916/4/1
f 917/6/1 918/1/1 919/4/1 920/7/1
f 921/5/1 922/6/1 923/7/1 924/8/1
f 925/6/1 926/1/1 927/4/1 928/7/1
f 929/6/1 930/1/1 931/4/1 932/7/1
f 933/5/1 934/6/1 935/7/1 936/8/1
f 937/5/1 938/6/1 939/7/1 940/8/1
f 941/1/1 942/2/1 943/3/1 944/4/1
f 945/5/1 946/6/1 947/7/1 948/8/1
f 949/6/1 950/1/1 951/4/1 952/7/1
f 953/5/1 954/6/1 955/7/1 956/8/1
f 957/6/1 958/1/1 959/4/1 960/7/1
f 961/6/1 962/1/1 963/4/1 964/7/1
f 965/6/1 966/1/1 967/4/1 968/7/1
f 969/1/1 970/2/1 971/3/1 972/4/1
f 973/5/1 974/6/1 975/7/1 976/8/1
f 977/6/1 978/1/1 979/4/1 980/7/1
f 981/5/1 982/6/1 983/7/1 984/8/1
f 985/6/1 986/1/1 987/4/1 988/7/1
f 989/1/1 990/2/1 991/3/1 992/4/1
f 993/5/1 994/6/1 995/7/1 996/8/1
f 997/6/1 998/1/1 999/4/1 1000/7/1
f 1001/1/1 1002/2/1 1003/3/1 1004/4/1
f 1005/6/1 1006/1/1 1007/4/1 1008/7/1
f 1009/5/1 1010/6/1 1011/7/1 1012/8/1
f 1013/1/1 1014/2/1 1015/3/1 1016/4/1
f 1017/1/1 1018/2/1 1019/3/1 1020/4/1
f 1021/5/1 1022/6/1 1023/7/1 1024/8/1

