# Tiled2Unity generated file. Do not modify by hand.
# Wavefront file for 'testmap1_mesh_0432.obj'

# Vertices (Count = 1024)
v 0 -1 0
v -1 -1 0
v -1 0 0
v 0 0 0
v -1 -1 0
v -2 -1 0
v -2 0 0
v -1 0 0
v -2 -1 0
v -3 -1 0
v -3 0 0
v -2 0 0
v -3 -1 0
v -4 -1 0
v -4 0 0
v -3 0 0
v -4 -1 0
v -5 -1 0
v -5 0 0
v -4 0 0
v -5 -1 0
v -6 -1 0
v -6 0 0
v -5 0 0
v -6 -1 0
v -7 -1 0
v -7 0 0
v -6 0 0
v -7 -1 0
v -8 -1 0
v -8 0 0
v -7 0 0
v -8 -1 0
v -9 -1 0
v -9 0 0
v -8 0 0
v -9 -1 0
v -10 -1 0
v -10 0 0
v -9 0 0
v -10 -1 0
v -11 -1 0
v -11 0 0
v -10 0 0
v -11 -1 0
v -12 -1 0
v -12 0 0
v -11 0 0
v -12 -1 0
v -13 -1 0
v -13 0 0
v -12 0 0
v -13 -1 0
v -14 -1 0
v -14 0 0
v -13 0 0
v -14 -1 0
v -15 -1 0
v -15 0 0
v -14 0 0
v -15 -1 0
v -16 -1 0
v -16 0 0
v -15 0 0
v 0 -2 0
v -1 -2 0
v -1 -1 0
v 0 -1 0
v -1 -2 0
v -2 -2 0
v -2 -1 0
v -1 -1 0
v -2 -2 0
v -3 -2 0
v -3 -1 0
v -2 -1 0
v -3 -2 0
v -4 -2 0
v -4 -1 0
v -3 -1 0
v -4 -2 0
v -5 -2 0
v -5 -1 0
v -4 -1 0
v -5 -2 0
v -6 -2 0
v -6 -1 0
v -5 -1 0
v -6 -2 0
v -7 -2 0
v -7 -1 0
v -6 -1 0
v -7 -2 0
v -8 -2 0
v -8 -1 0
v -7 -1 0
v -8 -2 0
v -9 -2 0
v -9 -1 0
v -8 -1 0
v -9 -2 0
v -10 -2 0
v -10 -1 0
v -9 -1 0
v -10 -2 0
v -11 -2 0
v -11 -1 0
v -10 -1 0
v -11 -2 0
v -12 -2 0
v -12 -1 0
v -11 -1 0
v -12 -2 0
v -13 -2 0
v -13 -1 0
v -12 -1 0
v -13 -2 0
v -14 -2 0
v -14 -1 0
v -13 -1 0
v -14 -2 0
v -15 -2 0
v -15 -1 0
v -14 -1 0
v -15 -2 0
v -16 -2 0
v -16 -1 0
v -15 -1 0
v 0 -3 0
v -1 -3 0
v -1 -2 0
v 0 -2 0
v -1 -3 0
v -2 -3 0
v -2 -2 0
v -1 -2 0
v -2 -3 0
v -3 -3 0
v -3 -2 0
v -2 -2 0
v -3 -3 0
v -4 -3 0
v -4 -2 0
v -3 -2 0
v -4 -3 0
v -5 -3 0
v -5 -2 0
v -4 -2 0
v -5 -3 0
v -6 -3 0
v -6 -2 0
v -5 -2 0
v -6 -3 0
v -7 -3 0
v -7 -2 0
v -6 -2 0
v -7 -3 0
v -8 -3 0
v -8 -2 0
v -7 -2 0
v -8 -3 0
v -9 -3 0
v -9 -2 0
v -8 -2 0
v -9 -3 0
v -10 -3 0
v -10 -2 0
v -9 -2 0
v -10 -3 0
v -11 -3 0
v -11 -2 0
v -10 -2 0
v -11 -3 0
v -12 -3 0
v -12 -2 0
v -11 -2 0
v -12 -3 0
v -13 -3 0
v -13 -2 0
v -12 -2 0
v -13 -3 0
v -14 -3 0
v -14 -2 0
v -13 -2 0
v -14 -3 0
v -15 -3 0
v -15 -2 0
v -14 -2 0
v -15 -3 0
v -16 -3 0
v -16 -2 0
v -15 -2 0
v 0 -4 0
v -1 -4 0
v -1 -3 0
v 0 -3 0
v -1 -4 0
v -2 -4 0
v -2 -3 0
v -1 -3 0
v -2 -4 0
v -3 -4 0
v -3 -3 0
v -2 -3 0
v -3 -4 0
v -4 -4 0
v -4 -3 0
v -3 -3 0
v -4 -4 0
v -5 -4 0
v -5 -3 0
v -4 -3 0
v -5 -4 0
v -6 -4 0
v -6 -3 0
v -5 -3 0
v -6 -4 0
v -7 -4 0
v -7 -3 0
v -6 -3 0
v -7 -4 0
v -8 -4 0
v -8 -3 0
v -7 -3 0
v -8 -4 0
v -9 -4 0
v -9 -3 0
v -8 -3 0
v -9 -4 0
v -10 -4 0
v -10 -3 0
v -9 -3 0
v -10 -4 0
v -11 -4 0
v -11 -3 0
v -10 -3 0
v -11 -4 0
v -12 -4 0
v -12 -3 0
v -11 -3 0
v -12 -4 0
v -13 -4 0
v -13 -3 0
v -12 -3 0
v -13 -4 0
v -14 -4 0
v -14 -3 0
v -13 -3 0
v -14 -4 0
v -15 -4 0
v -15 -3 0
v -14 -3 0
v -15 -4 0
v -16 -4 0
v -16 -3 0
v -15 -3 0
v 0 -5 0
v -1 -5 0
v -1 -4 0
v 0 -4 0
v -1 -5 0
v -2 -5 0
v -2 -4 0
v -1 -4 0
v -2 -5 0
v -3 -5 0
v -3 -4 0
v -2 -4 0
v -3 -5 0
v -4 -5 0
v -4 -4 0
v -3 -4 0
v -4 -5 0
v -5 -5 0
v -5 -4 0
v -4 -4 0
v -5 -5 0
v -6 -5 0
v -6 -4 0
v -5 -4 0
v -6 -5 0
v -7 -5 0
v -7 -4 0
v -6 -4 0
v -7 -5 0
v -8 -5 0
v -8 -4 0
v -7 -4 0
v -8 -5 0
v -9 -5 0
v -9 -4 0
v -8 -4 0
v -9 -5 0
v -10 -5 0
v -10 -4 0
v -9 -4 0
v -10 -5 0
v -11 -5 0
v -11 -4 0
v -10 -4 0
v -11 -5 0
v -12 -5 0
v -12 -4 0
v -11 -4 0
v -12 -5 0
v -13 -5 0
v -13 -4 0
v -12 -4 0
v -13 -5 0
v -14 -5 0
v -14 -4 0
v -13 -4 0
v -14 -5 0
v -15 -5 0
v -15 -4 0
v -14 -4 0
v -15 -5 0
v -16 -5 0
v -16 -4 0
v -15 -4 0
v 0 -6 0
v -1 -6 0
v -1 -5 0
v 0 -5 0
v -1 -6 0
v -2 -6 0
v -2 -5 0
v -1 -5 0
v -2 -6 0
v -3 -6 0
v -3 -5 0
v -2 -5 0
v -3 -6 0
v -4 -6 0
v -4 -5 0
v -3 -5 0
v -4 -6 0
v -5 -6 0
v -5 -5 0
v -4 -5 0
v -5 -6 0
v -6 -6 0
v -6 -5 0
v -5 -5 0
v -6 -6 0
v -7 -6 0
v -7 -5 0
v -6 -5 0
v -7 -6 0
v -8 -6 0
v -8 -5 0
v -7 -5 0
v -8 -6 0
v -9 -6 0
v -9 -5 0
v -8 -5 0
v -9 -6 0
v -10 -6 0
v -10 -5 0
v -9 -5 0
v -10 -6 0
v -11 -6 0
v -11 -5 0
v -10 -5 0
v -11 -6 0
v -12 -6 0
v -12 -5 0
v -11 -5 0
v -12 -6 0
v -13 -6 0
v -13 -5 0
v -12 -5 0
v -13 -6 0
v -14 -6 0
v -14 -5 0
v -13 -5 0
v -14 -6 0
v -15 -6 0
v -15 -5 0
v -14 -5 0
v -15 -6 0
v -16 -6 0
v -16 -5 0
v -15 -5 0
v 0 -7 0
v -1 -7 0
v -1 -6 0
v 0 -6 0
v -1 -7 0
v -2 -7 0
v -2 -6 0
v -1 -6 0
v -2 -7 0
v -3 -7 0
v -3 -6 0
v -2 -6 0
v -3 -7 0
v -4 -7 0
v -4 -6 0
v -3 -6 0
v -4 -7 0
v -5 -7 0
v -5 -6 0
v -4 -6 0
v -5 -7 0
v -6 -7 0
v -6 -6 0
v -5 -6 0
v -6 -7 0
v -7 -7 0
v -7 -6 0
v -6 -6 0
v -7 -7 0
v -8 -7 0
v -8 -6 0
v -7 -6 0
v -8 -7 0
v -9 -7 0
v -9 -6 0
v -8 -6 0
v -9 -7 0
v -10 -7 0
v -10 -6 0
v -9 -6 0
v -10 -7 0
v -11 -7 0
v -11 -6 0
v -10 -6 0
v -11 -7 0
v -12 -7 0
v -12 -6 0
v -11 -6 0
v -12 -7 0
v -13 -7 0
v -13 -6 0
v -12 -6 0
v -13 -7 0
v -14 -7 0
v -14 -6 0
v -13 -6 0
v -14 -7 0
v -15 -7 0
v -15 -6 0
v -14 -6 0
v -15 -7 0
v -16 -7 0
v -16 -6 0
v -15 -6 0
v 0 -8 0
v -1 -8 0
v -1 -7 0
v 0 -7 0
v -1 -8 0
v -2 -8 0
v -2 -7 0
v -1 -7 0
v -2 -8 0
v -3 -8 0
v -3 -7 0
v -2 -7 0
v -3 -8 0
v -4 -8 0
v -4 -7 0
v -3 -7 0
v -4 -8 0
v -5 -8 0
v -5 -7 0
v -4 -7 0
v -5 -8 0
v -6 -8 0
v -6 -7 0
v -5 -7 0
v -6 -8 0
v -7 -8 0
v -7 -7 0
v -6 -7 0
v -7 -8 0
v -8 -8 0
v -8 -7 0
v -7 -7 0
v -8 -8 0
v -9 -8 0
v -9 -7 0
v -8 -7 0
v -9 -8 0
v -10 -8 0
v -10 -7 0
v -9 -7 0
v -10 -8 0
v -11 -8 0
v -11 -7 0
v -10 -7 0
v -11 -8 0
v -12 -8 0
v -12 -7 0
v -11 -7 0
v -12 -8 0
v -13 -8 0
v -13 -7 0
v -12 -7 0
v -13 -8 0
v -14 -8 0
v -14 -7 0
v -13 -7 0
v -14 -8 0
v -15 -8 0
v -15 -7 0
v -14 -7 0
v -15 -8 0
v -16 -8 0
v -16 -7 0
v -15 -7 0
v 0 -9 0
v -1 -9 0
v -1 -8 0
v 0 -8 0
v -1 -9 0
v -2 -9 0
v -2 -8 0
v -1 -8 0
v -2 -9 0
v -3 -9 0
v -3 -8 0
v -2 -8 0
v -3 -9 0
v -4 -9 0
v -4 -8 0
v -3 -8 0
v -4 -9 0
v -5 -9 0
v -5 -8 0
v -4 -8 0
v -5 -9 0
v -6 -9 0
v -6 -8 0
v -5 -8 0
v -6 -9 0
v -7 -9 0
v -7 -8 0
v -6 -8 0
v -7 -9 0
v -8 -9 0
v -8 -8 0
v -7 -8 0
v -8 -9 0
v -9 -9 0
v -9 -8 0
v -8 -8 0
v -9 -9 0
v -10 -9 0
v -10 -8 0
v -9 -8 0
v -10 -9 0
v -11 -9 0
v -11 -8 0
v -10 -8 0
v -11 -9 0
v -12 -9 0
v -12 -8 0
v -11 -8 0
v -12 -9 0
v -13 -9 0
v -13 -8 0
v -12 -8 0
v -13 -9 0
v -14 -9 0
v -14 -8 0
v -13 -8 0
v -14 -9 0
v -15 -9 0
v -15 -8 0
v -14 -8 0
v -15 -9 0
v -16 -9 0
v -16 -8 0
v -15 -8 0
v 0 -10 0
v -1 -10 0
v -1 -9 0
v 0 -9 0
v -1 -10 0
v -2 -10 0
v -2 -9 0
v -1 -9 0
v -2 -10 0
v -3 -10 0
v -3 -9 0
v -2 -9 0
v -3 -10 0
v -4 -10 0
v -4 -9 0
v -3 -9 0
v -4 -10 0
v -5 -10 0
v -5 -9 0
v -4 -9 0
v -5 -10 0
v -6 -10 0
v -6 -9 0
v -5 -9 0
v -6 -10 0
v -7 -10 0
v -7 -9 0
v -6 -9 0
v -7 -10 0
v -8 -10 0
v -8 -9 0
v -7 -9 0
v -8 -10 0
v -9 -10 0
v -9 -9 0
v -8 -9 0
v -9 -10 0
v -10 -10 0
v -10 -9 0
v -9 -9 0
v -10 -10 0
v -11 -10 0
v -11 -9 0
v -10 -9 0
v -11 -10 0
v -12 -10 0
v -12 -9 0
v -11 -9 0
v -12 -10 0
v -13 -10 0
v -13 -9 0
v -12 -9 0
v -13 -10 0
v -14 -10 0
v -14 -9 0
v -13 -9 0
v -14 -10 0
v -15 -10 0
v -15 -9 0
v -14 -9 0
v -15 -10 0
v -16 -10 0
v -16 -9 0
v -15 -9 0
v 0 -11 0
v -1 -11 0
v -1 -10 0
v 0 -10 0
v -1 -11 0
v -2 -11 0
v -2 -10 0
v -1 -10 0
v -2 -11 0
v -3 -11 0
v -3 -10 0
v -2 -10 0
v -3 -11 0
v -4 -11 0
v -4 -10 0
v -3 -10 0
v -4 -11 0
v -5 -11 0
v -5 -10 0
v -4 -10 0
v -5 -11 0
v -6 -11 0
v -6 -10 0
v -5 -10 0
v -6 -11 0
v -7 -11 0
v -7 -10 0
v -6 -10 0
v -7 -11 0
v -8 -11 0
v -8 -10 0
v -7 -10 0
v -8 -11 0
v -9 -11 0
v -9 -10 0
v -8 -10 0
v -9 -11 0
v -10 -11 0
v -10 -10 0
v -9 -10 0
v -10 -11 0
v -11 -11 0
v -11 -10 0
v -10 -10 0
v -11 -11 0
v -12 -11 0
v -12 -10 0
v -11 -10 0
v -12 -11 0
v -13 -11 0
v -13 -10 0
v -12 -10 0
v -13 -11 0
v -14 -11 0
v -14 -10 0
v -13 -10 0
v -14 -11 0
v -15 -11 0
v -15 -10 0
v -14 -10 0
v -15 -11 0
v -16 -11 0
v -16 -10 0
v -15 -10 0
v 0 -12 0
v -1 -12 0
v -1 -11 0
v 0 -11 0
v -1 -12 0
v -2 -12 0
v -2 -11 0
v -1 -11 0
v -2 -12 0
v -3 -12 0
v -3 -11 0
v -2 -11 0
v -3 -12 0
v -4 -12 0
v -4 -11 0
v -3 -11 0
v -4 -12 0
v -5 -12 0
v -5 -11 0
v -4 -11 0
v -5 -12 0
v -6 -12 0
v -6 -11 0
v -5 -11 0
v -6 -12 0
v -7 -12 0
v -7 -11 0
v -6 -11 0
v -7 -12 0
v -8 -12 0
v -8 -11 0
v -7 -11 0
v -8 -12 0
v -9 -12 0
v -9 -11 0
v -8 -11 0
v -9 -12 0
v -10 -12 0
v -10 -11 0
v -9 -11 0
v -10 -12 0
v -11 -12 0
v -11 -11 0
v -10 -11 0
v -11 -12 0
v -12 -12 0
v -12 -11 0
v -11 -11 0
v -12 -12 0
v -13 -12 0
v -13 -11 0
v -12 -11 0
v -13 -12 0
v -14 -12 0
v -14 -11 0
v -13 -11 0
v -14 -12 0
v -15 -12 0
v -15 -11 0
v -14 -11 0
v -15 -12 0
v -16 -12 0
v -16 -11 0
v -15 -11 0
v 0 -13 0
v -1 -13 0
v -1 -12 0
v 0 -12 0
v -1 -13 0
v -2 -13 0
v -2 -12 0
v -1 -12 0
v -2 -13 0
v -3 -13 0
v -3 -12 0
v -2 -12 0
v -3 -13 0
v -4 -13 0
v -4 -12 0
v -3 -12 0
v -4 -13 0
v -5 -13 0
v -5 -12 0
v -4 -12 0
v -5 -13 0
v -6 -13 0
v -6 -12 0
v -5 -12 0
v -6 -13 0
v -7 -13 0
v -7 -12 0
v -6 -12 0
v -7 -13 0
v -8 -13 0
v -8 -12 0
v -7 -12 0
v -8 -13 0
v -9 -13 0
v -9 -12 0
v -8 -12 0
v -9 -13 0
v -10 -13 0
v -10 -12 0
v -9 -12 0
v -10 -13 0
v -11 -13 0
v -11 -12 0
v -10 -12 0
v -11 -13 0
v -12 -13 0
v -12 -12 0
v -11 -12 0
v -12 -13 0
v -13 -13 0
v -13 -12 0
v -12 -12 0
v -13 -13 0
v -14 -13 0
v -14 -12 0
v -13 -12 0
v -14 -13 0
v -15 -13 0
v -15 -12 0
v -14 -12 0
v -15 -13 0
v -16 -13 0
v -16 -12 0
v -15 -12 0
v 0 -14 0
v -1 -14 0
v -1 -13 0
v 0 -13 0
v -1 -14 0
v -2 -14 0
v -2 -13 0
v -1 -13 0
v -2 -14 0
v -3 -14 0
v -3 -13 0
v -2 -13 0
v -3 -14 0
v -4 -14 0
v -4 -13 0
v -3 -13 0
v -4 -14 0
v -5 -14 0
v -5 -13 0
v -4 -13 0
v -5 -14 0
v -6 -14 0
v -6 -13 0
v -5 -13 0
v -6 -14 0
v -7 -14 0
v -7 -13 0
v -6 -13 0
v -7 -14 0
v -8 -14 0
v -8 -13 0
v -7 -13 0
v -8 -14 0
v -9 -14 0
v -9 -13 0
v -8 -13 0
v -9 -14 0
v -10 -14 0
v -10 -13 0
v -9 -13 0
v -10 -14 0
v -11 -14 0
v -11 -13 0
v -10 -13 0
v -11 -14 0
v -12 -14 0
v -12 -13 0
v -11 -13 0
v -12 -14 0
v -13 -14 0
v -13 -13 0
v -12 -13 0
v -13 -14 0
v -14 -14 0
v -14 -13 0
v -13 -13 0
v -14 -14 0
v -15 -14 0
v -15 -13 0
v -14 -13 0
v -15 -14 0
v -16 -14 0
v -16 -13 0
v -15 -13 0
v 0 -15 0
v -1 -15 0
v -1 -14 0
v 0 -14 0
v -1 -15 0
v -2 -15 0
v -2 -14 0
v -1 -14 0
v -2 -15 0
v -3 -15 0
v -3 -14 0
v -2 -14 0
v -3 -15 0
v -4 -15 0
v -4 -14 0
v -3 -14 0
v -4 -15 0
v -5 -15 0
v -5 -14 0
v -4 -14 0
v -5 -15 0
v -6 -15 0
v -6 -14 0
v -5 -14 0
v -6 -15 0
v -7 -15 0
v -7 -14 0
v -6 -14 0
v -7 -15 0
v -8 -15 0
v -8 -14 0
v -7 -14 0
v -8 -15 0
v -9 -15 0
v -9 -14 0
v -8 -14 0
v -9 -15 0
v -10 -15 0
v -10 -14 0
v -9 -14 0
v -10 -15 0
v -11 -15 0
v -11 -14 0
v -10 -14 0
v -11 -15 0
v -12 -15 0
v -12 -14 0
v -11 -14 0
v -12 -15 0
v -13 -15 0
v -13 -14 0
v -12 -14 0
v -13 -15 0
v -14 -15 0
v -14 -14 0
v -13 -14 0
v -14 -15 0
v -15 -15 0
v -15 -14 0
v -14 -14 0
v -15 -15 0
v -16 -15 0
v -16 -14 0
v -15 -14 0
v 0 -16 0
v -1 -16 0
v -1 -15 0
v 0 -15 0
v -1 -16 0
v -2 -16 0
v -2 -15 0
v -1 -15 0
v -2 -16 0
v -3 -16 0
v -3 -15 0
v -2 -15 0
v -3 -16 0
v -4 -16 0
v -4 -15 0
v -3 -15 0
v -4 -16 0
v -5 -16 0
v -5 -15 0
v -4 -15 0
v -5 -16 0
v -6 -16 0
v -6 -15 0
v -5 -15 0
v -6 -16 0
v -7 -16 0
v -7 -15 0
v -6 -15 0
v -7 -16 0
v -8 -16 0
v -8 -15 0
v -7 -15 0
v -8 -16 0
v -9 -16 0
v -9 -15 0
v -8 -15 0
v -9 -16 0
v -10 -16 0
v -10 -15 0
v -9 -15 0
v -10 -16 0
v -11 -16 0
v -11 -15 0
v -10 -15 0
v -11 -16 0
v -12 -16 0
v -12 -15 0
v -11 -15 0
v -12 -16 0
v -13 -16 0
v -13 -15 0
v -12 -15 0
v -13 -16 0
v -14 -16 0
v -14 -15 0
v -13 -15 0
v -14 -16 0
v -15 -16 0
v -15 -15 0
v -14 -15 0
v -15 -16 0
v -16 -16 0
v -16 -15 0
v -15 -15 0

# Texture cooridinates (Count = 8)
vt 0.71875 0.8125
vt 0.75 0.8125
vt 0.75 0.84375
vt 0.71875 0.84375
vt 0.65625 0.8125
vt 0.6875 0.8125
vt 0.6875 0.84375
vt 0.65625 0.84375

# Normal
vn 0 0 -1

# Mesh description
g testmap1_mesh_0432

# Faces
f 1/1/1 2/2/1 3/3/1 4/4/1
f 5/1/1 6/2/1 7/3/1 8/4/1
f 9/1/1 10/2/1 11/3/1 12/4/1
f 13/1/1 14/2/1 15/3/1 16/4/1
f 17/1/1 18/2/1 19/3/1 20/4/1
f 21/5/1 22/6/1 23/7/1 24/8/1
f 25/6/1 26/1/1 27/4/1 28/7/1
f 29/6/1 30/1/1 31/4/1 32/7/1
f 33/5/1 34/6/1 35/7/1 36/8/1
f 37/1/1 38/2/1 39/3/1 40/4/1
f 41/1/1 42/2/1 43/3/1 44/4/1
f 45/1/1 46/2/1 47/3/1 48/4/1
f 49/5/1 50/6/1 51/7/1 52/8/1
f 53/1/1 54/2/1 55/3/1 56/4/1
f 57/5/1 58/6/1 59/7/1 60/8/1
f 61/5/1 62/6/1 63/7/1 64/8/1
f 65/1/1 66/2/1 67/3/1 68/4/1
f 69/5/1 70/6/1 71/7/1 72/8/1
f 73/5/1 74/6/1 75/7/1 76/8/1
f 77/1/1 78/2/1 79/3/1 80/4/1
f 81/5/1 82/6/1 83/7/1 84/8/1
f 85/6/1 86/1/1 87/4/1 88/7/1
f 89/6/1 90/1/1 91/4/1 92/7/1
f 93/1/1 94/2/1 95/3/1 96/4/1
f 97/5/1 98/6/1 99/7/1 100/8/1
f 101/1/1 102/2/1 103/3/1 104/4/1
f 105/1/1 106/2/1 107/3/1 108/4/1
f 109/5/1 110/6/1 111/7/1 112/8/1
f 113/1/1 114/2/1 115/3/1 116/4/1
f 117/6/1 118/1/1 119/4/1 120/7/1
f 121/5/1 122/6/1 123/7/1 124/8/1
f 125/1/1 126/2/1 127/3/1 128/4/1
f 129/5/1 130/6/1 131/7/1 132/8/1
f 133/6/1 134/1/1 135/4/1 136/7/1
f 137/6/1 138/1/1 139/4/1 140/7/1
f 141/1/1 142/2/1 143/3/1 144/4/1
f 145/1/1 146/2/1 147/3/1 148/4/1
f 149/6/1 150/1/1 151/4/1 152/7/1
f 153/1/1 154/2/1 155/3/1 156/4/1
f 157/1/1 158/2/1 159/3/1 160/4/1
f 161/5/1 162/6/1 163/7/1 164/8/1
f 165/6/1 166/1/1 167/4/1 168/7/1
f 169/6/1 170/1/1 171/4/1 172/7/1
f 173/5/1 174/6/1 175/7/1 176/8/1
f 177/5/1 178/6/1 179/7/1 180/8/1
f 181/6/1 182/1/1 183/4/1 184/7/1
f 185/5/1 186/6/1 187/7/1 188/8/1
f 189/5/1 190/6/1 191/7/1 192/8/1
f 193/6/1 194/1/1 195/4/1 196/7/1
f 197/6/1 198/1/1 199/4/1 200/7/1
f 201/5/1 202/6/1 203/7/1 204/8/1
f 205/5/1 206/6/1 207/7/1 208/8/1
f 209/6/1 210/1/1 211/4/1 212/7/1
f 213/1/1 214/2/1 215/3/1 216/4/1
f 217/5/1 218/6/1 219/7/1 220/8/1
f 221/6/1 222/1/1 223/4/1 224/7/1
f 225/1/1 226/2/1 227/3/1 228/4/1
f 229/5/1 230/6/1 231/7/1 232/8/1
f 233/1/1 234/2/1 235/3/1 236/4/1
f 237/1/1 238/2/1 239/3/1 240/4/1
f 241/5/1 242/6/1 243/7/1 244/8/1
f 245/1/1 246/2/1 247/3/1 248/4/1
f 249/1/1 250/2/1 251/3/1 252/4/1
f 253/5/1 254/6/1 255/7/1 256/8/1
f 257/5/1 258/6/1 259/7/1 260/8/1
f 261/1/1 262/2/1 263/3/1 264/4/1
f 265/1/1 266/2/1 267/3/1 268/4/1
f 269/1/1 270/2/1 271/3/1 272/4/1
f 273/1/1 274/2/1 275/3/1 276/4/1
f 277/6/1 278/1/1 279/4/1 280/7/1
f 281/1/1 282/2/1 283/3/1 284/4/1
f 285/6/1 286/1/1 287/4/1 288/7/1
f 289/1/1 290/2/1 291/3/1 292/4/1
f 293/1/1 294/2/1 295/3/1 296/4/1
f 297/6/1 298/1/1 299/4/1 300/7/1
f 301/1/1 302/2/1 303/3/1 304/4/1
f 305/1/1 306/2/1 307/3/1 308/4/1
f 309/5/1 310/6/1 311/7/1 312/8/1
f 313/1/1 314/2/1 315/3/1 316/4/1
f 317/5/1 318/6/1 319/7/1 320/8/1
f 321/1/1 322/2/1 323/3/1 324/4/1
f 325/6/1 326/1/1 327/4/1 328/7/1
f 329/1/1 330/2/1 331/3/1 332/4/1
f 333/1/1 334/2/1 335/3/1 336/4/1
f 337/6/1 338/1/1 339/4/1 340/7/1
f 341/1/1 342/2/1 343/3/1 344/4/1
f 345/1/1 346/2/1 347/3/1 348/4/1
f 349/1/1 350/2/1 351/3/1 352/4/1
f 353/5/1 354/6/1 355/7/1 356/8/1
f 357/6/1 358/1/1 359/4/1 360/7/1
f 361/5/1 362/6/1 363/7/1 364/8/1
f 365/1/1 366/2/1 367/3/1 368/4/1
f 369/1/1 370/2/1 371/3/1 372/4/1
f 373/1/1 374/2/1 375/3/1 376/4/1
f 377/5/1 378/6/1 379/7/1 380/8/1
f 381/6/1 382/1/1 383/4/1 384/7/1
f 385/6/1 386/1/1 387/4/1 388/7/1
f 389/5/1 390/6/1 391/7/1 392/8/1
f 393/5/1 394/6/1 395/7/1 396/8/1
f 397/1/1 398/2/1 399/3/1 400/4/1
f 401/5/1 402/6/1 403/7/1 404/8/1
f 405/5/1 406/6/1 407/7/1 408/8/1
f 409/6/1 410/1/1 411/4/1 412/7/1
f 413/1/1 414/2/1 415/3/1 416/4/1
f 417/5/1 418/6/1 419/7/1 420/8/1
f 421/5/1 422/6/1 423/7/1 424/8/1
f 425/6/1 426/1/1 427/4/1 428/7/1
f 429/1/1 430/2/1 431/3/1 432/4/1
f 433/6/1 434/1/1 435/4/1 436/7/1
f 437/1/1 438/2/1 439/3/1 440/4/1
f 441/1/1 442/2/1 443/3/1 444/4/1
f 445/6/1 446/1/1 447/4/1 448/7/1
f 449/1/1 450/2/1 451/3/1 452/4/1
f 453/6/1 454/1/1 455/4/1 456/7/1
f 457/5/1 458/6/1 459/7/1 460/8/1
f 461/5/1 462/6/1 463/7/1 464/8/1
f 465/6/1 466/1/1 467/4/1 468/7/1
f 469/6/1 470/1/1 471/4/1 472/7/1
f 473/1/1 474/2/1 475/3/1 476/4/1
f 477/1/1 478/2/1 479/3/1 480/4/1
f 481/5/1 482/6/1 483/7/1 484/8/1
f 485/5/1 486/6/1 487/7/1 488/8/1
f 489/5/1 490/6/1 491/7/1 492/8/1
f 493/5/1 494/6/1 495/7/1 496/8/1
f 497/6/1 498/1/1 499/4/1 500/7/1
f 501/5/1 502/6/1 503/7/1 504/8/1
f 505/5/1 506/6/1 507/7/1 508/8/1
f 509/6/1 510/1/1 511/4/1 512/7/1
f 513/6/1 514/1/1 515/4/1 516/7/1
f 517/6/1 518/1/1 519/4/1 520/7/1
f 521/6/1 522/1/1 523/4/1 524/7/1
f 525/6/1 526/1/1 527/4/1 528/7/1
f 529/6/1 530/1/1 531/4/1 532/7/1
f 533/6/1 534/1/1 535/4/1 536/7/1
f 537/5/1 538/6/1 539/7/1 540/8/1
f 541/6/1 542/1/1 543/4/1 544/7/1
f 545/6/1 546/1/1 547/4/1 548/7/1
f 549/6/1 550/1/1 551/4/1 552/7/1
f 553/1/1 554/2/1 555/3/1 556/4/1
f 557/6/1 558/1/1 559/4/1 560/7/1
f 561/6/1 562/1/1 563/4/1 564/7/1
f 565/6/1 566/1/1 567/4/1 568/7/1
f 569/1/1 570/2/1 571/3/1 572/4/1
f 573/5/1 574/6/1 575/7/1 576/8/1
f 577/6/1 578/1/1 579/4/1 580/7/1
f 581/5/1 582/6/1 583/7/1 584/8/1
f 585/6/1 586/1/1 587/4/1 588/7/1
f 589/6/1 590/1/1 591/4/1 592/7/1
f 593/6/1 594/1/1 595/4/1 596/7/1
f 597/1/1 598/2/1 599/3/1 600/4/1
f 601/1/1 602/2/1 603/3/1 604/4/1
f 605/1/1 606/2/1 607/3/1 608/4/1
f 609/6/1 610/1/1 611/4/1 612/7/1
f 613/5/1 614/6/1 615/7/1 616/8/1
f 617/6/1 618/1/1 619/4/1 620/7/1
f 621/1/1 622/2/1 623/3/1 624/4/1
f 625/5/1 626/6/1 627/7/1 628/8/1
f 629/1/1 630/2/1 631/3/1 632/4/1
f 633/1/1 634/2/1 635/3/1 636/4/1
f 637/6/1 638/1/1 639/4/1 640/7/1
f 641/6/1 642/1/1 643/4/1 644/7/1
f 645/6/1 646/1/1 647/4/1 648/7/1
f 649/5/1 650/6/1 651/7/1 652/8/1
f 653/5/1 654/6/1 655/7/1 656/8/1
f 657/6/1 658/1/1 659/4/1 660/7/1
f 661/6/1 662/1/1 663/4/1 664/7/1
f 665/1/1 666/2/1 667/3/1 668/4/1
f 669/1/1 670/2/1 671/3/1 672/4/1
f 673/5/1 674/6/1 675/7/1 676/8/1
f 677/6/1 678/1/1 679/4/1 680/7/1
f 681/5/1 682/6/1 683/7/1 684/8/1
f 685/6/1 686/1/1 687/4/1 688/7/1
f 689/5/1 690/6/1 691/7/1 692/8/1
f 693/6/1 694/1/1 695/4/1 696/7/1
f 697/5/1 698/6/1 699/7/1 700/8/1
f 701/6/1 702/1/1 703/4/1 704/7/1
f 705/6/1 706/1/1 707/4/1 708/7/1
f 709/1/1 710/2/1 711/3/1 712/4/1
f 713/5/1 714/6/1 715/7/1 716/8/1
f 717/5/1 718/6/1 719/7/1 720/8/1
f 721/5/1 722/6/1 723/7/1 724/8/1
f 725/5/1 726/6/1 727/7/1 728/8/1
f 729/5/1 730/6/1 731/7/1 732/8/1
f 733/1/1 734/2/1 735/3/1 736/4/1
f 737/5/1 738/6/1 739/7/1 740/8/1
f 741/5/1 742/6/1 743/7/1 744/8/1
f 745/1/1 746/2/1 747/3/1 748/4/1
f 749/1/1 750/2/1 751/3/1 752/4/1
f 753/1/1 754/2/1 755/3/1 756/4/1
f 757/1/1 758/2/1 759/3/1 760/4/1
f 761/5/1 762/6/1 763/7/1 764/8/1
f 765/1/1 766/2/1 767/3/1 768/4/1
f 769/1/1 770/2/1 771/3/1 772/4/1
f 773/5/1 774/6/1 775/7/1 776/8/1
f 777/6/1 778/1/1 779/4/1 780/7/1
f 781/6/1 782/1/1 783/4/1 784/7/1
f 785/1/1 786/2/1 787/3/1 788/4/1
f 789/1/1 790/2/1 791/3/1 792/4/1
f 793/6/1 794/1/1 795/4/1 796/7/1
f 797/1/1 798/2/1 799/3/1 800/4/1
f 801/1/1 802/2/1 803/3/1 804/4/1
f 805/6/1 806/1/1 807/4/1 808/7/1
f 809/1/1 810/2/1 811/3/1 812/4/1
f 813/5/1 814/6/1 815/7/1 816/8/1
f 817/1/1 818/2/1 819/3/1 820/4/1
f 821/1/1 822/2/1 823/3/1 824/4/1
f 825/1/1 826/2/1 827/3/1 828/4/1
f 829/6/1 830/1/1 831/4/1 832/7/1
f 833/6/1 834/1/1 835/4/1 836/7/1
f 837/5/1 838/6/1 839/7/1 840/8/1
f 841/6/1 842/1/1 843/4/1 844/7/1
f 845/5/1 846/6/1 847/7/1 848/8/1
f 849/1/1 850/2/1 851/3/1 852/4/1
f 853/1/1 854/2/1 855/3/1 856/4/1
f 857/5/1 858/6/1 859/7/1 860/8/1
f 861/6/1 862/1/1 863/4/1 864/7/1
f 865/6/1 866/1/1 867/4/1 868/7/1
f 869/5/1 870/6/1 871/7/1 872/8/1
f 873/5/1 874/6/1 875/7/1 876/8/1
f 877/5/1 878/6/1 879/7/1 880/8/1
f 881/6/1 882/1/1 883/4/1 884/7/1
f 885/1/1 886/2/1 887/3/1 888/4/1
f 889/5/1 890/6/1 891/7/1 892/8/1
f 893/6/1 894/1/1 895/4/1 896/7/1
f 897/5/1 898/6/1 899/7/1 900/8/1
f 901/5/1 902/6/1 903/7/1 904/8/1
f 905/5/1 906/6/1 907/7/1 908/8/1
f 909/1/1 910/2/1 911/3/1 912/4/1
f 913/5/1 914/6/1 915/7/1 916/8/1
f 917/5/1 918/6/1 919/7/1 920/8/1
f 921/1/1 922/2/1 923/3/1 924/4/1
f 925/1/1 926/2/1 927/3/1 928/4/1
f 929/1/1 930/2/1 931/3/1 932/4/1
f 933/6/1 934/1/1 935/4/1 936/7/1
f 937/6/1 938/1/1 939/4/1 940/7/1
f 941/5/1 942/6/1 943/7/1 944/8/1
f 945/6/1 946/1/1 947/4/1 948/7/1
f 949/5/1 950/6/1 951/7/1 952/8/1
f 953/6/1 954/1/1 955/4/1 956/7/1
f 957/5/1 958/6/1 959/7/1 960/8/1
f 961/1/1 962/2/1 963/3/1 964/4/1
f 965/1/1 966/2/1 967/3/1 968/4/1
f 969/5/1 970/6/1 971/7/1 972/8/1
f 973/1/1 974/2/1 975/3/1 976/4/1
f 977/6/1 978/1/1 979/4/1 980/7/1
f 981/5/1 982/6/1 983/7/1 984/8/1
f 985/5/1 986/6/1 987/7/1 988/8/1
f 989/6/1 990/1/1 991/4/1 992/7/1
f 993/1/1 994/2/1 995/3/1 996/4/1
f 997/5/1 998/6/1 999/7/1 1000/8/1
f 1001/5/1 1002/6/1 1003/7/1 1004/8/1
f 1005/6/1 1006/1/1 1007/4/1 1008/7/1
f 1009/6/1 1010/1/1 1011/4/1 1012/7/1
f 1013/1/1 1014/2/1 1015/3/1 1016/4/1
f 1017/1/1 1018/2/1 1019/3/1 1020/4/1
f 1021/6/1 1022/1/1 1023/4/1 1024/7/1

