# Tiled2Unity generated file. Do not modify by hand.
# Wavefront file for 'testmap1_mesh_0595.obj'

# Vertices (Count = 1024)
v 0 -1 0
v -1 -1 0
v -1 0 0
v 0 0 0
v -1 -1 0
v -2 -1 0
v -2 0 0
v -1 0 0
v -2 -1 0
v -3 -1 0
v -3 0 0
v -2 0 0
v -3 -1 0
v -4 -1 0
v -4 0 0
v -3 0 0
v -4 -1 0
v -5 -1 0
v -5 0 0
v -4 0 0
v -5 -1 0
v -6 -1 0
v -6 0 0
v -5 0 0
v -6 -1 0
v -7 -1 0
v -7 0 0
v -6 0 0
v -7 -1 0
v -8 -1 0
v -8 0 0
v -7 0 0
v -8 -1 0
v -9 -1 0
v -9 0 0
v -8 0 0
v -9 -1 0
v -10 -1 0
v -10 0 0
v -9 0 0
v -10 -1 0
v -11 -1 0
v -11 0 0
v -10 0 0
v -11 -1 0
v -12 -1 0
v -12 0 0
v -11 0 0
v -12 -1 0
v -13 -1 0
v -13 0 0
v -12 0 0
v -13 -1 0
v -14 -1 0
v -14 0 0
v -13 0 0
v -14 -1 0
v -15 -1 0
v -15 0 0
v -14 0 0
v -15 -1 0
v -16 -1 0
v -16 0 0
v -15 0 0
v 0 -2 0
v -1 -2 0
v -1 -1 0
v 0 -1 0
v -1 -2 0
v -2 -2 0
v -2 -1 0
v -1 -1 0
v -2 -2 0
v -3 -2 0
v -3 -1 0
v -2 -1 0
v -3 -2 0
v -4 -2 0
v -4 -1 0
v -3 -1 0
v -4 -2 0
v -5 -2 0
v -5 -1 0
v -4 -1 0
v -5 -2 0
v -6 -2 0
v -6 -1 0
v -5 -1 0
v -6 -2 0
v -7 -2 0
v -7 -1 0
v -6 -1 0
v -7 -2 0
v -8 -2 0
v -8 -1 0
v -7 -1 0
v -8 -2 0
v -9 -2 0
v -9 -1 0
v -8 -1 0
v -9 -2 0
v -10 -2 0
v -10 -1 0
v -9 -1 0
v -10 -2 0
v -11 -2 0
v -11 -1 0
v -10 -1 0
v -11 -2 0
v -12 -2 0
v -12 -1 0
v -11 -1 0
v -12 -2 0
v -13 -2 0
v -13 -1 0
v -12 -1 0
v -13 -2 0
v -14 -2 0
v -14 -1 0
v -13 -1 0
v -14 -2 0
v -15 -2 0
v -15 -1 0
v -14 -1 0
v -15 -2 0
v -16 -2 0
v -16 -1 0
v -15 -1 0
v 0 -3 0
v -1 -3 0
v -1 -2 0
v 0 -2 0
v -1 -3 0
v -2 -3 0
v -2 -2 0
v -1 -2 0
v -2 -3 0
v -3 -3 0
v -3 -2 0
v -2 -2 0
v -3 -3 0
v -4 -3 0
v -4 -2 0
v -3 -2 0
v -4 -3 0
v -5 -3 0
v -5 -2 0
v -4 -2 0
v -5 -3 0
v -6 -3 0
v -6 -2 0
v -5 -2 0
v -6 -3 0
v -7 -3 0
v -7 -2 0
v -6 -2 0
v -7 -3 0
v -8 -3 0
v -8 -2 0
v -7 -2 0
v -8 -3 0
v -9 -3 0
v -9 -2 0
v -8 -2 0
v -9 -3 0
v -10 -3 0
v -10 -2 0
v -9 -2 0
v -10 -3 0
v -11 -3 0
v -11 -2 0
v -10 -2 0
v -11 -3 0
v -12 -3 0
v -12 -2 0
v -11 -2 0
v -12 -3 0
v -13 -3 0
v -13 -2 0
v -12 -2 0
v -13 -3 0
v -14 -3 0
v -14 -2 0
v -13 -2 0
v -14 -3 0
v -15 -3 0
v -15 -2 0
v -14 -2 0
v -15 -3 0
v -16 -3 0
v -16 -2 0
v -15 -2 0
v 0 -4 0
v -1 -4 0
v -1 -3 0
v 0 -3 0
v -1 -4 0
v -2 -4 0
v -2 -3 0
v -1 -3 0
v -2 -4 0
v -3 -4 0
v -3 -3 0
v -2 -3 0
v -3 -4 0
v -4 -4 0
v -4 -3 0
v -3 -3 0
v -4 -4 0
v -5 -4 0
v -5 -3 0
v -4 -3 0
v -5 -4 0
v -6 -4 0
v -6 -3 0
v -5 -3 0
v -6 -4 0
v -7 -4 0
v -7 -3 0
v -6 -3 0
v -7 -4 0
v -8 -4 0
v -8 -3 0
v -7 -3 0
v -8 -4 0
v -9 -4 0
v -9 -3 0
v -8 -3 0
v -9 -4 0
v -10 -4 0
v -10 -3 0
v -9 -3 0
v -10 -4 0
v -11 -4 0
v -11 -3 0
v -10 -3 0
v -11 -4 0
v -12 -4 0
v -12 -3 0
v -11 -3 0
v -12 -4 0
v -13 -4 0
v -13 -3 0
v -12 -3 0
v -13 -4 0
v -14 -4 0
v -14 -3 0
v -13 -3 0
v -14 -4 0
v -15 -4 0
v -15 -3 0
v -14 -3 0
v -15 -4 0
v -16 -4 0
v -16 -3 0
v -15 -3 0
v 0 -5 0
v -1 -5 0
v -1 -4 0
v 0 -4 0
v -1 -5 0
v -2 -5 0
v -2 -4 0
v -1 -4 0
v -2 -5 0
v -3 -5 0
v -3 -4 0
v -2 -4 0
v -3 -5 0
v -4 -5 0
v -4 -4 0
v -3 -4 0
v -4 -5 0
v -5 -5 0
v -5 -4 0
v -4 -4 0
v -5 -5 0
v -6 -5 0
v -6 -4 0
v -5 -4 0
v -6 -5 0
v -7 -5 0
v -7 -4 0
v -6 -4 0
v -7 -5 0
v -8 -5 0
v -8 -4 0
v -7 -4 0
v -8 -5 0
v -9 -5 0
v -9 -4 0
v -8 -4 0
v -9 -5 0
v -10 -5 0
v -10 -4 0
v -9 -4 0
v -10 -5 0
v -11 -5 0
v -11 -4 0
v -10 -4 0
v -11 -5 0
v -12 -5 0
v -12 -4 0
v -11 -4 0
v -12 -5 0
v -13 -5 0
v -13 -4 0
v -12 -4 0
v -13 -5 0
v -14 -5 0
v -14 -4 0
v -13 -4 0
v -14 -5 0
v -15 -5 0
v -15 -4 0
v -14 -4 0
v -15 -5 0
v -16 -5 0
v -16 -4 0
v -15 -4 0
v 0 -6 0
v -1 -6 0
v -1 -5 0
v 0 -5 0
v -1 -6 0
v -2 -6 0
v -2 -5 0
v -1 -5 0
v -2 -6 0
v -3 -6 0
v -3 -5 0
v -2 -5 0
v -3 -6 0
v -4 -6 0
v -4 -5 0
v -3 -5 0
v -4 -6 0
v -5 -6 0
v -5 -5 0
v -4 -5 0
v -5 -6 0
v -6 -6 0
v -6 -5 0
v -5 -5 0
v -6 -6 0
v -7 -6 0
v -7 -5 0
v -6 -5 0
v -7 -6 0
v -8 -6 0
v -8 -5 0
v -7 -5 0
v -8 -6 0
v -9 -6 0
v -9 -5 0
v -8 -5 0
v -9 -6 0
v -10 -6 0
v -10 -5 0
v -9 -5 0
v -10 -6 0
v -11 -6 0
v -11 -5 0
v -10 -5 0
v -11 -6 0
v -12 -6 0
v -12 -5 0
v -11 -5 0
v -12 -6 0
v -13 -6 0
v -13 -5 0
v -12 -5 0
v -13 -6 0
v -14 -6 0
v -14 -5 0
v -13 -5 0
v -14 -6 0
v -15 -6 0
v -15 -5 0
v -14 -5 0
v -15 -6 0
v -16 -6 0
v -16 -5 0
v -15 -5 0
v 0 -7 0
v -1 -7 0
v -1 -6 0
v 0 -6 0
v -1 -7 0
v -2 -7 0
v -2 -6 0
v -1 -6 0
v -2 -7 0
v -3 -7 0
v -3 -6 0
v -2 -6 0
v -3 -7 0
v -4 -7 0
v -4 -6 0
v -3 -6 0
v -4 -7 0
v -5 -7 0
v -5 -6 0
v -4 -6 0
v -5 -7 0
v -6 -7 0
v -6 -6 0
v -5 -6 0
v -6 -7 0
v -7 -7 0
v -7 -6 0
v -6 -6 0
v -7 -7 0
v -8 -7 0
v -8 -6 0
v -7 -6 0
v -8 -7 0
v -9 -7 0
v -9 -6 0
v -8 -6 0
v -9 -7 0
v -10 -7 0
v -10 -6 0
v -9 -6 0
v -10 -7 0
v -11 -7 0
v -11 -6 0
v -10 -6 0
v -11 -7 0
v -12 -7 0
v -12 -6 0
v -11 -6 0
v -12 -7 0
v -13 -7 0
v -13 -6 0
v -12 -6 0
v -13 -7 0
v -14 -7 0
v -14 -6 0
v -13 -6 0
v -14 -7 0
v -15 -7 0
v -15 -6 0
v -14 -6 0
v -15 -7 0
v -16 -7 0
v -16 -6 0
v -15 -6 0
v 0 -8 0
v -1 -8 0
v -1 -7 0
v 0 -7 0
v -1 -8 0
v -2 -8 0
v -2 -7 0
v -1 -7 0
v -2 -8 0
v -3 -8 0
v -3 -7 0
v -2 -7 0
v -3 -8 0
v -4 -8 0
v -4 -7 0
v -3 -7 0
v -4 -8 0
v -5 -8 0
v -5 -7 0
v -4 -7 0
v -5 -8 0
v -6 -8 0
v -6 -7 0
v -5 -7 0
v -6 -8 0
v -7 -8 0
v -7 -7 0
v -6 -7 0
v -7 -8 0
v -8 -8 0
v -8 -7 0
v -7 -7 0
v -8 -8 0
v -9 -8 0
v -9 -7 0
v -8 -7 0
v -9 -8 0
v -10 -8 0
v -10 -7 0
v -9 -7 0
v -10 -8 0
v -11 -8 0
v -11 -7 0
v -10 -7 0
v -11 -8 0
v -12 -8 0
v -12 -7 0
v -11 -7 0
v -12 -8 0
v -13 -8 0
v -13 -7 0
v -12 -7 0
v -13 -8 0
v -14 -8 0
v -14 -7 0
v -13 -7 0
v -14 -8 0
v -15 -8 0
v -15 -7 0
v -14 -7 0
v -15 -8 0
v -16 -8 0
v -16 -7 0
v -15 -7 0
v 0 -9 0
v -1 -9 0
v -1 -8 0
v 0 -8 0
v -1 -9 0
v -2 -9 0
v -2 -8 0
v -1 -8 0
v -2 -9 0
v -3 -9 0
v -3 -8 0
v -2 -8 0
v -3 -9 0
v -4 -9 0
v -4 -8 0
v -3 -8 0
v -4 -9 0
v -5 -9 0
v -5 -8 0
v -4 -8 0
v -5 -9 0
v -6 -9 0
v -6 -8 0
v -5 -8 0
v -6 -9 0
v -7 -9 0
v -7 -8 0
v -6 -8 0
v -7 -9 0
v -8 -9 0
v -8 -8 0
v -7 -8 0
v -8 -9 0
v -9 -9 0
v -9 -8 0
v -8 -8 0
v -9 -9 0
v -10 -9 0
v -10 -8 0
v -9 -8 0
v -10 -9 0
v -11 -9 0
v -11 -8 0
v -10 -8 0
v -11 -9 0
v -12 -9 0
v -12 -8 0
v -11 -8 0
v -12 -9 0
v -13 -9 0
v -13 -8 0
v -12 -8 0
v -13 -9 0
v -14 -9 0
v -14 -8 0
v -13 -8 0
v -14 -9 0
v -15 -9 0
v -15 -8 0
v -14 -8 0
v -15 -9 0
v -16 -9 0
v -16 -8 0
v -15 -8 0
v 0 -10 0
v -1 -10 0
v -1 -9 0
v 0 -9 0
v -1 -10 0
v -2 -10 0
v -2 -9 0
v -1 -9 0
v -2 -10 0
v -3 -10 0
v -3 -9 0
v -2 -9 0
v -3 -10 0
v -4 -10 0
v -4 -9 0
v -3 -9 0
v -4 -10 0
v -5 -10 0
v -5 -9 0
v -4 -9 0
v -5 -10 0
v -6 -10 0
v -6 -9 0
v -5 -9 0
v -6 -10 0
v -7 -10 0
v -7 -9 0
v -6 -9 0
v -7 -10 0
v -8 -10 0
v -8 -9 0
v -7 -9 0
v -8 -10 0
v -9 -10 0
v -9 -9 0
v -8 -9 0
v -9 -10 0
v -10 -10 0
v -10 -9 0
v -9 -9 0
v -10 -10 0
v -11 -10 0
v -11 -9 0
v -10 -9 0
v -11 -10 0
v -12 -10 0
v -12 -9 0
v -11 -9 0
v -12 -10 0
v -13 -10 0
v -13 -9 0
v -12 -9 0
v -13 -10 0
v -14 -10 0
v -14 -9 0
v -13 -9 0
v -14 -10 0
v -15 -10 0
v -15 -9 0
v -14 -9 0
v -15 -10 0
v -16 -10 0
v -16 -9 0
v -15 -9 0
v 0 -11 0
v -1 -11 0
v -1 -10 0
v 0 -10 0
v -1 -11 0
v -2 -11 0
v -2 -10 0
v -1 -10 0
v -2 -11 0
v -3 -11 0
v -3 -10 0
v -2 -10 0
v -3 -11 0
v -4 -11 0
v -4 -10 0
v -3 -10 0
v -4 -11 0
v -5 -11 0
v -5 -10 0
v -4 -10 0
v -5 -11 0
v -6 -11 0
v -6 -10 0
v -5 -10 0
v -6 -11 0
v -7 -11 0
v -7 -10 0
v -6 -10 0
v -7 -11 0
v -8 -11 0
v -8 -10 0
v -7 -10 0
v -8 -11 0
v -9 -11 0
v -9 -10 0
v -8 -10 0
v -9 -11 0
v -10 -11 0
v -10 -10 0
v -9 -10 0
v -10 -11 0
v -11 -11 0
v -11 -10 0
v -10 -10 0
v -11 -11 0
v -12 -11 0
v -12 -10 0
v -11 -10 0
v -12 -11 0
v -13 -11 0
v -13 -10 0
v -12 -10 0
v -13 -11 0
v -14 -11 0
v -14 -10 0
v -13 -10 0
v -14 -11 0
v -15 -11 0
v -15 -10 0
v -14 -10 0
v -15 -11 0
v -16 -11 0
v -16 -10 0
v -15 -10 0
v 0 -12 0
v -1 -12 0
v -1 -11 0
v 0 -11 0
v -1 -12 0
v -2 -12 0
v -2 -11 0
v -1 -11 0
v -2 -12 0
v -3 -12 0
v -3 -11 0
v -2 -11 0
v -3 -12 0
v -4 -12 0
v -4 -11 0
v -3 -11 0
v -4 -12 0
v -5 -12 0
v -5 -11 0
v -4 -11 0
v -5 -12 0
v -6 -12 0
v -6 -11 0
v -5 -11 0
v -6 -12 0
v -7 -12 0
v -7 -11 0
v -6 -11 0
v -7 -12 0
v -8 -12 0
v -8 -11 0
v -7 -11 0
v -8 -12 0
v -9 -12 0
v -9 -11 0
v -8 -11 0
v -9 -12 0
v -10 -12 0
v -10 -11 0
v -9 -11 0
v -10 -12 0
v -11 -12 0
v -11 -11 0
v -10 -11 0
v -11 -12 0
v -12 -12 0
v -12 -11 0
v -11 -11 0
v -12 -12 0
v -13 -12 0
v -13 -11 0
v -12 -11 0
v -13 -12 0
v -14 -12 0
v -14 -11 0
v -13 -11 0
v -14 -12 0
v -15 -12 0
v -15 -11 0
v -14 -11 0
v -15 -12 0
v -16 -12 0
v -16 -11 0
v -15 -11 0
v 0 -13 0
v -1 -13 0
v -1 -12 0
v 0 -12 0
v -1 -13 0
v -2 -13 0
v -2 -12 0
v -1 -12 0
v -2 -13 0
v -3 -13 0
v -3 -12 0
v -2 -12 0
v -3 -13 0
v -4 -13 0
v -4 -12 0
v -3 -12 0
v -4 -13 0
v -5 -13 0
v -5 -12 0
v -4 -12 0
v -5 -13 0
v -6 -13 0
v -6 -12 0
v -5 -12 0
v -6 -13 0
v -7 -13 0
v -7 -12 0
v -6 -12 0
v -7 -13 0
v -8 -13 0
v -8 -12 0
v -7 -12 0
v -8 -13 0
v -9 -13 0
v -9 -12 0
v -8 -12 0
v -9 -13 0
v -10 -13 0
v -10 -12 0
v -9 -12 0
v -10 -13 0
v -11 -13 0
v -11 -12 0
v -10 -12 0
v -11 -13 0
v -12 -13 0
v -12 -12 0
v -11 -12 0
v -12 -13 0
v -13 -13 0
v -13 -12 0
v -12 -12 0
v -13 -13 0
v -14 -13 0
v -14 -12 0
v -13 -12 0
v -14 -13 0
v -15 -13 0
v -15 -12 0
v -14 -12 0
v -15 -13 0
v -16 -13 0
v -16 -12 0
v -15 -12 0
v 0 -14 0
v -1 -14 0
v -1 -13 0
v 0 -13 0
v -1 -14 0
v -2 -14 0
v -2 -13 0
v -1 -13 0
v -2 -14 0
v -3 -14 0
v -3 -13 0
v -2 -13 0
v -3 -14 0
v -4 -14 0
v -4 -13 0
v -3 -13 0
v -4 -14 0
v -5 -14 0
v -5 -13 0
v -4 -13 0
v -5 -14 0
v -6 -14 0
v -6 -13 0
v -5 -13 0
v -6 -14 0
v -7 -14 0
v -7 -13 0
v -6 -13 0
v -7 -14 0
v -8 -14 0
v -8 -13 0
v -7 -13 0
v -8 -14 0
v -9 -14 0
v -9 -13 0
v -8 -13 0
v -9 -14 0
v -10 -14 0
v -10 -13 0
v -9 -13 0
v -10 -14 0
v -11 -14 0
v -11 -13 0
v -10 -13 0
v -11 -14 0
v -12 -14 0
v -12 -13 0
v -11 -13 0
v -12 -14 0
v -13 -14 0
v -13 -13 0
v -12 -13 0
v -13 -14 0
v -14 -14 0
v -14 -13 0
v -13 -13 0
v -14 -14 0
v -15 -14 0
v -15 -13 0
v -14 -13 0
v -15 -14 0
v -16 -14 0
v -16 -13 0
v -15 -13 0
v 0 -15 0
v -1 -15 0
v -1 -14 0
v 0 -14 0
v -1 -15 0
v -2 -15 0
v -2 -14 0
v -1 -14 0
v -2 -15 0
v -3 -15 0
v -3 -14 0
v -2 -14 0
v -3 -15 0
v -4 -15 0
v -4 -14 0
v -3 -14 0
v -4 -15 0
v -5 -15 0
v -5 -14 0
v -4 -14 0
v -5 -15 0
v -6 -15 0
v -6 -14 0
v -5 -14 0
v -6 -15 0
v -7 -15 0
v -7 -14 0
v -6 -14 0
v -7 -15 0
v -8 -15 0
v -8 -14 0
v -7 -14 0
v -8 -15 0
v -9 -15 0
v -9 -14 0
v -8 -14 0
v -9 -15 0
v -10 -15 0
v -10 -14 0
v -9 -14 0
v -10 -15 0
v -11 -15 0
v -11 -14 0
v -10 -14 0
v -11 -15 0
v -12 -15 0
v -12 -14 0
v -11 -14 0
v -12 -15 0
v -13 -15 0
v -13 -14 0
v -12 -14 0
v -13 -15 0
v -14 -15 0
v -14 -14 0
v -13 -14 0
v -14 -15 0
v -15 -15 0
v -15 -14 0
v -14 -14 0
v -15 -15 0
v -16 -15 0
v -16 -14 0
v -15 -14 0
v 0 -16 0
v -1 -16 0
v -1 -15 0
v 0 -15 0
v -1 -16 0
v -2 -16 0
v -2 -15 0
v -1 -15 0
v -2 -16 0
v -3 -16 0
v -3 -15 0
v -2 -15 0
v -3 -16 0
v -4 -16 0
v -4 -15 0
v -3 -15 0
v -4 -16 0
v -5 -16 0
v -5 -15 0
v -4 -15 0
v -5 -16 0
v -6 -16 0
v -6 -15 0
v -5 -15 0
v -6 -16 0
v -7 -16 0
v -7 -15 0
v -6 -15 0
v -7 -16 0
v -8 -16 0
v -8 -15 0
v -7 -15 0
v -8 -16 0
v -9 -16 0
v -9 -15 0
v -8 -15 0
v -9 -16 0
v -10 -16 0
v -10 -15 0
v -9 -15 0
v -10 -16 0
v -11 -16 0
v -11 -15 0
v -10 -15 0
v -11 -16 0
v -12 -16 0
v -12 -15 0
v -11 -15 0
v -12 -16 0
v -13 -16 0
v -13 -15 0
v -12 -15 0
v -13 -16 0
v -14 -16 0
v -14 -15 0
v -13 -15 0
v -14 -16 0
v -15 -16 0
v -15 -15 0
v -14 -15 0
v -15 -16 0
v -16 -16 0
v -16 -15 0
v -15 -15 0

# Texture cooridinates (Count = 8)
vt 0.71875 0.8125
vt 0.75 0.8125
vt 0.75 0.84375
vt 0.71875 0.84375
vt 0.65625 0.8125
vt 0.6875 0.8125
vt 0.6875 0.84375
vt 0.65625 0.84375

# Normal
vn 0 0 -1

# Mesh description
g testmap1_mesh_0595

# Faces
f 1/1/1 2/2/1 3/3/1 4/4/1
f 5/1/1 6/2/1 7/3/1 8/4/1
f 9/1/1 10/2/1 11/3/1 12/4/1
f 13/5/1 14/6/1 15/7/1 16/8/1
f 17/6/1 18/1/1 19/4/1 20/7/1
f 21/1/1 22/2/1 23/3/1 24/4/1
f 25/5/1 26/6/1 27/7/1 28/8/1
f 29/1/1 30/2/1 31/3/1 32/4/1
f 33/1/1 34/2/1 35/3/1 36/4/1
f 37/1/1 38/2/1 39/3/1 40/4/1
f 41/5/1 42/6/1 43/7/1 44/8/1
f 45/1/1 46/2/1 47/3/1 48/4/1
f 49/6/1 50/1/1 51/4/1 52/7/1
f 53/5/1 54/6/1 55/7/1 56/8/1
f 57/1/1 58/2/1 59/3/1 60/4/1
f 61/6/1 62/1/1 63/4/1 64/7/1
f 65/5/1 66/6/1 67/7/1 68/8/1
f 69/5/1 70/6/1 71/7/1 72/8/1
f 73/5/1 74/6/1 75/7/1 76/8/1
f 77/1/1 78/2/1 79/3/1 80/4/1
f 81/5/1 82/6/1 83/7/1 84/8/1
f 85/1/1 86/2/1 87/3/1 88/4/1
f 89/1/1 90/2/1 91/3/1 92/4/1
f 93/6/1 94/1/1 95/4/1 96/7/1
f 97/5/1 98/6/1 99/7/1 100/8/1
f 101/1/1 102/2/1 103/3/1 104/4/1
f 105/1/1 106/2/1 107/3/1 108/4/1
f 109/6/1 110/1/1 111/4/1 112/7/1
f 113/5/1 114/6/1 115/7/1 116/8/1
f 117/1/1 118/2/1 119/3/1 120/4/1
f 121/5/1 122/6/1 123/7/1 124/8/1
f 125/5/1 126/6/1 127/7/1 128/8/1
f 129/5/1 130/6/1 131/7/1 132/8/1
f 133/5/1 134/6/1 135/7/1 136/8/1
f 137/5/1 138/6/1 139/7/1 140/8/1
f 141/6/1 142/1/1 143/4/1 144/7/1
f 145/5/1 146/6/1 147/7/1 148/8/1
f 149/5/1 150/6/1 151/7/1 152/8/1
f 153/1/1 154/2/1 155/3/1 156/4/1
f 157/1/1 158/2/1 159/3/1 160/4/1
f 161/6/1 162/1/1 163/4/1 164/7/1
f 165/5/1 166/6/1 167/7/1 168/8/1
f 169/6/1 170/1/1 171/4/1 172/7/1
f 173/1/1 174/2/1 175/3/1 176/4/1
f 177/5/1 178/6/1 179/7/1 180/8/1
f 181/1/1 182/2/1 183/3/1 184/4/1
f 185/5/1 186/6/1 187/7/1 188/8/1
f 189/6/1 190/1/1 191/4/1 192/7/1
f 193/1/1 194/2/1 195/3/1 196/4/1
f 197/5/1 198/6/1 199/7/1 200/8/1
f 201/5/1 202/6/1 203/7/1 204/8/1
f 205/6/1 206/1/1 207/4/1 208/7/1
f 209/1/1 210/2/1 211/3/1 212/4/1
f 213/6/1 214/1/1 215/4/1 216/7/1
f 217/6/1 218/1/1 219/4/1 220/7/1
f 221/6/1 222/1/1 223/4/1 224/7/1
f 225/5/1 226/6/1 227/7/1 228/8/1
f 229/5/1 230/6/1 231/7/1 232/8/1
f 233/1/1 234/2/1 235/3/1 236/4/1
f 237/5/1 238/6/1 239/7/1 240/8/1
f 241/5/1 242/6/1 243/7/1 244/8/1
f 245/1/1 246/2/1 247/3/1 248/4/1
f 249/5/1 250/6/1 251/7/1 252/8/1
f 253/6/1 254/1/1 255/4/1 256/7/1
f 257/6/1 258/1/1 259/4/1 260/7/1
f 261/5/1 262/6/1 263/7/1 264/8/1
f 265/6/1 266/1/1 267/4/1 268/7/1
f 269/1/1 270/2/1 271/3/1 272/4/1
f 273/1/1 274/2/1 275/3/1 276/4/1
f 277/5/1 278/6/1 279/7/1 280/8/1
f 281/6/1 282/1/1 283/4/1 284/7/1
f 285/1/1 286/2/1 287/3/1 288/4/1
f 289/1/1 290/2/1 291/3/1 292/4/1
f 293/5/1 294/6/1 295/7/1 296/8/1
f 297/6/1 298/1/1 299/4/1 300/7/1
f 301/5/1 302/6/1 303/7/1 304/8/1
f 305/5/1 306/6/1 307/7/1 308/8/1
f 309/1/1 310/2/1 311/3/1 312/4/1
f 313/6/1 314/1/1 315/4/1 316/7/1
f 317/6/1 318/1/1 319/4/1 320/7/1
f 321/1/1 322/2/1 323/3/1 324/4/1
f 325/6/1 326/1/1 327/4/1 328/7/1
f 329/5/1 330/6/1 331/7/1 332/8/1
f 333/5/1 334/6/1 335/7/1 336/8/1
f 337/1/1 338/2/1 339/3/1 340/4/1
f 341/1/1 342/2/1 343/3/1 344/4/1
f 345/5/1 346/6/1 347/7/1 348/8/1
f 349/5/1 350/6/1 351/7/1 352/8/1
f 353/6/1 354/1/1 355/4/1 356/7/1
f 357/1/1 358/2/1 359/3/1 360/4/1
f 361/1/1 362/2/1 363/3/1 364/4/1
f 365/1/1 366/2/1 367/3/1 368/4/1
f 369/5/1 370/6/1 371/7/1 372/8/1
f 373/1/1 374/2/1 375/3/1 376/4/1
f 377/6/1 378/1/1 379/4/1 380/7/1
f 381/5/1 382/6/1 383/7/1 384/8/1
f 385/5/1 386/6/1 387/7/1 388/8/1
f 389/1/1 390/2/1 391/3/1 392/4/1
f 393/5/1 394/6/1 395/7/1 396/8/1
f 397/5/1 398/6/1 399/7/1 400/8/1
f 401/6/1 402/1/1 403/4/1 404/7/1
f 405/1/1 406/2/1 407/3/1 408/4/1
f 409/6/1 410/1/1 411/4/1 412/7/1
f 413/6/1 414/1/1 415/4/1 416/7/1
f 417/1/1 418/2/1 419/3/1 420/4/1
f 421/1/1 422/2/1 423/3/1 424/4/1
f 425/5/1 426/6/1 427/7/1 428/8/1
f 429/6/1 430/1/1 431/4/1 432/7/1
f 433/6/1 434/1/1 435/4/1 436/7/1
f 437/5/1 438/6/1 439/7/1 440/8/1
f 441/5/1 442/6/1 443/7/1 444/8/1
f 445/6/1 446/1/1 447/4/1 448/7/1
f 449/6/1 450/1/1 451/4/1 452/7/1
f 453/1/1 454/2/1 455/3/1 456/4/1
f 457/6/1 458/1/1 459/4/1 460/7/1
f 461/1/1 462/2/1 463/3/1 464/4/1
f 465/6/1 466/1/1 467/4/1 468/7/1
f 469/1/1 470/2/1 471/3/1 472/4/1
f 473/5/1 474/6/1 475/7/1 476/8/1
f 477/5/1 478/6/1 479/7/1 480/8/1
f 481/1/1 482/2/1 483/3/1 484/4/1
f 485/1/1 486/2/1 487/3/1 488/4/1
f 489/6/1 490/1/1 491/4/1 492/7/1
f 493/6/1 494/1/1 495/4/1 496/7/1
f 497/6/1 498/1/1 499/4/1 500/7/1
f 501/6/1 502/1/1 503/4/1 504/7/1
f 505/6/1 506/1/1 507/4/1 508/7/1
f 509/6/1 510/1/1 511/4/1 512/7/1
f 513/5/1 514/6/1 515/7/1 516/8/1
f 517/6/1 518/1/1 519/4/1 520/7/1
f 521/6/1 522/1/1 523/4/1 524/7/1
f 525/6/1 526/1/1 527/4/1 528/7/1
f 529/6/1 530/1/1 531/4/1 532/7/1
f 533/1/1 534/2/1 535/3/1 536/4/1
f 537/1/1 538/2/1 539/3/1 540/4/1
f 541/6/1 542/1/1 543/4/1 544/7/1
f 545/6/1 546/1/1 547/4/1 548/7/1
f 549/6/1 550/1/1 551/4/1 552/7/1
f 553/6/1 554/1/1 555/4/1 556/7/1
f 557/1/1 558/2/1 559/3/1 560/4/1
f 561/6/1 562/1/1 563/4/1 564/7/1
f 565/6/1 566/1/1 567/4/1 568/7/1
f 569/5/1 570/6/1 571/7/1 572/8/1
f 573/1/1 574/2/1 575/3/1 576/4/1
f 577/1/1 578/2/1 579/3/1 580/4/1
f 581/6/1 582/1/1 583/4/1 584/7/1
f 585/1/1 586/2/1 587/3/1 588/4/1
f 589/1/1 590/2/1 591/3/1 592/4/1
f 593/1/1 594/2/1 595/3/1 596/4/1
f 597/1/1 598/2/1 599/3/1 600/4/1
f 601/6/1 602/1/1 603/4/1 604/7/1
f 605/1/1 606/2/1 607/3/1 608/4/1
f 609/5/1 610/6/1 611/7/1 612/8/1
f 613/1/1 614/2/1 615/3/1 616/4/1
f 617/1/1 618/2/1 619/3/1 620/4/1
f 621/6/1 622/1/1 623/4/1 624/7/1
f 625/1/1 626/2/1 627/3/1 628/4/1
f 629/6/1 630/1/1 631/4/1 632/7/1
f 633/1/1 634/2/1 635/3/1 636/4/1
f 637/6/1 638/1/1 639/4/1 640/7/1
f 641/5/1 642/6/1 643/7/1 644/8/1
f 645/1/1 646/2/1 647/3/1 648/4/1
f 649/6/1 650/1/1 651/4/1 652/7/1
f 653/1/1 654/2/1 655/3/1 656/4/1
f 657/6/1 658/1/1 659/4/1 660/7/1
f 661/1/1 662/2/1 663/3/1 664/4/1
f 665/6/1 666/1/1 667/4/1 668/7/1
f 669/6/1 670/1/1 671/4/1 672/7/1
f 673/5/1 674/6/1 675/7/1 676/8/1
f 677/1/1 678/2/1 679/3/1 680/4/1
f 681/6/1 682/1/1 683/4/1 684/7/1
f 685/5/1 686/6/1 687/7/1 688/8/1
f 689/5/1 690/6/1 691/7/1 692/8/1
f 693/6/1 694/1/1 695/4/1 696/7/1
f 697/1/1 698/2/1 699/3/1 700/4/1
f 701/1/1 702/2/1 703/3/1 704/4/1
f 705/6/1 706/1/1 707/4/1 708/7/1
f 709/5/1 710/6/1 711/7/1 712/8/1
f 713/6/1 714/1/1 715/4/1 716/7/1
f 717/6/1 718/1/1 719/4/1 720/7/1
f 721/5/1 722/6/1 723/7/1 724/8/1
f 725/5/1 726/6/1 727/7/1 728/8/1
f 729/5/1 730/6/1 731/7/1 732/8/1
f 733/5/1 734/6/1 735/7/1 736/8/1
f 737/6/1 738/1/1 739/4/1 740/7/1
f 741/5/1 742/6/1 743/7/1 744/8/1
f 745/5/1 746/6/1 747/7/1 748/8/1
f 749/6/1 750/1/1 751/4/1 752/7/1
f 753/6/1 754/1/1 755/4/1 756/7/1
f 757/1/1 758/2/1 759/3/1 760/4/1
f 761/1/1 762/2/1 763/3/1 764/4/1
f 765/5/1 766/6/1 767/7/1 768/8/1
f 769/5/1 770/6/1 771/7/1 772/8/1
f 773/1/1 774/2/1 775/3/1 776/4/1
f 777/6/1 778/1/1 779/4/1 780/7/1
f 781/1/1 782/2/1 783/3/1 784/4/1
f 785/5/1 786/6/1 787/7/1 788/8/1
f 789/5/1 790/6/1 791/7/1 792/8/1
f 793/6/1 794/1/1 795/4/1 796/7/1
f 797/5/1 798/6/1 799/7/1 800/8/1
f 801/1/1 802/2/1 803/3/1 804/4/1
f 805/6/1 806/1/1 807/4/1 808/7/1
f 809/5/1 810/6/1 811/7/1 812/8/1
f 813/6/1 814/1/1 815/4/1 816/7/1
f 817/6/1 818/1/1 819/4/1 820/7/1
f 821/6/1 822/1/1 823/4/1 824/7/1
f 825/1/1 826/2/1 827/3/1 828/4/1
f 829/6/1 830/1/1 831/4/1 832/7/1
f 833/5/1 834/6/1 835/7/1 836/8/1
f 837/6/1 838/1/1 839/4/1 840/7/1
f 841/5/1 842/6/1 843/7/1 844/8/1
f 845/5/1 846/6/1 847/7/1 848/8/1
f 849/6/1 850/1/1 851/4/1 852/7/1
f 853/6/1 854/1/1 855/4/1 856/7/1
f 857/6/1 858/1/1 859/4/1 860/7/1
f 861/1/1 862/2/1 863/3/1 864/4/1
f 865/6/1 866/1/1 867/4/1 868/7/1
f 869/5/1 870/6/1 871/7/1 872/8/1
f 873/6/1 874/1/1 875/4/1 876/7/1
f 877/1/1 878/2/1 879/3/1 880/4/1
f 881/5/1 882/6/1 883/7/1 884/8/1
f 885/5/1 886/6/1 887/7/1 888/8/1
f 889/1/1 890/2/1 891/3/1 892/4/1
f 893/6/1 894/1/1 895/4/1 896/7/1
f 897/1/1 898/2/1 899/3/1 900/4/1
f 901/6/1 902/1/1 903/4/1 904/7/1
f 905/1/1 906/2/1 907/3/1 908/4/1
f 909/1/1 910/2/1 911/3/1 912/4/1
f 913/6/1 914/1/1 915/4/1 916/7/1
f 917/6/1 918/1/1 919/4/1 920/7/1
f 921/1/1 922/2/1 923/3/1 924/4/1
f 925/1/1 926/2/1 927/3/1 928/4/1
f 929/5/1 930/6/1 931/7/1 932/8/1
f 933/5/1 934/6/1 935/7/1 936/8/1
f 937/6/1 938/1/1 939/4/1 940/7/1
f 941/1/1 942/2/1 943/3/1 944/4/1
f 945/1/1 946/2/1 947/3/1 948/4/1
f 949/6/1 950/1/1 951/4/1 952/7/1
f 953/6/1 954/1/1 955/4/1 956/7/1
f 957/1/1 958/2/1 959/3/1 960/4/1
f 961/5/1 962/6/1 963/7/1 964/8/1
f 965/5/1 966/6/1 967/7/1 968/8/1
f 969/6/1 970/1/1 971/4/1 972/7/1
f 973/6/1 974/1/1 975/4/1 976/7/1
f 977/6/1 978/1/1 979/4/1 980/7/1
f 981/5/1 982/6/1 983/7/1 984/8/1
f 985/1/1 986/2/1 987/3/1 988/4/1
f 989/1/1 990/2/1 991/3/1 992/4/1
f 993/5/1 994/6/1 995/7/1 996/8/1
f 997/1/1 998/2/1 999/3/1 1000/4/1
f 1001/6/1 1002/1/1 1003/4/1 1004/7/1
f 1005/5/1 1006/6/1 1007/7/1 1008/8/1
f 1009/5/1 1010/6/1 1011/7/1 1012/8/1
f 1013/1/1 1014/2/1 1015/3/1 1016/4/1
f 1017/1/1 1018/2/1 1019/3/1 1020/4/1
f 1021/1/1 1022/2/1 1023/3/1 1024/4/1

