# Tiled2Unity generated file. Do not modify by hand.
# Wavefront file for 'testmap1_mesh_0755.obj'

# Vertices (Count = 24)
v -10 -1 0
v -11 -1 0
v -11 0 0
v -10 0 0
v -11 -1 0
v -12 -1 0
v -12 0 0
v -11 0 0
v -10 -2 0
v -11 -2 0
v -11 -1 0
v -10 -1 0
v -11 -2 0
v -12 -2 0
v -12 -1 0
v -11 -1 0
v -10 -3 0
v -11 -3 0
v -11 -2 0
v -10 -2 0
v -11 -3 0
v -12 -3 0
v -12 -2 0
v -11 -2 0

# Texture cooridinates (Count = 12)
vt 0.9375 0.90625
vt 0.96875 0.90625
vt 0.96875 0.9375
vt 0.9375 0.9375
vt 1 0.90625
vt 1 0.9375
vt 0.9375 0.875
vt 0.96875 0.875
vt 1 0.875
vt 0.9375 0.84375
vt 0.96875 0.84375
vt 1 0.84375

# Normal
vn 0 0 -1

# Mesh description
g testmap1_mesh_0755

# Faces
f 1/1/1 2/2/1 3/3/1 4/4/1
f 5/2/1 6/5/1 7/6/1 8/3/1
f 9/7/1 10/8/1 11/2/1 12/1/1
f 13/8/1 14/9/1 15/5/1 16/2/1
f 17/10/1 18/11/1 19/8/1 20/7/1
f 21/11/1 22/12/1 23/9/1 24/8/1

