# Tiled2Unity generated file. Do not modify by hand.
# Wavefront file for 'testmap1_mesh_0729.obj'

# Vertices (Count = 256)
v 0 -1 0
v -1 -1 0
v -1 0 0
v 0 0 0
v -1 -1 0
v -2 -1 0
v -2 0 0
v -1 0 0
v -2 -1 0
v -3 -1 0
v -3 0 0
v -2 0 0
v -3 -1 0
v -4 -1 0
v -4 0 0
v -3 0 0
v -4 -1 0
v -5 -1 0
v -5 0 0
v -4 0 0
v -5 -1 0
v -6 -1 0
v -6 0 0
v -5 0 0
v -6 -1 0
v -7 -1 0
v -7 0 0
v -6 0 0
v -7 -1 0
v -8 -1 0
v -8 0 0
v -7 0 0
v -8 -1 0
v -9 -1 0
v -9 0 0
v -8 0 0
v -9 -1 0
v -10 -1 0
v -10 0 0
v -9 0 0
v -10 -1 0
v -11 -1 0
v -11 0 0
v -10 0 0
v -11 -1 0
v -12 -1 0
v -12 0 0
v -11 0 0
v -12 -1 0
v -13 -1 0
v -13 0 0
v -12 0 0
v -13 -1 0
v -14 -1 0
v -14 0 0
v -13 0 0
v -14 -1 0
v -15 -1 0
v -15 0 0
v -14 0 0
v -15 -1 0
v -16 -1 0
v -16 0 0
v -15 0 0
v 0 -2 0
v -1 -2 0
v -1 -1 0
v 0 -1 0
v -1 -2 0
v -2 -2 0
v -2 -1 0
v -1 -1 0
v -2 -2 0
v -3 -2 0
v -3 -1 0
v -2 -1 0
v -3 -2 0
v -4 -2 0
v -4 -1 0
v -3 -1 0
v -4 -2 0
v -5 -2 0
v -5 -1 0
v -4 -1 0
v -5 -2 0
v -6 -2 0
v -6 -1 0
v -5 -1 0
v -6 -2 0
v -7 -2 0
v -7 -1 0
v -6 -1 0
v -7 -2 0
v -8 -2 0
v -8 -1 0
v -7 -1 0
v -8 -2 0
v -9 -2 0
v -9 -1 0
v -8 -1 0
v -9 -2 0
v -10 -2 0
v -10 -1 0
v -9 -1 0
v -10 -2 0
v -11 -2 0
v -11 -1 0
v -10 -1 0
v -11 -2 0
v -12 -2 0
v -12 -1 0
v -11 -1 0
v -12 -2 0
v -13 -2 0
v -13 -1 0
v -12 -1 0
v -13 -2 0
v -14 -2 0
v -14 -1 0
v -13 -1 0
v -14 -2 0
v -15 -2 0
v -15 -1 0
v -14 -1 0
v -15 -2 0
v -16 -2 0
v -16 -1 0
v -15 -1 0
v 0 -3 0
v -1 -3 0
v -1 -2 0
v 0 -2 0
v -1 -3 0
v -2 -3 0
v -2 -2 0
v -1 -2 0
v -2 -3 0
v -3 -3 0
v -3 -2 0
v -2 -2 0
v -3 -3 0
v -4 -3 0
v -4 -2 0
v -3 -2 0
v -4 -3 0
v -5 -3 0
v -5 -2 0
v -4 -2 0
v -5 -3 0
v -6 -3 0
v -6 -2 0
v -5 -2 0
v -6 -3 0
v -7 -3 0
v -7 -2 0
v -6 -2 0
v -7 -3 0
v -8 -3 0
v -8 -2 0
v -7 -2 0
v -8 -3 0
v -9 -3 0
v -9 -2 0
v -8 -2 0
v -9 -3 0
v -10 -3 0
v -10 -2 0
v -9 -2 0
v -10 -3 0
v -11 -3 0
v -11 -2 0
v -10 -2 0
v -11 -3 0
v -12 -3 0
v -12 -2 0
v -11 -2 0
v -12 -3 0
v -13 -3 0
v -13 -2 0
v -12 -2 0
v -13 -3 0
v -14 -3 0
v -14 -2 0
v -13 -2 0
v -14 -3 0
v -15 -3 0
v -15 -2 0
v -14 -2 0
v -15 -3 0
v -16 -3 0
v -16 -2 0
v -15 -2 0
v 0 -4 0
v -1 -4 0
v -1 -3 0
v 0 -3 0
v -1 -4 0
v -2 -4 0
v -2 -3 0
v -1 -3 0
v -2 -4 0
v -3 -4 0
v -3 -3 0
v -2 -3 0
v -3 -4 0
v -4 -4 0
v -4 -3 0
v -3 -3 0
v -4 -4 0
v -5 -4 0
v -5 -3 0
v -4 -3 0
v -5 -4 0
v -6 -4 0
v -6 -3 0
v -5 -3 0
v -6 -4 0
v -7 -4 0
v -7 -3 0
v -6 -3 0
v -7 -4 0
v -8 -4 0
v -8 -3 0
v -7 -3 0
v -8 -4 0
v -9 -4 0
v -9 -3 0
v -8 -3 0
v -9 -4 0
v -10 -4 0
v -10 -3 0
v -9 -3 0
v -10 -4 0
v -11 -4 0
v -11 -3 0
v -10 -3 0
v -11 -4 0
v -12 -4 0
v -12 -3 0
v -11 -3 0
v -12 -4 0
v -13 -4 0
v -13 -3 0
v -12 -3 0
v -13 -4 0
v -14 -4 0
v -14 -3 0
v -13 -3 0
v -14 -4 0
v -15 -4 0
v -15 -3 0
v -14 -3 0
v -15 -4 0
v -16 -4 0
v -16 -3 0
v -15 -3 0

# Texture cooridinates (Count = 8)
vt 0.71875 0.8125
vt 0.75 0.8125
vt 0.75 0.84375
vt 0.71875 0.84375
vt 0.6875 0.8125
vt 0.6875 0.84375
vt 0.65625 0.8125
vt 0.65625 0.84375

# Normal
vn 0 0 -1

# Mesh description
g testmap1_mesh_0729

# Faces
f 1/1/1 2/2/1 3/3/1 4/4/1
f 5/1/1 6/2/1 7/3/1 8/4/1
f 9/5/1 10/1/1 11/4/1 12/6/1
f 13/7/1 14/5/1 15/6/1 16/8/1
f 17/5/1 18/1/1 19/4/1 20/6/1
f 21/7/1 22/5/1 23/6/1 24/8/1
f 25/1/1 26/2/1 27/3/1 28/4/1
f 29/7/1 30/5/1 31/6/1 32/8/1
f 33/7/1 34/5/1 35/6/1 36/8/1
f 37/5/1 38/1/1 39/4/1 40/6/1
f 41/1/1 42/2/1 43/3/1 44/4/1
f 45/7/1 46/5/1 47/6/1 48/8/1
f 49/1/1 50/2/1 51/3/1 52/4/1
f 53/1/1 54/2/1 55/3/1 56/4/1
f 57/1/1 58/2/1 59/3/1 60/4/1
f 61/7/1 62/5/1 63/6/1 64/8/1
f 65/1/1 66/2/1 67/3/1 68/4/1
f 69/7/1 70/5/1 71/6/1 72/8/1
f 73/7/1 74/5/1 75/6/1 76/8/1
f 77/5/1 78/1/1 79/4/1 80/6/1
f 81/5/1 82/1/1 83/4/1 84/6/1
f 85/1/1 86/2/1 87/3/1 88/4/1
f 89/1/1 90/2/1 91/3/1 92/4/1
f 93/5/1 94/1/1 95/4/1 96/6/1
f 97/5/1 98/1/1 99/4/1 100/6/1
f 101/7/1 102/5/1 103/6/1 104/8/1
f 105/1/1 106/2/1 107/3/1 108/4/1
f 109/5/1 110/1/1 111/4/1 112/6/1
f 113/1/1 114/2/1 115/3/1 116/4/1
f 117/5/1 118/1/1 119/4/1 120/6/1
f 121/7/1 122/5/1 123/6/1 124/8/1
f 125/1/1 126/2/1 127/3/1 128/4/1
f 129/7/1 130/5/1 131/6/1 132/8/1
f 133/5/1 134/1/1 135/4/1 136/6/1
f 137/5/1 138/1/1 139/4/1 140/6/1
f 141/1/1 142/2/1 143/3/1 144/4/1
f 145/5/1 146/1/1 147/4/1 148/6/1
f 149/5/1 150/1/1 151/4/1 152/6/1
f 153/1/1 154/2/1 155/3/1 156/4/1
f 157/1/1 158/2/1 159/3/1 160/4/1
f 161/5/1 162/1/1 163/4/1 164/6/1
f 165/1/1 166/2/1 167/3/1 168/4/1
f 169/7/1 170/5/1 171/6/1 172/8/1
f 173/5/1 174/1/1 175/4/1 176/6/1
f 177/1/1 178/2/1 179/3/1 180/4/1
f 181/5/1 182/1/1 183/4/1 184/6/1
f 185/7/1 186/5/1 187/6/1 188/8/1
f 189/5/1 190/1/1 191/4/1 192/6/1
f 193/1/1 194/2/1 195/3/1 196/4/1
f 197/7/1 198/5/1 199/6/1 200/8/1
f 201/5/1 202/1/1 203/4/1 204/6/1
f 205/7/1 206/5/1 207/6/1 208/8/1
f 209/5/1 210/1/1 211/4/1 212/6/1
f 213/1/1 214/2/1 215/3/1 216/4/1
f 217/7/1 218/5/1 219/6/1 220/8/1
f 221/7/1 222/5/1 223/6/1 224/8/1
f 225/1/1 226/2/1 227/3/1 228/4/1
f 229/5/1 230/1/1 231/4/1 232/6/1
f 233/1/1 234/2/1 235/3/1 236/4/1
f 237/7/1 238/5/1 239/6/1 240/8/1
f 241/7/1 242/5/1 243/6/1 244/8/1
f 245/7/1 246/5/1 247/6/1 248/8/1
f 249/5/1 250/1/1 251/4/1 252/6/1
f 253/7/1 254/5/1 255/6/1 256/8/1

