# Tiled2Unity generated file. Do not modify by hand.
# Wavefront file for 'testmap1_mesh_0628.obj'

# Vertices (Count = 1024)
v 0 -1 0
v -1 -1 0
v -1 0 0
v 0 0 0
v -1 -1 0
v -2 -1 0
v -2 0 0
v -1 0 0
v -2 -1 0
v -3 -1 0
v -3 0 0
v -2 0 0
v -3 -1 0
v -4 -1 0
v -4 0 0
v -3 0 0
v -4 -1 0
v -5 -1 0
v -5 0 0
v -4 0 0
v -5 -1 0
v -6 -1 0
v -6 0 0
v -5 0 0
v -6 -1 0
v -7 -1 0
v -7 0 0
v -6 0 0
v -7 -1 0
v -8 -1 0
v -8 0 0
v -7 0 0
v -8 -1 0
v -9 -1 0
v -9 0 0
v -8 0 0
v -9 -1 0
v -10 -1 0
v -10 0 0
v -9 0 0
v -10 -1 0
v -11 -1 0
v -11 0 0
v -10 0 0
v -11 -1 0
v -12 -1 0
v -12 0 0
v -11 0 0
v -12 -1 0
v -13 -1 0
v -13 0 0
v -12 0 0
v -13 -1 0
v -14 -1 0
v -14 0 0
v -13 0 0
v -14 -1 0
v -15 -1 0
v -15 0 0
v -14 0 0
v -15 -1 0
v -16 -1 0
v -16 0 0
v -15 0 0
v 0 -2 0
v -1 -2 0
v -1 -1 0
v 0 -1 0
v -1 -2 0
v -2 -2 0
v -2 -1 0
v -1 -1 0
v -2 -2 0
v -3 -2 0
v -3 -1 0
v -2 -1 0
v -3 -2 0
v -4 -2 0
v -4 -1 0
v -3 -1 0
v -4 -2 0
v -5 -2 0
v -5 -1 0
v -4 -1 0
v -5 -2 0
v -6 -2 0
v -6 -1 0
v -5 -1 0
v -6 -2 0
v -7 -2 0
v -7 -1 0
v -6 -1 0
v -7 -2 0
v -8 -2 0
v -8 -1 0
v -7 -1 0
v -8 -2 0
v -9 -2 0
v -9 -1 0
v -8 -1 0
v -9 -2 0
v -10 -2 0
v -10 -1 0
v -9 -1 0
v -10 -2 0
v -11 -2 0
v -11 -1 0
v -10 -1 0
v -11 -2 0
v -12 -2 0
v -12 -1 0
v -11 -1 0
v -12 -2 0
v -13 -2 0
v -13 -1 0
v -12 -1 0
v -13 -2 0
v -14 -2 0
v -14 -1 0
v -13 -1 0
v -14 -2 0
v -15 -2 0
v -15 -1 0
v -14 -1 0
v -15 -2 0
v -16 -2 0
v -16 -1 0
v -15 -1 0
v 0 -3 0
v -1 -3 0
v -1 -2 0
v 0 -2 0
v -1 -3 0
v -2 -3 0
v -2 -2 0
v -1 -2 0
v -2 -3 0
v -3 -3 0
v -3 -2 0
v -2 -2 0
v -3 -3 0
v -4 -3 0
v -4 -2 0
v -3 -2 0
v -4 -3 0
v -5 -3 0
v -5 -2 0
v -4 -2 0
v -5 -3 0
v -6 -3 0
v -6 -2 0
v -5 -2 0
v -6 -3 0
v -7 -3 0
v -7 -2 0
v -6 -2 0
v -7 -3 0
v -8 -3 0
v -8 -2 0
v -7 -2 0
v -8 -3 0
v -9 -3 0
v -9 -2 0
v -8 -2 0
v -9 -3 0
v -10 -3 0
v -10 -2 0
v -9 -2 0
v -10 -3 0
v -11 -3 0
v -11 -2 0
v -10 -2 0
v -11 -3 0
v -12 -3 0
v -12 -2 0
v -11 -2 0
v -12 -3 0
v -13 -3 0
v -13 -2 0
v -12 -2 0
v -13 -3 0
v -14 -3 0
v -14 -2 0
v -13 -2 0
v -14 -3 0
v -15 -3 0
v -15 -2 0
v -14 -2 0
v -15 -3 0
v -16 -3 0
v -16 -2 0
v -15 -2 0
v 0 -4 0
v -1 -4 0
v -1 -3 0
v 0 -3 0
v -1 -4 0
v -2 -4 0
v -2 -3 0
v -1 -3 0
v -2 -4 0
v -3 -4 0
v -3 -3 0
v -2 -3 0
v -3 -4 0
v -4 -4 0
v -4 -3 0
v -3 -3 0
v -4 -4 0
v -5 -4 0
v -5 -3 0
v -4 -3 0
v -5 -4 0
v -6 -4 0
v -6 -3 0
v -5 -3 0
v -6 -4 0
v -7 -4 0
v -7 -3 0
v -6 -3 0
v -7 -4 0
v -8 -4 0
v -8 -3 0
v -7 -3 0
v -8 -4 0
v -9 -4 0
v -9 -3 0
v -8 -3 0
v -9 -4 0
v -10 -4 0
v -10 -3 0
v -9 -3 0
v -10 -4 0
v -11 -4 0
v -11 -3 0
v -10 -3 0
v -11 -4 0
v -12 -4 0
v -12 -3 0
v -11 -3 0
v -12 -4 0
v -13 -4 0
v -13 -3 0
v -12 -3 0
v -13 -4 0
v -14 -4 0
v -14 -3 0
v -13 -3 0
v -14 -4 0
v -15 -4 0
v -15 -3 0
v -14 -3 0
v -15 -4 0
v -16 -4 0
v -16 -3 0
v -15 -3 0
v 0 -5 0
v -1 -5 0
v -1 -4 0
v 0 -4 0
v -1 -5 0
v -2 -5 0
v -2 -4 0
v -1 -4 0
v -2 -5 0
v -3 -5 0
v -3 -4 0
v -2 -4 0
v -3 -5 0
v -4 -5 0
v -4 -4 0
v -3 -4 0
v -4 -5 0
v -5 -5 0
v -5 -4 0
v -4 -4 0
v -5 -5 0
v -6 -5 0
v -6 -4 0
v -5 -4 0
v -6 -5 0
v -7 -5 0
v -7 -4 0
v -6 -4 0
v -7 -5 0
v -8 -5 0
v -8 -4 0
v -7 -4 0
v -8 -5 0
v -9 -5 0
v -9 -4 0
v -8 -4 0
v -9 -5 0
v -10 -5 0
v -10 -4 0
v -9 -4 0
v -10 -5 0
v -11 -5 0
v -11 -4 0
v -10 -4 0
v -11 -5 0
v -12 -5 0
v -12 -4 0
v -11 -4 0
v -12 -5 0
v -13 -5 0
v -13 -4 0
v -12 -4 0
v -13 -5 0
v -14 -5 0
v -14 -4 0
v -13 -4 0
v -14 -5 0
v -15 -5 0
v -15 -4 0
v -14 -4 0
v -15 -5 0
v -16 -5 0
v -16 -4 0
v -15 -4 0
v 0 -6 0
v -1 -6 0
v -1 -5 0
v 0 -5 0
v -1 -6 0
v -2 -6 0
v -2 -5 0
v -1 -5 0
v -2 -6 0
v -3 -6 0
v -3 -5 0
v -2 -5 0
v -3 -6 0
v -4 -6 0
v -4 -5 0
v -3 -5 0
v -4 -6 0
v -5 -6 0
v -5 -5 0
v -4 -5 0
v -5 -6 0
v -6 -6 0
v -6 -5 0
v -5 -5 0
v -6 -6 0
v -7 -6 0
v -7 -5 0
v -6 -5 0
v -7 -6 0
v -8 -6 0
v -8 -5 0
v -7 -5 0
v -8 -6 0
v -9 -6 0
v -9 -5 0
v -8 -5 0
v -9 -6 0
v -10 -6 0
v -10 -5 0
v -9 -5 0
v -10 -6 0
v -11 -6 0
v -11 -5 0
v -10 -5 0
v -11 -6 0
v -12 -6 0
v -12 -5 0
v -11 -5 0
v -12 -6 0
v -13 -6 0
v -13 -5 0
v -12 -5 0
v -13 -6 0
v -14 -6 0
v -14 -5 0
v -13 -5 0
v -14 -6 0
v -15 -6 0
v -15 -5 0
v -14 -5 0
v -15 -6 0
v -16 -6 0
v -16 -5 0
v -15 -5 0
v 0 -7 0
v -1 -7 0
v -1 -6 0
v 0 -6 0
v -1 -7 0
v -2 -7 0
v -2 -6 0
v -1 -6 0
v -2 -7 0
v -3 -7 0
v -3 -6 0
v -2 -6 0
v -3 -7 0
v -4 -7 0
v -4 -6 0
v -3 -6 0
v -4 -7 0
v -5 -7 0
v -5 -6 0
v -4 -6 0
v -5 -7 0
v -6 -7 0
v -6 -6 0
v -5 -6 0
v -6 -7 0
v -7 -7 0
v -7 -6 0
v -6 -6 0
v -7 -7 0
v -8 -7 0
v -8 -6 0
v -7 -6 0
v -8 -7 0
v -9 -7 0
v -9 -6 0
v -8 -6 0
v -9 -7 0
v -10 -7 0
v -10 -6 0
v -9 -6 0
v -10 -7 0
v -11 -7 0
v -11 -6 0
v -10 -6 0
v -11 -7 0
v -12 -7 0
v -12 -6 0
v -11 -6 0
v -12 -7 0
v -13 -7 0
v -13 -6 0
v -12 -6 0
v -13 -7 0
v -14 -7 0
v -14 -6 0
v -13 -6 0
v -14 -7 0
v -15 -7 0
v -15 -6 0
v -14 -6 0
v -15 -7 0
v -16 -7 0
v -16 -6 0
v -15 -6 0
v 0 -8 0
v -1 -8 0
v -1 -7 0
v 0 -7 0
v -1 -8 0
v -2 -8 0
v -2 -7 0
v -1 -7 0
v -2 -8 0
v -3 -8 0
v -3 -7 0
v -2 -7 0
v -3 -8 0
v -4 -8 0
v -4 -7 0
v -3 -7 0
v -4 -8 0
v -5 -8 0
v -5 -7 0
v -4 -7 0
v -5 -8 0
v -6 -8 0
v -6 -7 0
v -5 -7 0
v -6 -8 0
v -7 -8 0
v -7 -7 0
v -6 -7 0
v -7 -8 0
v -8 -8 0
v -8 -7 0
v -7 -7 0
v -8 -8 0
v -9 -8 0
v -9 -7 0
v -8 -7 0
v -9 -8 0
v -10 -8 0
v -10 -7 0
v -9 -7 0
v -10 -8 0
v -11 -8 0
v -11 -7 0
v -10 -7 0
v -11 -8 0
v -12 -8 0
v -12 -7 0
v -11 -7 0
v -12 -8 0
v -13 -8 0
v -13 -7 0
v -12 -7 0
v -13 -8 0
v -14 -8 0
v -14 -7 0
v -13 -7 0
v -14 -8 0
v -15 -8 0
v -15 -7 0
v -14 -7 0
v -15 -8 0
v -16 -8 0
v -16 -7 0
v -15 -7 0
v 0 -9 0
v -1 -9 0
v -1 -8 0
v 0 -8 0
v -1 -9 0
v -2 -9 0
v -2 -8 0
v -1 -8 0
v -2 -9 0
v -3 -9 0
v -3 -8 0
v -2 -8 0
v -3 -9 0
v -4 -9 0
v -4 -8 0
v -3 -8 0
v -4 -9 0
v -5 -9 0
v -5 -8 0
v -4 -8 0
v -5 -9 0
v -6 -9 0
v -6 -8 0
v -5 -8 0
v -6 -9 0
v -7 -9 0
v -7 -8 0
v -6 -8 0
v -7 -9 0
v -8 -9 0
v -8 -8 0
v -7 -8 0
v -8 -9 0
v -9 -9 0
v -9 -8 0
v -8 -8 0
v -9 -9 0
v -10 -9 0
v -10 -8 0
v -9 -8 0
v -10 -9 0
v -11 -9 0
v -11 -8 0
v -10 -8 0
v -11 -9 0
v -12 -9 0
v -12 -8 0
v -11 -8 0
v -12 -9 0
v -13 -9 0
v -13 -8 0
v -12 -8 0
v -13 -9 0
v -14 -9 0
v -14 -8 0
v -13 -8 0
v -14 -9 0
v -15 -9 0
v -15 -8 0
v -14 -8 0
v -15 -9 0
v -16 -9 0
v -16 -8 0
v -15 -8 0
v 0 -10 0
v -1 -10 0
v -1 -9 0
v 0 -9 0
v -1 -10 0
v -2 -10 0
v -2 -9 0
v -1 -9 0
v -2 -10 0
v -3 -10 0
v -3 -9 0
v -2 -9 0
v -3 -10 0
v -4 -10 0
v -4 -9 0
v -3 -9 0
v -4 -10 0
v -5 -10 0
v -5 -9 0
v -4 -9 0
v -5 -10 0
v -6 -10 0
v -6 -9 0
v -5 -9 0
v -6 -10 0
v -7 -10 0
v -7 -9 0
v -6 -9 0
v -7 -10 0
v -8 -10 0
v -8 -9 0
v -7 -9 0
v -8 -10 0
v -9 -10 0
v -9 -9 0
v -8 -9 0
v -9 -10 0
v -10 -10 0
v -10 -9 0
v -9 -9 0
v -10 -10 0
v -11 -10 0
v -11 -9 0
v -10 -9 0
v -11 -10 0
v -12 -10 0
v -12 -9 0
v -11 -9 0
v -12 -10 0
v -13 -10 0
v -13 -9 0
v -12 -9 0
v -13 -10 0
v -14 -10 0
v -14 -9 0
v -13 -9 0
v -14 -10 0
v -15 -10 0
v -15 -9 0
v -14 -9 0
v -15 -10 0
v -16 -10 0
v -16 -9 0
v -15 -9 0
v 0 -11 0
v -1 -11 0
v -1 -10 0
v 0 -10 0
v -1 -11 0
v -2 -11 0
v -2 -10 0
v -1 -10 0
v -2 -11 0
v -3 -11 0
v -3 -10 0
v -2 -10 0
v -3 -11 0
v -4 -11 0
v -4 -10 0
v -3 -10 0
v -4 -11 0
v -5 -11 0
v -5 -10 0
v -4 -10 0
v -5 -11 0
v -6 -11 0
v -6 -10 0
v -5 -10 0
v -6 -11 0
v -7 -11 0
v -7 -10 0
v -6 -10 0
v -7 -11 0
v -8 -11 0
v -8 -10 0
v -7 -10 0
v -8 -11 0
v -9 -11 0
v -9 -10 0
v -8 -10 0
v -9 -11 0
v -10 -11 0
v -10 -10 0
v -9 -10 0
v -10 -11 0
v -11 -11 0
v -11 -10 0
v -10 -10 0
v -11 -11 0
v -12 -11 0
v -12 -10 0
v -11 -10 0
v -12 -11 0
v -13 -11 0
v -13 -10 0
v -12 -10 0
v -13 -11 0
v -14 -11 0
v -14 -10 0
v -13 -10 0
v -14 -11 0
v -15 -11 0
v -15 -10 0
v -14 -10 0
v -15 -11 0
v -16 -11 0
v -16 -10 0
v -15 -10 0
v 0 -12 0
v -1 -12 0
v -1 -11 0
v 0 -11 0
v -1 -12 0
v -2 -12 0
v -2 -11 0
v -1 -11 0
v -2 -12 0
v -3 -12 0
v -3 -11 0
v -2 -11 0
v -3 -12 0
v -4 -12 0
v -4 -11 0
v -3 -11 0
v -4 -12 0
v -5 -12 0
v -5 -11 0
v -4 -11 0
v -5 -12 0
v -6 -12 0
v -6 -11 0
v -5 -11 0
v -6 -12 0
v -7 -12 0
v -7 -11 0
v -6 -11 0
v -7 -12 0
v -8 -12 0
v -8 -11 0
v -7 -11 0
v -8 -12 0
v -9 -12 0
v -9 -11 0
v -8 -11 0
v -9 -12 0
v -10 -12 0
v -10 -11 0
v -9 -11 0
v -10 -12 0
v -11 -12 0
v -11 -11 0
v -10 -11 0
v -11 -12 0
v -12 -12 0
v -12 -11 0
v -11 -11 0
v -12 -12 0
v -13 -12 0
v -13 -11 0
v -12 -11 0
v -13 -12 0
v -14 -12 0
v -14 -11 0
v -13 -11 0
v -14 -12 0
v -15 -12 0
v -15 -11 0
v -14 -11 0
v -15 -12 0
v -16 -12 0
v -16 -11 0
v -15 -11 0
v 0 -13 0
v -1 -13 0
v -1 -12 0
v 0 -12 0
v -1 -13 0
v -2 -13 0
v -2 -12 0
v -1 -12 0
v -2 -13 0
v -3 -13 0
v -3 -12 0
v -2 -12 0
v -3 -13 0
v -4 -13 0
v -4 -12 0
v -3 -12 0
v -4 -13 0
v -5 -13 0
v -5 -12 0
v -4 -12 0
v -5 -13 0
v -6 -13 0
v -6 -12 0
v -5 -12 0
v -6 -13 0
v -7 -13 0
v -7 -12 0
v -6 -12 0
v -7 -13 0
v -8 -13 0
v -8 -12 0
v -7 -12 0
v -8 -13 0
v -9 -13 0
v -9 -12 0
v -8 -12 0
v -9 -13 0
v -10 -13 0
v -10 -12 0
v -9 -12 0
v -10 -13 0
v -11 -13 0
v -11 -12 0
v -10 -12 0
v -11 -13 0
v -12 -13 0
v -12 -12 0
v -11 -12 0
v -12 -13 0
v -13 -13 0
v -13 -12 0
v -12 -12 0
v -13 -13 0
v -14 -13 0
v -14 -12 0
v -13 -12 0
v -14 -13 0
v -15 -13 0
v -15 -12 0
v -14 -12 0
v -15 -13 0
v -16 -13 0
v -16 -12 0
v -15 -12 0
v 0 -14 0
v -1 -14 0
v -1 -13 0
v 0 -13 0
v -1 -14 0
v -2 -14 0
v -2 -13 0
v -1 -13 0
v -2 -14 0
v -3 -14 0
v -3 -13 0
v -2 -13 0
v -3 -14 0
v -4 -14 0
v -4 -13 0
v -3 -13 0
v -4 -14 0
v -5 -14 0
v -5 -13 0
v -4 -13 0
v -5 -14 0
v -6 -14 0
v -6 -13 0
v -5 -13 0
v -6 -14 0
v -7 -14 0
v -7 -13 0
v -6 -13 0
v -7 -14 0
v -8 -14 0
v -8 -13 0
v -7 -13 0
v -8 -14 0
v -9 -14 0
v -9 -13 0
v -8 -13 0
v -9 -14 0
v -10 -14 0
v -10 -13 0
v -9 -13 0
v -10 -14 0
v -11 -14 0
v -11 -13 0
v -10 -13 0
v -11 -14 0
v -12 -14 0
v -12 -13 0
v -11 -13 0
v -12 -14 0
v -13 -14 0
v -13 -13 0
v -12 -13 0
v -13 -14 0
v -14 -14 0
v -14 -13 0
v -13 -13 0
v -14 -14 0
v -15 -14 0
v -15 -13 0
v -14 -13 0
v -15 -14 0
v -16 -14 0
v -16 -13 0
v -15 -13 0
v 0 -15 0
v -1 -15 0
v -1 -14 0
v 0 -14 0
v -1 -15 0
v -2 -15 0
v -2 -14 0
v -1 -14 0
v -2 -15 0
v -3 -15 0
v -3 -14 0
v -2 -14 0
v -3 -15 0
v -4 -15 0
v -4 -14 0
v -3 -14 0
v -4 -15 0
v -5 -15 0
v -5 -14 0
v -4 -14 0
v -5 -15 0
v -6 -15 0
v -6 -14 0
v -5 -14 0
v -6 -15 0
v -7 -15 0
v -7 -14 0
v -6 -14 0
v -7 -15 0
v -8 -15 0
v -8 -14 0
v -7 -14 0
v -8 -15 0
v -9 -15 0
v -9 -14 0
v -8 -14 0
v -9 -15 0
v -10 -15 0
v -10 -14 0
v -9 -14 0
v -10 -15 0
v -11 -15 0
v -11 -14 0
v -10 -14 0
v -11 -15 0
v -12 -15 0
v -12 -14 0
v -11 -14 0
v -12 -15 0
v -13 -15 0
v -13 -14 0
v -12 -14 0
v -13 -15 0
v -14 -15 0
v -14 -14 0
v -13 -14 0
v -14 -15 0
v -15 -15 0
v -15 -14 0
v -14 -14 0
v -15 -15 0
v -16 -15 0
v -16 -14 0
v -15 -14 0
v 0 -16 0
v -1 -16 0
v -1 -15 0
v 0 -15 0
v -1 -16 0
v -2 -16 0
v -2 -15 0
v -1 -15 0
v -2 -16 0
v -3 -16 0
v -3 -15 0
v -2 -15 0
v -3 -16 0
v -4 -16 0
v -4 -15 0
v -3 -15 0
v -4 -16 0
v -5 -16 0
v -5 -15 0
v -4 -15 0
v -5 -16 0
v -6 -16 0
v -6 -15 0
v -5 -15 0
v -6 -16 0
v -7 -16 0
v -7 -15 0
v -6 -15 0
v -7 -16 0
v -8 -16 0
v -8 -15 0
v -7 -15 0
v -8 -16 0
v -9 -16 0
v -9 -15 0
v -8 -15 0
v -9 -16 0
v -10 -16 0
v -10 -15 0
v -9 -15 0
v -10 -16 0
v -11 -16 0
v -11 -15 0
v -10 -15 0
v -11 -16 0
v -12 -16 0
v -12 -15 0
v -11 -15 0
v -12 -16 0
v -13 -16 0
v -13 -15 0
v -12 -15 0
v -13 -16 0
v -14 -16 0
v -14 -15 0
v -13 -15 0
v -14 -16 0
v -15 -16 0
v -15 -15 0
v -14 -15 0
v -15 -16 0
v -16 -16 0
v -16 -15 0
v -15 -15 0

# Texture cooridinates (Count = 8)
vt 0.71875 0.8125
vt 0.75 0.8125
vt 0.75 0.84375
vt 0.71875 0.84375
vt 0.65625 0.8125
vt 0.6875 0.8125
vt 0.6875 0.84375
vt 0.65625 0.84375

# Normal
vn 0 0 -1

# Mesh description
g testmap1_mesh_0628

# Faces
f 1/1/1 2/2/1 3/3/1 4/4/1
f 5/1/1 6/2/1 7/3/1 8/4/1
f 9/5/1 10/6/1 11/7/1 12/8/1
f 13/5/1 14/6/1 15/7/1 16/8/1
f 17/6/1 18/1/1 19/4/1 20/7/1
f 21/6/1 22/1/1 23/4/1 24/7/1
f 25/1/1 26/2/1 27/3/1 28/4/1
f 29/6/1 30/1/1 31/4/1 32/7/1
f 33/6/1 34/1/1 35/4/1 36/7/1
f 37/5/1 38/6/1 39/7/1 40/8/1
f 41/1/1 42/2/1 43/3/1 44/4/1
f 45/6/1 46/1/1 47/4/1 48/7/1
f 49/5/1 50/6/1 51/7/1 52/8/1
f 53/6/1 54/1/1 55/4/1 56/7/1
f 57/6/1 58/1/1 59/4/1 60/7/1
f 61/1/1 62/2/1 63/3/1 64/4/1
f 65/1/1 66/2/1 67/3/1 68/4/1
f 69/6/1 70/1/1 71/4/1 72/7/1
f 73/6/1 74/1/1 75/4/1 76/7/1
f 77/5/1 78/6/1 79/7/1 80/8/1
f 81/5/1 82/6/1 83/7/1 84/8/1
f 85/6/1 86/1/1 87/4/1 88/7/1
f 89/5/1 90/6/1 91/7/1 92/8/1
f 93/5/1 94/6/1 95/7/1 96/8/1
f 97/5/1 98/6/1 99/7/1 100/8/1
f 101/1/1 102/2/1 103/3/1 104/4/1
f 105/6/1 106/1/1 107/4/1 108/7/1
f 109/1/1 110/2/1 111/3/1 112/4/1
f 113/1/1 114/2/1 115/3/1 116/4/1
f 117/6/1 118/1/1 119/4/1 120/7/1
f 121/6/1 122/1/1 123/4/1 124/7/1
f 125/1/1 126/2/1 127/3/1 128/4/1
f 129/5/1 130/6/1 131/7/1 132/8/1
f 133/6/1 134/1/1 135/4/1 136/7/1
f 137/5/1 138/6/1 139/7/1 140/8/1
f 141/6/1 142/1/1 143/4/1 144/7/1
f 145/5/1 146/6/1 147/7/1 148/8/1
f 149/5/1 150/6/1 151/7/1 152/8/1
f 153/1/1 154/2/1 155/3/1 156/4/1
f 157/1/1 158/2/1 159/3/1 160/4/1
f 161/5/1 162/6/1 163/7/1 164/8/1
f 165/5/1 166/6/1 167/7/1 168/8/1
f 169/1/1 170/2/1 171/3/1 172/4/1
f 173/5/1 174/6/1 175/7/1 176/8/1
f 177/6/1 178/1/1 179/4/1 180/7/1
f 181/1/1 182/2/1 183/3/1 184/4/1
f 185/1/1 186/2/1 187/3/1 188/4/1
f 189/5/1 190/6/1 191/7/1 192/8/1
f 193/6/1 194/1/1 195/4/1 196/7/1
f 197/5/1 198/6/1 199/7/1 200/8/1
f 201/6/1 202/1/1 203/4/1 204/7/1
f 205/5/1 206/6/1 207/7/1 208/8/1
f 209/1/1 210/2/1 211/3/1 212/4/1
f 213/6/1 214/1/1 215/4/1 216/7/1
f 217/6/1 218/1/1 219/4/1 220/7/1
f 221/5/1 222/6/1 223/7/1 224/8/1
f 225/6/1 226/1/1 227/4/1 228/7/1
f 229/1/1 230/2/1 231/3/1 232/4/1
f 233/6/1 234/1/1 235/4/1 236/7/1
f 237/5/1 238/6/1 239/7/1 240/8/1
f 241/1/1 242/2/1 243/3/1 244/4/1
f 245/5/1 246/6/1 247/7/1 248/8/1
f 249/6/1 250/1/1 251/4/1 252/7/1
f 253/1/1 254/2/1 255/3/1 256/4/1
f 257/6/1 258/1/1 259/4/1 260/7/1
f 261/6/1 262/1/1 263/4/1 264/7/1
f 265/1/1 266/2/1 267/3/1 268/4/1
f 269/6/1 270/1/1 271/4/1 272/7/1
f 273/6/1 274/1/1 275/4/1 276/7/1
f 277/6/1 278/1/1 279/4/1 280/7/1
f 281/6/1 282/1/1 283/4/1 284/7/1
f 285/1/1 286/2/1 287/3/1 288/4/1
f 289/1/1 290/2/1 291/3/1 292/4/1
f 293/1/1 294/2/1 295/3/1 296/4/1
f 297/5/1 298/6/1 299/7/1 300/8/1
f 301/1/1 302/2/1 303/3/1 304/4/1
f 305/6/1 306/1/1 307/4/1 308/7/1
f 309/5/1 310/6/1 311/7/1 312/8/1
f 313/1/1 314/2/1 315/3/1 316/4/1
f 317/6/1 318/1/1 319/4/1 320/7/1
f 321/6/1 322/1/1 323/4/1 324/7/1
f 325/1/1 326/2/1 327/3/1 328/4/1
f 329/5/1 330/6/1 331/7/1 332/8/1
f 333/5/1 334/6/1 335/7/1 336/8/1
f 337/5/1 338/6/1 339/7/1 340/8/1
f 341/1/1 342/2/1 343/3/1 344/4/1
f 345/5/1 346/6/1 347/7/1 348/8/1
f 349/5/1 350/6/1 351/7/1 352/8/1
f 353/6/1 354/1/1 355/4/1 356/7/1
f 357/5/1 358/6/1 359/7/1 360/8/1
f 361/1/1 362/2/1 363/3/1 364/4/1
f 365/5/1 366/6/1 367/7/1 368/8/1
f 369/6/1 370/1/1 371/4/1 372/7/1
f 373/6/1 374/1/1 375/4/1 376/7/1
f 377/5/1 378/6/1 379/7/1 380/8/1
f 381/5/1 382/6/1 383/7/1 384/8/1
f 385/1/1 386/2/1 387/3/1 388/4/1
f 389/1/1 390/2/1 391/3/1 392/4/1
f 393/5/1 394/6/1 395/7/1 396/8/1
f 397/5/1 398/6/1 399/7/1 400/8/1
f 401/1/1 402/2/1 403/3/1 404/4/1
f 405/6/1 406/1/1 407/4/1 408/7/1
f 409/6/1 410/1/1 411/4/1 412/7/1
f 413/5/1 414/6/1 415/7/1 416/8/1
f 417/5/1 418/6/1 419/7/1 420/8/1
f 421/1/1 422/2/1 423/3/1 424/4/1
f 425/1/1 426/2/1 427/3/1 428/4/1
f 429/6/1 430/1/1 431/4/1 432/7/1
f 433/1/1 434/2/1 435/3/1 436/4/1
f 437/5/1 438/6/1 439/7/1 440/8/1
f 441/1/1 442/2/1 443/3/1 444/4/1
f 445/5/1 446/6/1 447/7/1 448/8/1
f 449/6/1 450/1/1 451/4/1 452/7/1
f 453/6/1 454/1/1 455/4/1 456/7/1
f 457/1/1 458/2/1 459/3/1 460/4/1
f 461/1/1 462/2/1 463/3/1 464/4/1
f 465/6/1 466/1/1 467/4/1 468/7/1
f 469/5/1 470/6/1 471/7/1 472/8/1
f 473/5/1 474/6/1 475/7/1 476/8/1
f 477/6/1 478/1/1 479/4/1 480/7/1
f 481/1/1 482/2/1 483/3/1 484/4/1
f 485/5/1 486/6/1 487/7/1 488/8/1
f 489/5/1 490/6/1 491/7/1 492/8/1
f 493/6/1 494/1/1 495/4/1 496/7/1
f 497/1/1 498/2/1 499/3/1 500/4/1
f 501/6/1 502/1/1 503/4/1 504/7/1
f 505/6/1 506/1/1 507/4/1 508/7/1
f 509/5/1 510/6/1 511/7/1 512/8/1
f 513/6/1 514/1/1 515/4/1 516/7/1
f 517/1/1 518/2/1 519/3/1 520/4/1
f 521/1/1 522/2/1 523/3/1 524/4/1
f 525/6/1 526/1/1 527/4/1 528/7/1
f 529/6/1 530/1/1 531/4/1 532/7/1
f 533/6/1 534/1/1 535/4/1 536/7/1
f 537/1/1 538/2/1 539/3/1 540/4/1
f 541/1/1 542/2/1 543/3/1 544/4/1
f 545/6/1 546/1/1 547/4/1 548/7/1
f 549/5/1 550/6/1 551/7/1 552/8/1
f 553/6/1 554/1/1 555/4/1 556/7/1
f 557/5/1 558/6/1 559/7/1 560/8/1
f 561/1/1 562/2/1 563/3/1 564/4/1
f 565/5/1 566/6/1 567/7/1 568/8/1
f 569/1/1 570/2/1 571/3/1 572/4/1
f 573/6/1 574/1/1 575/4/1 576/7/1
f 577/6/1 578/1/1 579/4/1 580/7/1
f 581/5/1 582/6/1 583/7/1 584/8/1
f 585/6/1 586/1/1 587/4/1 588/7/1
f 589/1/1 590/2/1 591/3/1 592/4/1
f 593/6/1 594/1/1 595/4/1 596/7/1
f 597/1/1 598/2/1 599/3/1 600/4/1
f 601/5/1 602/6/1 603/7/1 604/8/1
f 605/1/1 606/2/1 607/3/1 608/4/1
f 609/1/1 610/2/1 611/3/1 612/4/1
f 613/1/1 614/2/1 615/3/1 616/4/1
f 617/5/1 618/6/1 619/7/1 620/8/1
f 621/5/1 622/6/1 623/7/1 624/8/1
f 625/6/1 626/1/1 627/4/1 628/7/1
f 629/1/1 630/2/1 631/3/1 632/4/1
f 633/6/1 634/1/1 635/4/1 636/7/1
f 637/5/1 638/6/1 639/7/1 640/8/1
f 641/5/1 642/6/1 643/7/1 644/8/1
f 645/1/1 646/2/1 647/3/1 648/4/1
f 649/5/1 650/6/1 651/7/1 652/8/1
f 653/6/1 654/1/1 655/4/1 656/7/1
f 657/1/1 658/2/1 659/3/1 660/4/1
f 661/5/1 662/6/1 663/7/1 664/8/1
f 665/5/1 666/6/1 667/7/1 668/8/1
f 669/1/1 670/2/1 671/3/1 672/4/1
f 673/6/1 674/1/1 675/4/1 676/7/1
f 677/1/1 678/2/1 679/3/1 680/4/1
f 681/5/1 682/6/1 683/7/1 684/8/1
f 685/6/1 686/1/1 687/4/1 688/7/1
f 689/6/1 690/1/1 691/4/1 692/7/1
f 693/5/1 694/6/1 695/7/1 696/8/1
f 697/6/1 698/1/1 699/4/1 700/7/1
f 701/1/1 702/2/1 703/3/1 704/4/1
f 705/6/1 706/1/1 707/4/1 708/7/1
f 709/6/1 710/1/1 711/4/1 712/7/1
f 713/5/1 714/6/1 715/7/1 716/8/1
f 717/5/1 718/6/1 719/7/1 720/8/1
f 721/5/1 722/6/1 723/7/1 724/8/1
f 725/5/1 726/6/1 727/7/1 728/8/1
f 729/5/1 730/6/1 731/7/1 732/8/1
f 733/1/1 734/2/1 735/3/1 736/4/1
f 737/1/1 738/2/1 739/3/1 740/4/1
f 741/1/1 742/2/1 743/3/1 744/4/1
f 745/1/1 746/2/1 747/3/1 748/4/1
f 749/5/1 750/6/1 751/7/1 752/8/1
f 753/1/1 754/2/1 755/3/1 756/4/1
f 757/1/1 758/2/1 759/3/1 760/4/1
f 761/5/1 762/6/1 763/7/1 764/8/1
f 765/5/1 766/6/1 767/7/1 768/8/1
f 769/1/1 770/2/1 771/3/1 772/4/1
f 773/5/1 774/6/1 775/7/1 776/8/1
f 777/6/1 778/1/1 779/4/1 780/7/1
f 781/5/1 782/6/1 783/7/1 784/8/1
f 785/6/1 786/1/1 787/4/1 788/7/1
f 789/6/1 790/1/1 791/4/1 792/7/1
f 793/6/1 794/1/1 795/4/1 796/7/1
f 797/1/1 798/2/1 799/3/1 800/4/1
f 801/6/1 802/1/1 803/4/1 804/7/1
f 805/5/1 806/6/1 807/7/1 808/8/1
f 809/1/1 810/2/1 811/3/1 812/4/1
f 813/1/1 814/2/1 815/3/1 816/4/1
f 817/5/1 818/6/1 819/7/1 820/8/1
f 821/5/1 822/6/1 823/7/1 824/8/1
f 825/1/1 826/2/1 827/3/1 828/4/1
f 829/5/1 830/6/1 831/7/1 832/8/1
f 833/5/1 834/6/1 835/7/1 836/8/1
f 837/5/1 838/6/1 839/7/1 840/8/1
f 841/6/1 842/1/1 843/4/1 844/7/1
f 845/1/1 846/2/1 847/3/1 848/4/1
f 849/1/1 850/2/1 851/3/1 852/4/1
f 853/5/1 854/6/1 855/7/1 856/8/1
f 857/6/1 858/1/1 859/4/1 860/7/1
f 861/6/1 862/1/1 863/4/1 864/7/1
f 865/6/1 866/1/1 867/4/1 868/7/1
f 869/5/1 870/6/1 871/7/1 872/8/1
f 873/5/1 874/6/1 875/7/1 876/8/1
f 877/5/1 878/6/1 879/7/1 880/8/1
f 881/6/1 882/1/1 883/4/1 884/7/1
f 885/5/1 886/6/1 887/7/1 888/8/1
f 889/6/1 890/1/1 891/4/1 892/7/1
f 893/6/1 894/1/1 895/4/1 896/7/1
f 897/5/1 898/6/1 899/7/1 900/8/1
f 901/5/1 902/6/1 903/7/1 904/8/1
f 905/6/1 906/1/1 907/4/1 908/7/1
f 909/6/1 910/1/1 911/4/1 912/7/1
f 913/6/1 914/1/1 915/4/1 916/7/1
f 917/5/1 918/6/1 919/7/1 920/8/1
f 921/1/1 922/2/1 923/3/1 924/4/1
f 925/5/1 926/6/1 927/7/1 928/8/1
f 929/6/1 930/1/1 931/4/1 932/7/1
f 933/1/1 934/2/1 935/3/1 936/4/1
f 937/1/1 938/2/1 939/3/1 940/4/1
f 941/1/1 942/2/1 943/3/1 944/4/1
f 945/6/1 946/1/1 947/4/1 948/7/1
f 949/5/1 950/6/1 951/7/1 952/8/1
f 953/6/1 954/1/1 955/4/1 956/7/1
f 957/5/1 958/6/1 959/7/1 960/8/1
f 961/5/1 962/6/1 963/7/1 964/8/1
f 965/6/1 966/1/1 967/4/1 968/7/1
f 969/6/1 970/1/1 971/4/1 972/7/1
f 973/6/1 974/1/1 975/4/1 976/7/1
f 977/5/1 978/6/1 979/7/1 980/8/1
f 981/6/1 982/1/1 983/4/1 984/7/1
f 985/6/1 986/1/1 987/4/1 988/7/1
f 989/5/1 990/6/1 991/7/1 992/8/1
f 993/1/1 994/2/1 995/3/1 996/4/1
f 997/1/1 998/2/1 999/3/1 1000/4/1
f 1001/1/1 1002/2/1 1003/3/1 1004/4/1
f 1005/5/1 1006/6/1 1007/7/1 1008/8/1
f 1009/5/1 1010/6/1 1011/7/1 1012/8/1
f 1013/6/1 1014/1/1 1015/4/1 1016/7/1
f 1017/6/1 1018/1/1 1019/4/1 1020/7/1
f 1021/1/1 1022/2/1 1023/3/1 1024/4/1

