# Tiled2Unity generated file. Do not modify by hand.
# Wavefront file for 'testmap1_mesh_0636.obj'

# Vertices (Count = 1024)
v 0 -1 0
v -1 -1 0
v -1 0 0
v 0 0 0
v -1 -1 0
v -2 -1 0
v -2 0 0
v -1 0 0
v -2 -1 0
v -3 -1 0
v -3 0 0
v -2 0 0
v -3 -1 0
v -4 -1 0
v -4 0 0
v -3 0 0
v -4 -1 0
v -5 -1 0
v -5 0 0
v -4 0 0
v -5 -1 0
v -6 -1 0
v -6 0 0
v -5 0 0
v -6 -1 0
v -7 -1 0
v -7 0 0
v -6 0 0
v -7 -1 0
v -8 -1 0
v -8 0 0
v -7 0 0
v -8 -1 0
v -9 -1 0
v -9 0 0
v -8 0 0
v -9 -1 0
v -10 -1 0
v -10 0 0
v -9 0 0
v -10 -1 0
v -11 -1 0
v -11 0 0
v -10 0 0
v -11 -1 0
v -12 -1 0
v -12 0 0
v -11 0 0
v -12 -1 0
v -13 -1 0
v -13 0 0
v -12 0 0
v -13 -1 0
v -14 -1 0
v -14 0 0
v -13 0 0
v -14 -1 0
v -15 -1 0
v -15 0 0
v -14 0 0
v -15 -1 0
v -16 -1 0
v -16 0 0
v -15 0 0
v 0 -2 0
v -1 -2 0
v -1 -1 0
v 0 -1 0
v -1 -2 0
v -2 -2 0
v -2 -1 0
v -1 -1 0
v -2 -2 0
v -3 -2 0
v -3 -1 0
v -2 -1 0
v -3 -2 0
v -4 -2 0
v -4 -1 0
v -3 -1 0
v -4 -2 0
v -5 -2 0
v -5 -1 0
v -4 -1 0
v -5 -2 0
v -6 -2 0
v -6 -1 0
v -5 -1 0
v -6 -2 0
v -7 -2 0
v -7 -1 0
v -6 -1 0
v -7 -2 0
v -8 -2 0
v -8 -1 0
v -7 -1 0
v -8 -2 0
v -9 -2 0
v -9 -1 0
v -8 -1 0
v -9 -2 0
v -10 -2 0
v -10 -1 0
v -9 -1 0
v -10 -2 0
v -11 -2 0
v -11 -1 0
v -10 -1 0
v -11 -2 0
v -12 -2 0
v -12 -1 0
v -11 -1 0
v -12 -2 0
v -13 -2 0
v -13 -1 0
v -12 -1 0
v -13 -2 0
v -14 -2 0
v -14 -1 0
v -13 -1 0
v -14 -2 0
v -15 -2 0
v -15 -1 0
v -14 -1 0
v -15 -2 0
v -16 -2 0
v -16 -1 0
v -15 -1 0
v 0 -3 0
v -1 -3 0
v -1 -2 0
v 0 -2 0
v -1 -3 0
v -2 -3 0
v -2 -2 0
v -1 -2 0
v -2 -3 0
v -3 -3 0
v -3 -2 0
v -2 -2 0
v -3 -3 0
v -4 -3 0
v -4 -2 0
v -3 -2 0
v -4 -3 0
v -5 -3 0
v -5 -2 0
v -4 -2 0
v -5 -3 0
v -6 -3 0
v -6 -2 0
v -5 -2 0
v -6 -3 0
v -7 -3 0
v -7 -2 0
v -6 -2 0
v -7 -3 0
v -8 -3 0
v -8 -2 0
v -7 -2 0
v -8 -3 0
v -9 -3 0
v -9 -2 0
v -8 -2 0
v -9 -3 0
v -10 -3 0
v -10 -2 0
v -9 -2 0
v -10 -3 0
v -11 -3 0
v -11 -2 0
v -10 -2 0
v -11 -3 0
v -12 -3 0
v -12 -2 0
v -11 -2 0
v -12 -3 0
v -13 -3 0
v -13 -2 0
v -12 -2 0
v -13 -3 0
v -14 -3 0
v -14 -2 0
v -13 -2 0
v -14 -3 0
v -15 -3 0
v -15 -2 0
v -14 -2 0
v -15 -3 0
v -16 -3 0
v -16 -2 0
v -15 -2 0
v 0 -4 0
v -1 -4 0
v -1 -3 0
v 0 -3 0
v -1 -4 0
v -2 -4 0
v -2 -3 0
v -1 -3 0
v -2 -4 0
v -3 -4 0
v -3 -3 0
v -2 -3 0
v -3 -4 0
v -4 -4 0
v -4 -3 0
v -3 -3 0
v -4 -4 0
v -5 -4 0
v -5 -3 0
v -4 -3 0
v -5 -4 0
v -6 -4 0
v -6 -3 0
v -5 -3 0
v -6 -4 0
v -7 -4 0
v -7 -3 0
v -6 -3 0
v -7 -4 0
v -8 -4 0
v -8 -3 0
v -7 -3 0
v -8 -4 0
v -9 -4 0
v -9 -3 0
v -8 -3 0
v -9 -4 0
v -10 -4 0
v -10 -3 0
v -9 -3 0
v -10 -4 0
v -11 -4 0
v -11 -3 0
v -10 -3 0
v -11 -4 0
v -12 -4 0
v -12 -3 0
v -11 -3 0
v -12 -4 0
v -13 -4 0
v -13 -3 0
v -12 -3 0
v -13 -4 0
v -14 -4 0
v -14 -3 0
v -13 -3 0
v -14 -4 0
v -15 -4 0
v -15 -3 0
v -14 -3 0
v -15 -4 0
v -16 -4 0
v -16 -3 0
v -15 -3 0
v 0 -5 0
v -1 -5 0
v -1 -4 0
v 0 -4 0
v -1 -5 0
v -2 -5 0
v -2 -4 0
v -1 -4 0
v -2 -5 0
v -3 -5 0
v -3 -4 0
v -2 -4 0
v -3 -5 0
v -4 -5 0
v -4 -4 0
v -3 -4 0
v -4 -5 0
v -5 -5 0
v -5 -4 0
v -4 -4 0
v -5 -5 0
v -6 -5 0
v -6 -4 0
v -5 -4 0
v -6 -5 0
v -7 -5 0
v -7 -4 0
v -6 -4 0
v -7 -5 0
v -8 -5 0
v -8 -4 0
v -7 -4 0
v -8 -5 0
v -9 -5 0
v -9 -4 0
v -8 -4 0
v -9 -5 0
v -10 -5 0
v -10 -4 0
v -9 -4 0
v -10 -5 0
v -11 -5 0
v -11 -4 0
v -10 -4 0
v -11 -5 0
v -12 -5 0
v -12 -4 0
v -11 -4 0
v -12 -5 0
v -13 -5 0
v -13 -4 0
v -12 -4 0
v -13 -5 0
v -14 -5 0
v -14 -4 0
v -13 -4 0
v -14 -5 0
v -15 -5 0
v -15 -4 0
v -14 -4 0
v -15 -5 0
v -16 -5 0
v -16 -4 0
v -15 -4 0
v 0 -6 0
v -1 -6 0
v -1 -5 0
v 0 -5 0
v -1 -6 0
v -2 -6 0
v -2 -5 0
v -1 -5 0
v -2 -6 0
v -3 -6 0
v -3 -5 0
v -2 -5 0
v -3 -6 0
v -4 -6 0
v -4 -5 0
v -3 -5 0
v -4 -6 0
v -5 -6 0
v -5 -5 0
v -4 -5 0
v -5 -6 0
v -6 -6 0
v -6 -5 0
v -5 -5 0
v -6 -6 0
v -7 -6 0
v -7 -5 0
v -6 -5 0
v -7 -6 0
v -8 -6 0
v -8 -5 0
v -7 -5 0
v -8 -6 0
v -9 -6 0
v -9 -5 0
v -8 -5 0
v -9 -6 0
v -10 -6 0
v -10 -5 0
v -9 -5 0
v -10 -6 0
v -11 -6 0
v -11 -5 0
v -10 -5 0
v -11 -6 0
v -12 -6 0
v -12 -5 0
v -11 -5 0
v -12 -6 0
v -13 -6 0
v -13 -5 0
v -12 -5 0
v -13 -6 0
v -14 -6 0
v -14 -5 0
v -13 -5 0
v -14 -6 0
v -15 -6 0
v -15 -5 0
v -14 -5 0
v -15 -6 0
v -16 -6 0
v -16 -5 0
v -15 -5 0
v 0 -7 0
v -1 -7 0
v -1 -6 0
v 0 -6 0
v -1 -7 0
v -2 -7 0
v -2 -6 0
v -1 -6 0
v -2 -7 0
v -3 -7 0
v -3 -6 0
v -2 -6 0
v -3 -7 0
v -4 -7 0
v -4 -6 0
v -3 -6 0
v -4 -7 0
v -5 -7 0
v -5 -6 0
v -4 -6 0
v -5 -7 0
v -6 -7 0
v -6 -6 0
v -5 -6 0
v -6 -7 0
v -7 -7 0
v -7 -6 0
v -6 -6 0
v -7 -7 0
v -8 -7 0
v -8 -6 0
v -7 -6 0
v -8 -7 0
v -9 -7 0
v -9 -6 0
v -8 -6 0
v -9 -7 0
v -10 -7 0
v -10 -6 0
v -9 -6 0
v -10 -7 0
v -11 -7 0
v -11 -6 0
v -10 -6 0
v -11 -7 0
v -12 -7 0
v -12 -6 0
v -11 -6 0
v -12 -7 0
v -13 -7 0
v -13 -6 0
v -12 -6 0
v -13 -7 0
v -14 -7 0
v -14 -6 0
v -13 -6 0
v -14 -7 0
v -15 -7 0
v -15 -6 0
v -14 -6 0
v -15 -7 0
v -16 -7 0
v -16 -6 0
v -15 -6 0
v 0 -8 0
v -1 -8 0
v -1 -7 0
v 0 -7 0
v -1 -8 0
v -2 -8 0
v -2 -7 0
v -1 -7 0
v -2 -8 0
v -3 -8 0
v -3 -7 0
v -2 -7 0
v -3 -8 0
v -4 -8 0
v -4 -7 0
v -3 -7 0
v -4 -8 0
v -5 -8 0
v -5 -7 0
v -4 -7 0
v -5 -8 0
v -6 -8 0
v -6 -7 0
v -5 -7 0
v -6 -8 0
v -7 -8 0
v -7 -7 0
v -6 -7 0
v -7 -8 0
v -8 -8 0
v -8 -7 0
v -7 -7 0
v -8 -8 0
v -9 -8 0
v -9 -7 0
v -8 -7 0
v -9 -8 0
v -10 -8 0
v -10 -7 0
v -9 -7 0
v -10 -8 0
v -11 -8 0
v -11 -7 0
v -10 -7 0
v -11 -8 0
v -12 -8 0
v -12 -7 0
v -11 -7 0
v -12 -8 0
v -13 -8 0
v -13 -7 0
v -12 -7 0
v -13 -8 0
v -14 -8 0
v -14 -7 0
v -13 -7 0
v -14 -8 0
v -15 -8 0
v -15 -7 0
v -14 -7 0
v -15 -8 0
v -16 -8 0
v -16 -7 0
v -15 -7 0
v 0 -9 0
v -1 -9 0
v -1 -8 0
v 0 -8 0
v -1 -9 0
v -2 -9 0
v -2 -8 0
v -1 -8 0
v -2 -9 0
v -3 -9 0
v -3 -8 0
v -2 -8 0
v -3 -9 0
v -4 -9 0
v -4 -8 0
v -3 -8 0
v -4 -9 0
v -5 -9 0
v -5 -8 0
v -4 -8 0
v -5 -9 0
v -6 -9 0
v -6 -8 0
v -5 -8 0
v -6 -9 0
v -7 -9 0
v -7 -8 0
v -6 -8 0
v -7 -9 0
v -8 -9 0
v -8 -8 0
v -7 -8 0
v -8 -9 0
v -9 -9 0
v -9 -8 0
v -8 -8 0
v -9 -9 0
v -10 -9 0
v -10 -8 0
v -9 -8 0
v -10 -9 0
v -11 -9 0
v -11 -8 0
v -10 -8 0
v -11 -9 0
v -12 -9 0
v -12 -8 0
v -11 -8 0
v -12 -9 0
v -13 -9 0
v -13 -8 0
v -12 -8 0
v -13 -9 0
v -14 -9 0
v -14 -8 0
v -13 -8 0
v -14 -9 0
v -15 -9 0
v -15 -8 0
v -14 -8 0
v -15 -9 0
v -16 -9 0
v -16 -8 0
v -15 -8 0
v 0 -10 0
v -1 -10 0
v -1 -9 0
v 0 -9 0
v -1 -10 0
v -2 -10 0
v -2 -9 0
v -1 -9 0
v -2 -10 0
v -3 -10 0
v -3 -9 0
v -2 -9 0
v -3 -10 0
v -4 -10 0
v -4 -9 0
v -3 -9 0
v -4 -10 0
v -5 -10 0
v -5 -9 0
v -4 -9 0
v -5 -10 0
v -6 -10 0
v -6 -9 0
v -5 -9 0
v -6 -10 0
v -7 -10 0
v -7 -9 0
v -6 -9 0
v -7 -10 0
v -8 -10 0
v -8 -9 0
v -7 -9 0
v -8 -10 0
v -9 -10 0
v -9 -9 0
v -8 -9 0
v -9 -10 0
v -10 -10 0
v -10 -9 0
v -9 -9 0
v -10 -10 0
v -11 -10 0
v -11 -9 0
v -10 -9 0
v -11 -10 0
v -12 -10 0
v -12 -9 0
v -11 -9 0
v -12 -10 0
v -13 -10 0
v -13 -9 0
v -12 -9 0
v -13 -10 0
v -14 -10 0
v -14 -9 0
v -13 -9 0
v -14 -10 0
v -15 -10 0
v -15 -9 0
v -14 -9 0
v -15 -10 0
v -16 -10 0
v -16 -9 0
v -15 -9 0
v 0 -11 0
v -1 -11 0
v -1 -10 0
v 0 -10 0
v -1 -11 0
v -2 -11 0
v -2 -10 0
v -1 -10 0
v -2 -11 0
v -3 -11 0
v -3 -10 0
v -2 -10 0
v -3 -11 0
v -4 -11 0
v -4 -10 0
v -3 -10 0
v -4 -11 0
v -5 -11 0
v -5 -10 0
v -4 -10 0
v -5 -11 0
v -6 -11 0
v -6 -10 0
v -5 -10 0
v -6 -11 0
v -7 -11 0
v -7 -10 0
v -6 -10 0
v -7 -11 0
v -8 -11 0
v -8 -10 0
v -7 -10 0
v -8 -11 0
v -9 -11 0
v -9 -10 0
v -8 -10 0
v -9 -11 0
v -10 -11 0
v -10 -10 0
v -9 -10 0
v -10 -11 0
v -11 -11 0
v -11 -10 0
v -10 -10 0
v -11 -11 0
v -12 -11 0
v -12 -10 0
v -11 -10 0
v -12 -11 0
v -13 -11 0
v -13 -10 0
v -12 -10 0
v -13 -11 0
v -14 -11 0
v -14 -10 0
v -13 -10 0
v -14 -11 0
v -15 -11 0
v -15 -10 0
v -14 -10 0
v -15 -11 0
v -16 -11 0
v -16 -10 0
v -15 -10 0
v 0 -12 0
v -1 -12 0
v -1 -11 0
v 0 -11 0
v -1 -12 0
v -2 -12 0
v -2 -11 0
v -1 -11 0
v -2 -12 0
v -3 -12 0
v -3 -11 0
v -2 -11 0
v -3 -12 0
v -4 -12 0
v -4 -11 0
v -3 -11 0
v -4 -12 0
v -5 -12 0
v -5 -11 0
v -4 -11 0
v -5 -12 0
v -6 -12 0
v -6 -11 0
v -5 -11 0
v -6 -12 0
v -7 -12 0
v -7 -11 0
v -6 -11 0
v -7 -12 0
v -8 -12 0
v -8 -11 0
v -7 -11 0
v -8 -12 0
v -9 -12 0
v -9 -11 0
v -8 -11 0
v -9 -12 0
v -10 -12 0
v -10 -11 0
v -9 -11 0
v -10 -12 0
v -11 -12 0
v -11 -11 0
v -10 -11 0
v -11 -12 0
v -12 -12 0
v -12 -11 0
v -11 -11 0
v -12 -12 0
v -13 -12 0
v -13 -11 0
v -12 -11 0
v -13 -12 0
v -14 -12 0
v -14 -11 0
v -13 -11 0
v -14 -12 0
v -15 -12 0
v -15 -11 0
v -14 -11 0
v -15 -12 0
v -16 -12 0
v -16 -11 0
v -15 -11 0
v 0 -13 0
v -1 -13 0
v -1 -12 0
v 0 -12 0
v -1 -13 0
v -2 -13 0
v -2 -12 0
v -1 -12 0
v -2 -13 0
v -3 -13 0
v -3 -12 0
v -2 -12 0
v -3 -13 0
v -4 -13 0
v -4 -12 0
v -3 -12 0
v -4 -13 0
v -5 -13 0
v -5 -12 0
v -4 -12 0
v -5 -13 0
v -6 -13 0
v -6 -12 0
v -5 -12 0
v -6 -13 0
v -7 -13 0
v -7 -12 0
v -6 -12 0
v -7 -13 0
v -8 -13 0
v -8 -12 0
v -7 -12 0
v -8 -13 0
v -9 -13 0
v -9 -12 0
v -8 -12 0
v -9 -13 0
v -10 -13 0
v -10 -12 0
v -9 -12 0
v -10 -13 0
v -11 -13 0
v -11 -12 0
v -10 -12 0
v -11 -13 0
v -12 -13 0
v -12 -12 0
v -11 -12 0
v -12 -13 0
v -13 -13 0
v -13 -12 0
v -12 -12 0
v -13 -13 0
v -14 -13 0
v -14 -12 0
v -13 -12 0
v -14 -13 0
v -15 -13 0
v -15 -12 0
v -14 -12 0
v -15 -13 0
v -16 -13 0
v -16 -12 0
v -15 -12 0
v 0 -14 0
v -1 -14 0
v -1 -13 0
v 0 -13 0
v -1 -14 0
v -2 -14 0
v -2 -13 0
v -1 -13 0
v -2 -14 0
v -3 -14 0
v -3 -13 0
v -2 -13 0
v -3 -14 0
v -4 -14 0
v -4 -13 0
v -3 -13 0
v -4 -14 0
v -5 -14 0
v -5 -13 0
v -4 -13 0
v -5 -14 0
v -6 -14 0
v -6 -13 0
v -5 -13 0
v -6 -14 0
v -7 -14 0
v -7 -13 0
v -6 -13 0
v -7 -14 0
v -8 -14 0
v -8 -13 0
v -7 -13 0
v -8 -14 0
v -9 -14 0
v -9 -13 0
v -8 -13 0
v -9 -14 0
v -10 -14 0
v -10 -13 0
v -9 -13 0
v -10 -14 0
v -11 -14 0
v -11 -13 0
v -10 -13 0
v -11 -14 0
v -12 -14 0
v -12 -13 0
v -11 -13 0
v -12 -14 0
v -13 -14 0
v -13 -13 0
v -12 -13 0
v -13 -14 0
v -14 -14 0
v -14 -13 0
v -13 -13 0
v -14 -14 0
v -15 -14 0
v -15 -13 0
v -14 -13 0
v -15 -14 0
v -16 -14 0
v -16 -13 0
v -15 -13 0
v 0 -15 0
v -1 -15 0
v -1 -14 0
v 0 -14 0
v -1 -15 0
v -2 -15 0
v -2 -14 0
v -1 -14 0
v -2 -15 0
v -3 -15 0
v -3 -14 0
v -2 -14 0
v -3 -15 0
v -4 -15 0
v -4 -14 0
v -3 -14 0
v -4 -15 0
v -5 -15 0
v -5 -14 0
v -4 -14 0
v -5 -15 0
v -6 -15 0
v -6 -14 0
v -5 -14 0
v -6 -15 0
v -7 -15 0
v -7 -14 0
v -6 -14 0
v -7 -15 0
v -8 -15 0
v -8 -14 0
v -7 -14 0
v -8 -15 0
v -9 -15 0
v -9 -14 0
v -8 -14 0
v -9 -15 0
v -10 -15 0
v -10 -14 0
v -9 -14 0
v -10 -15 0
v -11 -15 0
v -11 -14 0
v -10 -14 0
v -11 -15 0
v -12 -15 0
v -12 -14 0
v -11 -14 0
v -12 -15 0
v -13 -15 0
v -13 -14 0
v -12 -14 0
v -13 -15 0
v -14 -15 0
v -14 -14 0
v -13 -14 0
v -14 -15 0
v -15 -15 0
v -15 -14 0
v -14 -14 0
v -15 -15 0
v -16 -15 0
v -16 -14 0
v -15 -14 0
v 0 -16 0
v -1 -16 0
v -1 -15 0
v 0 -15 0
v -1 -16 0
v -2 -16 0
v -2 -15 0
v -1 -15 0
v -2 -16 0
v -3 -16 0
v -3 -15 0
v -2 -15 0
v -3 -16 0
v -4 -16 0
v -4 -15 0
v -3 -15 0
v -4 -16 0
v -5 -16 0
v -5 -15 0
v -4 -15 0
v -5 -16 0
v -6 -16 0
v -6 -15 0
v -5 -15 0
v -6 -16 0
v -7 -16 0
v -7 -15 0
v -6 -15 0
v -7 -16 0
v -8 -16 0
v -8 -15 0
v -7 -15 0
v -8 -16 0
v -9 -16 0
v -9 -15 0
v -8 -15 0
v -9 -16 0
v -10 -16 0
v -10 -15 0
v -9 -15 0
v -10 -16 0
v -11 -16 0
v -11 -15 0
v -10 -15 0
v -11 -16 0
v -12 -16 0
v -12 -15 0
v -11 -15 0
v -12 -16 0
v -13 -16 0
v -13 -15 0
v -12 -15 0
v -13 -16 0
v -14 -16 0
v -14 -15 0
v -13 -15 0
v -14 -16 0
v -15 -16 0
v -15 -15 0
v -14 -15 0
v -15 -16 0
v -16 -16 0
v -16 -15 0
v -15 -15 0

# Texture cooridinates (Count = 8)
vt 0.65625 0.8125
vt 0.6875 0.8125
vt 0.6875 0.84375
vt 0.65625 0.84375
vt 0.71875 0.8125
vt 0.75 0.8125
vt 0.75 0.84375
vt 0.71875 0.84375

# Normal
vn 0 0 -1

# Mesh description
g testmap1_mesh_0636

# Faces
f 1/1/1 2/2/1 3/3/1 4/4/1
f 5/1/1 6/2/1 7/3/1 8/4/1
f 9/5/1 10/6/1 11/7/1 12/8/1
f 13/2/1 14/5/1 15/8/1 16/3/1
f 17/5/1 18/6/1 19/7/1 20/8/1
f 21/5/1 22/6/1 23/7/1 24/8/1
f 25/2/1 26/5/1 27/8/1 28/3/1
f 29/2/1 30/5/1 31/8/1 32/3/1
f 33/5/1 34/6/1 35/7/1 36/8/1
f 37/2/1 38/5/1 39/8/1 40/3/1
f 41/1/1 42/2/1 43/3/1 44/4/1
f 45/2/1 46/5/1 47/8/1 48/3/1
f 49/2/1 50/5/1 51/8/1 52/3/1
f 53/5/1 54/6/1 55/7/1 56/8/1
f 57/1/1 58/2/1 59/3/1 60/4/1
f 61/2/1 62/5/1 63/8/1 64/3/1
f 65/5/1 66/6/1 67/7/1 68/8/1
f 69/1/1 70/2/1 71/3/1 72/4/1
f 73/1/1 74/2/1 75/3/1 76/4/1
f 77/5/1 78/6/1 79/7/1 80/8/1
f 81/5/1 82/6/1 83/7/1 84/8/1
f 85/2/1 86/5/1 87/8/1 88/3/1
f 89/5/1 90/6/1 91/7/1 92/8/1
f 93/1/1 94/2/1 95/3/1 96/4/1
f 97/1/1 98/2/1 99/3/1 100/4/1
f 101/1/1 102/2/1 103/3/1 104/4/1
f 105/2/1 106/5/1 107/8/1 108/3/1
f 109/5/1 110/6/1 111/7/1 112/8/1
f 113/5/1 114/6/1 115/7/1 116/8/1
f 117/2/1 118/5/1 119/8/1 120/3/1
f 121/5/1 122/6/1 123/7/1 124/8/1
f 125/2/1 126/5/1 127/8/1 128/3/1
f 129/5/1 130/6/1 131/7/1 132/8/1
f 133/1/1 134/2/1 135/3/1 136/4/1
f 137/1/1 138/2/1 139/3/1 140/4/1
f 141/5/1 142/6/1 143/7/1 144/8/1
f 145/5/1 146/6/1 147/7/1 148/8/1
f 149/1/1 150/2/1 151/3/1 152/4/1
f 153/5/1 154/6/1 155/7/1 156/8/1
f 157/2/1 158/5/1 159/8/1 160/3/1
f 161/2/1 162/5/1 163/8/1 164/3/1
f 165/2/1 166/5/1 167/8/1 168/3/1
f 169/2/1 170/5/1 171/8/1 172/3/1
f 173/1/1 174/2/1 175/3/1 176/4/1
f 177/2/1 178/5/1 179/8/1 180/3/1
f 181/2/1 182/5/1 183/8/1 184/3/1
f 185/5/1 186/6/1 187/7/1 188/8/1
f 189/2/1 190/5/1 191/8/1 192/3/1
f 193/2/1 194/5/1 195/8/1 196/3/1
f 197/1/1 198/2/1 199/3/1 200/4/1
f 201/5/1 202/6/1 203/7/1 204/8/1
f 205/5/1 206/6/1 207/7/1 208/8/1
f 209/5/1 210/6/1 211/7/1 212/8/1
f 213/1/1 214/2/1 215/3/1 216/4/1
f 217/5/1 218/6/1 219/7/1 220/8/1
f 221/1/1 222/2/1 223/3/1 224/4/1
f 225/1/1 226/2/1 227/3/1 228/4/1
f 229/5/1 230/6/1 231/7/1 232/8/1
f 233/1/1 234/2/1 235/3/1 236/4/1
f 237/1/1 238/2/1 239/3/1 240/4/1
f 241/1/1 242/2/1 243/3/1 244/4/1
f 245/1/1 246/2/1 247/3/1 248/4/1
f 249/1/1 250/2/1 251/3/1 252/4/1
f 253/1/1 254/2/1 255/3/1 256/4/1
f 257/1/1 258/2/1 259/3/1 260/4/1
f 261/5/1 262/6/1 263/7/1 264/8/1
f 265/1/1 266/2/1 267/3/1 268/4/1
f 269/5/1 270/6/1 271/7/1 272/8/1
f 273/2/1 274/5/1 275/8/1 276/3/1
f 277/5/1 278/6/1 279/7/1 280/8/1
f 281/1/1 282/2/1 283/3/1 284/4/1
f 285/1/1 286/2/1 287/3/1 288/4/1
f 289/2/1 290/5/1 291/8/1 292/3/1
f 293/1/1 294/2/1 295/3/1 296/4/1
f 297/5/1 298/6/1 299/7/1 300/8/1
f 301/2/1 302/5/1 303/8/1 304/3/1
f 305/1/1 306/2/1 307/3/1 308/4/1
f 309/5/1 310/6/1 311/7/1 312/8/1
f 313/5/1 314/6/1 315/7/1 316/8/1
f 317/5/1 318/6/1 319/7/1 320/8/1
f 321/1/1 322/2/1 323/3/1 324/4/1
f 325/1/1 326/2/1 327/3/1 328/4/1
f 329/2/1 330/5/1 331/8/1 332/3/1
f 333/5/1 334/6/1 335/7/1 336/8/1
f 337/1/1 338/2/1 339/3/1 340/4/1
f 341/1/1 342/2/1 343/3/1 344/4/1
f 345/5/1 346/6/1 347/7/1 348/8/1
f 349/1/1 350/2/1 351/3/1 352/4/1
f 353/2/1 354/5/1 355/8/1 356/3/1
f 357/1/1 358/2/1 359/3/1 360/4/1
f 361/1/1 362/2/1 363/3/1 364/4/1
f 365/2/1 366/5/1 367/8/1 368/3/1
f 369/5/1 370/6/1 371/7/1 372/8/1
f 373/5/1 374/6/1 375/7/1 376/8/1
f 377/1/1 378/2/1 379/3/1 380/4/1
f 381/5/1 382/6/1 383/7/1 384/8/1
f 385/2/1 386/5/1 387/8/1 388/3/1
f 389/2/1 390/5/1 391/8/1 392/3/1
f 393/2/1 394/5/1 395/8/1 396/3/1
f 397/2/1 398/5/1 399/8/1 400/3/1
f 401/1/1 402/2/1 403/3/1 404/4/1
f 405/2/1 406/5/1 407/8/1 408/3/1
f 409/1/1 410/2/1 411/3/1 412/4/1
f 413/1/1 414/2/1 415/3/1 416/4/1
f 417/2/1 418/5/1 419/8/1 420/3/1
f 421/5/1 422/6/1 423/7/1 424/8/1
f 425/1/1 426/2/1 427/3/1 428/4/1
f 429/1/1 430/2/1 431/3/1 432/4/1
f 433/1/1 434/2/1 435/3/1 436/4/1
f 437/2/1 438/5/1 439/8/1 440/3/1
f 441/5/1 442/6/1 443/7/1 444/8/1
f 445/2/1 446/5/1 447/8/1 448/3/1
f 449/2/1 450/5/1 451/8/1 452/3/1
f 453/5/1 454/6/1 455/7/1 456/8/1
f 457/5/1 458/6/1 459/7/1 460/8/1
f 461/1/1 462/2/1 463/3/1 464/4/1
f 465/1/1 466/2/1 467/3/1 468/4/1
f 469/5/1 470/6/1 471/7/1 472/8/1
f 473/5/1 474/6/1 475/7/1 476/8/1
f 477/1/1 478/2/1 479/3/1 480/4/1
f 481/1/1 482/2/1 483/3/1 484/4/1
f 485/1/1 486/2/1 487/3/1 488/4/1
f 489/2/1 490/5/1 491/8/1 492/3/1
f 493/2/1 494/5/1 495/8/1 496/3/1
f 497/1/1 498/2/1 499/3/1 500/4/1
f 501/1/1 502/2/1 503/3/1 504/4/1
f 505/5/1 506/6/1 507/7/1 508/8/1
f 509/2/1 510/5/1 511/8/1 512/3/1
f 513/1/1 514/2/1 515/3/1 516/4/1
f 517/2/1 518/5/1 519/8/1 520/3/1
f 521/5/1 522/6/1 523/7/1 524/8/1
f 525/1/1 526/2/1 527/3/1 528/4/1
f 529/5/1 530/6/1 531/7/1 532/8/1
f 533/2/1 534/5/1 535/8/1 536/3/1
f 537/1/1 538/2/1 539/3/1 540/4/1
f 541/2/1 542/5/1 543/8/1 544/3/1
f 545/1/1 546/2/1 547/3/1 548/4/1
f 549/2/1 550/5/1 551/8/1 552/3/1
f 553/1/1 554/2/1 555/3/1 556/4/1
f 557/2/1 558/5/1 559/8/1 560/3/1
f 561/1/1 562/2/1 563/3/1 564/4/1
f 565/5/1 566/6/1 567/7/1 568/8/1
f 569/5/1 570/6/1 571/7/1 572/8/1
f 573/2/1 574/5/1 575/8/1 576/3/1
f 577/2/1 578/5/1 579/8/1 580/3/1
f 581/1/1 582/2/1 583/3/1 584/4/1
f 585/2/1 586/5/1 587/8/1 588/3/1
f 589/5/1 590/6/1 591/7/1 592/8/1
f 593/2/1 594/5/1 595/8/1 596/3/1
f 597/1/1 598/2/1 599/3/1 600/4/1
f 601/5/1 602/6/1 603/7/1 604/8/1
f 605/1/1 606/2/1 607/3/1 608/4/1
f 609/2/1 610/5/1 611/8/1 612/3/1
f 613/5/1 614/6/1 615/7/1 616/8/1
f 617/1/1 618/2/1 619/3/1 620/4/1
f 621/5/1 622/6/1 623/7/1 624/8/1
f 625/5/1 626/6/1 627/7/1 628/8/1
f 629/2/1 630/5/1 631/8/1 632/3/1
f 633/2/1 634/5/1 635/8/1 636/3/1
f 637/1/1 638/2/1 639/3/1 640/4/1
f 641/1/1 642/2/1 643/3/1 644/4/1
f 645/2/1 646/5/1 647/8/1 648/3/1
f 649/5/1 650/6/1 651/7/1 652/8/1
f 653/1/1 654/2/1 655/3/1 656/4/1
f 657/5/1 658/6/1 659/7/1 660/8/1
f 661/5/1 662/6/1 663/7/1 664/8/1
f 665/5/1 666/6/1 667/7/1 668/8/1
f 669/1/1 670/2/1 671/3/1 672/4/1
f 673/2/1 674/5/1 675/8/1 676/3/1
f 677/1/1 678/2/1 679/3/1 680/4/1
f 681/5/1 682/6/1 683/7/1 684/8/1
f 685/5/1 686/6/1 687/7/1 688/8/1
f 689/5/1 690/6/1 691/7/1 692/8/1
f 693/5/1 694/6/1 695/7/1 696/8/1
f 697/1/1 698/2/1 699/3/1 700/4/1
f 701/1/1 702/2/1 703/3/1 704/4/1
f 705/1/1 706/2/1 707/3/1 708/4/1
f 709/5/1 710/6/1 711/7/1 712/8/1
f 713/2/1 714/5/1 715/8/1 716/3/1
f 717/2/1 718/5/1 719/8/1 720/3/1
f 721/5/1 722/6/1 723/7/1 724/8/1
f 725/2/1 726/5/1 727/8/1 728/3/1
f 729/5/1 730/6/1 731/7/1 732/8/1
f 733/5/1 734/6/1 735/7/1 736/8/1
f 737/5/1 738/6/1 739/7/1 740/8/1
f 741/1/1 742/2/1 743/3/1 744/4/1
f 745/2/1 746/5/1 747/8/1 748/3/1
f 749/2/1 750/5/1 751/8/1 752/3/1
f 753/1/1 754/2/1 755/3/1 756/4/1
f 757/2/1 758/5/1 759/8/1 760/3/1
f 761/2/1 762/5/1 763/8/1 764/3/1
f 765/5/1 766/6/1 767/7/1 768/8/1
f 769/5/1 770/6/1 771/7/1 772/8/1
f 773/1/1 774/2/1 775/3/1 776/4/1
f 777/1/1 778/2/1 779/3/1 780/4/1
f 781/2/1 782/5/1 783/8/1 784/3/1
f 785/5/1 786/6/1 787/7/1 788/8/1
f 789/2/1 790/5/1 791/8/1 792/3/1
f 793/5/1 794/6/1 795/7/1 796/8/1
f 797/1/1 798/2/1 799/3/1 800/4/1
f 801/5/1 802/6/1 803/7/1 804/8/1
f 805/2/1 806/5/1 807/8/1 808/3/1
f 809/5/1 810/6/1 811/7/1 812/8/1
f 813/1/1 814/2/1 815/3/1 816/4/1
f 817/1/1 818/2/1 819/3/1 820/4/1
f 821/1/1 822/2/1 823/3/1 824/4/1
f 825/2/1 826/5/1 827/8/1 828/3/1
f 829/1/1 830/2/1 831/3/1 832/4/1
f 833/2/1 834/5/1 835/8/1 836/3/1
f 837/1/1 838/2/1 839/3/1 840/4/1
f 841/1/1 842/2/1 843/3/1 844/4/1
f 845/5/1 846/6/1 847/7/1 848/8/1
f 849/5/1 850/6/1 851/7/1 852/8/1
f 853/2/1 854/5/1 855/8/1 856/3/1
f 857/5/1 858/6/1 859/7/1 860/8/1
f 861/5/1 862/6/1 863/7/1 864/8/1
f 865/1/1 866/2/1 867/3/1 868/4/1
f 869/2/1 870/5/1 871/8/1 872/3/1
f 873/1/1 874/2/1 875/3/1 876/4/1
f 877/5/1 878/6/1 879/7/1 880/8/1
f 881/2/1 882/5/1 883/8/1 884/3/1
f 885/1/1 886/2/1 887/3/1 888/4/1
f 889/1/1 890/2/1 891/3/1 892/4/1
f 893/5/1 894/6/1 895/7/1 896/8/1
f 897/5/1 898/6/1 899/7/1 900/8/1
f 901/5/1 902/6/1 903/7/1 904/8/1
f 905/5/1 906/6/1 907/7/1 908/8/1
f 909/2/1 910/5/1 911/8/1 912/3/1
f 913/5/1 914/6/1 915/7/1 916/8/1
f 917/2/1 918/5/1 919/8/1 920/3/1
f 921/5/1 922/6/1 923/7/1 924/8/1
f 925/1/1 926/2/1 927/3/1 928/4/1
f 929/2/1 930/5/1 931/8/1 932/3/1
f 933/1/1 934/2/1 935/3/1 936/4/1
f 937/2/1 938/5/1 939/8/1 940/3/1
f 941/2/1 942/5/1 943/8/1 944/3/1
f 945/2/1 946/5/1 947/8/1 948/3/1
f 949/5/1 950/6/1 951/7/1 952/8/1
f 953/2/1 954/5/1 955/8/1 956/3/1
f 957/1/1 958/2/1 959/3/1 960/4/1
f 961/1/1 962/2/1 963/3/1 964/4/1
f 965/1/1 966/2/1 967/3/1 968/4/1
f 969/5/1 970/6/1 971/7/1 972/8/1
f 973/1/1 974/2/1 975/3/1 976/4/1
f 977/1/1 978/2/1 979/3/1 980/4/1
f 981/5/1 982/6/1 983/7/1 984/8/1
f 985/5/1 986/6/1 987/7/1 988/8/1
f 989/2/1 990/5/1 991/8/1 992/3/1
f 993/5/1 994/6/1 995/7/1 996/8/1
f 997/5/1 998/6/1 999/7/1 1000/8/1
f 1001/2/1 1002/5/1 1003/8/1 1004/3/1
f 1005/1/1 1006/2/1 1007/3/1 1008/4/1
f 1009/1/1 1010/2/1 1011/3/1 1012/4/1
f 1013/2/1 1014/5/1 1015/8/1 1016/3/1
f 1017/1/1 1018/2/1 1019/3/1 1020/4/1
f 1021/2/1 1022/5/1 1023/8/1 1024/3/1

