# Tiled2Unity generated file. Do not modify by hand.
# Wavefront file for 'testmap1_mesh_0648.obj'

# Vertices (Count = 256)
v -12 -1 0
v -13 -1 0
v -13 0 0
v -12 0 0
v -13 -1 0
v -14 -1 0
v -14 0 0
v -13 0 0
v -14 -1 0
v -15 -1 0
v -15 0 0
v -14 0 0
v -15 -1 0
v -16 -1 0
v -16 0 0
v -15 0 0
v -12 -2 0
v -13 -2 0
v -13 -1 0
v -12 -1 0
v -13 -2 0
v -14 -2 0
v -14 -1 0
v -13 -1 0
v -14 -2 0
v -15 -2 0
v -15 -1 0
v -14 -1 0
v -15 -2 0
v -16 -2 0
v -16 -1 0
v -15 -1 0
v -12 -3 0
v -13 -3 0
v -13 -2 0
v -12 -2 0
v -13 -3 0
v -14 -3 0
v -14 -2 0
v -13 -2 0
v -14 -3 0
v -15 -3 0
v -15 -2 0
v -14 -2 0
v -15 -3 0
v -16 -3 0
v -16 -2 0
v -15 -2 0
v -12 -4 0
v -13 -4 0
v -13 -3 0
v -12 -3 0
v -13 -4 0
v -14 -4 0
v -14 -3 0
v -13 -3 0
v -14 -4 0
v -15 -4 0
v -15 -3 0
v -14 -3 0
v -15 -4 0
v -16 -4 0
v -16 -3 0
v -15 -3 0
v -12 -5 0
v -13 -5 0
v -13 -4 0
v -12 -4 0
v -13 -5 0
v -14 -5 0
v -14 -4 0
v -13 -4 0
v -14 -5 0
v -15 -5 0
v -15 -4 0
v -14 -4 0
v -15 -5 0
v -16 -5 0
v -16 -4 0
v -15 -4 0
v -12 -6 0
v -13 -6 0
v -13 -5 0
v -12 -5 0
v -13 -6 0
v -14 -6 0
v -14 -5 0
v -13 -5 0
v -14 -6 0
v -15 -6 0
v -15 -5 0
v -14 -5 0
v -15 -6 0
v -16 -6 0
v -16 -5 0
v -15 -5 0
v -12 -7 0
v -13 -7 0
v -13 -6 0
v -12 -6 0
v -13 -7 0
v -14 -7 0
v -14 -6 0
v -13 -6 0
v -14 -7 0
v -15 -7 0
v -15 -6 0
v -14 -6 0
v -15 -7 0
v -16 -7 0
v -16 -6 0
v -15 -6 0
v -12 -8 0
v -13 -8 0
v -13 -7 0
v -12 -7 0
v -13 -8 0
v -14 -8 0
v -14 -7 0
v -13 -7 0
v -14 -8 0
v -15 -8 0
v -15 -7 0
v -14 -7 0
v -15 -8 0
v -16 -8 0
v -16 -7 0
v -15 -7 0
v -12 -9 0
v -13 -9 0
v -13 -8 0
v -12 -8 0
v -13 -9 0
v -14 -9 0
v -14 -8 0
v -13 -8 0
v -14 -9 0
v -15 -9 0
v -15 -8 0
v -14 -8 0
v -15 -9 0
v -16 -9 0
v -16 -8 0
v -15 -8 0
v -12 -10 0
v -13 -10 0
v -13 -9 0
v -12 -9 0
v -13 -10 0
v -14 -10 0
v -14 -9 0
v -13 -9 0
v -14 -10 0
v -15 -10 0
v -15 -9 0
v -14 -9 0
v -15 -10 0
v -16 -10 0
v -16 -9 0
v -15 -9 0
v -12 -11 0
v -13 -11 0
v -13 -10 0
v -12 -10 0
v -13 -11 0
v -14 -11 0
v -14 -10 0
v -13 -10 0
v -14 -11 0
v -15 -11 0
v -15 -10 0
v -14 -10 0
v -15 -11 0
v -16 -11 0
v -16 -10 0
v -15 -10 0
v -12 -12 0
v -13 -12 0
v -13 -11 0
v -12 -11 0
v -13 -12 0
v -14 -12 0
v -14 -11 0
v -13 -11 0
v -14 -12 0
v -15 -12 0
v -15 -11 0
v -14 -11 0
v -15 -12 0
v -16 -12 0
v -16 -11 0
v -15 -11 0
v -12 -13 0
v -13 -13 0
v -13 -12 0
v -12 -12 0
v -13 -13 0
v -14 -13 0
v -14 -12 0
v -13 -12 0
v -14 -13 0
v -15 -13 0
v -15 -12 0
v -14 -12 0
v -15 -13 0
v -16 -13 0
v -16 -12 0
v -15 -12 0
v -12 -14 0
v -13 -14 0
v -13 -13 0
v -12 -13 0
v -13 -14 0
v -14 -14 0
v -14 -13 0
v -13 -13 0
v -14 -14 0
v -15 -14 0
v -15 -13 0
v -14 -13 0
v -15 -14 0
v -16 -14 0
v -16 -13 0
v -15 -13 0
v -12 -15 0
v -13 -15 0
v -13 -14 0
v -12 -14 0
v -13 -15 0
v -14 -15 0
v -14 -14 0
v -13 -14 0
v -14 -15 0
v -15 -15 0
v -15 -14 0
v -14 -14 0
v -15 -15 0
v -16 -15 0
v -16 -14 0
v -15 -14 0
v -12 -16 0
v -13 -16 0
v -13 -15 0
v -12 -15 0
v -13 -16 0
v -14 -16 0
v -14 -15 0
v -13 -15 0
v -14 -16 0
v -15 -16 0
v -15 -15 0
v -14 -15 0
v -15 -16 0
v -16 -16 0
v -16 -15 0
v -15 -15 0

# Texture cooridinates (Count = 8)
vt 0.71875 0.8125
vt 0.75 0.8125
vt 0.75 0.84375
vt 0.71875 0.84375
vt 0.6875 0.8125
vt 0.6875 0.84375
vt 0.65625 0.8125
vt 0.65625 0.84375

# Normal
vn 0 0 -1

# Mesh description
g testmap1_mesh_0648

# Faces
f 1/1/1 2/2/1 3/3/1 4/4/1
f 5/5/1 6/1/1 7/4/1 8/6/1
f 9/7/1 10/5/1 11/6/1 12/8/1
f 13/7/1 14/5/1 15/6/1 16/8/1
f 17/5/1 18/1/1 19/4/1 20/6/1
f 21/1/1 22/2/1 23/3/1 24/4/1
f 25/7/1 26/5/1 27/6/1 28/8/1
f 29/5/1 30/1/1 31/4/1 32/6/1
f 33/1/1 34/2/1 35/3/1 36/4/1
f 37/7/1 38/5/1 39/6/1 40/8/1
f 41/1/1 42/2/1 43/3/1 44/4/1
f 45/1/1 46/2/1 47/3/1 48/4/1
f 49/5/1 50/1/1 51/4/1 52/6/1
f 53/5/1 54/1/1 55/4/1 56/6/1
f 57/7/1 58/5/1 59/6/1 60/8/1
f 61/5/1 62/1/1 63/4/1 64/6/1
f 65/1/1 66/2/1 67/3/1 68/4/1
f 69/7/1 70/5/1 71/6/1 72/8/1
f 73/1/1 74/2/1 75/3/1 76/4/1
f 77/7/1 78/5/1 79/6/1 80/8/1
f 81/5/1 82/1/1 83/4/1 84/6/1
f 85/5/1 86/1/1 87/4/1 88/6/1
f 89/7/1 90/5/1 91/6/1 92/8/1
f 93/1/1 94/2/1 95/3/1 96/4/1
f 97/7/1 98/5/1 99/6/1 100/8/1
f 101/5/1 102/1/1 103/4/1 104/6/1
f 105/7/1 106/5/1 107/6/1 108/8/1
f 109/1/1 110/2/1 111/3/1 112/4/1
f 113/5/1 114/1/1 115/4/1 116/6/1
f 117/1/1 118/2/1 119/3/1 120/4/1
f 121/5/1 122/1/1 123/4/1 124/6/1
f 125/7/1 126/5/1 127/6/1 128/8/1
f 129/1/1 130/2/1 131/3/1 132/4/1
f 133/7/1 134/5/1 135/6/1 136/8/1
f 137/1/1 138/2/1 139/3/1 140/4/1
f 141/5/1 142/1/1 143/4/1 144/6/1
f 145/7/1 146/5/1 147/6/1 148/8/1
f 149/5/1 150/1/1 151/4/1 152/6/1
f 153/7/1 154/5/1 155/6/1 156/8/1
f 157/7/1 158/5/1 159/6/1 160/8/1
f 161/5/1 162/1/1 163/4/1 164/6/1
f 165/7/1 166/5/1 167/6/1 168/8/1
f 169/5/1 170/1/1 171/4/1 172/6/1
f 173/5/1 174/1/1 175/4/1 176/6/1
f 177/5/1 178/1/1 179/4/1 180/6/1
f 181/1/1 182/2/1 183/3/1 184/4/1
f 185/7/1 186/5/1 187/6/1 188/8/1
f 189/7/1 190/5/1 191/6/1 192/8/1
f 193/5/1 194/1/1 195/4/1 196/6/1
f 197/5/1 198/1/1 199/4/1 200/6/1
f 201/1/1 202/2/1 203/3/1 204/4/1
f 205/1/1 206/2/1 207/3/1 208/4/1
f 209/1/1 210/2/1 211/3/1 212/4/1
f 213/7/1 214/5/1 215/6/1 216/8/1
f 217/7/1 218/5/1 219/6/1 220/8/1
f 221/7/1 222/5/1 223/6/1 224/8/1
f 225/7/1 226/5/1 227/6/1 228/8/1
f 229/1/1 230/2/1 231/3/1 232/4/1
f 233/7/1 234/5/1 235/6/1 236/8/1
f 237/1/1 238/2/1 239/3/1 240/4/1
f 241/7/1 242/5/1 243/6/1 244/8/1
f 245/1/1 246/2/1 247/3/1 248/4/1
f 249/5/1 250/1/1 251/4/1 252/6/1
f 253/1/1 254/2/1 255/3/1 256/4/1

