# Tiled2Unity generated file. Do not modify by hand.
# Wavefront file for 'testmap1_mesh_0427.obj'

# Vertices (Count = 1024)
v 0 -1 0
v -1 -1 0
v -1 0 0
v 0 0 0
v -1 -1 0
v -2 -1 0
v -2 0 0
v -1 0 0
v -2 -1 0
v -3 -1 0
v -3 0 0
v -2 0 0
v -3 -1 0
v -4 -1 0
v -4 0 0
v -3 0 0
v -4 -1 0
v -5 -1 0
v -5 0 0
v -4 0 0
v -5 -1 0
v -6 -1 0
v -6 0 0
v -5 0 0
v -6 -1 0
v -7 -1 0
v -7 0 0
v -6 0 0
v -7 -1 0
v -8 -1 0
v -8 0 0
v -7 0 0
v -8 -1 0
v -9 -1 0
v -9 0 0
v -8 0 0
v -9 -1 0
v -10 -1 0
v -10 0 0
v -9 0 0
v -10 -1 0
v -11 -1 0
v -11 0 0
v -10 0 0
v -11 -1 0
v -12 -1 0
v -12 0 0
v -11 0 0
v -12 -1 0
v -13 -1 0
v -13 0 0
v -12 0 0
v -13 -1 0
v -14 -1 0
v -14 0 0
v -13 0 0
v -14 -1 0
v -15 -1 0
v -15 0 0
v -14 0 0
v -15 -1 0
v -16 -1 0
v -16 0 0
v -15 0 0
v 0 -2 0
v -1 -2 0
v -1 -1 0
v 0 -1 0
v -1 -2 0
v -2 -2 0
v -2 -1 0
v -1 -1 0
v -2 -2 0
v -3 -2 0
v -3 -1 0
v -2 -1 0
v -3 -2 0
v -4 -2 0
v -4 -1 0
v -3 -1 0
v -4 -2 0
v -5 -2 0
v -5 -1 0
v -4 -1 0
v -5 -2 0
v -6 -2 0
v -6 -1 0
v -5 -1 0
v -6 -2 0
v -7 -2 0
v -7 -1 0
v -6 -1 0
v -7 -2 0
v -8 -2 0
v -8 -1 0
v -7 -1 0
v -8 -2 0
v -9 -2 0
v -9 -1 0
v -8 -1 0
v -9 -2 0
v -10 -2 0
v -10 -1 0
v -9 -1 0
v -10 -2 0
v -11 -2 0
v -11 -1 0
v -10 -1 0
v -11 -2 0
v -12 -2 0
v -12 -1 0
v -11 -1 0
v -12 -2 0
v -13 -2 0
v -13 -1 0
v -12 -1 0
v -13 -2 0
v -14 -2 0
v -14 -1 0
v -13 -1 0
v -14 -2 0
v -15 -2 0
v -15 -1 0
v -14 -1 0
v -15 -2 0
v -16 -2 0
v -16 -1 0
v -15 -1 0
v 0 -3 0
v -1 -3 0
v -1 -2 0
v 0 -2 0
v -1 -3 0
v -2 -3 0
v -2 -2 0
v -1 -2 0
v -2 -3 0
v -3 -3 0
v -3 -2 0
v -2 -2 0
v -3 -3 0
v -4 -3 0
v -4 -2 0
v -3 -2 0
v -4 -3 0
v -5 -3 0
v -5 -2 0
v -4 -2 0
v -5 -3 0
v -6 -3 0
v -6 -2 0
v -5 -2 0
v -6 -3 0
v -7 -3 0
v -7 -2 0
v -6 -2 0
v -7 -3 0
v -8 -3 0
v -8 -2 0
v -7 -2 0
v -8 -3 0
v -9 -3 0
v -9 -2 0
v -8 -2 0
v -9 -3 0
v -10 -3 0
v -10 -2 0
v -9 -2 0
v -10 -3 0
v -11 -3 0
v -11 -2 0
v -10 -2 0
v -11 -3 0
v -12 -3 0
v -12 -2 0
v -11 -2 0
v -12 -3 0
v -13 -3 0
v -13 -2 0
v -12 -2 0
v -13 -3 0
v -14 -3 0
v -14 -2 0
v -13 -2 0
v -14 -3 0
v -15 -3 0
v -15 -2 0
v -14 -2 0
v -15 -3 0
v -16 -3 0
v -16 -2 0
v -15 -2 0
v 0 -4 0
v -1 -4 0
v -1 -3 0
v 0 -3 0
v -1 -4 0
v -2 -4 0
v -2 -3 0
v -1 -3 0
v -2 -4 0
v -3 -4 0
v -3 -3 0
v -2 -3 0
v -3 -4 0
v -4 -4 0
v -4 -3 0
v -3 -3 0
v -4 -4 0
v -5 -4 0
v -5 -3 0
v -4 -3 0
v -5 -4 0
v -6 -4 0
v -6 -3 0
v -5 -3 0
v -6 -4 0
v -7 -4 0
v -7 -3 0
v -6 -3 0
v -7 -4 0
v -8 -4 0
v -8 -3 0
v -7 -3 0
v -8 -4 0
v -9 -4 0
v -9 -3 0
v -8 -3 0
v -9 -4 0
v -10 -4 0
v -10 -3 0
v -9 -3 0
v -10 -4 0
v -11 -4 0
v -11 -3 0
v -10 -3 0
v -11 -4 0
v -12 -4 0
v -12 -3 0
v -11 -3 0
v -12 -4 0
v -13 -4 0
v -13 -3 0
v -12 -3 0
v -13 -4 0
v -14 -4 0
v -14 -3 0
v -13 -3 0
v -14 -4 0
v -15 -4 0
v -15 -3 0
v -14 -3 0
v -15 -4 0
v -16 -4 0
v -16 -3 0
v -15 -3 0
v 0 -5 0
v -1 -5 0
v -1 -4 0
v 0 -4 0
v -1 -5 0
v -2 -5 0
v -2 -4 0
v -1 -4 0
v -2 -5 0
v -3 -5 0
v -3 -4 0
v -2 -4 0
v -3 -5 0
v -4 -5 0
v -4 -4 0
v -3 -4 0
v -4 -5 0
v -5 -5 0
v -5 -4 0
v -4 -4 0
v -5 -5 0
v -6 -5 0
v -6 -4 0
v -5 -4 0
v -6 -5 0
v -7 -5 0
v -7 -4 0
v -6 -4 0
v -7 -5 0
v -8 -5 0
v -8 -4 0
v -7 -4 0
v -8 -5 0
v -9 -5 0
v -9 -4 0
v -8 -4 0
v -9 -5 0
v -10 -5 0
v -10 -4 0
v -9 -4 0
v -10 -5 0
v -11 -5 0
v -11 -4 0
v -10 -4 0
v -11 -5 0
v -12 -5 0
v -12 -4 0
v -11 -4 0
v -12 -5 0
v -13 -5 0
v -13 -4 0
v -12 -4 0
v -13 -5 0
v -14 -5 0
v -14 -4 0
v -13 -4 0
v -14 -5 0
v -15 -5 0
v -15 -4 0
v -14 -4 0
v -15 -5 0
v -16 -5 0
v -16 -4 0
v -15 -4 0
v 0 -6 0
v -1 -6 0
v -1 -5 0
v 0 -5 0
v -1 -6 0
v -2 -6 0
v -2 -5 0
v -1 -5 0
v -2 -6 0
v -3 -6 0
v -3 -5 0
v -2 -5 0
v -3 -6 0
v -4 -6 0
v -4 -5 0
v -3 -5 0
v -4 -6 0
v -5 -6 0
v -5 -5 0
v -4 -5 0
v -5 -6 0
v -6 -6 0
v -6 -5 0
v -5 -5 0
v -6 -6 0
v -7 -6 0
v -7 -5 0
v -6 -5 0
v -7 -6 0
v -8 -6 0
v -8 -5 0
v -7 -5 0
v -8 -6 0
v -9 -6 0
v -9 -5 0
v -8 -5 0
v -9 -6 0
v -10 -6 0
v -10 -5 0
v -9 -5 0
v -10 -6 0
v -11 -6 0
v -11 -5 0
v -10 -5 0
v -11 -6 0
v -12 -6 0
v -12 -5 0
v -11 -5 0
v -12 -6 0
v -13 -6 0
v -13 -5 0
v -12 -5 0
v -13 -6 0
v -14 -6 0
v -14 -5 0
v -13 -5 0
v -14 -6 0
v -15 -6 0
v -15 -5 0
v -14 -5 0
v -15 -6 0
v -16 -6 0
v -16 -5 0
v -15 -5 0
v 0 -7 0
v -1 -7 0
v -1 -6 0
v 0 -6 0
v -1 -7 0
v -2 -7 0
v -2 -6 0
v -1 -6 0
v -2 -7 0
v -3 -7 0
v -3 -6 0
v -2 -6 0
v -3 -7 0
v -4 -7 0
v -4 -6 0
v -3 -6 0
v -4 -7 0
v -5 -7 0
v -5 -6 0
v -4 -6 0
v -5 -7 0
v -6 -7 0
v -6 -6 0
v -5 -6 0
v -6 -7 0
v -7 -7 0
v -7 -6 0
v -6 -6 0
v -7 -7 0
v -8 -7 0
v -8 -6 0
v -7 -6 0
v -8 -7 0
v -9 -7 0
v -9 -6 0
v -8 -6 0
v -9 -7 0
v -10 -7 0
v -10 -6 0
v -9 -6 0
v -10 -7 0
v -11 -7 0
v -11 -6 0
v -10 -6 0
v -11 -7 0
v -12 -7 0
v -12 -6 0
v -11 -6 0
v -12 -7 0
v -13 -7 0
v -13 -6 0
v -12 -6 0
v -13 -7 0
v -14 -7 0
v -14 -6 0
v -13 -6 0
v -14 -7 0
v -15 -7 0
v -15 -6 0
v -14 -6 0
v -15 -7 0
v -16 -7 0
v -16 -6 0
v -15 -6 0
v 0 -8 0
v -1 -8 0
v -1 -7 0
v 0 -7 0
v -1 -8 0
v -2 -8 0
v -2 -7 0
v -1 -7 0
v -2 -8 0
v -3 -8 0
v -3 -7 0
v -2 -7 0
v -3 -8 0
v -4 -8 0
v -4 -7 0
v -3 -7 0
v -4 -8 0
v -5 -8 0
v -5 -7 0
v -4 -7 0
v -5 -8 0
v -6 -8 0
v -6 -7 0
v -5 -7 0
v -6 -8 0
v -7 -8 0
v -7 -7 0
v -6 -7 0
v -7 -8 0
v -8 -8 0
v -8 -7 0
v -7 -7 0
v -8 -8 0
v -9 -8 0
v -9 -7 0
v -8 -7 0
v -9 -8 0
v -10 -8 0
v -10 -7 0
v -9 -7 0
v -10 -8 0
v -11 -8 0
v -11 -7 0
v -10 -7 0
v -11 -8 0
v -12 -8 0
v -12 -7 0
v -11 -7 0
v -12 -8 0
v -13 -8 0
v -13 -7 0
v -12 -7 0
v -13 -8 0
v -14 -8 0
v -14 -7 0
v -13 -7 0
v -14 -8 0
v -15 -8 0
v -15 -7 0
v -14 -7 0
v -15 -8 0
v -16 -8 0
v -16 -7 0
v -15 -7 0
v 0 -9 0
v -1 -9 0
v -1 -8 0
v 0 -8 0
v -1 -9 0
v -2 -9 0
v -2 -8 0
v -1 -8 0
v -2 -9 0
v -3 -9 0
v -3 -8 0
v -2 -8 0
v -3 -9 0
v -4 -9 0
v -4 -8 0
v -3 -8 0
v -4 -9 0
v -5 -9 0
v -5 -8 0
v -4 -8 0
v -5 -9 0
v -6 -9 0
v -6 -8 0
v -5 -8 0
v -6 -9 0
v -7 -9 0
v -7 -8 0
v -6 -8 0
v -7 -9 0
v -8 -9 0
v -8 -8 0
v -7 -8 0
v -8 -9 0
v -9 -9 0
v -9 -8 0
v -8 -8 0
v -9 -9 0
v -10 -9 0
v -10 -8 0
v -9 -8 0
v -10 -9 0
v -11 -9 0
v -11 -8 0
v -10 -8 0
v -11 -9 0
v -12 -9 0
v -12 -8 0
v -11 -8 0
v -12 -9 0
v -13 -9 0
v -13 -8 0
v -12 -8 0
v -13 -9 0
v -14 -9 0
v -14 -8 0
v -13 -8 0
v -14 -9 0
v -15 -9 0
v -15 -8 0
v -14 -8 0
v -15 -9 0
v -16 -9 0
v -16 -8 0
v -15 -8 0
v 0 -10 0
v -1 -10 0
v -1 -9 0
v 0 -9 0
v -1 -10 0
v -2 -10 0
v -2 -9 0
v -1 -9 0
v -2 -10 0
v -3 -10 0
v -3 -9 0
v -2 -9 0
v -3 -10 0
v -4 -10 0
v -4 -9 0
v -3 -9 0
v -4 -10 0
v -5 -10 0
v -5 -9 0
v -4 -9 0
v -5 -10 0
v -6 -10 0
v -6 -9 0
v -5 -9 0
v -6 -10 0
v -7 -10 0
v -7 -9 0
v -6 -9 0
v -7 -10 0
v -8 -10 0
v -8 -9 0
v -7 -9 0
v -8 -10 0
v -9 -10 0
v -9 -9 0
v -8 -9 0
v -9 -10 0
v -10 -10 0
v -10 -9 0
v -9 -9 0
v -10 -10 0
v -11 -10 0
v -11 -9 0
v -10 -9 0
v -11 -10 0
v -12 -10 0
v -12 -9 0
v -11 -9 0
v -12 -10 0
v -13 -10 0
v -13 -9 0
v -12 -9 0
v -13 -10 0
v -14 -10 0
v -14 -9 0
v -13 -9 0
v -14 -10 0
v -15 -10 0
v -15 -9 0
v -14 -9 0
v -15 -10 0
v -16 -10 0
v -16 -9 0
v -15 -9 0
v 0 -11 0
v -1 -11 0
v -1 -10 0
v 0 -10 0
v -1 -11 0
v -2 -11 0
v -2 -10 0
v -1 -10 0
v -2 -11 0
v -3 -11 0
v -3 -10 0
v -2 -10 0
v -3 -11 0
v -4 -11 0
v -4 -10 0
v -3 -10 0
v -4 -11 0
v -5 -11 0
v -5 -10 0
v -4 -10 0
v -5 -11 0
v -6 -11 0
v -6 -10 0
v -5 -10 0
v -6 -11 0
v -7 -11 0
v -7 -10 0
v -6 -10 0
v -7 -11 0
v -8 -11 0
v -8 -10 0
v -7 -10 0
v -8 -11 0
v -9 -11 0
v -9 -10 0
v -8 -10 0
v -9 -11 0
v -10 -11 0
v -10 -10 0
v -9 -10 0
v -10 -11 0
v -11 -11 0
v -11 -10 0
v -10 -10 0
v -11 -11 0
v -12 -11 0
v -12 -10 0
v -11 -10 0
v -12 -11 0
v -13 -11 0
v -13 -10 0
v -12 -10 0
v -13 -11 0
v -14 -11 0
v -14 -10 0
v -13 -10 0
v -14 -11 0
v -15 -11 0
v -15 -10 0
v -14 -10 0
v -15 -11 0
v -16 -11 0
v -16 -10 0
v -15 -10 0
v 0 -12 0
v -1 -12 0
v -1 -11 0
v 0 -11 0
v -1 -12 0
v -2 -12 0
v -2 -11 0
v -1 -11 0
v -2 -12 0
v -3 -12 0
v -3 -11 0
v -2 -11 0
v -3 -12 0
v -4 -12 0
v -4 -11 0
v -3 -11 0
v -4 -12 0
v -5 -12 0
v -5 -11 0
v -4 -11 0
v -5 -12 0
v -6 -12 0
v -6 -11 0
v -5 -11 0
v -6 -12 0
v -7 -12 0
v -7 -11 0
v -6 -11 0
v -7 -12 0
v -8 -12 0
v -8 -11 0
v -7 -11 0
v -8 -12 0
v -9 -12 0
v -9 -11 0
v -8 -11 0
v -9 -12 0
v -10 -12 0
v -10 -11 0
v -9 -11 0
v -10 -12 0
v -11 -12 0
v -11 -11 0
v -10 -11 0
v -11 -12 0
v -12 -12 0
v -12 -11 0
v -11 -11 0
v -12 -12 0
v -13 -12 0
v -13 -11 0
v -12 -11 0
v -13 -12 0
v -14 -12 0
v -14 -11 0
v -13 -11 0
v -14 -12 0
v -15 -12 0
v -15 -11 0
v -14 -11 0
v -15 -12 0
v -16 -12 0
v -16 -11 0
v -15 -11 0
v 0 -13 0
v -1 -13 0
v -1 -12 0
v 0 -12 0
v -1 -13 0
v -2 -13 0
v -2 -12 0
v -1 -12 0
v -2 -13 0
v -3 -13 0
v -3 -12 0
v -2 -12 0
v -3 -13 0
v -4 -13 0
v -4 -12 0
v -3 -12 0
v -4 -13 0
v -5 -13 0
v -5 -12 0
v -4 -12 0
v -5 -13 0
v -6 -13 0
v -6 -12 0
v -5 -12 0
v -6 -13 0
v -7 -13 0
v -7 -12 0
v -6 -12 0
v -7 -13 0
v -8 -13 0
v -8 -12 0
v -7 -12 0
v -8 -13 0
v -9 -13 0
v -9 -12 0
v -8 -12 0
v -9 -13 0
v -10 -13 0
v -10 -12 0
v -9 -12 0
v -10 -13 0
v -11 -13 0
v -11 -12 0
v -10 -12 0
v -11 -13 0
v -12 -13 0
v -12 -12 0
v -11 -12 0
v -12 -13 0
v -13 -13 0
v -13 -12 0
v -12 -12 0
v -13 -13 0
v -14 -13 0
v -14 -12 0
v -13 -12 0
v -14 -13 0
v -15 -13 0
v -15 -12 0
v -14 -12 0
v -15 -13 0
v -16 -13 0
v -16 -12 0
v -15 -12 0
v 0 -14 0
v -1 -14 0
v -1 -13 0
v 0 -13 0
v -1 -14 0
v -2 -14 0
v -2 -13 0
v -1 -13 0
v -2 -14 0
v -3 -14 0
v -3 -13 0
v -2 -13 0
v -3 -14 0
v -4 -14 0
v -4 -13 0
v -3 -13 0
v -4 -14 0
v -5 -14 0
v -5 -13 0
v -4 -13 0
v -5 -14 0
v -6 -14 0
v -6 -13 0
v -5 -13 0
v -6 -14 0
v -7 -14 0
v -7 -13 0
v -6 -13 0
v -7 -14 0
v -8 -14 0
v -8 -13 0
v -7 -13 0
v -8 -14 0
v -9 -14 0
v -9 -13 0
v -8 -13 0
v -9 -14 0
v -10 -14 0
v -10 -13 0
v -9 -13 0
v -10 -14 0
v -11 -14 0
v -11 -13 0
v -10 -13 0
v -11 -14 0
v -12 -14 0
v -12 -13 0
v -11 -13 0
v -12 -14 0
v -13 -14 0
v -13 -13 0
v -12 -13 0
v -13 -14 0
v -14 -14 0
v -14 -13 0
v -13 -13 0
v -14 -14 0
v -15 -14 0
v -15 -13 0
v -14 -13 0
v -15 -14 0
v -16 -14 0
v -16 -13 0
v -15 -13 0
v 0 -15 0
v -1 -15 0
v -1 -14 0
v 0 -14 0
v -1 -15 0
v -2 -15 0
v -2 -14 0
v -1 -14 0
v -2 -15 0
v -3 -15 0
v -3 -14 0
v -2 -14 0
v -3 -15 0
v -4 -15 0
v -4 -14 0
v -3 -14 0
v -4 -15 0
v -5 -15 0
v -5 -14 0
v -4 -14 0
v -5 -15 0
v -6 -15 0
v -6 -14 0
v -5 -14 0
v -6 -15 0
v -7 -15 0
v -7 -14 0
v -6 -14 0
v -7 -15 0
v -8 -15 0
v -8 -14 0
v -7 -14 0
v -8 -15 0
v -9 -15 0
v -9 -14 0
v -8 -14 0
v -9 -15 0
v -10 -15 0
v -10 -14 0
v -9 -14 0
v -10 -15 0
v -11 -15 0
v -11 -14 0
v -10 -14 0
v -11 -15 0
v -12 -15 0
v -12 -14 0
v -11 -14 0
v -12 -15 0
v -13 -15 0
v -13 -14 0
v -12 -14 0
v -13 -15 0
v -14 -15 0
v -14 -14 0
v -13 -14 0
v -14 -15 0
v -15 -15 0
v -15 -14 0
v -14 -14 0
v -15 -15 0
v -16 -15 0
v -16 -14 0
v -15 -14 0
v 0 -16 0
v -1 -16 0
v -1 -15 0
v 0 -15 0
v -1 -16 0
v -2 -16 0
v -2 -15 0
v -1 -15 0
v -2 -16 0
v -3 -16 0
v -3 -15 0
v -2 -15 0
v -3 -16 0
v -4 -16 0
v -4 -15 0
v -3 -15 0
v -4 -16 0
v -5 -16 0
v -5 -15 0
v -4 -15 0
v -5 -16 0
v -6 -16 0
v -6 -15 0
v -5 -15 0
v -6 -16 0
v -7 -16 0
v -7 -15 0
v -6 -15 0
v -7 -16 0
v -8 -16 0
v -8 -15 0
v -7 -15 0
v -8 -16 0
v -9 -16 0
v -9 -15 0
v -8 -15 0
v -9 -16 0
v -10 -16 0
v -10 -15 0
v -9 -15 0
v -10 -16 0
v -11 -16 0
v -11 -15 0
v -10 -15 0
v -11 -16 0
v -12 -16 0
v -12 -15 0
v -11 -15 0
v -12 -16 0
v -13 -16 0
v -13 -15 0
v -12 -15 0
v -13 -16 0
v -14 -16 0
v -14 -15 0
v -13 -15 0
v -14 -16 0
v -15 -16 0
v -15 -15 0
v -14 -15 0
v -15 -16 0
v -16 -16 0
v -16 -15 0
v -15 -15 0

# Texture cooridinates (Count = 8)
vt 0.6875 0.8125
vt 0.71875 0.8125
vt 0.71875 0.84375
vt 0.6875 0.84375
vt 0.75 0.8125
vt 0.75 0.84375
vt 0.65625 0.8125
vt 0.65625 0.84375

# Normal
vn 0 0 -1

# Mesh description
g testmap1_mesh_0427

# Faces
f 1/1/1 2/2/1 3/3/1 4/4/1
f 5/1/1 6/2/1 7/3/1 8/4/1
f 9/2/1 10/5/1 11/6/1 12/3/1
f 13/2/1 14/5/1 15/6/1 16/3/1
f 17/7/1 18/1/1 19/4/1 20/8/1
f 21/7/1 22/1/1 23/4/1 24/8/1
f 25/7/1 26/1/1 27/4/1 28/8/1
f 29/2/1 30/5/1 31/6/1 32/3/1
f 33/2/1 34/5/1 35/6/1 36/3/1
f 37/2/1 38/5/1 39/6/1 40/3/1
f 41/7/1 42/1/1 43/4/1 44/8/1
f 45/2/1 46/5/1 47/6/1 48/3/1
f 49/7/1 50/1/1 51/4/1 52/8/1
f 53/7/1 54/1/1 55/4/1 56/8/1
f 57/7/1 58/1/1 59/4/1 60/8/1
f 61/7/1 62/1/1 63/4/1 64/8/1
f 65/1/1 66/2/1 67/3/1 68/4/1
f 69/1/1 70/2/1 71/3/1 72/4/1
f 73/7/1 74/1/1 75/4/1 76/8/1
f 77/7/1 78/1/1 79/4/1 80/8/1
f 81/7/1 82/1/1 83/4/1 84/8/1
f 85/2/1 86/5/1 87/6/1 88/3/1
f 89/7/1 90/1/1 91/4/1 92/8/1
f 93/1/1 94/2/1 95/3/1 96/4/1
f 97/7/1 98/1/1 99/4/1 100/8/1
f 101/2/1 102/5/1 103/6/1 104/3/1
f 105/7/1 106/1/1 107/4/1 108/8/1
f 109/1/1 110/2/1 111/3/1 112/4/1
f 113/1/1 114/2/1 115/3/1 116/4/1
f 117/1/1 118/2/1 119/3/1 120/4/1
f 121/7/1 122/1/1 123/4/1 124/8/1
f 125/1/1 126/2/1 127/3/1 128/4/1
f 129/2/1 130/5/1 131/6/1 132/3/1
f 133/7/1 134/1/1 135/4/1 136/8/1
f 137/2/1 138/5/1 139/6/1 140/3/1
f 141/1/1 142/2/1 143/3/1 144/4/1
f 145/1/1 146/2/1 147/3/1 148/4/1
f 149/2/1 150/5/1 151/6/1 152/3/1
f 153/7/1 154/1/1 155/4/1 156/8/1
f 157/2/1 158/5/1 159/6/1 160/3/1
f 161/2/1 162/5/1 163/6/1 164/3/1
f 165/2/1 166/5/1 167/6/1 168/3/1
f 169/2/1 170/5/1 171/6/1 172/3/1
f 173/1/1 174/2/1 175/3/1 176/4/1
f 177/7/1 178/1/1 179/4/1 180/8/1
f 181/2/1 182/5/1 183/6/1 184/3/1
f 185/2/1 186/5/1 187/6/1 188/3/1
f 189/7/1 190/1/1 191/4/1 192/8/1
f 193/2/1 194/5/1 195/6/1 196/3/1
f 197/1/1 198/2/1 199/3/1 200/4/1
f 201/7/1 202/1/1 203/4/1 204/8/1
f 205/1/1 206/2/1 207/3/1 208/4/1
f 209/1/1 210/2/1 211/3/1 212/4/1
f 213/1/1 214/2/1 215/3/1 216/4/1
f 217/1/1 218/2/1 219/3/1 220/4/1
f 221/7/1 222/1/1 223/4/1 224/8/1
f 225/7/1 226/1/1 227/4/1 228/8/1
f 229/2/1 230/5/1 231/6/1 232/3/1
f 233/7/1 234/1/1 235/4/1 236/8/1
f 237/2/1 238/5/1 239/6/1 240/3/1
f 241/2/1 242/5/1 243/6/1 244/3/1
f 245/1/1 246/2/1 247/3/1 248/4/1
f 249/1/1 250/2/1 251/3/1 252/4/1
f 253/1/1 254/2/1 255/3/1 256/4/1
f 257/7/1 258/1/1 259/4/1 260/8/1
f 261/7/1 262/1/1 263/4/1 264/8/1
f 265/1/1 266/2/1 267/3/1 268/4/1
f 269/1/1 270/2/1 271/3/1 272/4/1
f 273/7/1 274/1/1 275/4/1 276/8/1
f 277/7/1 278/1/1 279/4/1 280/8/1
f 281/7/1 282/1/1 283/4/1 284/8/1
f 285/7/1 286/1/1 287/4/1 288/8/1
f 289/2/1 290/5/1 291/6/1 292/3/1
f 293/1/1 294/2/1 295/3/1 296/4/1
f 297/1/1 298/2/1 299/3/1 300/4/1
f 301/1/1 302/2/1 303/3/1 304/4/1
f 305/7/1 306/1/1 307/4/1 308/8/1
f 309/1/1 310/2/1 311/3/1 312/4/1
f 313/2/1 314/5/1 315/6/1 316/3/1
f 317/2/1 318/5/1 319/6/1 320/3/1
f 321/7/1 322/1/1 323/4/1 324/8/1
f 325/2/1 326/5/1 327/6/1 328/3/1
f 329/2/1 330/5/1 331/6/1 332/3/1
f 333/1/1 334/2/1 335/3/1 336/4/1
f 337/7/1 338/1/1 339/4/1 340/8/1
f 341/2/1 342/5/1 343/6/1 344/3/1
f 345/2/1 346/5/1 347/6/1 348/3/1
f 349/7/1 350/1/1 351/4/1 352/8/1
f 353/1/1 354/2/1 355/3/1 356/4/1
f 357/2/1 358/5/1 359/6/1 360/3/1
f 361/2/1 362/5/1 363/6/1 364/3/1
f 365/2/1 366/5/1 367/6/1 368/3/1
f 369/1/1 370/2/1 371/3/1 372/4/1
f 373/1/1 374/2/1 375/3/1 376/4/1
f 377/2/1 378/5/1 379/6/1 380/3/1
f 381/7/1 382/1/1 383/4/1 384/8/1
f 385/7/1 386/1/1 387/4/1 388/8/1
f 389/2/1 390/5/1 391/6/1 392/3/1
f 393/7/1 394/1/1 395/4/1 396/8/1
f 397/1/1 398/2/1 399/3/1 400/4/1
f 401/1/1 402/2/1 403/3/1 404/4/1
f 405/7/1 406/1/1 407/4/1 408/8/1
f 409/2/1 410/5/1 411/6/1 412/3/1
f 413/2/1 414/5/1 415/6/1 416/3/1
f 417/2/1 418/5/1 419/6/1 420/3/1
f 421/1/1 422/2/1 423/3/1 424/4/1
f 425/7/1 426/1/1 427/4/1 428/8/1
f 429/2/1 430/5/1 431/6/1 432/3/1
f 433/7/1 434/1/1 435/4/1 436/8/1
f 437/2/1 438/5/1 439/6/1 440/3/1
f 441/7/1 442/1/1 443/4/1 444/8/1
f 445/1/1 446/2/1 447/3/1 448/4/1
f 449/7/1 450/1/1 451/4/1 452/8/1
f 453/2/1 454/5/1 455/6/1 456/3/1
f 457/7/1 458/1/1 459/4/1 460/8/1
f 461/7/1 462/1/1 463/4/1 464/8/1
f 465/7/1 466/1/1 467/4/1 468/8/1
f 469/7/1 470/1/1 471/4/1 472/8/1
f 473/1/1 474/2/1 475/3/1 476/4/1
f 477/1/1 478/2/1 479/3/1 480/4/1
f 481/1/1 482/2/1 483/3/1 484/4/1
f 485/7/1 486/1/1 487/4/1 488/8/1
f 489/2/1 490/5/1 491/6/1 492/3/1
f 493/2/1 494/5/1 495/6/1 496/3/1
f 497/1/1 498/2/1 499/3/1 500/4/1
f 501/2/1 502/5/1 503/6/1 504/3/1
f 505/1/1 506/2/1 507/3/1 508/4/1
f 509/7/1 510/1/1 511/4/1 512/8/1
f 513/7/1 514/1/1 515/4/1 516/8/1
f 517/7/1 518/1/1 519/4/1 520/8/1
f 521/7/1 522/1/1 523/4/1 524/8/1
f 525/1/1 526/2/1 527/3/1 528/4/1
f 529/2/1 530/5/1 531/6/1 532/3/1
f 533/1/1 534/2/1 535/3/1 536/4/1
f 537/7/1 538/1/1 539/4/1 540/8/1
f 541/7/1 542/1/1 543/4/1 544/8/1
f 545/2/1 546/5/1 547/6/1 548/3/1
f 549/7/1 550/1/1 551/4/1 552/8/1
f 553/7/1 554/1/1 555/4/1 556/8/1
f 557/1/1 558/2/1 559/3/1 560/4/1
f 561/2/1 562/5/1 563/6/1 564/3/1
f 565/1/1 566/2/1 567/3/1 568/4/1
f 569/1/1 570/2/1 571/3/1 572/4/1
f 573/1/1 574/2/1 575/3/1 576/4/1
f 577/7/1 578/1/1 579/4/1 580/8/1
f 581/2/1 582/5/1 583/6/1 584/3/1
f 585/1/1 586/2/1 587/3/1 588/4/1
f 589/1/1 590/2/1 591/3/1 592/4/1
f 593/7/1 594/1/1 595/4/1 596/8/1
f 597/7/1 598/1/1 599/4/1 600/8/1
f 601/1/1 602/2/1 603/3/1 604/4/1
f 605/7/1 606/1/1 607/4/1 608/8/1
f 609/2/1 610/5/1 611/6/1 612/3/1
f 613/1/1 614/2/1 615/3/1 616/4/1
f 617/2/1 618/5/1 619/6/1 620/3/1
f 621/2/1 622/5/1 623/6/1 624/3/1
f 625/7/1 626/1/1 627/4/1 628/8/1
f 629/1/1 630/2/1 631/3/1 632/4/1
f 633/2/1 634/5/1 635/6/1 636/3/1
f 637/7/1 638/1/1 639/4/1 640/8/1
f 641/7/1 642/1/1 643/4/1 644/8/1
f 645/2/1 646/5/1 647/6/1 648/3/1
f 649/1/1 650/2/1 651/3/1 652/4/1
f 653/7/1 654/1/1 655/4/1 656/8/1
f 657/1/1 658/2/1 659/3/1 660/4/1
f 661/2/1 662/5/1 663/6/1 664/3/1
f 665/7/1 666/1/1 667/4/1 668/8/1
f 669/7/1 670/1/1 671/4/1 672/8/1
f 673/2/1 674/5/1 675/6/1 676/3/1
f 677/2/1 678/5/1 679/6/1 680/3/1
f 681/2/1 682/5/1 683/6/1 684/3/1
f 685/1/1 686/2/1 687/3/1 688/4/1
f 689/7/1 690/1/1 691/4/1 692/8/1
f 693/2/1 694/5/1 695/6/1 696/3/1
f 697/7/1 698/1/1 699/4/1 700/8/1
f 701/7/1 702/1/1 703/4/1 704/8/1
f 705/7/1 706/1/1 707/4/1 708/8/1
f 709/7/1 710/1/1 711/4/1 712/8/1
f 713/1/1 714/2/1 715/3/1 716/4/1
f 717/1/1 718/2/1 719/3/1 720/4/1
f 721/2/1 722/5/1 723/6/1 724/3/1
f 725/7/1 726/1/1 727/4/1 728/8/1
f 729/1/1 730/2/1 731/3/1 732/4/1
f 733/7/1 734/1/1 735/4/1 736/8/1
f 737/7/1 738/1/1 739/4/1 740/8/1
f 741/7/1 742/1/1 743/4/1 744/8/1
f 745/1/1 746/2/1 747/3/1 748/4/1
f 749/2/1 750/5/1 751/6/1 752/3/1
f 753/7/1 754/1/1 755/4/1 756/8/1
f 757/1/1 758/2/1 759/3/1 760/4/1
f 761/7/1 762/1/1 763/4/1 764/8/1
f 765/1/1 766/2/1 767/3/1 768/4/1
f 769/1/1 770/2/1 771/3/1 772/4/1
f 773/2/1 774/5/1 775/6/1 776/3/1
f 777/1/1 778/2/1 779/3/1 780/4/1
f 781/1/1 782/2/1 783/3/1 784/4/1
f 785/7/1 786/1/1 787/4/1 788/8/1
f 789/7/1 790/1/1 791/4/1 792/8/1
f 793/2/1 794/5/1 795/6/1 796/3/1
f 797/2/1 798/5/1 799/6/1 800/3/1
f 801/1/1 802/2/1 803/3/1 804/4/1
f 805/1/1 806/2/1 807/3/1 808/4/1
f 809/1/1 810/2/1 811/3/1 812/4/1
f 813/7/1 814/1/1 815/4/1 816/8/1
f 817/1/1 818/2/1 819/3/1 820/4/1
f 821/7/1 822/1/1 823/4/1 824/8/1
f 825/1/1 826/2/1 827/3/1 828/4/1
f 829/7/1 830/1/1 831/4/1 832/8/1
f 833/7/1 834/1/1 835/4/1 836/8/1
f 837/2/1 838/5/1 839/6/1 840/3/1
f 841/2/1 842/5/1 843/6/1 844/3/1
f 845/2/1 846/5/1 847/6/1 848/3/1
f 849/2/1 850/5/1 851/6/1 852/3/1
f 853/1/1 854/2/1 855/3/1 856/4/1
f 857/7/1 858/1/1 859/4/1 860/8/1
f 861/2/1 862/5/1 863/6/1 864/3/1
f 865/2/1 866/5/1 867/6/1 868/3/1
f 869/1/1 870/2/1 871/3/1 872/4/1
f 873/1/1 874/2/1 875/3/1 876/4/1
f 877/2/1 878/5/1 879/6/1 880/3/1
f 881/7/1 882/1/1 883/4/1 884/8/1
f 885/1/1 886/2/1 887/3/1 888/4/1
f 889/7/1 890/1/1 891/4/1 892/8/1
f 893/2/1 894/5/1 895/6/1 896/3/1
f 897/2/1 898/5/1 899/6/1 900/3/1
f 901/2/1 902/5/1 903/6/1 904/3/1
f 905/2/1 906/5/1 907/6/1 908/3/1
f 909/1/1 910/2/1 911/3/1 912/4/1
f 913/2/1 914/5/1 915/6/1 916/3/1
f 917/1/1 918/2/1 919/3/1 920/4/1
f 921/7/1 922/1/1 923/4/1 924/8/1
f 925/2/1 926/5/1 927/6/1 928/3/1
f 929/1/1 930/2/1 931/3/1 932/4/1
f 933/2/1 934/5/1 935/6/1 936/3/1
f 937/7/1 938/1/1 939/4/1 940/8/1
f 941/1/1 942/2/1 943/3/1 944/4/1
f 945/1/1 946/2/1 947/3/1 948/4/1
f 949/1/1 950/2/1 951/3/1 952/4/1
f 953/1/1 954/2/1 955/3/1 956/4/1
f 957/1/1 958/2/1 959/3/1 960/4/1
f 961/7/1 962/1/1 963/4/1 964/8/1
f 965/7/1 966/1/1 967/4/1 968/8/1
f 969/7/1 970/1/1 971/4/1 972/8/1
f 973/1/1 974/2/1 975/3/1 976/4/1
f 977/2/1 978/5/1 979/6/1 980/3/1
f 981/7/1 982/1/1 983/4/1 984/8/1
f 985/1/1 986/2/1 987/3/1 988/4/1
f 989/1/1 990/2/1 991/3/1 992/4/1
f 993/1/1 994/2/1 995/3/1 996/4/1
f 997/2/1 998/5/1 999/6/1 1000/3/1
f 1001/2/1 1002/5/1 1003/6/1 1004/3/1
f 1005/1/1 1006/2/1 1007/3/1 1008/4/1
f 1009/1/1 1010/2/1 1011/3/1 1012/4/1
f 1013/7/1 1014/1/1 1015/4/1 1016/8/1
f 1017/1/1 1018/2/1 1019/3/1 1020/4/1
f 1021/1/1 1022/2/1 1023/3/1 1024/4/1

