# Tiled2Unity generated file. Do not modify by hand.
# Wavefront file for 'testmap1_mesh_0454.obj'

# Vertices (Count = 1024)
v 0 -1 0
v -1 -1 0
v -1 0 0
v 0 0 0
v -1 -1 0
v -2 -1 0
v -2 0 0
v -1 0 0
v -2 -1 0
v -3 -1 0
v -3 0 0
v -2 0 0
v -3 -1 0
v -4 -1 0
v -4 0 0
v -3 0 0
v -4 -1 0
v -5 -1 0
v -5 0 0
v -4 0 0
v -5 -1 0
v -6 -1 0
v -6 0 0
v -5 0 0
v -6 -1 0
v -7 -1 0
v -7 0 0
v -6 0 0
v -7 -1 0
v -8 -1 0
v -8 0 0
v -7 0 0
v -8 -1 0
v -9 -1 0
v -9 0 0
v -8 0 0
v -9 -1 0
v -10 -1 0
v -10 0 0
v -9 0 0
v -10 -1 0
v -11 -1 0
v -11 0 0
v -10 0 0
v -11 -1 0
v -12 -1 0
v -12 0 0
v -11 0 0
v -12 -1 0
v -13 -1 0
v -13 0 0
v -12 0 0
v -13 -1 0
v -14 -1 0
v -14 0 0
v -13 0 0
v -14 -1 0
v -15 -1 0
v -15 0 0
v -14 0 0
v -15 -1 0
v -16 -1 0
v -16 0 0
v -15 0 0
v 0 -2 0
v -1 -2 0
v -1 -1 0
v 0 -1 0
v -1 -2 0
v -2 -2 0
v -2 -1 0
v -1 -1 0
v -2 -2 0
v -3 -2 0
v -3 -1 0
v -2 -1 0
v -3 -2 0
v -4 -2 0
v -4 -1 0
v -3 -1 0
v -4 -2 0
v -5 -2 0
v -5 -1 0
v -4 -1 0
v -5 -2 0
v -6 -2 0
v -6 -1 0
v -5 -1 0
v -6 -2 0
v -7 -2 0
v -7 -1 0
v -6 -1 0
v -7 -2 0
v -8 -2 0
v -8 -1 0
v -7 -1 0
v -8 -2 0
v -9 -2 0
v -9 -1 0
v -8 -1 0
v -9 -2 0
v -10 -2 0
v -10 -1 0
v -9 -1 0
v -10 -2 0
v -11 -2 0
v -11 -1 0
v -10 -1 0
v -11 -2 0
v -12 -2 0
v -12 -1 0
v -11 -1 0
v -12 -2 0
v -13 -2 0
v -13 -1 0
v -12 -1 0
v -13 -2 0
v -14 -2 0
v -14 -1 0
v -13 -1 0
v -14 -2 0
v -15 -2 0
v -15 -1 0
v -14 -1 0
v -15 -2 0
v -16 -2 0
v -16 -1 0
v -15 -1 0
v 0 -3 0
v -1 -3 0
v -1 -2 0
v 0 -2 0
v -1 -3 0
v -2 -3 0
v -2 -2 0
v -1 -2 0
v -2 -3 0
v -3 -3 0
v -3 -2 0
v -2 -2 0
v -3 -3 0
v -4 -3 0
v -4 -2 0
v -3 -2 0
v -4 -3 0
v -5 -3 0
v -5 -2 0
v -4 -2 0
v -5 -3 0
v -6 -3 0
v -6 -2 0
v -5 -2 0
v -6 -3 0
v -7 -3 0
v -7 -2 0
v -6 -2 0
v -7 -3 0
v -8 -3 0
v -8 -2 0
v -7 -2 0
v -8 -3 0
v -9 -3 0
v -9 -2 0
v -8 -2 0
v -9 -3 0
v -10 -3 0
v -10 -2 0
v -9 -2 0
v -10 -3 0
v -11 -3 0
v -11 -2 0
v -10 -2 0
v -11 -3 0
v -12 -3 0
v -12 -2 0
v -11 -2 0
v -12 -3 0
v -13 -3 0
v -13 -2 0
v -12 -2 0
v -13 -3 0
v -14 -3 0
v -14 -2 0
v -13 -2 0
v -14 -3 0
v -15 -3 0
v -15 -2 0
v -14 -2 0
v -15 -3 0
v -16 -3 0
v -16 -2 0
v -15 -2 0
v 0 -4 0
v -1 -4 0
v -1 -3 0
v 0 -3 0
v -1 -4 0
v -2 -4 0
v -2 -3 0
v -1 -3 0
v -2 -4 0
v -3 -4 0
v -3 -3 0
v -2 -3 0
v -3 -4 0
v -4 -4 0
v -4 -3 0
v -3 -3 0
v -4 -4 0
v -5 -4 0
v -5 -3 0
v -4 -3 0
v -5 -4 0
v -6 -4 0
v -6 -3 0
v -5 -3 0
v -6 -4 0
v -7 -4 0
v -7 -3 0
v -6 -3 0
v -7 -4 0
v -8 -4 0
v -8 -3 0
v -7 -3 0
v -8 -4 0
v -9 -4 0
v -9 -3 0
v -8 -3 0
v -9 -4 0
v -10 -4 0
v -10 -3 0
v -9 -3 0
v -10 -4 0
v -11 -4 0
v -11 -3 0
v -10 -3 0
v -11 -4 0
v -12 -4 0
v -12 -3 0
v -11 -3 0
v -12 -4 0
v -13 -4 0
v -13 -3 0
v -12 -3 0
v -13 -4 0
v -14 -4 0
v -14 -3 0
v -13 -3 0
v -14 -4 0
v -15 -4 0
v -15 -3 0
v -14 -3 0
v -15 -4 0
v -16 -4 0
v -16 -3 0
v -15 -3 0
v 0 -5 0
v -1 -5 0
v -1 -4 0
v 0 -4 0
v -1 -5 0
v -2 -5 0
v -2 -4 0
v -1 -4 0
v -2 -5 0
v -3 -5 0
v -3 -4 0
v -2 -4 0
v -3 -5 0
v -4 -5 0
v -4 -4 0
v -3 -4 0
v -4 -5 0
v -5 -5 0
v -5 -4 0
v -4 -4 0
v -5 -5 0
v -6 -5 0
v -6 -4 0
v -5 -4 0
v -6 -5 0
v -7 -5 0
v -7 -4 0
v -6 -4 0
v -7 -5 0
v -8 -5 0
v -8 -4 0
v -7 -4 0
v -8 -5 0
v -9 -5 0
v -9 -4 0
v -8 -4 0
v -9 -5 0
v -10 -5 0
v -10 -4 0
v -9 -4 0
v -10 -5 0
v -11 -5 0
v -11 -4 0
v -10 -4 0
v -11 -5 0
v -12 -5 0
v -12 -4 0
v -11 -4 0
v -12 -5 0
v -13 -5 0
v -13 -4 0
v -12 -4 0
v -13 -5 0
v -14 -5 0
v -14 -4 0
v -13 -4 0
v -14 -5 0
v -15 -5 0
v -15 -4 0
v -14 -4 0
v -15 -5 0
v -16 -5 0
v -16 -4 0
v -15 -4 0
v 0 -6 0
v -1 -6 0
v -1 -5 0
v 0 -5 0
v -1 -6 0
v -2 -6 0
v -2 -5 0
v -1 -5 0
v -2 -6 0
v -3 -6 0
v -3 -5 0
v -2 -5 0
v -3 -6 0
v -4 -6 0
v -4 -5 0
v -3 -5 0
v -4 -6 0
v -5 -6 0
v -5 -5 0
v -4 -5 0
v -5 -6 0
v -6 -6 0
v -6 -5 0
v -5 -5 0
v -6 -6 0
v -7 -6 0
v -7 -5 0
v -6 -5 0
v -7 -6 0
v -8 -6 0
v -8 -5 0
v -7 -5 0
v -8 -6 0
v -9 -6 0
v -9 -5 0
v -8 -5 0
v -9 -6 0
v -10 -6 0
v -10 -5 0
v -9 -5 0
v -10 -6 0
v -11 -6 0
v -11 -5 0
v -10 -5 0
v -11 -6 0
v -12 -6 0
v -12 -5 0
v -11 -5 0
v -12 -6 0
v -13 -6 0
v -13 -5 0
v -12 -5 0
v -13 -6 0
v -14 -6 0
v -14 -5 0
v -13 -5 0
v -14 -6 0
v -15 -6 0
v -15 -5 0
v -14 -5 0
v -15 -6 0
v -16 -6 0
v -16 -5 0
v -15 -5 0
v 0 -7 0
v -1 -7 0
v -1 -6 0
v 0 -6 0
v -1 -7 0
v -2 -7 0
v -2 -6 0
v -1 -6 0
v -2 -7 0
v -3 -7 0
v -3 -6 0
v -2 -6 0
v -3 -7 0
v -4 -7 0
v -4 -6 0
v -3 -6 0
v -4 -7 0
v -5 -7 0
v -5 -6 0
v -4 -6 0
v -5 -7 0
v -6 -7 0
v -6 -6 0
v -5 -6 0
v -6 -7 0
v -7 -7 0
v -7 -6 0
v -6 -6 0
v -7 -7 0
v -8 -7 0
v -8 -6 0
v -7 -6 0
v -8 -7 0
v -9 -7 0
v -9 -6 0
v -8 -6 0
v -9 -7 0
v -10 -7 0
v -10 -6 0
v -9 -6 0
v -10 -7 0
v -11 -7 0
v -11 -6 0
v -10 -6 0
v -11 -7 0
v -12 -7 0
v -12 -6 0
v -11 -6 0
v -12 -7 0
v -13 -7 0
v -13 -6 0
v -12 -6 0
v -13 -7 0
v -14 -7 0
v -14 -6 0
v -13 -6 0
v -14 -7 0
v -15 -7 0
v -15 -6 0
v -14 -6 0
v -15 -7 0
v -16 -7 0
v -16 -6 0
v -15 -6 0
v 0 -8 0
v -1 -8 0
v -1 -7 0
v 0 -7 0
v -1 -8 0
v -2 -8 0
v -2 -7 0
v -1 -7 0
v -2 -8 0
v -3 -8 0
v -3 -7 0
v -2 -7 0
v -3 -8 0
v -4 -8 0
v -4 -7 0
v -3 -7 0
v -4 -8 0
v -5 -8 0
v -5 -7 0
v -4 -7 0
v -5 -8 0
v -6 -8 0
v -6 -7 0
v -5 -7 0
v -6 -8 0
v -7 -8 0
v -7 -7 0
v -6 -7 0
v -7 -8 0
v -8 -8 0
v -8 -7 0
v -7 -7 0
v -8 -8 0
v -9 -8 0
v -9 -7 0
v -8 -7 0
v -9 -8 0
v -10 -8 0
v -10 -7 0
v -9 -7 0
v -10 -8 0
v -11 -8 0
v -11 -7 0
v -10 -7 0
v -11 -8 0
v -12 -8 0
v -12 -7 0
v -11 -7 0
v -12 -8 0
v -13 -8 0
v -13 -7 0
v -12 -7 0
v -13 -8 0
v -14 -8 0
v -14 -7 0
v -13 -7 0
v -14 -8 0
v -15 -8 0
v -15 -7 0
v -14 -7 0
v -15 -8 0
v -16 -8 0
v -16 -7 0
v -15 -7 0
v 0 -9 0
v -1 -9 0
v -1 -8 0
v 0 -8 0
v -1 -9 0
v -2 -9 0
v -2 -8 0
v -1 -8 0
v -2 -9 0
v -3 -9 0
v -3 -8 0
v -2 -8 0
v -3 -9 0
v -4 -9 0
v -4 -8 0
v -3 -8 0
v -4 -9 0
v -5 -9 0
v -5 -8 0
v -4 -8 0
v -5 -9 0
v -6 -9 0
v -6 -8 0
v -5 -8 0
v -6 -9 0
v -7 -9 0
v -7 -8 0
v -6 -8 0
v -7 -9 0
v -8 -9 0
v -8 -8 0
v -7 -8 0
v -8 -9 0
v -9 -9 0
v -9 -8 0
v -8 -8 0
v -9 -9 0
v -10 -9 0
v -10 -8 0
v -9 -8 0
v -10 -9 0
v -11 -9 0
v -11 -8 0
v -10 -8 0
v -11 -9 0
v -12 -9 0
v -12 -8 0
v -11 -8 0
v -12 -9 0
v -13 -9 0
v -13 -8 0
v -12 -8 0
v -13 -9 0
v -14 -9 0
v -14 -8 0
v -13 -8 0
v -14 -9 0
v -15 -9 0
v -15 -8 0
v -14 -8 0
v -15 -9 0
v -16 -9 0
v -16 -8 0
v -15 -8 0
v 0 -10 0
v -1 -10 0
v -1 -9 0
v 0 -9 0
v -1 -10 0
v -2 -10 0
v -2 -9 0
v -1 -9 0
v -2 -10 0
v -3 -10 0
v -3 -9 0
v -2 -9 0
v -3 -10 0
v -4 -10 0
v -4 -9 0
v -3 -9 0
v -4 -10 0
v -5 -10 0
v -5 -9 0
v -4 -9 0
v -5 -10 0
v -6 -10 0
v -6 -9 0
v -5 -9 0
v -6 -10 0
v -7 -10 0
v -7 -9 0
v -6 -9 0
v -7 -10 0
v -8 -10 0
v -8 -9 0
v -7 -9 0
v -8 -10 0
v -9 -10 0
v -9 -9 0
v -8 -9 0
v -9 -10 0
v -10 -10 0
v -10 -9 0
v -9 -9 0
v -10 -10 0
v -11 -10 0
v -11 -9 0
v -10 -9 0
v -11 -10 0
v -12 -10 0
v -12 -9 0
v -11 -9 0
v -12 -10 0
v -13 -10 0
v -13 -9 0
v -12 -9 0
v -13 -10 0
v -14 -10 0
v -14 -9 0
v -13 -9 0
v -14 -10 0
v -15 -10 0
v -15 -9 0
v -14 -9 0
v -15 -10 0
v -16 -10 0
v -16 -9 0
v -15 -9 0
v 0 -11 0
v -1 -11 0
v -1 -10 0
v 0 -10 0
v -1 -11 0
v -2 -11 0
v -2 -10 0
v -1 -10 0
v -2 -11 0
v -3 -11 0
v -3 -10 0
v -2 -10 0
v -3 -11 0
v -4 -11 0
v -4 -10 0
v -3 -10 0
v -4 -11 0
v -5 -11 0
v -5 -10 0
v -4 -10 0
v -5 -11 0
v -6 -11 0
v -6 -10 0
v -5 -10 0
v -6 -11 0
v -7 -11 0
v -7 -10 0
v -6 -10 0
v -7 -11 0
v -8 -11 0
v -8 -10 0
v -7 -10 0
v -8 -11 0
v -9 -11 0
v -9 -10 0
v -8 -10 0
v -9 -11 0
v -10 -11 0
v -10 -10 0
v -9 -10 0
v -10 -11 0
v -11 -11 0
v -11 -10 0
v -10 -10 0
v -11 -11 0
v -12 -11 0
v -12 -10 0
v -11 -10 0
v -12 -11 0
v -13 -11 0
v -13 -10 0
v -12 -10 0
v -13 -11 0
v -14 -11 0
v -14 -10 0
v -13 -10 0
v -14 -11 0
v -15 -11 0
v -15 -10 0
v -14 -10 0
v -15 -11 0
v -16 -11 0
v -16 -10 0
v -15 -10 0
v 0 -12 0
v -1 -12 0
v -1 -11 0
v 0 -11 0
v -1 -12 0
v -2 -12 0
v -2 -11 0
v -1 -11 0
v -2 -12 0
v -3 -12 0
v -3 -11 0
v -2 -11 0
v -3 -12 0
v -4 -12 0
v -4 -11 0
v -3 -11 0
v -4 -12 0
v -5 -12 0
v -5 -11 0
v -4 -11 0
v -5 -12 0
v -6 -12 0
v -6 -11 0
v -5 -11 0
v -6 -12 0
v -7 -12 0
v -7 -11 0
v -6 -11 0
v -7 -12 0
v -8 -12 0
v -8 -11 0
v -7 -11 0
v -8 -12 0
v -9 -12 0
v -9 -11 0
v -8 -11 0
v -9 -12 0
v -10 -12 0
v -10 -11 0
v -9 -11 0
v -10 -12 0
v -11 -12 0
v -11 -11 0
v -10 -11 0
v -11 -12 0
v -12 -12 0
v -12 -11 0
v -11 -11 0
v -12 -12 0
v -13 -12 0
v -13 -11 0
v -12 -11 0
v -13 -12 0
v -14 -12 0
v -14 -11 0
v -13 -11 0
v -14 -12 0
v -15 -12 0
v -15 -11 0
v -14 -11 0
v -15 -12 0
v -16 -12 0
v -16 -11 0
v -15 -11 0
v 0 -13 0
v -1 -13 0
v -1 -12 0
v 0 -12 0
v -1 -13 0
v -2 -13 0
v -2 -12 0
v -1 -12 0
v -2 -13 0
v -3 -13 0
v -3 -12 0
v -2 -12 0
v -3 -13 0
v -4 -13 0
v -4 -12 0
v -3 -12 0
v -4 -13 0
v -5 -13 0
v -5 -12 0
v -4 -12 0
v -5 -13 0
v -6 -13 0
v -6 -12 0
v -5 -12 0
v -6 -13 0
v -7 -13 0
v -7 -12 0
v -6 -12 0
v -7 -13 0
v -8 -13 0
v -8 -12 0
v -7 -12 0
v -8 -13 0
v -9 -13 0
v -9 -12 0
v -8 -12 0
v -9 -13 0
v -10 -13 0
v -10 -12 0
v -9 -12 0
v -10 -13 0
v -11 -13 0
v -11 -12 0
v -10 -12 0
v -11 -13 0
v -12 -13 0
v -12 -12 0
v -11 -12 0
v -12 -13 0
v -13 -13 0
v -13 -12 0
v -12 -12 0
v -13 -13 0
v -14 -13 0
v -14 -12 0
v -13 -12 0
v -14 -13 0
v -15 -13 0
v -15 -12 0
v -14 -12 0
v -15 -13 0
v -16 -13 0
v -16 -12 0
v -15 -12 0
v 0 -14 0
v -1 -14 0
v -1 -13 0
v 0 -13 0
v -1 -14 0
v -2 -14 0
v -2 -13 0
v -1 -13 0
v -2 -14 0
v -3 -14 0
v -3 -13 0
v -2 -13 0
v -3 -14 0
v -4 -14 0
v -4 -13 0
v -3 -13 0
v -4 -14 0
v -5 -14 0
v -5 -13 0
v -4 -13 0
v -5 -14 0
v -6 -14 0
v -6 -13 0
v -5 -13 0
v -6 -14 0
v -7 -14 0
v -7 -13 0
v -6 -13 0
v -7 -14 0
v -8 -14 0
v -8 -13 0
v -7 -13 0
v -8 -14 0
v -9 -14 0
v -9 -13 0
v -8 -13 0
v -9 -14 0
v -10 -14 0
v -10 -13 0
v -9 -13 0
v -10 -14 0
v -11 -14 0
v -11 -13 0
v -10 -13 0
v -11 -14 0
v -12 -14 0
v -12 -13 0
v -11 -13 0
v -12 -14 0
v -13 -14 0
v -13 -13 0
v -12 -13 0
v -13 -14 0
v -14 -14 0
v -14 -13 0
v -13 -13 0
v -14 -14 0
v -15 -14 0
v -15 -13 0
v -14 -13 0
v -15 -14 0
v -16 -14 0
v -16 -13 0
v -15 -13 0
v 0 -15 0
v -1 -15 0
v -1 -14 0
v 0 -14 0
v -1 -15 0
v -2 -15 0
v -2 -14 0
v -1 -14 0
v -2 -15 0
v -3 -15 0
v -3 -14 0
v -2 -14 0
v -3 -15 0
v -4 -15 0
v -4 -14 0
v -3 -14 0
v -4 -15 0
v -5 -15 0
v -5 -14 0
v -4 -14 0
v -5 -15 0
v -6 -15 0
v -6 -14 0
v -5 -14 0
v -6 -15 0
v -7 -15 0
v -7 -14 0
v -6 -14 0
v -7 -15 0
v -8 -15 0
v -8 -14 0
v -7 -14 0
v -8 -15 0
v -9 -15 0
v -9 -14 0
v -8 -14 0
v -9 -15 0
v -10 -15 0
v -10 -14 0
v -9 -14 0
v -10 -15 0
v -11 -15 0
v -11 -14 0
v -10 -14 0
v -11 -15 0
v -12 -15 0
v -12 -14 0
v -11 -14 0
v -12 -15 0
v -13 -15 0
v -13 -14 0
v -12 -14 0
v -13 -15 0
v -14 -15 0
v -14 -14 0
v -13 -14 0
v -14 -15 0
v -15 -15 0
v -15 -14 0
v -14 -14 0
v -15 -15 0
v -16 -15 0
v -16 -14 0
v -15 -14 0
v 0 -16 0
v -1 -16 0
v -1 -15 0
v 0 -15 0
v -1 -16 0
v -2 -16 0
v -2 -15 0
v -1 -15 0
v -2 -16 0
v -3 -16 0
v -3 -15 0
v -2 -15 0
v -3 -16 0
v -4 -16 0
v -4 -15 0
v -3 -15 0
v -4 -16 0
v -5 -16 0
v -5 -15 0
v -4 -15 0
v -5 -16 0
v -6 -16 0
v -6 -15 0
v -5 -15 0
v -6 -16 0
v -7 -16 0
v -7 -15 0
v -6 -15 0
v -7 -16 0
v -8 -16 0
v -8 -15 0
v -7 -15 0
v -8 -16 0
v -9 -16 0
v -9 -15 0
v -8 -15 0
v -9 -16 0
v -10 -16 0
v -10 -15 0
v -9 -15 0
v -10 -16 0
v -11 -16 0
v -11 -15 0
v -10 -15 0
v -11 -16 0
v -12 -16 0
v -12 -15 0
v -11 -15 0
v -12 -16 0
v -13 -16 0
v -13 -15 0
v -12 -15 0
v -13 -16 0
v -14 -16 0
v -14 -15 0
v -13 -15 0
v -14 -16 0
v -15 -16 0
v -15 -15 0
v -14 -15 0
v -15 -16 0
v -16 -16 0
v -16 -15 0
v -15 -15 0

# Texture cooridinates (Count = 8)
vt 0.6875 0.8125
vt 0.71875 0.8125
vt 0.71875 0.84375
vt 0.6875 0.84375
vt 0.65625 0.8125
vt 0.65625 0.84375
vt 0.75 0.8125
vt 0.75 0.84375

# Normal
vn 0 0 -1

# Mesh description
g testmap1_mesh_0454

# Faces
f 1/1/1 2/2/1 3/3/1 4/4/1
f 5/1/1 6/2/1 7/3/1 8/4/1
f 9/1/1 10/2/1 11/3/1 12/4/1
f 13/5/1 14/1/1 15/4/1 16/6/1
f 17/1/1 18/2/1 19/3/1 20/4/1
f 21/2/1 22/7/1 23/8/1 24/3/1
f 25/2/1 26/7/1 27/8/1 28/3/1
f 29/1/1 30/2/1 31/3/1 32/4/1
f 33/2/1 34/7/1 35/8/1 36/3/1
f 37/5/1 38/1/1 39/4/1 40/6/1
f 41/2/1 42/7/1 43/8/1 44/3/1
f 45/2/1 46/7/1 47/8/1 48/3/1
f 49/2/1 50/7/1 51/8/1 52/3/1
f 53/1/1 54/2/1 55/3/1 56/4/1
f 57/1/1 58/2/1 59/3/1 60/4/1
f 61/5/1 62/1/1 63/4/1 64/6/1
f 65/5/1 66/1/1 67/4/1 68/6/1
f 69/5/1 70/1/1 71/4/1 72/6/1
f 73/5/1 74/1/1 75/4/1 76/6/1
f 77/2/1 78/7/1 79/8/1 80/3/1
f 81/2/1 82/7/1 83/8/1 84/3/1
f 85/1/1 86/2/1 87/3/1 88/4/1
f 89/5/1 90/1/1 91/4/1 92/6/1
f 93/1/1 94/2/1 95/3/1 96/4/1
f 97/5/1 98/1/1 99/4/1 100/6/1
f 101/1/1 102/2/1 103/3/1 104/4/1
f 105/5/1 106/1/1 107/4/1 108/6/1
f 109/1/1 110/2/1 111/3/1 112/4/1
f 113/5/1 114/1/1 115/4/1 116/6/1
f 117/2/1 118/7/1 119/8/1 120/3/1
f 121/1/1 122/2/1 123/3/1 124/4/1
f 125/2/1 126/7/1 127/8/1 128/3/1
f 129/1/1 130/2/1 131/3/1 132/4/1
f 133/5/1 134/1/1 135/4/1 136/6/1
f 137/5/1 138/1/1 139/4/1 140/6/1
f 141/1/1 142/2/1 143/3/1 144/4/1
f 145/5/1 146/1/1 147/4/1 148/6/1
f 149/2/1 150/7/1 151/8/1 152/3/1
f 153/5/1 154/1/1 155/4/1 156/6/1
f 157/5/1 158/1/1 159/4/1 160/6/1
f 161/2/1 162/7/1 163/8/1 164/3/1
f 165/5/1 166/1/1 167/4/1 168/6/1
f 169/5/1 170/1/1 171/4/1 172/6/1
f 173/2/1 174/7/1 175/8/1 176/3/1
f 177/2/1 178/7/1 179/8/1 180/3/1
f 181/2/1 182/7/1 183/8/1 184/3/1
f 185/2/1 186/7/1 187/8/1 188/3/1
f 189/1/1 190/2/1 191/3/1 192/4/1
f 193/2/1 194/7/1 195/8/1 196/3/1
f 197/2/1 198/7/1 199/8/1 200/3/1
f 201/1/1 202/2/1 203/3/1 204/4/1
f 205/2/1 206/7/1 207/8/1 208/3/1
f 209/5/1 210/1/1 211/4/1 212/6/1
f 213/5/1 214/1/1 215/4/1 216/6/1
f 217/5/1 218/1/1 219/4/1 220/6/1
f 221/1/1 222/2/1 223/3/1 224/4/1
f 225/1/1 226/2/1 227/3/1 228/4/1
f 229/2/1 230/7/1 231/8/1 232/3/1
f 233/2/1 234/7/1 235/8/1 236/3/1
f 237/1/1 238/2/1 239/3/1 240/4/1
f 241/2/1 242/7/1 243/8/1 244/3/1
f 245/1/1 246/2/1 247/3/1 248/4/1
f 249/2/1 250/7/1 251/8/1 252/3/1
f 253/5/1 254/1/1 255/4/1 256/6/1
f 257/2/1 258/7/1 259/8/1 260/3/1
f 261/1/1 262/2/1 263/3/1 264/4/1
f 265/5/1 266/1/1 267/4/1 268/6/1
f 269/2/1 270/7/1 271/8/1 272/3/1
f 273/2/1 274/7/1 275/8/1 276/3/1
f 277/1/1 278/2/1 279/3/1 280/4/1
f 281/1/1 282/2/1 283/3/1 284/4/1
f 285/5/1 286/1/1 287/4/1 288/6/1
f 289/1/1 290/2/1 291/3/1 292/4/1
f 293/2/1 294/7/1 295/8/1 296/3/1
f 297/2/1 298/7/1 299/8/1 300/3/1
f 301/5/1 302/1/1 303/4/1 304/6/1
f 305/2/1 306/7/1 307/8/1 308/3/1
f 309/5/1 310/1/1 311/4/1 312/6/1
f 313/5/1 314/1/1 315/4/1 316/6/1
f 317/5/1 318/1/1 319/4/1 320/6/1
f 321/2/1 322/7/1 323/8/1 324/3/1
f 325/1/1 326/2/1 327/3/1 328/4/1
f 329/1/1 330/2/1 331/3/1 332/4/1
f 333/5/1 334/1/1 335/4/1 336/6/1
f 337/5/1 338/1/1 339/4/1 340/6/1
f 341/1/1 342/2/1 343/3/1 344/4/1
f 345/2/1 346/7/1 347/8/1 348/3/1
f 349/1/1 350/2/1 351/3/1 352/4/1
f 353/2/1 354/7/1 355/8/1 356/3/1
f 357/5/1 358/1/1 359/4/1 360/6/1
f 361/1/1 362/2/1 363/3/1 364/4/1
f 365/1/1 366/2/1 367/3/1 368/4/1
f 369/5/1 370/1/1 371/4/1 372/6/1
f 373/5/1 374/1/1 375/4/1 376/6/1
f 377/2/1 378/7/1 379/8/1 380/3/1
f 381/5/1 382/1/1 383/4/1 384/6/1
f 385/5/1 386/1/1 387/4/1 388/6/1
f 389/1/1 390/2/1 391/3/1 392/4/1
f 393/5/1 394/1/1 395/4/1 396/6/1
f 397/5/1 398/1/1 399/4/1 400/6/1
f 401/2/1 402/7/1 403/8/1 404/3/1
f 405/1/1 406/2/1 407/3/1 408/4/1
f 409/1/1 410/2/1 411/3/1 412/4/1
f 413/2/1 414/7/1 415/8/1 416/3/1
f 417/2/1 418/7/1 419/8/1 420/3/1
f 421/5/1 422/1/1 423/4/1 424/6/1
f 425/2/1 426/7/1 427/8/1 428/3/1
f 429/2/1 430/7/1 431/8/1 432/3/1
f 433/2/1 434/7/1 435/8/1 436/3/1
f 437/1/1 438/2/1 439/3/1 440/4/1
f 441/1/1 442/2/1 443/3/1 444/4/1
f 445/2/1 446/7/1 447/8/1 448/3/1
f 449/5/1 450/1/1 451/4/1 452/6/1
f 453/5/1 454/1/1 455/4/1 456/6/1
f 457/5/1 458/1/1 459/4/1 460/6/1
f 461/5/1 462/1/1 463/4/1 464/6/1
f 465/1/1 466/2/1 467/3/1 468/4/1
f 469/1/1 470/2/1 471/3/1 472/4/1
f 473/1/1 474/2/1 475/3/1 476/4/1
f 477/1/1 478/2/1 479/3/1 480/4/1
f 481/5/1 482/1/1 483/4/1 484/6/1
f 485/2/1 486/7/1 487/8/1 488/3/1
f 489/5/1 490/1/1 491/4/1 492/6/1
f 493/1/1 494/2/1 495/3/1 496/4/1
f 497/5/1 498/1/1 499/4/1 500/6/1
f 501/2/1 502/7/1 503/8/1 504/3/1
f 505/1/1 506/2/1 507/3/1 508/4/1
f 509/5/1 510/1/1 511/4/1 512/6/1
f 513/5/1 514/1/1 515/4/1 516/6/1
f 517/1/1 518/2/1 519/3/1 520/4/1
f 521/1/1 522/2/1 523/3/1 524/4/1
f 525/1/1 526/2/1 527/3/1 528/4/1
f 529/5/1 530/1/1 531/4/1 532/6/1
f 533/2/1 534/7/1 535/8/1 536/3/1
f 537/1/1 538/2/1 539/3/1 540/4/1
f 541/2/1 542/7/1 543/8/1 544/3/1
f 545/2/1 546/7/1 547/8/1 548/3/1
f 549/2/1 550/7/1 551/8/1 552/3/1
f 553/5/1 554/1/1 555/4/1 556/6/1
f 557/2/1 558/7/1 559/8/1 560/3/1
f 561/2/1 562/7/1 563/8/1 564/3/1
f 565/2/1 566/7/1 567/8/1 568/3/1
f 569/1/1 570/2/1 571/3/1 572/4/1
f 573/2/1 574/7/1 575/8/1 576/3/1
f 577/1/1 578/2/1 579/3/1 580/4/1
f 581/1/1 582/2/1 583/3/1 584/4/1
f 585/2/1 586/7/1 587/8/1 588/3/1
f 589/1/1 590/2/1 591/3/1 592/4/1
f 593/1/1 594/2/1 595/3/1 596/4/1
f 597/5/1 598/1/1 599/4/1 600/6/1
f 601/2/1 602/7/1 603/8/1 604/3/1
f 605/2/1 606/7/1 607/8/1 608/3/1
f 609/2/1 610/7/1 611/8/1 612/3/1
f 613/2/1 614/7/1 615/8/1 616/3/1
f 617/1/1 618/2/1 619/3/1 620/4/1
f 621/5/1 622/1/1 623/4/1 624/6/1
f 625/5/1 626/1/1 627/4/1 628/6/1
f 629/2/1 630/7/1 631/8/1 632/3/1
f 633/1/1 634/2/1 635/3/1 636/4/1
f 637/1/1 638/2/1 639/3/1 640/4/1
f 641/1/1 642/2/1 643/3/1 644/4/1
f 645/1/1 646/2/1 647/3/1 648/4/1
f 649/2/1 650/7/1 651/8/1 652/3/1
f 653/5/1 654/1/1 655/4/1 656/6/1
f 657/2/1 658/7/1 659/8/1 660/3/1
f 661/1/1 662/2/1 663/3/1 664/4/1
f 665/5/1 666/1/1 667/4/1 668/6/1
f 669/1/1 670/2/1 671/3/1 672/4/1
f 673/1/1 674/2/1 675/3/1 676/4/1
f 677/2/1 678/7/1 679/8/1 680/3/1
f 681/5/1 682/1/1 683/4/1 684/6/1
f 685/5/1 686/1/1 687/4/1 688/6/1
f 689/5/1 690/1/1 691/4/1 692/6/1
f 693/1/1 694/2/1 695/3/1 696/4/1
f 697/2/1 698/7/1 699/8/1 700/3/1
f 701/1/1 702/2/1 703/3/1 704/4/1
f 705/2/1 706/7/1 707/8/1 708/3/1
f 709/5/1 710/1/1 711/4/1 712/6/1
f 713/5/1 714/1/1 715/4/1 716/6/1
f 717/5/1 718/1/1 719/4/1 720/6/1
f 721/1/1 722/2/1 723/3/1 724/4/1
f 725/5/1 726/1/1 727/4/1 728/6/1
f 729/5/1 730/1/1 731/4/1 732/6/1
f 733/5/1 734/1/1 735/4/1 736/6/1
f 737/1/1 738/2/1 739/3/1 740/4/1
f 741/2/1 742/7/1 743/8/1 744/3/1
f 745/1/1 746/2/1 747/3/1 748/4/1
f 749/2/1 750/7/1 751/8/1 752/3/1
f 753/1/1 754/2/1 755/3/1 756/4/1
f 757/1/1 758/2/1 759/3/1 760/4/1
f 761/5/1 762/1/1 763/4/1 764/6/1
f 765/5/1 766/1/1 767/4/1 768/6/1
f 769/5/1 770/1/1 771/4/1 772/6/1
f 773/1/1 774/2/1 775/3/1 776/4/1
f 777/5/1 778/1/1 779/4/1 780/6/1
f 781/2/1 782/7/1 783/8/1 784/3/1
f 785/5/1 786/1/1 787/4/1 788/6/1
f 789/1/1 790/2/1 791/3/1 792/4/1
f 793/1/1 794/2/1 795/3/1 796/4/1
f 797/1/1 798/2/1 799/3/1 800/4/1
f 801/1/1 802/2/1 803/3/1 804/4/1
f 805/1/1 806/2/1 807/3/1 808/4/1
f 809/1/1 810/2/1 811/3/1 812/4/1
f 813/5/1 814/1/1 815/4/1 816/6/1
f 817/2/1 818/7/1 819/8/1 820/3/1
f 821/2/1 822/7/1 823/8/1 824/3/1
f 825/5/1 826/1/1 827/4/1 828/6/1
f 829/2/1 830/7/1 831/8/1 832/3/1
f 833/2/1 834/7/1 835/8/1 836/3/1
f 837/1/1 838/2/1 839/3/1 840/4/1
f 841/5/1 842/1/1 843/4/1 844/6/1
f 845/1/1 846/2/1 847/3/1 848/4/1
f 849/1/1 850/2/1 851/3/1 852/4/1
f 853/2/1 854/7/1 855/8/1 856/3/1
f 857/1/1 858/2/1 859/3/1 860/4/1
f 861/2/1 862/7/1 863/8/1 864/3/1
f 865/1/1 866/2/1 867/3/1 868/4/1
f 869/5/1 870/1/1 871/4/1 872/6/1
f 873/2/1 874/7/1 875/8/1 876/3/1
f 877/5/1 878/1/1 879/4/1 880/6/1
f 881/2/1 882/7/1 883/8/1 884/3/1
f 885/2/1 886/7/1 887/8/1 888/3/1
f 889/1/1 890/2/1 891/3/1 892/4/1
f 893/1/1 894/2/1 895/3/1 896/4/1
f 897/2/1 898/7/1 899/8/1 900/3/1
f 901/2/1 902/7/1 903/8/1 904/3/1
f 905/1/1 906/2/1 907/3/1 908/4/1
f 909/1/1 910/2/1 911/3/1 912/4/1
f 913/5/1 914/1/1 915/4/1 916/6/1
f 917/5/1 918/1/1 919/4/1 920/6/1
f 921/2/1 922/7/1 923/8/1 924/3/1
f 925/2/1 926/7/1 927/8/1 928/3/1
f 929/2/1 930/7/1 931/8/1 932/3/1
f 933/1/1 934/2/1 935/3/1 936/4/1
f 937/1/1 938/2/1 939/3/1 940/4/1
f 941/2/1 942/7/1 943/8/1 944/3/1
f 945/1/1 946/2/1 947/3/1 948/4/1
f 949/5/1 950/1/1 951/4/1 952/6/1
f 953/1/1 954/2/1 955/3/1 956/4/1
f 957/1/1 958/2/1 959/3/1 960/4/1
f 961/5/1 962/1/1 963/4/1 964/6/1
f 965/5/1 966/1/1 967/4/1 968/6/1
f 969/2/1 970/7/1 971/8/1 972/3/1
f 973/1/1 974/2/1 975/3/1 976/4/1
f 977/2/1 978/7/1 979/8/1 980/3/1
f 981/2/1 982/7/1 983/8/1 984/3/1
f 985/5/1 986/1/1 987/4/1 988/6/1
f 989/5/1 990/1/1 991/4/1 992/6/1
f 993/5/1 994/1/1 995/4/1 996/6/1
f 997/5/1 998/1/1 999/4/1 1000/6/1
f 1001/1/1 1002/2/1 1003/3/1 1004/4/1
f 1005/1/1 1006/2/1 1007/3/1 1008/4/1
f 1009/1/1 1010/2/1 1011/3/1 1012/4/1
f 1013/2/1 1014/7/1 1015/8/1 1016/3/1
f 1017/2/1 1018/7/1 1019/8/1 1020/3/1
f 1021/2/1 1022/7/1 1023/8/1 1024/3/1

