# Tiled2Unity generated file. Do not modify by hand.
# Wavefront file for 'testmap1_mesh_0513.obj'

# Vertices (Count = 1024)
v 0 -1 0
v -1 -1 0
v -1 0 0
v 0 0 0
v -1 -1 0
v -2 -1 0
v -2 0 0
v -1 0 0
v -2 -1 0
v -3 -1 0
v -3 0 0
v -2 0 0
v -3 -1 0
v -4 -1 0
v -4 0 0
v -3 0 0
v -4 -1 0
v -5 -1 0
v -5 0 0
v -4 0 0
v -5 -1 0
v -6 -1 0
v -6 0 0
v -5 0 0
v -6 -1 0
v -7 -1 0
v -7 0 0
v -6 0 0
v -7 -1 0
v -8 -1 0
v -8 0 0
v -7 0 0
v -8 -1 0
v -9 -1 0
v -9 0 0
v -8 0 0
v -9 -1 0
v -10 -1 0
v -10 0 0
v -9 0 0
v -10 -1 0
v -11 -1 0
v -11 0 0
v -10 0 0
v -11 -1 0
v -12 -1 0
v -12 0 0
v -11 0 0
v -12 -1 0
v -13 -1 0
v -13 0 0
v -12 0 0
v -13 -1 0
v -14 -1 0
v -14 0 0
v -13 0 0
v -14 -1 0
v -15 -1 0
v -15 0 0
v -14 0 0
v -15 -1 0
v -16 -1 0
v -16 0 0
v -15 0 0
v 0 -2 0
v -1 -2 0
v -1 -1 0
v 0 -1 0
v -1 -2 0
v -2 -2 0
v -2 -1 0
v -1 -1 0
v -2 -2 0
v -3 -2 0
v -3 -1 0
v -2 -1 0
v -3 -2 0
v -4 -2 0
v -4 -1 0
v -3 -1 0
v -4 -2 0
v -5 -2 0
v -5 -1 0
v -4 -1 0
v -5 -2 0
v -6 -2 0
v -6 -1 0
v -5 -1 0
v -6 -2 0
v -7 -2 0
v -7 -1 0
v -6 -1 0
v -7 -2 0
v -8 -2 0
v -8 -1 0
v -7 -1 0
v -8 -2 0
v -9 -2 0
v -9 -1 0
v -8 -1 0
v -9 -2 0
v -10 -2 0
v -10 -1 0
v -9 -1 0
v -10 -2 0
v -11 -2 0
v -11 -1 0
v -10 -1 0
v -11 -2 0
v -12 -2 0
v -12 -1 0
v -11 -1 0
v -12 -2 0
v -13 -2 0
v -13 -1 0
v -12 -1 0
v -13 -2 0
v -14 -2 0
v -14 -1 0
v -13 -1 0
v -14 -2 0
v -15 -2 0
v -15 -1 0
v -14 -1 0
v -15 -2 0
v -16 -2 0
v -16 -1 0
v -15 -1 0
v 0 -3 0
v -1 -3 0
v -1 -2 0
v 0 -2 0
v -1 -3 0
v -2 -3 0
v -2 -2 0
v -1 -2 0
v -2 -3 0
v -3 -3 0
v -3 -2 0
v -2 -2 0
v -3 -3 0
v -4 -3 0
v -4 -2 0
v -3 -2 0
v -4 -3 0
v -5 -3 0
v -5 -2 0
v -4 -2 0
v -5 -3 0
v -6 -3 0
v -6 -2 0
v -5 -2 0
v -6 -3 0
v -7 -3 0
v -7 -2 0
v -6 -2 0
v -7 -3 0
v -8 -3 0
v -8 -2 0
v -7 -2 0
v -8 -3 0
v -9 -3 0
v -9 -2 0
v -8 -2 0
v -9 -3 0
v -10 -3 0
v -10 -2 0
v -9 -2 0
v -10 -3 0
v -11 -3 0
v -11 -2 0
v -10 -2 0
v -11 -3 0
v -12 -3 0
v -12 -2 0
v -11 -2 0
v -12 -3 0
v -13 -3 0
v -13 -2 0
v -12 -2 0
v -13 -3 0
v -14 -3 0
v -14 -2 0
v -13 -2 0
v -14 -3 0
v -15 -3 0
v -15 -2 0
v -14 -2 0
v -15 -3 0
v -16 -3 0
v -16 -2 0
v -15 -2 0
v 0 -4 0
v -1 -4 0
v -1 -3 0
v 0 -3 0
v -1 -4 0
v -2 -4 0
v -2 -3 0
v -1 -3 0
v -2 -4 0
v -3 -4 0
v -3 -3 0
v -2 -3 0
v -3 -4 0
v -4 -4 0
v -4 -3 0
v -3 -3 0
v -4 -4 0
v -5 -4 0
v -5 -3 0
v -4 -3 0
v -5 -4 0
v -6 -4 0
v -6 -3 0
v -5 -3 0
v -6 -4 0
v -7 -4 0
v -7 -3 0
v -6 -3 0
v -7 -4 0
v -8 -4 0
v -8 -3 0
v -7 -3 0
v -8 -4 0
v -9 -4 0
v -9 -3 0
v -8 -3 0
v -9 -4 0
v -10 -4 0
v -10 -3 0
v -9 -3 0
v -10 -4 0
v -11 -4 0
v -11 -3 0
v -10 -3 0
v -11 -4 0
v -12 -4 0
v -12 -3 0
v -11 -3 0
v -12 -4 0
v -13 -4 0
v -13 -3 0
v -12 -3 0
v -13 -4 0
v -14 -4 0
v -14 -3 0
v -13 -3 0
v -14 -4 0
v -15 -4 0
v -15 -3 0
v -14 -3 0
v -15 -4 0
v -16 -4 0
v -16 -3 0
v -15 -3 0
v 0 -5 0
v -1 -5 0
v -1 -4 0
v 0 -4 0
v -1 -5 0
v -2 -5 0
v -2 -4 0
v -1 -4 0
v -2 -5 0
v -3 -5 0
v -3 -4 0
v -2 -4 0
v -3 -5 0
v -4 -5 0
v -4 -4 0
v -3 -4 0
v -4 -5 0
v -5 -5 0
v -5 -4 0
v -4 -4 0
v -5 -5 0
v -6 -5 0
v -6 -4 0
v -5 -4 0
v -6 -5 0
v -7 -5 0
v -7 -4 0
v -6 -4 0
v -7 -5 0
v -8 -5 0
v -8 -4 0
v -7 -4 0
v -8 -5 0
v -9 -5 0
v -9 -4 0
v -8 -4 0
v -9 -5 0
v -10 -5 0
v -10 -4 0
v -9 -4 0
v -10 -5 0
v -11 -5 0
v -11 -4 0
v -10 -4 0
v -11 -5 0
v -12 -5 0
v -12 -4 0
v -11 -4 0
v -12 -5 0
v -13 -5 0
v -13 -4 0
v -12 -4 0
v -13 -5 0
v -14 -5 0
v -14 -4 0
v -13 -4 0
v -14 -5 0
v -15 -5 0
v -15 -4 0
v -14 -4 0
v -15 -5 0
v -16 -5 0
v -16 -4 0
v -15 -4 0
v 0 -6 0
v -1 -6 0
v -1 -5 0
v 0 -5 0
v -1 -6 0
v -2 -6 0
v -2 -5 0
v -1 -5 0
v -2 -6 0
v -3 -6 0
v -3 -5 0
v -2 -5 0
v -3 -6 0
v -4 -6 0
v -4 -5 0
v -3 -5 0
v -4 -6 0
v -5 -6 0
v -5 -5 0
v -4 -5 0
v -5 -6 0
v -6 -6 0
v -6 -5 0
v -5 -5 0
v -6 -6 0
v -7 -6 0
v -7 -5 0
v -6 -5 0
v -7 -6 0
v -8 -6 0
v -8 -5 0
v -7 -5 0
v -8 -6 0
v -9 -6 0
v -9 -5 0
v -8 -5 0
v -9 -6 0
v -10 -6 0
v -10 -5 0
v -9 -5 0
v -10 -6 0
v -11 -6 0
v -11 -5 0
v -10 -5 0
v -11 -6 0
v -12 -6 0
v -12 -5 0
v -11 -5 0
v -12 -6 0
v -13 -6 0
v -13 -5 0
v -12 -5 0
v -13 -6 0
v -14 -6 0
v -14 -5 0
v -13 -5 0
v -14 -6 0
v -15 -6 0
v -15 -5 0
v -14 -5 0
v -15 -6 0
v -16 -6 0
v -16 -5 0
v -15 -5 0
v 0 -7 0
v -1 -7 0
v -1 -6 0
v 0 -6 0
v -1 -7 0
v -2 -7 0
v -2 -6 0
v -1 -6 0
v -2 -7 0
v -3 -7 0
v -3 -6 0
v -2 -6 0
v -3 -7 0
v -4 -7 0
v -4 -6 0
v -3 -6 0
v -4 -7 0
v -5 -7 0
v -5 -6 0
v -4 -6 0
v -5 -7 0
v -6 -7 0
v -6 -6 0
v -5 -6 0
v -6 -7 0
v -7 -7 0
v -7 -6 0
v -6 -6 0
v -7 -7 0
v -8 -7 0
v -8 -6 0
v -7 -6 0
v -8 -7 0
v -9 -7 0
v -9 -6 0
v -8 -6 0
v -9 -7 0
v -10 -7 0
v -10 -6 0
v -9 -6 0
v -10 -7 0
v -11 -7 0
v -11 -6 0
v -10 -6 0
v -11 -7 0
v -12 -7 0
v -12 -6 0
v -11 -6 0
v -12 -7 0
v -13 -7 0
v -13 -6 0
v -12 -6 0
v -13 -7 0
v -14 -7 0
v -14 -6 0
v -13 -6 0
v -14 -7 0
v -15 -7 0
v -15 -6 0
v -14 -6 0
v -15 -7 0
v -16 -7 0
v -16 -6 0
v -15 -6 0
v 0 -8 0
v -1 -8 0
v -1 -7 0
v 0 -7 0
v -1 -8 0
v -2 -8 0
v -2 -7 0
v -1 -7 0
v -2 -8 0
v -3 -8 0
v -3 -7 0
v -2 -7 0
v -3 -8 0
v -4 -8 0
v -4 -7 0
v -3 -7 0
v -4 -8 0
v -5 -8 0
v -5 -7 0
v -4 -7 0
v -5 -8 0
v -6 -8 0
v -6 -7 0
v -5 -7 0
v -6 -8 0
v -7 -8 0
v -7 -7 0
v -6 -7 0
v -7 -8 0
v -8 -8 0
v -8 -7 0
v -7 -7 0
v -8 -8 0
v -9 -8 0
v -9 -7 0
v -8 -7 0
v -9 -8 0
v -10 -8 0
v -10 -7 0
v -9 -7 0
v -10 -8 0
v -11 -8 0
v -11 -7 0
v -10 -7 0
v -11 -8 0
v -12 -8 0
v -12 -7 0
v -11 -7 0
v -12 -8 0
v -13 -8 0
v -13 -7 0
v -12 -7 0
v -13 -8 0
v -14 -8 0
v -14 -7 0
v -13 -7 0
v -14 -8 0
v -15 -8 0
v -15 -7 0
v -14 -7 0
v -15 -8 0
v -16 -8 0
v -16 -7 0
v -15 -7 0
v 0 -9 0
v -1 -9 0
v -1 -8 0
v 0 -8 0
v -1 -9 0
v -2 -9 0
v -2 -8 0
v -1 -8 0
v -2 -9 0
v -3 -9 0
v -3 -8 0
v -2 -8 0
v -3 -9 0
v -4 -9 0
v -4 -8 0
v -3 -8 0
v -4 -9 0
v -5 -9 0
v -5 -8 0
v -4 -8 0
v -5 -9 0
v -6 -9 0
v -6 -8 0
v -5 -8 0
v -6 -9 0
v -7 -9 0
v -7 -8 0
v -6 -8 0
v -7 -9 0
v -8 -9 0
v -8 -8 0
v -7 -8 0
v -8 -9 0
v -9 -9 0
v -9 -8 0
v -8 -8 0
v -9 -9 0
v -10 -9 0
v -10 -8 0
v -9 -8 0
v -10 -9 0
v -11 -9 0
v -11 -8 0
v -10 -8 0
v -11 -9 0
v -12 -9 0
v -12 -8 0
v -11 -8 0
v -12 -9 0
v -13 -9 0
v -13 -8 0
v -12 -8 0
v -13 -9 0
v -14 -9 0
v -14 -8 0
v -13 -8 0
v -14 -9 0
v -15 -9 0
v -15 -8 0
v -14 -8 0
v -15 -9 0
v -16 -9 0
v -16 -8 0
v -15 -8 0
v 0 -10 0
v -1 -10 0
v -1 -9 0
v 0 -9 0
v -1 -10 0
v -2 -10 0
v -2 -9 0
v -1 -9 0
v -2 -10 0
v -3 -10 0
v -3 -9 0
v -2 -9 0
v -3 -10 0
v -4 -10 0
v -4 -9 0
v -3 -9 0
v -4 -10 0
v -5 -10 0
v -5 -9 0
v -4 -9 0
v -5 -10 0
v -6 -10 0
v -6 -9 0
v -5 -9 0
v -6 -10 0
v -7 -10 0
v -7 -9 0
v -6 -9 0
v -7 -10 0
v -8 -10 0
v -8 -9 0
v -7 -9 0
v -8 -10 0
v -9 -10 0
v -9 -9 0
v -8 -9 0
v -9 -10 0
v -10 -10 0
v -10 -9 0
v -9 -9 0
v -10 -10 0
v -11 -10 0
v -11 -9 0
v -10 -9 0
v -11 -10 0
v -12 -10 0
v -12 -9 0
v -11 -9 0
v -12 -10 0
v -13 -10 0
v -13 -9 0
v -12 -9 0
v -13 -10 0
v -14 -10 0
v -14 -9 0
v -13 -9 0
v -14 -10 0
v -15 -10 0
v -15 -9 0
v -14 -9 0
v -15 -10 0
v -16 -10 0
v -16 -9 0
v -15 -9 0
v 0 -11 0
v -1 -11 0
v -1 -10 0
v 0 -10 0
v -1 -11 0
v -2 -11 0
v -2 -10 0
v -1 -10 0
v -2 -11 0
v -3 -11 0
v -3 -10 0
v -2 -10 0
v -3 -11 0
v -4 -11 0
v -4 -10 0
v -3 -10 0
v -4 -11 0
v -5 -11 0
v -5 -10 0
v -4 -10 0
v -5 -11 0
v -6 -11 0
v -6 -10 0
v -5 -10 0
v -6 -11 0
v -7 -11 0
v -7 -10 0
v -6 -10 0
v -7 -11 0
v -8 -11 0
v -8 -10 0
v -7 -10 0
v -8 -11 0
v -9 -11 0
v -9 -10 0
v -8 -10 0
v -9 -11 0
v -10 -11 0
v -10 -10 0
v -9 -10 0
v -10 -11 0
v -11 -11 0
v -11 -10 0
v -10 -10 0
v -11 -11 0
v -12 -11 0
v -12 -10 0
v -11 -10 0
v -12 -11 0
v -13 -11 0
v -13 -10 0
v -12 -10 0
v -13 -11 0
v -14 -11 0
v -14 -10 0
v -13 -10 0
v -14 -11 0
v -15 -11 0
v -15 -10 0
v -14 -10 0
v -15 -11 0
v -16 -11 0
v -16 -10 0
v -15 -10 0
v 0 -12 0
v -1 -12 0
v -1 -11 0
v 0 -11 0
v -1 -12 0
v -2 -12 0
v -2 -11 0
v -1 -11 0
v -2 -12 0
v -3 -12 0
v -3 -11 0
v -2 -11 0
v -3 -12 0
v -4 -12 0
v -4 -11 0
v -3 -11 0
v -4 -12 0
v -5 -12 0
v -5 -11 0
v -4 -11 0
v -5 -12 0
v -6 -12 0
v -6 -11 0
v -5 -11 0
v -6 -12 0
v -7 -12 0
v -7 -11 0
v -6 -11 0
v -7 -12 0
v -8 -12 0
v -8 -11 0
v -7 -11 0
v -8 -12 0
v -9 -12 0
v -9 -11 0
v -8 -11 0
v -9 -12 0
v -10 -12 0
v -10 -11 0
v -9 -11 0
v -10 -12 0
v -11 -12 0
v -11 -11 0
v -10 -11 0
v -11 -12 0
v -12 -12 0
v -12 -11 0
v -11 -11 0
v -12 -12 0
v -13 -12 0
v -13 -11 0
v -12 -11 0
v -13 -12 0
v -14 -12 0
v -14 -11 0
v -13 -11 0
v -14 -12 0
v -15 -12 0
v -15 -11 0
v -14 -11 0
v -15 -12 0
v -16 -12 0
v -16 -11 0
v -15 -11 0
v 0 -13 0
v -1 -13 0
v -1 -12 0
v 0 -12 0
v -1 -13 0
v -2 -13 0
v -2 -12 0
v -1 -12 0
v -2 -13 0
v -3 -13 0
v -3 -12 0
v -2 -12 0
v -3 -13 0
v -4 -13 0
v -4 -12 0
v -3 -12 0
v -4 -13 0
v -5 -13 0
v -5 -12 0
v -4 -12 0
v -5 -13 0
v -6 -13 0
v -6 -12 0
v -5 -12 0
v -6 -13 0
v -7 -13 0
v -7 -12 0
v -6 -12 0
v -7 -13 0
v -8 -13 0
v -8 -12 0
v -7 -12 0
v -8 -13 0
v -9 -13 0
v -9 -12 0
v -8 -12 0
v -9 -13 0
v -10 -13 0
v -10 -12 0
v -9 -12 0
v -10 -13 0
v -11 -13 0
v -11 -12 0
v -10 -12 0
v -11 -13 0
v -12 -13 0
v -12 -12 0
v -11 -12 0
v -12 -13 0
v -13 -13 0
v -13 -12 0
v -12 -12 0
v -13 -13 0
v -14 -13 0
v -14 -12 0
v -13 -12 0
v -14 -13 0
v -15 -13 0
v -15 -12 0
v -14 -12 0
v -15 -13 0
v -16 -13 0
v -16 -12 0
v -15 -12 0
v 0 -14 0
v -1 -14 0
v -1 -13 0
v 0 -13 0
v -1 -14 0
v -2 -14 0
v -2 -13 0
v -1 -13 0
v -2 -14 0
v -3 -14 0
v -3 -13 0
v -2 -13 0
v -3 -14 0
v -4 -14 0
v -4 -13 0
v -3 -13 0
v -4 -14 0
v -5 -14 0
v -5 -13 0
v -4 -13 0
v -5 -14 0
v -6 -14 0
v -6 -13 0
v -5 -13 0
v -6 -14 0
v -7 -14 0
v -7 -13 0
v -6 -13 0
v -7 -14 0
v -8 -14 0
v -8 -13 0
v -7 -13 0
v -8 -14 0
v -9 -14 0
v -9 -13 0
v -8 -13 0
v -9 -14 0
v -10 -14 0
v -10 -13 0
v -9 -13 0
v -10 -14 0
v -11 -14 0
v -11 -13 0
v -10 -13 0
v -11 -14 0
v -12 -14 0
v -12 -13 0
v -11 -13 0
v -12 -14 0
v -13 -14 0
v -13 -13 0
v -12 -13 0
v -13 -14 0
v -14 -14 0
v -14 -13 0
v -13 -13 0
v -14 -14 0
v -15 -14 0
v -15 -13 0
v -14 -13 0
v -15 -14 0
v -16 -14 0
v -16 -13 0
v -15 -13 0
v 0 -15 0
v -1 -15 0
v -1 -14 0
v 0 -14 0
v -1 -15 0
v -2 -15 0
v -2 -14 0
v -1 -14 0
v -2 -15 0
v -3 -15 0
v -3 -14 0
v -2 -14 0
v -3 -15 0
v -4 -15 0
v -4 -14 0
v -3 -14 0
v -4 -15 0
v -5 -15 0
v -5 -14 0
v -4 -14 0
v -5 -15 0
v -6 -15 0
v -6 -14 0
v -5 -14 0
v -6 -15 0
v -7 -15 0
v -7 -14 0
v -6 -14 0
v -7 -15 0
v -8 -15 0
v -8 -14 0
v -7 -14 0
v -8 -15 0
v -9 -15 0
v -9 -14 0
v -8 -14 0
v -9 -15 0
v -10 -15 0
v -10 -14 0
v -9 -14 0
v -10 -15 0
v -11 -15 0
v -11 -14 0
v -10 -14 0
v -11 -15 0
v -12 -15 0
v -12 -14 0
v -11 -14 0
v -12 -15 0
v -13 -15 0
v -13 -14 0
v -12 -14 0
v -13 -15 0
v -14 -15 0
v -14 -14 0
v -13 -14 0
v -14 -15 0
v -15 -15 0
v -15 -14 0
v -14 -14 0
v -15 -15 0
v -16 -15 0
v -16 -14 0
v -15 -14 0
v 0 -16 0
v -1 -16 0
v -1 -15 0
v 0 -15 0
v -1 -16 0
v -2 -16 0
v -2 -15 0
v -1 -15 0
v -2 -16 0
v -3 -16 0
v -3 -15 0
v -2 -15 0
v -3 -16 0
v -4 -16 0
v -4 -15 0
v -3 -15 0
v -4 -16 0
v -5 -16 0
v -5 -15 0
v -4 -15 0
v -5 -16 0
v -6 -16 0
v -6 -15 0
v -5 -15 0
v -6 -16 0
v -7 -16 0
v -7 -15 0
v -6 -15 0
v -7 -16 0
v -8 -16 0
v -8 -15 0
v -7 -15 0
v -8 -16 0
v -9 -16 0
v -9 -15 0
v -8 -15 0
v -9 -16 0
v -10 -16 0
v -10 -15 0
v -9 -15 0
v -10 -16 0
v -11 -16 0
v -11 -15 0
v -10 -15 0
v -11 -16 0
v -12 -16 0
v -12 -15 0
v -11 -15 0
v -12 -16 0
v -13 -16 0
v -13 -15 0
v -12 -15 0
v -13 -16 0
v -14 -16 0
v -14 -15 0
v -13 -15 0
v -14 -16 0
v -15 -16 0
v -15 -15 0
v -14 -15 0
v -15 -16 0
v -16 -16 0
v -16 -15 0
v -15 -15 0

# Texture cooridinates (Count = 8)
vt 0.6875 0.8125
vt 0.71875 0.8125
vt 0.71875 0.84375
vt 0.6875 0.84375
vt 0.65625 0.8125
vt 0.65625 0.84375
vt 0.75 0.8125
vt 0.75 0.84375

# Normal
vn 0 0 -1

# Mesh description
g testmap1_mesh_0513

# Faces
f 1/1/1 2/2/1 3/3/1 4/4/1
f 5/5/1 6/1/1 7/4/1 8/6/1
f 9/5/1 10/1/1 11/4/1 12/6/1
f 13/1/1 14/2/1 15/3/1 16/4/1
f 17/2/1 18/7/1 19/8/1 20/3/1
f 21/1/1 22/2/1 23/3/1 24/4/1
f 25/5/1 26/1/1 27/4/1 28/6/1
f 29/2/1 30/7/1 31/8/1 32/3/1
f 33/2/1 34/7/1 35/8/1 36/3/1
f 37/2/1 38/7/1 39/8/1 40/3/1
f 41/1/1 42/2/1 43/3/1 44/4/1
f 45/2/1 46/7/1 47/8/1 48/3/1
f 49/5/1 50/1/1 51/4/1 52/6/1
f 53/1/1 54/2/1 55/3/1 56/4/1
f 57/5/1 58/1/1 59/4/1 60/6/1
f 61/2/1 62/7/1 63/8/1 64/3/1
f 65/5/1 66/1/1 67/4/1 68/6/1
f 69/2/1 70/7/1 71/8/1 72/3/1
f 73/5/1 74/1/1 75/4/1 76/6/1
f 77/1/1 78/2/1 79/3/1 80/4/1
f 81/1/1 82/2/1 83/3/1 84/4/1
f 85/2/1 86/7/1 87/8/1 88/3/1
f 89/2/1 90/7/1 91/8/1 92/3/1
f 93/2/1 94/7/1 95/8/1 96/3/1
f 97/1/1 98/2/1 99/3/1 100/4/1
f 101/5/1 102/1/1 103/4/1 104/6/1
f 105/1/1 106/2/1 107/3/1 108/4/1
f 109/2/1 110/7/1 111/8/1 112/3/1
f 113/2/1 114/7/1 115/8/1 116/3/1
f 117/1/1 118/2/1 119/3/1 120/4/1
f 121/5/1 122/1/1 123/4/1 124/6/1
f 125/5/1 126/1/1 127/4/1 128/6/1
f 129/5/1 130/1/1 131/4/1 132/6/1
f 133/5/1 134/1/1 135/4/1 136/6/1
f 137/1/1 138/2/1 139/3/1 140/4/1
f 141/1/1 142/2/1 143/3/1 144/4/1
f 145/2/1 146/7/1 147/8/1 148/3/1
f 149/1/1 150/2/1 151/3/1 152/4/1
f 153/1/1 154/2/1 155/3/1 156/4/1
f 157/2/1 158/7/1 159/8/1 160/3/1
f 161/1/1 162/2/1 163/3/1 164/4/1
f 165/2/1 166/7/1 167/8/1 168/3/1
f 169/5/1 170/1/1 171/4/1 172/6/1
f 173/5/1 174/1/1 175/4/1 176/6/1
f 177/5/1 178/1/1 179/4/1 180/6/1
f 181/5/1 182/1/1 183/4/1 184/6/1
f 185/5/1 186/1/1 187/4/1 188/6/1
f 189/1/1 190/2/1 191/3/1 192/4/1
f 193/2/1 194/7/1 195/8/1 196/3/1
f 197/1/1 198/2/1 199/3/1 200/4/1
f 201/1/1 202/2/1 203/3/1 204/4/1
f 205/1/1 206/2/1 207/3/1 208/4/1
f 209/5/1 210/1/1 211/4/1 212/6/1
f 213/2/1 214/7/1 215/8/1 216/3/1
f 217/1/1 218/2/1 219/3/1 220/4/1
f 221/1/1 222/2/1 223/3/1 224/4/1
f 225/1/1 226/2/1 227/3/1 228/4/1
f 229/5/1 230/1/1 231/4/1 232/6/1
f 233/2/1 234/7/1 235/8/1 236/3/1
f 237/5/1 238/1/1 239/4/1 240/6/1
f 241/1/1 242/2/1 243/3/1 244/4/1
f 245/5/1 246/1/1 247/4/1 248/6/1
f 249/5/1 250/1/1 251/4/1 252/6/1
f 253/2/1 254/7/1 255/8/1 256/3/1
f 257/2/1 258/7/1 259/8/1 260/3/1
f 261/5/1 262/1/1 263/4/1 264/6/1
f 265/1/1 266/2/1 267/3/1 268/4/1
f 269/2/1 270/7/1 271/8/1 272/3/1
f 273/1/1 274/2/1 275/3/1 276/4/1
f 277/5/1 278/1/1 279/4/1 280/6/1
f 281/1/1 282/2/1 283/3/1 284/4/1
f 285/5/1 286/1/1 287/4/1 288/6/1
f 289/5/1 290/1/1 291/4/1 292/6/1
f 293/5/1 294/1/1 295/4/1 296/6/1
f 297/1/1 298/2/1 299/3/1 300/4/1
f 301/2/1 302/7/1 303/8/1 304/3/1
f 305/5/1 306/1/1 307/4/1 308/6/1
f 309/5/1 310/1/1 311/4/1 312/6/1
f 313/2/1 314/7/1 315/8/1 316/3/1
f 317/2/1 318/7/1 319/8/1 320/3/1
f 321/5/1 322/1/1 323/4/1 324/6/1
f 325/5/1 326/1/1 327/4/1 328/6/1
f 329/1/1 330/2/1 331/3/1 332/4/1
f 333/2/1 334/7/1 335/8/1 336/3/1
f 337/1/1 338/2/1 339/3/1 340/4/1
f 341/5/1 342/1/1 343/4/1 344/6/1
f 345/1/1 346/2/1 347/3/1 348/4/1
f 349/1/1 350/2/1 351/3/1 352/4/1
f 353/5/1 354/1/1 355/4/1 356/6/1
f 357/2/1 358/7/1 359/8/1 360/3/1
f 361/2/1 362/7/1 363/8/1 364/3/1
f 365/2/1 366/7/1 367/8/1 368/3/1
f 369/5/1 370/1/1 371/4/1 372/6/1
f 373/5/1 374/1/1 375/4/1 376/6/1
f 377/5/1 378/1/1 379/4/1 380/6/1
f 381/1/1 382/2/1 383/3/1 384/4/1
f 385/5/1 386/1/1 387/4/1 388/6/1
f 389/5/1 390/1/1 391/4/1 392/6/1
f 393/5/1 394/1/1 395/4/1 396/6/1
f 397/2/1 398/7/1 399/8/1 400/3/1
f 401/5/1 402/1/1 403/4/1 404/6/1
f 405/1/1 406/2/1 407/3/1 408/4/1
f 409/5/1 410/1/1 411/4/1 412/6/1
f 413/5/1 414/1/1 415/4/1 416/6/1
f 417/1/1 418/2/1 419/3/1 420/4/1
f 421/1/1 422/2/1 423/3/1 424/4/1
f 425/5/1 426/1/1 427/4/1 428/6/1
f 429/5/1 430/1/1 431/4/1 432/6/1
f 433/5/1 434/1/1 435/4/1 436/6/1
f 437/2/1 438/7/1 439/8/1 440/3/1
f 441/2/1 442/7/1 443/8/1 444/3/1
f 445/1/1 446/2/1 447/3/1 448/4/1
f 449/1/1 450/2/1 451/3/1 452/4/1
f 453/2/1 454/7/1 455/8/1 456/3/1
f 457/5/1 458/1/1 459/4/1 460/6/1
f 461/5/1 462/1/1 463/4/1 464/6/1
f 465/1/1 466/2/1 467/3/1 468/4/1
f 469/2/1 470/7/1 471/8/1 472/3/1
f 473/5/1 474/1/1 475/4/1 476/6/1
f 477/5/1 478/1/1 479/4/1 480/6/1
f 481/2/1 482/7/1 483/8/1 484/3/1
f 485/2/1 486/7/1 487/8/1 488/3/1
f 489/2/1 490/7/1 491/8/1 492/3/1
f 493/5/1 494/1/1 495/4/1 496/6/1
f 497/2/1 498/7/1 499/8/1 500/3/1
f 501/1/1 502/2/1 503/3/1 504/4/1
f 505/1/1 506/2/1 507/3/1 508/4/1
f 509/2/1 510/7/1 511/8/1 512/3/1
f 513/5/1 514/1/1 515/4/1 516/6/1
f 517/2/1 518/7/1 519/8/1 520/3/1
f 521/1/1 522/2/1 523/3/1 524/4/1
f 525/2/1 526/7/1 527/8/1 528/3/1
f 529/1/1 530/2/1 531/3/1 532/4/1
f 533/5/1 534/1/1 535/4/1 536/6/1
f 537/2/1 538/7/1 539/8/1 540/3/1
f 541/2/1 542/7/1 543/8/1 544/3/1
f 545/1/1 546/2/1 547/3/1 548/4/1
f 549/5/1 550/1/1 551/4/1 552/6/1
f 553/1/1 554/2/1 555/3/1 556/4/1
f 557/2/1 558/7/1 559/8/1 560/3/1
f 561/2/1 562/7/1 563/8/1 564/3/1
f 565/5/1 566/1/1 567/4/1 568/6/1
f 569/1/1 570/2/1 571/3/1 572/4/1
f 573/1/1 574/2/1 575/3/1 576/4/1
f 577/5/1 578/1/1 579/4/1 580/6/1
f 581/2/1 582/7/1 583/8/1 584/3/1
f 585/1/1 586/2/1 587/3/1 588/4/1
f 589/5/1 590/1/1 591/4/1 592/6/1
f 593/2/1 594/7/1 595/8/1 596/3/1
f 597/2/1 598/7/1 599/8/1 600/3/1
f 601/2/1 602/7/1 603/8/1 604/3/1
f 605/5/1 606/1/1 607/4/1 608/6/1
f 609/5/1 610/1/1 611/4/1 612/6/1
f 613/1/1 614/2/1 615/3/1 616/4/1
f 617/2/1 618/7/1 619/8/1 620/3/1
f 621/2/1 622/7/1 623/8/1 624/3/1
f 625/1/1 626/2/1 627/3/1 628/4/1
f 629/1/1 630/2/1 631/3/1 632/4/1
f 633/2/1 634/7/1 635/8/1 636/3/1
f 637/5/1 638/1/1 639/4/1 640/6/1
f 641/5/1 642/1/1 643/4/1 644/6/1
f 645/5/1 646/1/1 647/4/1 648/6/1
f 649/2/1 650/7/1 651/8/1 652/3/1
f 653/1/1 654/2/1 655/3/1 656/4/1
f 657/2/1 658/7/1 659/8/1 660/3/1
f 661/1/1 662/2/1 663/3/1 664/4/1
f 665/2/1 666/7/1 667/8/1 668/3/1
f 669/5/1 670/1/1 671/4/1 672/6/1
f 673/1/1 674/2/1 675/3/1 676/4/1
f 677/5/1 678/1/1 679/4/1 680/6/1
f 681/2/1 682/7/1 683/8/1 684/3/1
f 685/5/1 686/1/1 687/4/1 688/6/1
f 689/2/1 690/7/1 691/8/1 692/3/1
f 693/5/1 694/1/1 695/4/1 696/6/1
f 697/5/1 698/1/1 699/4/1 700/6/1
f 701/1/1 702/2/1 703/3/1 704/4/1
f 705/2/1 706/7/1 707/8/1 708/3/1
f 709/2/1 710/7/1 711/8/1 712/3/1
f 713/1/1 714/2/1 715/3/1 716/4/1
f 717/1/1 718/2/1 719/3/1 720/4/1
f 721/1/1 722/2/1 723/3/1 724/4/1
f 725/5/1 726/1/1 727/4/1 728/6/1
f 729/2/1 730/7/1 731/8/1 732/3/1
f 733/1/1 734/2/1 735/3/1 736/4/1
f 737/2/1 738/7/1 739/8/1 740/3/1
f 741/5/1 742/1/1 743/4/1 744/6/1
f 745/2/1 746/7/1 747/8/1 748/3/1
f 749/2/1 750/7/1 751/8/1 752/3/1
f 753/1/1 754/2/1 755/3/1 756/4/1
f 757/1/1 758/2/1 759/3/1 760/4/1
f 761/2/1 762/7/1 763/8/1 764/3/1
f 765/5/1 766/1/1 767/4/1 768/6/1
f 769/1/1 770/2/1 771/3/1 772/4/1
f 773/5/1 774/1/1 775/4/1 776/6/1
f 777/1/1 778/2/1 779/3/1 780/4/1
f 781/5/1 782/1/1 783/4/1 784/6/1
f 785/2/1 786/7/1 787/8/1 788/3/1
f 789/5/1 790/1/1 791/4/1 792/6/1
f 793/2/1 794/7/1 795/8/1 796/3/1
f 797/1/1 798/2/1 799/3/1 800/4/1
f 801/1/1 802/2/1 803/3/1 804/4/1
f 805/1/1 806/2/1 807/3/1 808/4/1
f 809/1/1 810/2/1 811/3/1 812/4/1
f 813/2/1 814/7/1 815/8/1 816/3/1
f 817/1/1 818/2/1 819/3/1 820/4/1
f 821/5/1 822/1/1 823/4/1 824/6/1
f 825/1/1 826/2/1 827/3/1 828/4/1
f 829/2/1 830/7/1 831/8/1 832/3/1
f 833/2/1 834/7/1 835/8/1 836/3/1
f 837/2/1 838/7/1 839/8/1 840/3/1
f 841/1/1 842/2/1 843/3/1 844/4/1
f 845/5/1 846/1/1 847/4/1 848/6/1
f 849/1/1 850/2/1 851/3/1 852/4/1
f 853/1/1 854/2/1 855/3/1 856/4/1
f 857/1/1 858/2/1 859/3/1 860/4/1
f 861/1/1 862/2/1 863/3/1 864/4/1
f 865/1/1 866/2/1 867/3/1 868/4/1
f 869/5/1 870/1/1 871/4/1 872/6/1
f 873/1/1 874/2/1 875/3/1 876/4/1
f 877/5/1 878/1/1 879/4/1 880/6/1
f 881/5/1 882/1/1 883/4/1 884/6/1
f 885/2/1 886/7/1 887/8/1 888/3/1
f 889/5/1 890/1/1 891/4/1 892/6/1
f 893/2/1 894/7/1 895/8/1 896/3/1
f 897/5/1 898/1/1 899/4/1 900/6/1
f 901/1/1 902/2/1 903/3/1 904/4/1
f 905/5/1 906/1/1 907/4/1 908/6/1
f 909/5/1 910/1/1 911/4/1 912/6/1
f 913/2/1 914/7/1 915/8/1 916/3/1
f 917/2/1 918/7/1 919/8/1 920/3/1
f 921/2/1 922/7/1 923/8/1 924/3/1
f 925/2/1 926/7/1 927/8/1 928/3/1
f 929/2/1 930/7/1 931/8/1 932/3/1
f 933/5/1 934/1/1 935/4/1 936/6/1
f 937/5/1 938/1/1 939/4/1 940/6/1
f 941/1/1 942/2/1 943/3/1 944/4/1
f 945/5/1 946/1/1 947/4/1 948/6/1
f 949/1/1 950/2/1 951/3/1 952/4/1
f 953/2/1 954/7/1 955/8/1 956/3/1
f 957/1/1 958/2/1 959/3/1 960/4/1
f 961/1/1 962/2/1 963/3/1 964/4/1
f 965/5/1 966/1/1 967/4/1 968/6/1
f 969/5/1 970/1/1 971/4/1 972/6/1
f 973/2/1 974/7/1 975/8/1 976/3/1
f 977/1/1 978/2/1 979/3/1 980/4/1
f 981/2/1 982/7/1 983/8/1 984/3/1
f 985/2/1 986/7/1 987/8/1 988/3/1
f 989/5/1 990/1/1 991/4/1 992/6/1
f 993/2/1 994/7/1 995/8/1 996/3/1
f 997/2/1 998/7/1 999/8/1 1000/3/1
f 1001/5/1 1002/1/1 1003/4/1 1004/6/1
f 1005/5/1 1006/1/1 1007/4/1 1008/6/1
f 1009/5/1 1010/1/1 1011/4/1 1012/6/1
f 1013/2/1 1014/7/1 1015/8/1 1016/3/1
f 1017/2/1 1018/7/1 1019/8/1 1020/3/1
f 1021/5/1 1022/1/1 1023/4/1 1024/6/1

