# Tiled2Unity generated file. Do not modify by hand.
# Wavefront file for 'testmap1_mesh_0789.obj'

# Vertices (Count = 64)
v -13 -6 0
v -14 -6 0
v -14 -5 0
v -13 -5 0
v -14 -6 0
v -15 -6 0
v -15 -5 0
v -14 -5 0
v -12 -7 0
v -13 -7 0
v -13 -6 0
v -12 -6 0
v -13 -7 0
v -14 -7 0
v -14 -6 0
v -13 -6 0
v -14 -7 0
v -15 -7 0
v -15 -6 0
v -14 -6 0
v -12 -8 0
v -13 -8 0
v -13 -7 0
v -12 -7 0
v -13 -8 0
v -14 -8 0
v -14 -7 0
v -13 -7 0
v -14 -8 0
v -15 -8 0
v -15 -7 0
v -14 -7 0
v -12 -9 0
v -13 -9 0
v -13 -8 0
v -12 -8 0
v -13 -9 0
v -14 -9 0
v -14 -8 0
v -13 -8 0
v -14 -9 0
v -15 -9 0
v -15 -8 0
v -14 -8 0
v -12 -10 0
v -13 -10 0
v -13 -9 0
v -12 -9 0
v -13 -10 0
v -14 -10 0
v -14 -9 0
v -13 -9 0
v -14 -10 0
v -15 -10 0
v -15 -9 0
v -14 -9 0
v -12 -11 0
v -13 -11 0
v -13 -10 0
v -12 -10 0
v -13 -11 0
v -14 -11 0
v -14 -10 0
v -13 -10 0

# Texture cooridinates (Count = 18)
vt 0.9375 0.96875
vt 0.96875 0.96875
vt 0.96875 1
vt 0.9375 1
vt 1 0.96875
vt 1 1
vt 0.96875 0.9375
vt 1 0.9375
vt 0.9375 0.9375
vt 0.96875 0.90625
vt 1 0.90625
vt 0.9375 0.90625
vt 0.96875 0.875
vt 1 0.875
vt 0.9375 0.875
vt 0.96875 0.84375
vt 1 0.84375
vt 0.9375 0.84375

# Normal
vn 0 0 -1

# Mesh description
g testmap1_mesh_0789

# Faces
f 1/1/1 2/2/1 3/3/1 4/4/1
f 5/2/1 6/5/1 7/6/1 8/3/1
f 9/1/1 10/2/1 11/3/1 12/4/1
f 13/2/1 14/5/1 15/6/1 16/3/1
f 17/7/1 18/8/1 19/5/1 20/2/1
f 21/9/1 22/7/1 23/2/1 24/1/1
f 25/7/1 26/8/1 27/5/1 28/2/1
f 29/10/1 30/11/1 31/8/1 32/7/1
f 33/12/1 34/10/1 35/7/1 36/9/1
f 37/10/1 38/11/1 39/8/1 40/7/1
f 41/13/1 42/14/1 43/11/1 44/10/1
f 45/15/1 46/13/1 47/10/1 48/12/1
f 49/13/1 50/14/1 51/11/1 52/10/1
f 53/16/1 54/17/1 55/14/1 56/13/1
f 57/18/1 58/16/1 59/13/1 60/15/1
f 61/16/1 62/17/1 63/14/1 64/13/1

