# Tiled2Unity generated file. Do not modify by hand.
# Wavefront file for 'testmap1_mesh_0709.obj'

# Vertices (Count = 1024)
v 0 -1 0
v -1 -1 0
v -1 0 0
v 0 0 0
v -1 -1 0
v -2 -1 0
v -2 0 0
v -1 0 0
v -2 -1 0
v -3 -1 0
v -3 0 0
v -2 0 0
v -3 -1 0
v -4 -1 0
v -4 0 0
v -3 0 0
v -4 -1 0
v -5 -1 0
v -5 0 0
v -4 0 0
v -5 -1 0
v -6 -1 0
v -6 0 0
v -5 0 0
v -6 -1 0
v -7 -1 0
v -7 0 0
v -6 0 0
v -7 -1 0
v -8 -1 0
v -8 0 0
v -7 0 0
v -8 -1 0
v -9 -1 0
v -9 0 0
v -8 0 0
v -9 -1 0
v -10 -1 0
v -10 0 0
v -9 0 0
v -10 -1 0
v -11 -1 0
v -11 0 0
v -10 0 0
v -11 -1 0
v -12 -1 0
v -12 0 0
v -11 0 0
v -12 -1 0
v -13 -1 0
v -13 0 0
v -12 0 0
v -13 -1 0
v -14 -1 0
v -14 0 0
v -13 0 0
v -14 -1 0
v -15 -1 0
v -15 0 0
v -14 0 0
v -15 -1 0
v -16 -1 0
v -16 0 0
v -15 0 0
v 0 -2 0
v -1 -2 0
v -1 -1 0
v 0 -1 0
v -1 -2 0
v -2 -2 0
v -2 -1 0
v -1 -1 0
v -2 -2 0
v -3 -2 0
v -3 -1 0
v -2 -1 0
v -3 -2 0
v -4 -2 0
v -4 -1 0
v -3 -1 0
v -4 -2 0
v -5 -2 0
v -5 -1 0
v -4 -1 0
v -5 -2 0
v -6 -2 0
v -6 -1 0
v -5 -1 0
v -6 -2 0
v -7 -2 0
v -7 -1 0
v -6 -1 0
v -7 -2 0
v -8 -2 0
v -8 -1 0
v -7 -1 0
v -8 -2 0
v -9 -2 0
v -9 -1 0
v -8 -1 0
v -9 -2 0
v -10 -2 0
v -10 -1 0
v -9 -1 0
v -10 -2 0
v -11 -2 0
v -11 -1 0
v -10 -1 0
v -11 -2 0
v -12 -2 0
v -12 -1 0
v -11 -1 0
v -12 -2 0
v -13 -2 0
v -13 -1 0
v -12 -1 0
v -13 -2 0
v -14 -2 0
v -14 -1 0
v -13 -1 0
v -14 -2 0
v -15 -2 0
v -15 -1 0
v -14 -1 0
v -15 -2 0
v -16 -2 0
v -16 -1 0
v -15 -1 0
v 0 -3 0
v -1 -3 0
v -1 -2 0
v 0 -2 0
v -1 -3 0
v -2 -3 0
v -2 -2 0
v -1 -2 0
v -2 -3 0
v -3 -3 0
v -3 -2 0
v -2 -2 0
v -3 -3 0
v -4 -3 0
v -4 -2 0
v -3 -2 0
v -4 -3 0
v -5 -3 0
v -5 -2 0
v -4 -2 0
v -5 -3 0
v -6 -3 0
v -6 -2 0
v -5 -2 0
v -6 -3 0
v -7 -3 0
v -7 -2 0
v -6 -2 0
v -7 -3 0
v -8 -3 0
v -8 -2 0
v -7 -2 0
v -8 -3 0
v -9 -3 0
v -9 -2 0
v -8 -2 0
v -9 -3 0
v -10 -3 0
v -10 -2 0
v -9 -2 0
v -10 -3 0
v -11 -3 0
v -11 -2 0
v -10 -2 0
v -11 -3 0
v -12 -3 0
v -12 -2 0
v -11 -2 0
v -12 -3 0
v -13 -3 0
v -13 -2 0
v -12 -2 0
v -13 -3 0
v -14 -3 0
v -14 -2 0
v -13 -2 0
v -14 -3 0
v -15 -3 0
v -15 -2 0
v -14 -2 0
v -15 -3 0
v -16 -3 0
v -16 -2 0
v -15 -2 0
v 0 -4 0
v -1 -4 0
v -1 -3 0
v 0 -3 0
v -1 -4 0
v -2 -4 0
v -2 -3 0
v -1 -3 0
v -2 -4 0
v -3 -4 0
v -3 -3 0
v -2 -3 0
v -3 -4 0
v -4 -4 0
v -4 -3 0
v -3 -3 0
v -4 -4 0
v -5 -4 0
v -5 -3 0
v -4 -3 0
v -5 -4 0
v -6 -4 0
v -6 -3 0
v -5 -3 0
v -6 -4 0
v -7 -4 0
v -7 -3 0
v -6 -3 0
v -7 -4 0
v -8 -4 0
v -8 -3 0
v -7 -3 0
v -8 -4 0
v -9 -4 0
v -9 -3 0
v -8 -3 0
v -9 -4 0
v -10 -4 0
v -10 -3 0
v -9 -3 0
v -10 -4 0
v -11 -4 0
v -11 -3 0
v -10 -3 0
v -11 -4 0
v -12 -4 0
v -12 -3 0
v -11 -3 0
v -12 -4 0
v -13 -4 0
v -13 -3 0
v -12 -3 0
v -13 -4 0
v -14 -4 0
v -14 -3 0
v -13 -3 0
v -14 -4 0
v -15 -4 0
v -15 -3 0
v -14 -3 0
v -15 -4 0
v -16 -4 0
v -16 -3 0
v -15 -3 0
v 0 -5 0
v -1 -5 0
v -1 -4 0
v 0 -4 0
v -1 -5 0
v -2 -5 0
v -2 -4 0
v -1 -4 0
v -2 -5 0
v -3 -5 0
v -3 -4 0
v -2 -4 0
v -3 -5 0
v -4 -5 0
v -4 -4 0
v -3 -4 0
v -4 -5 0
v -5 -5 0
v -5 -4 0
v -4 -4 0
v -5 -5 0
v -6 -5 0
v -6 -4 0
v -5 -4 0
v -6 -5 0
v -7 -5 0
v -7 -4 0
v -6 -4 0
v -7 -5 0
v -8 -5 0
v -8 -4 0
v -7 -4 0
v -8 -5 0
v -9 -5 0
v -9 -4 0
v -8 -4 0
v -9 -5 0
v -10 -5 0
v -10 -4 0
v -9 -4 0
v -10 -5 0
v -11 -5 0
v -11 -4 0
v -10 -4 0
v -11 -5 0
v -12 -5 0
v -12 -4 0
v -11 -4 0
v -12 -5 0
v -13 -5 0
v -13 -4 0
v -12 -4 0
v -13 -5 0
v -14 -5 0
v -14 -4 0
v -13 -4 0
v -14 -5 0
v -15 -5 0
v -15 -4 0
v -14 -4 0
v -15 -5 0
v -16 -5 0
v -16 -4 0
v -15 -4 0
v 0 -6 0
v -1 -6 0
v -1 -5 0
v 0 -5 0
v -1 -6 0
v -2 -6 0
v -2 -5 0
v -1 -5 0
v -2 -6 0
v -3 -6 0
v -3 -5 0
v -2 -5 0
v -3 -6 0
v -4 -6 0
v -4 -5 0
v -3 -5 0
v -4 -6 0
v -5 -6 0
v -5 -5 0
v -4 -5 0
v -5 -6 0
v -6 -6 0
v -6 -5 0
v -5 -5 0
v -6 -6 0
v -7 -6 0
v -7 -5 0
v -6 -5 0
v -7 -6 0
v -8 -6 0
v -8 -5 0
v -7 -5 0
v -8 -6 0
v -9 -6 0
v -9 -5 0
v -8 -5 0
v -9 -6 0
v -10 -6 0
v -10 -5 0
v -9 -5 0
v -10 -6 0
v -11 -6 0
v -11 -5 0
v -10 -5 0
v -11 -6 0
v -12 -6 0
v -12 -5 0
v -11 -5 0
v -12 -6 0
v -13 -6 0
v -13 -5 0
v -12 -5 0
v -13 -6 0
v -14 -6 0
v -14 -5 0
v -13 -5 0
v -14 -6 0
v -15 -6 0
v -15 -5 0
v -14 -5 0
v -15 -6 0
v -16 -6 0
v -16 -5 0
v -15 -5 0
v 0 -7 0
v -1 -7 0
v -1 -6 0
v 0 -6 0
v -1 -7 0
v -2 -7 0
v -2 -6 0
v -1 -6 0
v -2 -7 0
v -3 -7 0
v -3 -6 0
v -2 -6 0
v -3 -7 0
v -4 -7 0
v -4 -6 0
v -3 -6 0
v -4 -7 0
v -5 -7 0
v -5 -6 0
v -4 -6 0
v -5 -7 0
v -6 -7 0
v -6 -6 0
v -5 -6 0
v -6 -7 0
v -7 -7 0
v -7 -6 0
v -6 -6 0
v -7 -7 0
v -8 -7 0
v -8 -6 0
v -7 -6 0
v -8 -7 0
v -9 -7 0
v -9 -6 0
v -8 -6 0
v -9 -7 0
v -10 -7 0
v -10 -6 0
v -9 -6 0
v -10 -7 0
v -11 -7 0
v -11 -6 0
v -10 -6 0
v -11 -7 0
v -12 -7 0
v -12 -6 0
v -11 -6 0
v -12 -7 0
v -13 -7 0
v -13 -6 0
v -12 -6 0
v -13 -7 0
v -14 -7 0
v -14 -6 0
v -13 -6 0
v -14 -7 0
v -15 -7 0
v -15 -6 0
v -14 -6 0
v -15 -7 0
v -16 -7 0
v -16 -6 0
v -15 -6 0
v 0 -8 0
v -1 -8 0
v -1 -7 0
v 0 -7 0
v -1 -8 0
v -2 -8 0
v -2 -7 0
v -1 -7 0
v -2 -8 0
v -3 -8 0
v -3 -7 0
v -2 -7 0
v -3 -8 0
v -4 -8 0
v -4 -7 0
v -3 -7 0
v -4 -8 0
v -5 -8 0
v -5 -7 0
v -4 -7 0
v -5 -8 0
v -6 -8 0
v -6 -7 0
v -5 -7 0
v -6 -8 0
v -7 -8 0
v -7 -7 0
v -6 -7 0
v -7 -8 0
v -8 -8 0
v -8 -7 0
v -7 -7 0
v -8 -8 0
v -9 -8 0
v -9 -7 0
v -8 -7 0
v -9 -8 0
v -10 -8 0
v -10 -7 0
v -9 -7 0
v -10 -8 0
v -11 -8 0
v -11 -7 0
v -10 -7 0
v -11 -8 0
v -12 -8 0
v -12 -7 0
v -11 -7 0
v -12 -8 0
v -13 -8 0
v -13 -7 0
v -12 -7 0
v -13 -8 0
v -14 -8 0
v -14 -7 0
v -13 -7 0
v -14 -8 0
v -15 -8 0
v -15 -7 0
v -14 -7 0
v -15 -8 0
v -16 -8 0
v -16 -7 0
v -15 -7 0
v 0 -9 0
v -1 -9 0
v -1 -8 0
v 0 -8 0
v -1 -9 0
v -2 -9 0
v -2 -8 0
v -1 -8 0
v -2 -9 0
v -3 -9 0
v -3 -8 0
v -2 -8 0
v -3 -9 0
v -4 -9 0
v -4 -8 0
v -3 -8 0
v -4 -9 0
v -5 -9 0
v -5 -8 0
v -4 -8 0
v -5 -9 0
v -6 -9 0
v -6 -8 0
v -5 -8 0
v -6 -9 0
v -7 -9 0
v -7 -8 0
v -6 -8 0
v -7 -9 0
v -8 -9 0
v -8 -8 0
v -7 -8 0
v -8 -9 0
v -9 -9 0
v -9 -8 0
v -8 -8 0
v -9 -9 0
v -10 -9 0
v -10 -8 0
v -9 -8 0
v -10 -9 0
v -11 -9 0
v -11 -8 0
v -10 -8 0
v -11 -9 0
v -12 -9 0
v -12 -8 0
v -11 -8 0
v -12 -9 0
v -13 -9 0
v -13 -8 0
v -12 -8 0
v -13 -9 0
v -14 -9 0
v -14 -8 0
v -13 -8 0
v -14 -9 0
v -15 -9 0
v -15 -8 0
v -14 -8 0
v -15 -9 0
v -16 -9 0
v -16 -8 0
v -15 -8 0
v 0 -10 0
v -1 -10 0
v -1 -9 0
v 0 -9 0
v -1 -10 0
v -2 -10 0
v -2 -9 0
v -1 -9 0
v -2 -10 0
v -3 -10 0
v -3 -9 0
v -2 -9 0
v -3 -10 0
v -4 -10 0
v -4 -9 0
v -3 -9 0
v -4 -10 0
v -5 -10 0
v -5 -9 0
v -4 -9 0
v -5 -10 0
v -6 -10 0
v -6 -9 0
v -5 -9 0
v -6 -10 0
v -7 -10 0
v -7 -9 0
v -6 -9 0
v -7 -10 0
v -8 -10 0
v -8 -9 0
v -7 -9 0
v -8 -10 0
v -9 -10 0
v -9 -9 0
v -8 -9 0
v -9 -10 0
v -10 -10 0
v -10 -9 0
v -9 -9 0
v -10 -10 0
v -11 -10 0
v -11 -9 0
v -10 -9 0
v -11 -10 0
v -12 -10 0
v -12 -9 0
v -11 -9 0
v -12 -10 0
v -13 -10 0
v -13 -9 0
v -12 -9 0
v -13 -10 0
v -14 -10 0
v -14 -9 0
v -13 -9 0
v -14 -10 0
v -15 -10 0
v -15 -9 0
v -14 -9 0
v -15 -10 0
v -16 -10 0
v -16 -9 0
v -15 -9 0
v 0 -11 0
v -1 -11 0
v -1 -10 0
v 0 -10 0
v -1 -11 0
v -2 -11 0
v -2 -10 0
v -1 -10 0
v -2 -11 0
v -3 -11 0
v -3 -10 0
v -2 -10 0
v -3 -11 0
v -4 -11 0
v -4 -10 0
v -3 -10 0
v -4 -11 0
v -5 -11 0
v -5 -10 0
v -4 -10 0
v -5 -11 0
v -6 -11 0
v -6 -10 0
v -5 -10 0
v -6 -11 0
v -7 -11 0
v -7 -10 0
v -6 -10 0
v -7 -11 0
v -8 -11 0
v -8 -10 0
v -7 -10 0
v -8 -11 0
v -9 -11 0
v -9 -10 0
v -8 -10 0
v -9 -11 0
v -10 -11 0
v -10 -10 0
v -9 -10 0
v -10 -11 0
v -11 -11 0
v -11 -10 0
v -10 -10 0
v -11 -11 0
v -12 -11 0
v -12 -10 0
v -11 -10 0
v -12 -11 0
v -13 -11 0
v -13 -10 0
v -12 -10 0
v -13 -11 0
v -14 -11 0
v -14 -10 0
v -13 -10 0
v -14 -11 0
v -15 -11 0
v -15 -10 0
v -14 -10 0
v -15 -11 0
v -16 -11 0
v -16 -10 0
v -15 -10 0
v 0 -12 0
v -1 -12 0
v -1 -11 0
v 0 -11 0
v -1 -12 0
v -2 -12 0
v -2 -11 0
v -1 -11 0
v -2 -12 0
v -3 -12 0
v -3 -11 0
v -2 -11 0
v -3 -12 0
v -4 -12 0
v -4 -11 0
v -3 -11 0
v -4 -12 0
v -5 -12 0
v -5 -11 0
v -4 -11 0
v -5 -12 0
v -6 -12 0
v -6 -11 0
v -5 -11 0
v -6 -12 0
v -7 -12 0
v -7 -11 0
v -6 -11 0
v -7 -12 0
v -8 -12 0
v -8 -11 0
v -7 -11 0
v -8 -12 0
v -9 -12 0
v -9 -11 0
v -8 -11 0
v -9 -12 0
v -10 -12 0
v -10 -11 0
v -9 -11 0
v -10 -12 0
v -11 -12 0
v -11 -11 0
v -10 -11 0
v -11 -12 0
v -12 -12 0
v -12 -11 0
v -11 -11 0
v -12 -12 0
v -13 -12 0
v -13 -11 0
v -12 -11 0
v -13 -12 0
v -14 -12 0
v -14 -11 0
v -13 -11 0
v -14 -12 0
v -15 -12 0
v -15 -11 0
v -14 -11 0
v -15 -12 0
v -16 -12 0
v -16 -11 0
v -15 -11 0
v 0 -13 0
v -1 -13 0
v -1 -12 0
v 0 -12 0
v -1 -13 0
v -2 -13 0
v -2 -12 0
v -1 -12 0
v -2 -13 0
v -3 -13 0
v -3 -12 0
v -2 -12 0
v -3 -13 0
v -4 -13 0
v -4 -12 0
v -3 -12 0
v -4 -13 0
v -5 -13 0
v -5 -12 0
v -4 -12 0
v -5 -13 0
v -6 -13 0
v -6 -12 0
v -5 -12 0
v -6 -13 0
v -7 -13 0
v -7 -12 0
v -6 -12 0
v -7 -13 0
v -8 -13 0
v -8 -12 0
v -7 -12 0
v -8 -13 0
v -9 -13 0
v -9 -12 0
v -8 -12 0
v -9 -13 0
v -10 -13 0
v -10 -12 0
v -9 -12 0
v -10 -13 0
v -11 -13 0
v -11 -12 0
v -10 -12 0
v -11 -13 0
v -12 -13 0
v -12 -12 0
v -11 -12 0
v -12 -13 0
v -13 -13 0
v -13 -12 0
v -12 -12 0
v -13 -13 0
v -14 -13 0
v -14 -12 0
v -13 -12 0
v -14 -13 0
v -15 -13 0
v -15 -12 0
v -14 -12 0
v -15 -13 0
v -16 -13 0
v -16 -12 0
v -15 -12 0
v 0 -14 0
v -1 -14 0
v -1 -13 0
v 0 -13 0
v -1 -14 0
v -2 -14 0
v -2 -13 0
v -1 -13 0
v -2 -14 0
v -3 -14 0
v -3 -13 0
v -2 -13 0
v -3 -14 0
v -4 -14 0
v -4 -13 0
v -3 -13 0
v -4 -14 0
v -5 -14 0
v -5 -13 0
v -4 -13 0
v -5 -14 0
v -6 -14 0
v -6 -13 0
v -5 -13 0
v -6 -14 0
v -7 -14 0
v -7 -13 0
v -6 -13 0
v -7 -14 0
v -8 -14 0
v -8 -13 0
v -7 -13 0
v -8 -14 0
v -9 -14 0
v -9 -13 0
v -8 -13 0
v -9 -14 0
v -10 -14 0
v -10 -13 0
v -9 -13 0
v -10 -14 0
v -11 -14 0
v -11 -13 0
v -10 -13 0
v -11 -14 0
v -12 -14 0
v -12 -13 0
v -11 -13 0
v -12 -14 0
v -13 -14 0
v -13 -13 0
v -12 -13 0
v -13 -14 0
v -14 -14 0
v -14 -13 0
v -13 -13 0
v -14 -14 0
v -15 -14 0
v -15 -13 0
v -14 -13 0
v -15 -14 0
v -16 -14 0
v -16 -13 0
v -15 -13 0
v 0 -15 0
v -1 -15 0
v -1 -14 0
v 0 -14 0
v -1 -15 0
v -2 -15 0
v -2 -14 0
v -1 -14 0
v -2 -15 0
v -3 -15 0
v -3 -14 0
v -2 -14 0
v -3 -15 0
v -4 -15 0
v -4 -14 0
v -3 -14 0
v -4 -15 0
v -5 -15 0
v -5 -14 0
v -4 -14 0
v -5 -15 0
v -6 -15 0
v -6 -14 0
v -5 -14 0
v -6 -15 0
v -7 -15 0
v -7 -14 0
v -6 -14 0
v -7 -15 0
v -8 -15 0
v -8 -14 0
v -7 -14 0
v -8 -15 0
v -9 -15 0
v -9 -14 0
v -8 -14 0
v -9 -15 0
v -10 -15 0
v -10 -14 0
v -9 -14 0
v -10 -15 0
v -11 -15 0
v -11 -14 0
v -10 -14 0
v -11 -15 0
v -12 -15 0
v -12 -14 0
v -11 -14 0
v -12 -15 0
v -13 -15 0
v -13 -14 0
v -12 -14 0
v -13 -15 0
v -14 -15 0
v -14 -14 0
v -13 -14 0
v -14 -15 0
v -15 -15 0
v -15 -14 0
v -14 -14 0
v -15 -15 0
v -16 -15 0
v -16 -14 0
v -15 -14 0
v 0 -16 0
v -1 -16 0
v -1 -15 0
v 0 -15 0
v -1 -16 0
v -2 -16 0
v -2 -15 0
v -1 -15 0
v -2 -16 0
v -3 -16 0
v -3 -15 0
v -2 -15 0
v -3 -16 0
v -4 -16 0
v -4 -15 0
v -3 -15 0
v -4 -16 0
v -5 -16 0
v -5 -15 0
v -4 -15 0
v -5 -16 0
v -6 -16 0
v -6 -15 0
v -5 -15 0
v -6 -16 0
v -7 -16 0
v -7 -15 0
v -6 -15 0
v -7 -16 0
v -8 -16 0
v -8 -15 0
v -7 -15 0
v -8 -16 0
v -9 -16 0
v -9 -15 0
v -8 -15 0
v -9 -16 0
v -10 -16 0
v -10 -15 0
v -9 -15 0
v -10 -16 0
v -11 -16 0
v -11 -15 0
v -10 -15 0
v -11 -16 0
v -12 -16 0
v -12 -15 0
v -11 -15 0
v -12 -16 0
v -13 -16 0
v -13 -15 0
v -12 -15 0
v -13 -16 0
v -14 -16 0
v -14 -15 0
v -13 -15 0
v -14 -16 0
v -15 -16 0
v -15 -15 0
v -14 -15 0
v -15 -16 0
v -16 -16 0
v -16 -15 0
v -15 -15 0

# Texture cooridinates (Count = 8)
vt 0.6875 0.8125
vt 0.71875 0.8125
vt 0.71875 0.84375
vt 0.6875 0.84375
vt 0.65625 0.8125
vt 0.65625 0.84375
vt 0.75 0.8125
vt 0.75 0.84375

# Normal
vn 0 0 -1

# Mesh description
g testmap1_mesh_0709

# Faces
f 1/1/1 2/2/1 3/3/1 4/4/1
f 5/1/1 6/2/1 7/3/1 8/4/1
f 9/5/1 10/1/1 11/4/1 12/6/1
f 13/5/1 14/1/1 15/4/1 16/6/1
f 17/1/1 18/2/1 19/3/1 20/4/1
f 21/2/1 22/7/1 23/8/1 24/3/1
f 25/1/1 26/2/1 27/3/1 28/4/1
f 29/2/1 30/7/1 31/8/1 32/3/1
f 33/1/1 34/2/1 35/3/1 36/4/1
f 37/1/1 38/2/1 39/3/1 40/4/1
f 41/5/1 42/1/1 43/4/1 44/6/1
f 45/1/1 46/2/1 47/3/1 48/4/1
f 49/2/1 50/7/1 51/8/1 52/3/1
f 53/2/1 54/7/1 55/8/1 56/3/1
f 57/5/1 58/1/1 59/4/1 60/6/1
f 61/5/1 62/1/1 63/4/1 64/6/1
f 65/2/1 66/7/1 67/8/1 68/3/1
f 69/1/1 70/2/1 71/3/1 72/4/1
f 73/2/1 74/7/1 75/8/1 76/3/1
f 77/2/1 78/7/1 79/8/1 80/3/1
f 81/1/1 82/2/1 83/3/1 84/4/1
f 85/1/1 86/2/1 87/3/1 88/4/1
f 89/5/1 90/1/1 91/4/1 92/6/1
f 93/2/1 94/7/1 95/8/1 96/3/1
f 97/2/1 98/7/1 99/8/1 100/3/1
f 101/5/1 102/1/1 103/4/1 104/6/1
f 105/1/1 106/2/1 107/3/1 108/4/1
f 109/2/1 110/7/1 111/8/1 112/3/1
f 113/1/1 114/2/1 115/3/1 116/4/1
f 117/1/1 118/2/1 119/3/1 120/4/1
f 121/2/1 122/7/1 123/8/1 124/3/1
f 125/5/1 126/1/1 127/4/1 128/6/1
f 129/2/1 130/7/1 131/8/1 132/3/1
f 133/2/1 134/7/1 135/8/1 136/3/1
f 137/1/1 138/2/1 139/3/1 140/4/1
f 141/1/1 142/2/1 143/3/1 144/4/1
f 145/5/1 146/1/1 147/4/1 148/6/1
f 149/2/1 150/7/1 151/8/1 152/3/1
f 153/5/1 154/1/1 155/4/1 156/6/1
f 157/1/1 158/2/1 159/3/1 160/4/1
f 161/2/1 162/7/1 163/8/1 164/3/1
f 165/5/1 166/1/1 167/4/1 168/6/1
f 169/5/1 170/1/1 171/4/1 172/6/1
f 173/2/1 174/7/1 175/8/1 176/3/1
f 177/5/1 178/1/1 179/4/1 180/6/1
f 181/1/1 182/2/1 183/3/1 184/4/1
f 185/2/1 186/7/1 187/8/1 188/3/1
f 189/2/1 190/7/1 191/8/1 192/3/1
f 193/1/1 194/2/1 195/3/1 196/4/1
f 197/2/1 198/7/1 199/8/1 200/3/1
f 201/1/1 202/2/1 203/3/1 204/4/1
f 205/2/1 206/7/1 207/8/1 208/3/1
f 209/5/1 210/1/1 211/4/1 212/6/1
f 213/2/1 214/7/1 215/8/1 216/3/1
f 217/2/1 218/7/1 219/8/1 220/3/1
f 221/1/1 222/2/1 223/3/1 224/4/1
f 225/5/1 226/1/1 227/4/1 228/6/1
f 229/5/1 230/1/1 231/4/1 232/6/1
f 233/2/1 234/7/1 235/8/1 236/3/1
f 237/2/1 238/7/1 239/8/1 240/3/1
f 241/1/1 242/2/1 243/3/1 244/4/1
f 245/5/1 246/1/1 247/4/1 248/6/1
f 249/5/1 250/1/1 251/4/1 252/6/1
f 253/1/1 254/2/1 255/3/1 256/4/1
f 257/1/1 258/2/1 259/3/1 260/4/1
f 261/1/1 262/2/1 263/3/1 264/4/1
f 265/5/1 266/1/1 267/4/1 268/6/1
f 269/1/1 270/2/1 271/3/1 272/4/1
f 273/5/1 274/1/1 275/4/1 276/6/1
f 277/5/1 278/1/1 279/4/1 280/6/1
f 281/5/1 282/1/1 283/4/1 284/6/1
f 285/1/1 286/2/1 287/3/1 288/4/1
f 289/5/1 290/1/1 291/4/1 292/6/1
f 293/5/1 294/1/1 295/4/1 296/6/1
f 297/1/1 298/2/1 299/3/1 300/4/1
f 301/5/1 302/1/1 303/4/1 304/6/1
f 305/5/1 306/1/1 307/4/1 308/6/1
f 309/2/1 310/7/1 311/8/1 312/3/1
f 313/5/1 314/1/1 315/4/1 316/6/1
f 317/5/1 318/1/1 319/4/1 320/6/1
f 321/2/1 322/7/1 323/8/1 324/3/1
f 325/2/1 326/7/1 327/8/1 328/3/1
f 329/5/1 330/1/1 331/4/1 332/6/1
f 333/5/1 334/1/1 335/4/1 336/6/1
f 337/1/1 338/2/1 339/3/1 340/4/1
f 341/1/1 342/2/1 343/3/1 344/4/1
f 345/2/1 346/7/1 347/8/1 348/3/1
f 349/1/1 350/2/1 351/3/1 352/4/1
f 353/2/1 354/7/1 355/8/1 356/3/1
f 357/5/1 358/1/1 359/4/1 360/6/1
f 361/5/1 362/1/1 363/4/1 364/6/1
f 365/5/1 366/1/1 367/4/1 368/6/1
f 369/2/1 370/7/1 371/8/1 372/3/1
f 373/5/1 374/1/1 375/4/1 376/6/1
f 377/1/1 378/2/1 379/3/1 380/4/1
f 381/1/1 382/2/1 383/3/1 384/4/1
f 385/1/1 386/2/1 387/3/1 388/4/1
f 389/5/1 390/1/1 391/4/1 392/6/1
f 393/1/1 394/2/1 395/3/1 396/4/1
f 397/5/1 398/1/1 399/4/1 400/6/1
f 401/5/1 402/1/1 403/4/1 404/6/1
f 405/1/1 406/2/1 407/3/1 408/4/1
f 409/5/1 410/1/1 411/4/1 412/6/1
f 413/5/1 414/1/1 415/4/1 416/6/1
f 417/2/1 418/7/1 419/8/1 420/3/1
f 421/5/1 422/1/1 423/4/1 424/6/1
f 425/5/1 426/1/1 427/4/1 428/6/1
f 429/2/1 430/7/1 431/8/1 432/3/1
f 433/1/1 434/2/1 435/3/1 436/4/1
f 437/1/1 438/2/1 439/3/1 440/4/1
f 441/5/1 442/1/1 443/4/1 444/6/1
f 445/1/1 446/2/1 447/3/1 448/4/1
f 449/2/1 450/7/1 451/8/1 452/3/1
f 453/1/1 454/2/1 455/3/1 456/4/1
f 457/5/1 458/1/1 459/4/1 460/6/1
f 461/5/1 462/1/1 463/4/1 464/6/1
f 465/1/1 466/2/1 467/3/1 468/4/1
f 469/1/1 470/2/1 471/3/1 472/4/1
f 473/2/1 474/7/1 475/8/1 476/3/1
f 477/1/1 478/2/1 479/3/1 480/4/1
f 481/5/1 482/1/1 483/4/1 484/6/1
f 485/5/1 486/1/1 487/4/1 488/6/1
f 489/2/1 490/7/1 491/8/1 492/3/1
f 493/5/1 494/1/1 495/4/1 496/6/1
f 497/5/1 498/1/1 499/4/1 500/6/1
f 501/5/1 502/1/1 503/4/1 504/6/1
f 505/1/1 506/2/1 507/3/1 508/4/1
f 509/2/1 510/7/1 511/8/1 512/3/1
f 513/5/1 514/1/1 515/4/1 516/6/1
f 517/1/1 518/2/1 519/3/1 520/4/1
f 521/1/1 522/2/1 523/3/1 524/4/1
f 525/5/1 526/1/1 527/4/1 528/6/1
f 529/5/1 530/1/1 531/4/1 532/6/1
f 533/5/1 534/1/1 535/4/1 536/6/1
f 537/2/1 538/7/1 539/8/1 540/3/1
f 541/1/1 542/2/1 543/3/1 544/4/1
f 545/5/1 546/1/1 547/4/1 548/6/1
f 549/5/1 550/1/1 551/4/1 552/6/1
f 553/1/1 554/2/1 555/3/1 556/4/1
f 557/5/1 558/1/1 559/4/1 560/6/1
f 561/2/1 562/7/1 563/8/1 564/3/1
f 565/5/1 566/1/1 567/4/1 568/6/1
f 569/2/1 570/7/1 571/8/1 572/3/1
f 573/2/1 574/7/1 575/8/1 576/3/1
f 577/1/1 578/2/1 579/3/1 580/4/1
f 581/1/1 582/2/1 583/3/1 584/4/1
f 585/2/1 586/7/1 587/8/1 588/3/1
f 589/1/1 590/2/1 591/3/1 592/4/1
f 593/5/1 594/1/1 595/4/1 596/6/1
f 597/5/1 598/1/1 599/4/1 600/6/1
f 601/1/1 602/2/1 603/3/1 604/4/1
f 605/1/1 606/2/1 607/3/1 608/4/1
f 609/5/1 610/1/1 611/4/1 612/6/1
f 613/5/1 614/1/1 615/4/1 616/6/1
f 617/5/1 618/1/1 619/4/1 620/6/1
f 621/2/1 622/7/1 623/8/1 624/3/1
f 625/5/1 626/1/1 627/4/1 628/6/1
f 629/2/1 630/7/1 631/8/1 632/3/1
f 633/1/1 634/2/1 635/3/1 636/4/1
f 637/1/1 638/2/1 639/3/1 640/4/1
f 641/1/1 642/2/1 643/3/1 644/4/1
f 645/2/1 646/7/1 647/8/1 648/3/1
f 649/1/1 650/2/1 651/3/1 652/4/1
f 653/1/1 654/2/1 655/3/1 656/4/1
f 657/2/1 658/7/1 659/8/1 660/3/1
f 661/1/1 662/2/1 663/3/1 664/4/1
f 665/5/1 666/1/1 667/4/1 668/6/1
f 669/5/1 670/1/1 671/4/1 672/6/1
f 673/1/1 674/2/1 675/3/1 676/4/1
f 677/2/1 678/7/1 679/8/1 680/3/1
f 681/2/1 682/7/1 683/8/1 684/3/1
f 685/2/1 686/7/1 687/8/1 688/3/1
f 689/1/1 690/2/1 691/3/1 692/4/1
f 693/2/1 694/7/1 695/8/1 696/3/1
f 697/5/1 698/1/1 699/4/1 700/6/1
f 701/5/1 702/1/1 703/4/1 704/6/1
f 705/5/1 706/1/1 707/4/1 708/6/1
f 709/1/1 710/2/1 711/3/1 712/4/1
f 713/1/1 714/2/1 715/3/1 716/4/1
f 717/2/1 718/7/1 719/8/1 720/3/1
f 721/5/1 722/1/1 723/4/1 724/6/1
f 725/1/1 726/2/1 727/3/1 728/4/1
f 729/2/1 730/7/1 731/8/1 732/3/1
f 733/2/1 734/7/1 735/8/1 736/3/1
f 737/1/1 738/2/1 739/3/1 740/4/1
f 741/1/1 742/2/1 743/3/1 744/4/1
f 745/5/1 746/1/1 747/4/1 748/6/1
f 749/1/1 750/2/1 751/3/1 752/4/1
f 753/1/1 754/2/1 755/3/1 756/4/1
f 757/5/1 758/1/1 759/4/1 760/6/1
f 761/1/1 762/2/1 763/3/1 764/4/1
f 765/5/1 766/1/1 767/4/1 768/6/1
f 769/1/1 770/2/1 771/3/1 772/4/1
f 773/2/1 774/7/1 775/8/1 776/3/1
f 777/2/1 778/7/1 779/8/1 780/3/1
f 781/5/1 782/1/1 783/4/1 784/6/1
f 785/2/1 786/7/1 787/8/1 788/3/1
f 789/1/1 790/2/1 791/3/1 792/4/1
f 793/1/1 794/2/1 795/3/1 796/4/1
f 797/5/1 798/1/1 799/4/1 800/6/1
f 801/2/1 802/7/1 803/8/1 804/3/1
f 805/2/1 806/7/1 807/8/1 808/3/1
f 809/1/1 810/2/1 811/3/1 812/4/1
f 813/5/1 814/1/1 815/4/1 816/6/1
f 817/2/1 818/7/1 819/8/1 820/3/1
f 821/5/1 822/1/1 823/4/1 824/6/1
f 825/5/1 826/1/1 827/4/1 828/6/1
f 829/1/1 830/2/1 831/3/1 832/4/1
f 833/2/1 834/7/1 835/8/1 836/3/1
f 837/5/1 838/1/1 839/4/1 840/6/1
f 841/1/1 842/2/1 843/3/1 844/4/1
f 845/5/1 846/1/1 847/4/1 848/6/1
f 849/1/1 850/2/1 851/3/1 852/4/1
f 853/5/1 854/1/1 855/4/1 856/6/1
f 857/5/1 858/1/1 859/4/1 860/6/1
f 861/1/1 862/2/1 863/3/1 864/4/1
f 865/1/1 866/2/1 867/3/1 868/4/1
f 869/1/1 870/2/1 871/3/1 872/4/1
f 873/5/1 874/1/1 875/4/1 876/6/1
f 877/2/1 878/7/1 879/8/1 880/3/1
f 881/2/1 882/7/1 883/8/1 884/3/1
f 885/1/1 886/2/1 887/3/1 888/4/1
f 889/5/1 890/1/1 891/4/1 892/6/1
f 893/5/1 894/1/1 895/4/1 896/6/1
f 897/5/1 898/1/1 899/4/1 900/6/1
f 901/5/1 902/1/1 903/4/1 904/6/1
f 905/1/1 906/2/1 907/3/1 908/4/1
f 909/1/1 910/2/1 911/3/1 912/4/1
f 913/2/1 914/7/1 915/8/1 916/3/1
f 917/1/1 918/2/1 919/3/1 920/4/1
f 921/5/1 922/1/1 923/4/1 924/6/1
f 925/5/1 926/1/1 927/4/1 928/6/1
f 929/1/1 930/2/1 931/3/1 932/4/1
f 933/5/1 934/1/1 935/4/1 936/6/1
f 937/5/1 938/1/1 939/4/1 940/6/1
f 941/5/1 942/1/1 943/4/1 944/6/1
f 945/2/1 946/7/1 947/8/1 948/3/1
f 949/2/1 950/7/1 951/8/1 952/3/1
f 953/1/1 954/2/1 955/3/1 956/4/1
f 957/1/1 958/2/1 959/3/1 960/4/1
f 961/2/1 962/7/1 963/8/1 964/3/1
f 965/2/1 966/7/1 967/8/1 968/3/1
f 969/2/1 970/7/1 971/8/1 972/3/1
f 973/2/1 974/7/1 975/8/1 976/3/1
f 977/2/1 978/7/1 979/8/1 980/3/1
f 981/1/1 982/2/1 983/3/1 984/4/1
f 985/2/1 986/7/1 987/8/1 988/3/1
f 989/5/1 990/1/1 991/4/1 992/6/1
f 993/1/1 994/2/1 995/3/1 996/4/1
f 997/5/1 998/1/1 999/4/1 1000/6/1
f 1001/5/1 1002/1/1 1003/4/1 1004/6/1
f 1005/5/1 1006/1/1 1007/4/1 1008/6/1
f 1009/1/1 1010/2/1 1011/3/1 1012/4/1
f 1013/2/1 1014/7/1 1015/8/1 1016/3/1
f 1017/1/1 1018/2/1 1019/3/1 1020/4/1
f 1021/2/1 1022/7/1 1023/8/1 1024/3/1

