# Tiled2Unity generated file. Do not modify by hand.
# Wavefront file for 'testmap1_mesh_0398.obj'

# Vertices (Count = 640)
v 0 -7 0
v -1 -7 0
v -1 -6 0
v 0 -6 0
v -1 -7 0
v -2 -7 0
v -2 -6 0
v -1 -6 0
v -2 -7 0
v -3 -7 0
v -3 -6 0
v -2 -6 0
v -3 -7 0
v -4 -7 0
v -4 -6 0
v -3 -6 0
v -4 -7 0
v -5 -7 0
v -5 -6 0
v -4 -6 0
v -5 -7 0
v -6 -7 0
v -6 -6 0
v -5 -6 0
v -6 -7 0
v -7 -7 0
v -7 -6 0
v -6 -6 0
v -7 -7 0
v -8 -7 0
v -8 -6 0
v -7 -6 0
v -8 -7 0
v -9 -7 0
v -9 -6 0
v -8 -6 0
v -9 -7 0
v -10 -7 0
v -10 -6 0
v -9 -6 0
v -10 -7 0
v -11 -7 0
v -11 -6 0
v -10 -6 0
v -11 -7 0
v -12 -7 0
v -12 -6 0
v -11 -6 0
v -12 -7 0
v -13 -7 0
v -13 -6 0
v -12 -6 0
v -13 -7 0
v -14 -7 0
v -14 -6 0
v -13 -6 0
v -14 -7 0
v -15 -7 0
v -15 -6 0
v -14 -6 0
v -15 -7 0
v -16 -7 0
v -16 -6 0
v -15 -6 0
v 0 -8 0
v -1 -8 0
v -1 -7 0
v 0 -7 0
v -1 -8 0
v -2 -8 0
v -2 -7 0
v -1 -7 0
v -2 -8 0
v -3 -8 0
v -3 -7 0
v -2 -7 0
v -3 -8 0
v -4 -8 0
v -4 -7 0
v -3 -7 0
v -4 -8 0
v -5 -8 0
v -5 -7 0
v -4 -7 0
v -5 -8 0
v -6 -8 0
v -6 -7 0
v -5 -7 0
v -6 -8 0
v -7 -8 0
v -7 -7 0
v -6 -7 0
v -7 -8 0
v -8 -8 0
v -8 -7 0
v -7 -7 0
v -8 -8 0
v -9 -8 0
v -9 -7 0
v -8 -7 0
v -9 -8 0
v -10 -8 0
v -10 -7 0
v -9 -7 0
v -10 -8 0
v -11 -8 0
v -11 -7 0
v -10 -7 0
v -11 -8 0
v -12 -8 0
v -12 -7 0
v -11 -7 0
v -12 -8 0
v -13 -8 0
v -13 -7 0
v -12 -7 0
v -13 -8 0
v -14 -8 0
v -14 -7 0
v -13 -7 0
v -14 -8 0
v -15 -8 0
v -15 -7 0
v -14 -7 0
v -15 -8 0
v -16 -8 0
v -16 -7 0
v -15 -7 0
v 0 -9 0
v -1 -9 0
v -1 -8 0
v 0 -8 0
v -1 -9 0
v -2 -9 0
v -2 -8 0
v -1 -8 0
v -2 -9 0
v -3 -9 0
v -3 -8 0
v -2 -8 0
v -3 -9 0
v -4 -9 0
v -4 -8 0
v -3 -8 0
v -4 -9 0
v -5 -9 0
v -5 -8 0
v -4 -8 0
v -5 -9 0
v -6 -9 0
v -6 -8 0
v -5 -8 0
v -6 -9 0
v -7 -9 0
v -7 -8 0
v -6 -8 0
v -7 -9 0
v -8 -9 0
v -8 -8 0
v -7 -8 0
v -8 -9 0
v -9 -9 0
v -9 -8 0
v -8 -8 0
v -9 -9 0
v -10 -9 0
v -10 -8 0
v -9 -8 0
v -10 -9 0
v -11 -9 0
v -11 -8 0
v -10 -8 0
v -11 -9 0
v -12 -9 0
v -12 -8 0
v -11 -8 0
v -12 -9 0
v -13 -9 0
v -13 -8 0
v -12 -8 0
v -13 -9 0
v -14 -9 0
v -14 -8 0
v -13 -8 0
v -14 -9 0
v -15 -9 0
v -15 -8 0
v -14 -8 0
v -15 -9 0
v -16 -9 0
v -16 -8 0
v -15 -8 0
v 0 -10 0
v -1 -10 0
v -1 -9 0
v 0 -9 0
v -1 -10 0
v -2 -10 0
v -2 -9 0
v -1 -9 0
v -2 -10 0
v -3 -10 0
v -3 -9 0
v -2 -9 0
v -3 -10 0
v -4 -10 0
v -4 -9 0
v -3 -9 0
v -4 -10 0
v -5 -10 0
v -5 -9 0
v -4 -9 0
v -5 -10 0
v -6 -10 0
v -6 -9 0
v -5 -9 0
v -6 -10 0
v -7 -10 0
v -7 -9 0
v -6 -9 0
v -7 -10 0
v -8 -10 0
v -8 -9 0
v -7 -9 0
v -8 -10 0
v -9 -10 0
v -9 -9 0
v -8 -9 0
v -9 -10 0
v -10 -10 0
v -10 -9 0
v -9 -9 0
v -10 -10 0
v -11 -10 0
v -11 -9 0
v -10 -9 0
v -11 -10 0
v -12 -10 0
v -12 -9 0
v -11 -9 0
v -12 -10 0
v -13 -10 0
v -13 -9 0
v -12 -9 0
v -13 -10 0
v -14 -10 0
v -14 -9 0
v -13 -9 0
v -14 -10 0
v -15 -10 0
v -15 -9 0
v -14 -9 0
v -15 -10 0
v -16 -10 0
v -16 -9 0
v -15 -9 0
v 0 -11 0
v -1 -11 0
v -1 -10 0
v 0 -10 0
v -1 -11 0
v -2 -11 0
v -2 -10 0
v -1 -10 0
v -2 -11 0
v -3 -11 0
v -3 -10 0
v -2 -10 0
v -3 -11 0
v -4 -11 0
v -4 -10 0
v -3 -10 0
v -4 -11 0
v -5 -11 0
v -5 -10 0
v -4 -10 0
v -5 -11 0
v -6 -11 0
v -6 -10 0
v -5 -10 0
v -6 -11 0
v -7 -11 0
v -7 -10 0
v -6 -10 0
v -7 -11 0
v -8 -11 0
v -8 -10 0
v -7 -10 0
v -8 -11 0
v -9 -11 0
v -9 -10 0
v -8 -10 0
v -9 -11 0
v -10 -11 0
v -10 -10 0
v -9 -10 0
v -10 -11 0
v -11 -11 0
v -11 -10 0
v -10 -10 0
v -11 -11 0
v -12 -11 0
v -12 -10 0
v -11 -10 0
v -12 -11 0
v -13 -11 0
v -13 -10 0
v -12 -10 0
v -13 -11 0
v -14 -11 0
v -14 -10 0
v -13 -10 0
v -14 -11 0
v -15 -11 0
v -15 -10 0
v -14 -10 0
v -15 -11 0
v -16 -11 0
v -16 -10 0
v -15 -10 0
v 0 -12 0
v -1 -12 0
v -1 -11 0
v 0 -11 0
v -1 -12 0
v -2 -12 0
v -2 -11 0
v -1 -11 0
v -2 -12 0
v -3 -12 0
v -3 -11 0
v -2 -11 0
v -3 -12 0
v -4 -12 0
v -4 -11 0
v -3 -11 0
v -4 -12 0
v -5 -12 0
v -5 -11 0
v -4 -11 0
v -5 -12 0
v -6 -12 0
v -6 -11 0
v -5 -11 0
v -6 -12 0
v -7 -12 0
v -7 -11 0
v -6 -11 0
v -7 -12 0
v -8 -12 0
v -8 -11 0
v -7 -11 0
v -8 -12 0
v -9 -12 0
v -9 -11 0
v -8 -11 0
v -9 -12 0
v -10 -12 0
v -10 -11 0
v -9 -11 0
v -10 -12 0
v -11 -12 0
v -11 -11 0
v -10 -11 0
v -11 -12 0
v -12 -12 0
v -12 -11 0
v -11 -11 0
v -12 -12 0
v -13 -12 0
v -13 -11 0
v -12 -11 0
v -13 -12 0
v -14 -12 0
v -14 -11 0
v -13 -11 0
v -14 -12 0
v -15 -12 0
v -15 -11 0
v -14 -11 0
v -15 -12 0
v -16 -12 0
v -16 -11 0
v -15 -11 0
v 0 -13 0
v -1 -13 0
v -1 -12 0
v 0 -12 0
v -1 -13 0
v -2 -13 0
v -2 -12 0
v -1 -12 0
v -2 -13 0
v -3 -13 0
v -3 -12 0
v -2 -12 0
v -3 -13 0
v -4 -13 0
v -4 -12 0
v -3 -12 0
v -4 -13 0
v -5 -13 0
v -5 -12 0
v -4 -12 0
v -5 -13 0
v -6 -13 0
v -6 -12 0
v -5 -12 0
v -6 -13 0
v -7 -13 0
v -7 -12 0
v -6 -12 0
v -7 -13 0
v -8 -13 0
v -8 -12 0
v -7 -12 0
v -8 -13 0
v -9 -13 0
v -9 -12 0
v -8 -12 0
v -9 -13 0
v -10 -13 0
v -10 -12 0
v -9 -12 0
v -10 -13 0
v -11 -13 0
v -11 -12 0
v -10 -12 0
v -11 -13 0
v -12 -13 0
v -12 -12 0
v -11 -12 0
v -12 -13 0
v -13 -13 0
v -13 -12 0
v -12 -12 0
v -13 -13 0
v -14 -13 0
v -14 -12 0
v -13 -12 0
v -14 -13 0
v -15 -13 0
v -15 -12 0
v -14 -12 0
v -15 -13 0
v -16 -13 0
v -16 -12 0
v -15 -12 0
v 0 -14 0
v -1 -14 0
v -1 -13 0
v 0 -13 0
v -1 -14 0
v -2 -14 0
v -2 -13 0
v -1 -13 0
v -2 -14 0
v -3 -14 0
v -3 -13 0
v -2 -13 0
v -3 -14 0
v -4 -14 0
v -4 -13 0
v -3 -13 0
v -4 -14 0
v -5 -14 0
v -5 -13 0
v -4 -13 0
v -5 -14 0
v -6 -14 0
v -6 -13 0
v -5 -13 0
v -6 -14 0
v -7 -14 0
v -7 -13 0
v -6 -13 0
v -7 -14 0
v -8 -14 0
v -8 -13 0
v -7 -13 0
v -8 -14 0
v -9 -14 0
v -9 -13 0
v -8 -13 0
v -9 -14 0
v -10 -14 0
v -10 -13 0
v -9 -13 0
v -10 -14 0
v -11 -14 0
v -11 -13 0
v -10 -13 0
v -11 -14 0
v -12 -14 0
v -12 -13 0
v -11 -13 0
v -12 -14 0
v -13 -14 0
v -13 -13 0
v -12 -13 0
v -13 -14 0
v -14 -14 0
v -14 -13 0
v -13 -13 0
v -14 -14 0
v -15 -14 0
v -15 -13 0
v -14 -13 0
v -15 -14 0
v -16 -14 0
v -16 -13 0
v -15 -13 0
v 0 -15 0
v -1 -15 0
v -1 -14 0
v 0 -14 0
v -1 -15 0
v -2 -15 0
v -2 -14 0
v -1 -14 0
v -2 -15 0
v -3 -15 0
v -3 -14 0
v -2 -14 0
v -3 -15 0
v -4 -15 0
v -4 -14 0
v -3 -14 0
v -4 -15 0
v -5 -15 0
v -5 -14 0
v -4 -14 0
v -5 -15 0
v -6 -15 0
v -6 -14 0
v -5 -14 0
v -6 -15 0
v -7 -15 0
v -7 -14 0
v -6 -14 0
v -7 -15 0
v -8 -15 0
v -8 -14 0
v -7 -14 0
v -8 -15 0
v -9 -15 0
v -9 -14 0
v -8 -14 0
v -9 -15 0
v -10 -15 0
v -10 -14 0
v -9 -14 0
v -10 -15 0
v -11 -15 0
v -11 -14 0
v -10 -14 0
v -11 -15 0
v -12 -15 0
v -12 -14 0
v -11 -14 0
v -12 -15 0
v -13 -15 0
v -13 -14 0
v -12 -14 0
v -13 -15 0
v -14 -15 0
v -14 -14 0
v -13 -14 0
v -14 -15 0
v -15 -15 0
v -15 -14 0
v -14 -14 0
v -15 -15 0
v -16 -15 0
v -16 -14 0
v -15 -14 0
v 0 -16 0
v -1 -16 0
v -1 -15 0
v 0 -15 0
v -1 -16 0
v -2 -16 0
v -2 -15 0
v -1 -15 0
v -2 -16 0
v -3 -16 0
v -3 -15 0
v -2 -15 0
v -3 -16 0
v -4 -16 0
v -4 -15 0
v -3 -15 0
v -4 -16 0
v -5 -16 0
v -5 -15 0
v -4 -15 0
v -5 -16 0
v -6 -16 0
v -6 -15 0
v -5 -15 0
v -6 -16 0
v -7 -16 0
v -7 -15 0
v -6 -15 0
v -7 -16 0
v -8 -16 0
v -8 -15 0
v -7 -15 0
v -8 -16 0
v -9 -16 0
v -9 -15 0
v -8 -15 0
v -9 -16 0
v -10 -16 0
v -10 -15 0
v -9 -15 0
v -10 -16 0
v -11 -16 0
v -11 -15 0
v -10 -15 0
v -11 -16 0
v -12 -16 0
v -12 -15 0
v -11 -15 0
v -12 -16 0
v -13 -16 0
v -13 -15 0
v -12 -15 0
v -13 -16 0
v -14 -16 0
v -14 -15 0
v -13 -15 0
v -14 -16 0
v -15 -16 0
v -15 -15 0
v -14 -15 0
v -15 -16 0
v -16 -16 0
v -16 -15 0
v -15 -15 0

# Texture cooridinates (Count = 8)
vt 0.65625 0.8125
vt 0.6875 0.8125
vt 0.6875 0.84375
vt 0.65625 0.84375
vt 0.71875 0.8125
vt 0.75 0.8125
vt 0.75 0.84375
vt 0.71875 0.84375

# Normal
vn 0 0 -1

# Mesh description
g testmap1_mesh_0398

# Faces
f 1/1/1 2/2/1 3/3/1 4/4/1
f 5/1/1 6/2/1 7/3/1 8/4/1
f 9/1/1 10/2/1 11/3/1 12/4/1
f 13/1/1 14/2/1 15/3/1 16/4/1
f 17/5/1 18/6/1 19/7/1 20/8/1
f 21/1/1 22/2/1 23/3/1 24/4/1
f 25/5/1 26/6/1 27/7/1 28/8/1
f 29/5/1 30/6/1 31/7/1 32/8/1
f 33/2/1 34/5/1 35/8/1 36/3/1
f 37/1/1 38/2/1 39/3/1 40/4/1
f 41/2/1 42/5/1 43/8/1 44/3/1
f 45/2/1 46/5/1 47/8/1 48/3/1
f 49/1/1 50/2/1 51/3/1 52/4/1
f 53/2/1 54/5/1 55/8/1 56/3/1
f 57/2/1 58/5/1 59/8/1 60/3/1
f 61/5/1 62/6/1 63/7/1 64/8/1
f 65/5/1 66/6/1 67/7/1 68/8/1
f 69/5/1 70/6/1 71/7/1 72/8/1
f 73/5/1 74/6/1 75/7/1 76/8/1
f 77/5/1 78/6/1 79/7/1 80/8/1
f 81/1/1 82/2/1 83/3/1 84/4/1
f 85/2/1 86/5/1 87/8/1 88/3/1
f 89/5/1 90/6/1 91/7/1 92/8/1
f 93/2/1 94/5/1 95/8/1 96/3/1
f 97/5/1 98/6/1 99/7/1 100/8/1
f 101/2/1 102/5/1 103/8/1 104/3/1
f 105/2/1 106/5/1 107/8/1 108/3/1
f 109/1/1 110/2/1 111/3/1 112/4/1
f 113/2/1 114/5/1 115/8/1 116/3/1
f 117/5/1 118/6/1 119/7/1 120/8/1
f 121/2/1 122/5/1 123/8/1 124/3/1
f 125/1/1 126/2/1 127/3/1 128/4/1
f 129/1/1 130/2/1 131/3/1 132/4/1
f 133/2/1 134/5/1 135/8/1 136/3/1
f 137/2/1 138/5/1 139/8/1 140/3/1
f 141/1/1 142/2/1 143/3/1 144/4/1
f 145/1/1 146/2/1 147/3/1 148/4/1
f 149/2/1 150/5/1 151/8/1 152/3/1
f 153/2/1 154/5/1 155/8/1 156/3/1
f 157/2/1 158/5/1 159/8/1 160/3/1
f 161/5/1 162/6/1 163/7/1 164/8/1
f 165/1/1 166/2/1 167/3/1 168/4/1
f 169/5/1 170/6/1 171/7/1 172/8/1
f 173/1/1 174/2/1 175/3/1 176/4/1
f 177/1/1 178/2/1 179/3/1 180/4/1
f 181/1/1 182/2/1 183/3/1 184/4/1
f 185/1/1 186/2/1 187/3/1 188/4/1
f 189/2/1 190/5/1 191/8/1 192/3/1
f 193/5/1 194/6/1 195/7/1 196/8/1
f 197/5/1 198/6/1 199/7/1 200/8/1
f 201/1/1 202/2/1 203/3/1 204/4/1
f 205/5/1 206/6/1 207/7/1 208/8/1
f 209/5/1 210/6/1 211/7/1 212/8/1
f 213/1/1 214/2/1 215/3/1 216/4/1
f 217/2/1 218/5/1 219/8/1 220/3/1
f 221/5/1 222/6/1 223/7/1 224/8/1
f 225/1/1 226/2/1 227/3/1 228/4/1
f 229/2/1 230/5/1 231/8/1 232/3/1
f 233/5/1 234/6/1 235/7/1 236/8/1
f 237/5/1 238/6/1 239/7/1 240/8/1
f 241/5/1 242/6/1 243/7/1 244/8/1
f 245/5/1 246/6/1 247/7/1 248/8/1
f 249/5/1 250/6/1 251/7/1 252/8/1
f 253/5/1 254/6/1 255/7/1 256/8/1
f 257/2/1 258/5/1 259/8/1 260/3/1
f 261/5/1 262/6/1 263/7/1 264/8/1
f 265/2/1 266/5/1 267/8/1 268/3/1
f 269/2/1 270/5/1 271/8/1 272/3/1
f 273/2/1 274/5/1 275/8/1 276/3/1
f 277/1/1 278/2/1 279/3/1 280/4/1
f 281/2/1 282/5/1 283/8/1 284/3/1
f 285/1/1 286/2/1 287/3/1 288/4/1
f 289/1/1 290/2/1 291/3/1 292/4/1
f 293/2/1 294/5/1 295/8/1 296/3/1
f 297/2/1 298/5/1 299/8/1 300/3/1
f 301/5/1 302/6/1 303/7/1 304/8/1
f 305/1/1 306/2/1 307/3/1 308/4/1
f 309/1/1 310/2/1 311/3/1 312/4/1
f 313/1/1 314/2/1 315/3/1 316/4/1
f 317/2/1 318/5/1 319/8/1 320/3/1
f 321/2/1 322/5/1 323/8/1 324/3/1
f 325/1/1 326/2/1 327/3/1 328/4/1
f 329/2/1 330/5/1 331/8/1 332/3/1
f 333/1/1 334/2/1 335/3/1 336/4/1
f 337/1/1 338/2/1 339/3/1 340/4/1
f 341/1/1 342/2/1 343/3/1 344/4/1
f 345/5/1 346/6/1 347/7/1 348/8/1
f 349/1/1 350/2/1 351/3/1 352/4/1
f 353/1/1 354/2/1 355/3/1 356/4/1
f 357/2/1 358/5/1 359/8/1 360/3/1
f 361/1/1 362/2/1 363/3/1 364/4/1
f 365/2/1 366/5/1 367/8/1 368/3/1
f 369/2/1 370/5/1 371/8/1 372/3/1
f 373/1/1 374/2/1 375/3/1 376/4/1
f 377/1/1 378/2/1 379/3/1 380/4/1
f 381/5/1 382/6/1 383/7/1 384/8/1
f 385/5/1 386/6/1 387/7/1 388/8/1
f 389/5/1 390/6/1 391/7/1 392/8/1
f 393/2/1 394/5/1 395/8/1 396/3/1
f 397/2/1 398/5/1 399/8/1 400/3/1
f 401/2/1 402/5/1 403/8/1 404/3/1
f 405/1/1 406/2/1 407/3/1 408/4/1
f 409/1/1 410/2/1 411/3/1 412/4/1
f 413/2/1 414/5/1 415/8/1 416/3/1
f 417/2/1 418/5/1 419/8/1 420/3/1
f 421/5/1 422/6/1 423/7/1 424/8/1
f 425/2/1 426/5/1 427/8/1 428/3/1
f 429/5/1 430/6/1 431/7/1 432/8/1
f 433/2/1 434/5/1 435/8/1 436/3/1
f 437/5/1 438/6/1 439/7/1 440/8/1
f 441/2/1 442/5/1 443/8/1 444/3/1
f 445/5/1 446/6/1 447/7/1 448/8/1
f 449/1/1 450/2/1 451/3/1 452/4/1
f 453/1/1 454/2/1 455/3/1 456/4/1
f 457/2/1 458/5/1 459/8/1 460/3/1
f 461/1/1 462/2/1 463/3/1 464/4/1
f 465/1/1 466/2/1 467/3/1 468/4/1
f 469/1/1 470/2/1 471/3/1 472/4/1
f 473/5/1 474/6/1 475/7/1 476/8/1
f 477/2/1 478/5/1 479/8/1 480/3/1
f 481/5/1 482/6/1 483/7/1 484/8/1
f 485/1/1 486/2/1 487/3/1 488/4/1
f 489/2/1 490/5/1 491/8/1 492/3/1
f 493/2/1 494/5/1 495/8/1 496/3/1
f 497/5/1 498/6/1 499/7/1 500/8/1
f 501/2/1 502/5/1 503/8/1 504/3/1
f 505/5/1 506/6/1 507/7/1 508/8/1
f 509/5/1 510/6/1 511/7/1 512/8/1
f 513/2/1 514/5/1 515/8/1 516/3/1
f 517/2/1 518/5/1 519/8/1 520/3/1
f 521/1/1 522/2/1 523/3/1 524/4/1
f 525/2/1 526/5/1 527/8/1 528/3/1
f 529/5/1 530/6/1 531/7/1 532/8/1
f 533/2/1 534/5/1 535/8/1 536/3/1
f 537/5/1 538/6/1 539/7/1 540/8/1
f 541/1/1 542/2/1 543/3/1 544/4/1
f 545/5/1 546/6/1 547/7/1 548/8/1
f 549/1/1 550/2/1 551/3/1 552/4/1
f 553/1/1 554/2/1 555/3/1 556/4/1
f 557/5/1 558/6/1 559/7/1 560/8/1
f 561/5/1 562/6/1 563/7/1 564/8/1
f 565/5/1 566/6/1 567/7/1 568/8/1
f 569/1/1 570/2/1 571/3/1 572/4/1
f 573/5/1 574/6/1 575/7/1 576/8/1
f 577/1/1 578/2/1 579/3/1 580/4/1
f 581/5/1 582/6/1 583/7/1 584/8/1
f 585/2/1 586/5/1 587/8/1 588/3/1
f 589/2/1 590/5/1 591/8/1 592/3/1
f 593/5/1 594/6/1 595/7/1 596/8/1
f 597/2/1 598/5/1 599/8/1 600/3/1
f 601/2/1 602/5/1 603/8/1 604/3/1
f 605/5/1 606/6/1 607/7/1 608/8/1
f 609/5/1 610/6/1 611/7/1 612/8/1
f 613/5/1 614/6/1 615/7/1 616/8/1
f 617/1/1 618/2/1 619/3/1 620/4/1
f 621/5/1 622/6/1 623/7/1 624/8/1
f 625/5/1 626/6/1 627/7/1 628/8/1
f 629/2/1 630/5/1 631/8/1 632/3/1
f 633/5/1 634/6/1 635/7/1 636/8/1
f 637/1/1 638/2/1 639/3/1 640/4/1

