# Tiled2Unity generated file. Do not modify by hand.
# Wavefront file for 'testmap1_mesh_0417.obj'

# Vertices (Count = 1024)
v 0 -1 0
v -1 -1 0
v -1 0 0
v 0 0 0
v -1 -1 0
v -2 -1 0
v -2 0 0
v -1 0 0
v -2 -1 0
v -3 -1 0
v -3 0 0
v -2 0 0
v -3 -1 0
v -4 -1 0
v -4 0 0
v -3 0 0
v -4 -1 0
v -5 -1 0
v -5 0 0
v -4 0 0
v -5 -1 0
v -6 -1 0
v -6 0 0
v -5 0 0
v -6 -1 0
v -7 -1 0
v -7 0 0
v -6 0 0
v -7 -1 0
v -8 -1 0
v -8 0 0
v -7 0 0
v -8 -1 0
v -9 -1 0
v -9 0 0
v -8 0 0
v -9 -1 0
v -10 -1 0
v -10 0 0
v -9 0 0
v -10 -1 0
v -11 -1 0
v -11 0 0
v -10 0 0
v -11 -1 0
v -12 -1 0
v -12 0 0
v -11 0 0
v -12 -1 0
v -13 -1 0
v -13 0 0
v -12 0 0
v -13 -1 0
v -14 -1 0
v -14 0 0
v -13 0 0
v -14 -1 0
v -15 -1 0
v -15 0 0
v -14 0 0
v -15 -1 0
v -16 -1 0
v -16 0 0
v -15 0 0
v 0 -2 0
v -1 -2 0
v -1 -1 0
v 0 -1 0
v -1 -2 0
v -2 -2 0
v -2 -1 0
v -1 -1 0
v -2 -2 0
v -3 -2 0
v -3 -1 0
v -2 -1 0
v -3 -2 0
v -4 -2 0
v -4 -1 0
v -3 -1 0
v -4 -2 0
v -5 -2 0
v -5 -1 0
v -4 -1 0
v -5 -2 0
v -6 -2 0
v -6 -1 0
v -5 -1 0
v -6 -2 0
v -7 -2 0
v -7 -1 0
v -6 -1 0
v -7 -2 0
v -8 -2 0
v -8 -1 0
v -7 -1 0
v -8 -2 0
v -9 -2 0
v -9 -1 0
v -8 -1 0
v -9 -2 0
v -10 -2 0
v -10 -1 0
v -9 -1 0
v -10 -2 0
v -11 -2 0
v -11 -1 0
v -10 -1 0
v -11 -2 0
v -12 -2 0
v -12 -1 0
v -11 -1 0
v -12 -2 0
v -13 -2 0
v -13 -1 0
v -12 -1 0
v -13 -2 0
v -14 -2 0
v -14 -1 0
v -13 -1 0
v -14 -2 0
v -15 -2 0
v -15 -1 0
v -14 -1 0
v -15 -2 0
v -16 -2 0
v -16 -1 0
v -15 -1 0
v 0 -3 0
v -1 -3 0
v -1 -2 0
v 0 -2 0
v -1 -3 0
v -2 -3 0
v -2 -2 0
v -1 -2 0
v -2 -3 0
v -3 -3 0
v -3 -2 0
v -2 -2 0
v -3 -3 0
v -4 -3 0
v -4 -2 0
v -3 -2 0
v -4 -3 0
v -5 -3 0
v -5 -2 0
v -4 -2 0
v -5 -3 0
v -6 -3 0
v -6 -2 0
v -5 -2 0
v -6 -3 0
v -7 -3 0
v -7 -2 0
v -6 -2 0
v -7 -3 0
v -8 -3 0
v -8 -2 0
v -7 -2 0
v -8 -3 0
v -9 -3 0
v -9 -2 0
v -8 -2 0
v -9 -3 0
v -10 -3 0
v -10 -2 0
v -9 -2 0
v -10 -3 0
v -11 -3 0
v -11 -2 0
v -10 -2 0
v -11 -3 0
v -12 -3 0
v -12 -2 0
v -11 -2 0
v -12 -3 0
v -13 -3 0
v -13 -2 0
v -12 -2 0
v -13 -3 0
v -14 -3 0
v -14 -2 0
v -13 -2 0
v -14 -3 0
v -15 -3 0
v -15 -2 0
v -14 -2 0
v -15 -3 0
v -16 -3 0
v -16 -2 0
v -15 -2 0
v 0 -4 0
v -1 -4 0
v -1 -3 0
v 0 -3 0
v -1 -4 0
v -2 -4 0
v -2 -3 0
v -1 -3 0
v -2 -4 0
v -3 -4 0
v -3 -3 0
v -2 -3 0
v -3 -4 0
v -4 -4 0
v -4 -3 0
v -3 -3 0
v -4 -4 0
v -5 -4 0
v -5 -3 0
v -4 -3 0
v -5 -4 0
v -6 -4 0
v -6 -3 0
v -5 -3 0
v -6 -4 0
v -7 -4 0
v -7 -3 0
v -6 -3 0
v -7 -4 0
v -8 -4 0
v -8 -3 0
v -7 -3 0
v -8 -4 0
v -9 -4 0
v -9 -3 0
v -8 -3 0
v -9 -4 0
v -10 -4 0
v -10 -3 0
v -9 -3 0
v -10 -4 0
v -11 -4 0
v -11 -3 0
v -10 -3 0
v -11 -4 0
v -12 -4 0
v -12 -3 0
v -11 -3 0
v -12 -4 0
v -13 -4 0
v -13 -3 0
v -12 -3 0
v -13 -4 0
v -14 -4 0
v -14 -3 0
v -13 -3 0
v -14 -4 0
v -15 -4 0
v -15 -3 0
v -14 -3 0
v -15 -4 0
v -16 -4 0
v -16 -3 0
v -15 -3 0
v 0 -5 0
v -1 -5 0
v -1 -4 0
v 0 -4 0
v -1 -5 0
v -2 -5 0
v -2 -4 0
v -1 -4 0
v -2 -5 0
v -3 -5 0
v -3 -4 0
v -2 -4 0
v -3 -5 0
v -4 -5 0
v -4 -4 0
v -3 -4 0
v -4 -5 0
v -5 -5 0
v -5 -4 0
v -4 -4 0
v -5 -5 0
v -6 -5 0
v -6 -4 0
v -5 -4 0
v -6 -5 0
v -7 -5 0
v -7 -4 0
v -6 -4 0
v -7 -5 0
v -8 -5 0
v -8 -4 0
v -7 -4 0
v -8 -5 0
v -9 -5 0
v -9 -4 0
v -8 -4 0
v -9 -5 0
v -10 -5 0
v -10 -4 0
v -9 -4 0
v -10 -5 0
v -11 -5 0
v -11 -4 0
v -10 -4 0
v -11 -5 0
v -12 -5 0
v -12 -4 0
v -11 -4 0
v -12 -5 0
v -13 -5 0
v -13 -4 0
v -12 -4 0
v -13 -5 0
v -14 -5 0
v -14 -4 0
v -13 -4 0
v -14 -5 0
v -15 -5 0
v -15 -4 0
v -14 -4 0
v -15 -5 0
v -16 -5 0
v -16 -4 0
v -15 -4 0
v 0 -6 0
v -1 -6 0
v -1 -5 0
v 0 -5 0
v -1 -6 0
v -2 -6 0
v -2 -5 0
v -1 -5 0
v -2 -6 0
v -3 -6 0
v -3 -5 0
v -2 -5 0
v -3 -6 0
v -4 -6 0
v -4 -5 0
v -3 -5 0
v -4 -6 0
v -5 -6 0
v -5 -5 0
v -4 -5 0
v -5 -6 0
v -6 -6 0
v -6 -5 0
v -5 -5 0
v -6 -6 0
v -7 -6 0
v -7 -5 0
v -6 -5 0
v -7 -6 0
v -8 -6 0
v -8 -5 0
v -7 -5 0
v -8 -6 0
v -9 -6 0
v -9 -5 0
v -8 -5 0
v -9 -6 0
v -10 -6 0
v -10 -5 0
v -9 -5 0
v -10 -6 0
v -11 -6 0
v -11 -5 0
v -10 -5 0
v -11 -6 0
v -12 -6 0
v -12 -5 0
v -11 -5 0
v -12 -6 0
v -13 -6 0
v -13 -5 0
v -12 -5 0
v -13 -6 0
v -14 -6 0
v -14 -5 0
v -13 -5 0
v -14 -6 0
v -15 -6 0
v -15 -5 0
v -14 -5 0
v -15 -6 0
v -16 -6 0
v -16 -5 0
v -15 -5 0
v 0 -7 0
v -1 -7 0
v -1 -6 0
v 0 -6 0
v -1 -7 0
v -2 -7 0
v -2 -6 0
v -1 -6 0
v -2 -7 0
v -3 -7 0
v -3 -6 0
v -2 -6 0
v -3 -7 0
v -4 -7 0
v -4 -6 0
v -3 -6 0
v -4 -7 0
v -5 -7 0
v -5 -6 0
v -4 -6 0
v -5 -7 0
v -6 -7 0
v -6 -6 0
v -5 -6 0
v -6 -7 0
v -7 -7 0
v -7 -6 0
v -6 -6 0
v -7 -7 0
v -8 -7 0
v -8 -6 0
v -7 -6 0
v -8 -7 0
v -9 -7 0
v -9 -6 0
v -8 -6 0
v -9 -7 0
v -10 -7 0
v -10 -6 0
v -9 -6 0
v -10 -7 0
v -11 -7 0
v -11 -6 0
v -10 -6 0
v -11 -7 0
v -12 -7 0
v -12 -6 0
v -11 -6 0
v -12 -7 0
v -13 -7 0
v -13 -6 0
v -12 -6 0
v -13 -7 0
v -14 -7 0
v -14 -6 0
v -13 -6 0
v -14 -7 0
v -15 -7 0
v -15 -6 0
v -14 -6 0
v -15 -7 0
v -16 -7 0
v -16 -6 0
v -15 -6 0
v 0 -8 0
v -1 -8 0
v -1 -7 0
v 0 -7 0
v -1 -8 0
v -2 -8 0
v -2 -7 0
v -1 -7 0
v -2 -8 0
v -3 -8 0
v -3 -7 0
v -2 -7 0
v -3 -8 0
v -4 -8 0
v -4 -7 0
v -3 -7 0
v -4 -8 0
v -5 -8 0
v -5 -7 0
v -4 -7 0
v -5 -8 0
v -6 -8 0
v -6 -7 0
v -5 -7 0
v -6 -8 0
v -7 -8 0
v -7 -7 0
v -6 -7 0
v -7 -8 0
v -8 -8 0
v -8 -7 0
v -7 -7 0
v -8 -8 0
v -9 -8 0
v -9 -7 0
v -8 -7 0
v -9 -8 0
v -10 -8 0
v -10 -7 0
v -9 -7 0
v -10 -8 0
v -11 -8 0
v -11 -7 0
v -10 -7 0
v -11 -8 0
v -12 -8 0
v -12 -7 0
v -11 -7 0
v -12 -8 0
v -13 -8 0
v -13 -7 0
v -12 -7 0
v -13 -8 0
v -14 -8 0
v -14 -7 0
v -13 -7 0
v -14 -8 0
v -15 -8 0
v -15 -7 0
v -14 -7 0
v -15 -8 0
v -16 -8 0
v -16 -7 0
v -15 -7 0
v 0 -9 0
v -1 -9 0
v -1 -8 0
v 0 -8 0
v -1 -9 0
v -2 -9 0
v -2 -8 0
v -1 -8 0
v -2 -9 0
v -3 -9 0
v -3 -8 0
v -2 -8 0
v -3 -9 0
v -4 -9 0
v -4 -8 0
v -3 -8 0
v -4 -9 0
v -5 -9 0
v -5 -8 0
v -4 -8 0
v -5 -9 0
v -6 -9 0
v -6 -8 0
v -5 -8 0
v -6 -9 0
v -7 -9 0
v -7 -8 0
v -6 -8 0
v -7 -9 0
v -8 -9 0
v -8 -8 0
v -7 -8 0
v -8 -9 0
v -9 -9 0
v -9 -8 0
v -8 -8 0
v -9 -9 0
v -10 -9 0
v -10 -8 0
v -9 -8 0
v -10 -9 0
v -11 -9 0
v -11 -8 0
v -10 -8 0
v -11 -9 0
v -12 -9 0
v -12 -8 0
v -11 -8 0
v -12 -9 0
v -13 -9 0
v -13 -8 0
v -12 -8 0
v -13 -9 0
v -14 -9 0
v -14 -8 0
v -13 -8 0
v -14 -9 0
v -15 -9 0
v -15 -8 0
v -14 -8 0
v -15 -9 0
v -16 -9 0
v -16 -8 0
v -15 -8 0
v 0 -10 0
v -1 -10 0
v -1 -9 0
v 0 -9 0
v -1 -10 0
v -2 -10 0
v -2 -9 0
v -1 -9 0
v -2 -10 0
v -3 -10 0
v -3 -9 0
v -2 -9 0
v -3 -10 0
v -4 -10 0
v -4 -9 0
v -3 -9 0
v -4 -10 0
v -5 -10 0
v -5 -9 0
v -4 -9 0
v -5 -10 0
v -6 -10 0
v -6 -9 0
v -5 -9 0
v -6 -10 0
v -7 -10 0
v -7 -9 0
v -6 -9 0
v -7 -10 0
v -8 -10 0
v -8 -9 0
v -7 -9 0
v -8 -10 0
v -9 -10 0
v -9 -9 0
v -8 -9 0
v -9 -10 0
v -10 -10 0
v -10 -9 0
v -9 -9 0
v -10 -10 0
v -11 -10 0
v -11 -9 0
v -10 -9 0
v -11 -10 0
v -12 -10 0
v -12 -9 0
v -11 -9 0
v -12 -10 0
v -13 -10 0
v -13 -9 0
v -12 -9 0
v -13 -10 0
v -14 -10 0
v -14 -9 0
v -13 -9 0
v -14 -10 0
v -15 -10 0
v -15 -9 0
v -14 -9 0
v -15 -10 0
v -16 -10 0
v -16 -9 0
v -15 -9 0
v 0 -11 0
v -1 -11 0
v -1 -10 0
v 0 -10 0
v -1 -11 0
v -2 -11 0
v -2 -10 0
v -1 -10 0
v -2 -11 0
v -3 -11 0
v -3 -10 0
v -2 -10 0
v -3 -11 0
v -4 -11 0
v -4 -10 0
v -3 -10 0
v -4 -11 0
v -5 -11 0
v -5 -10 0
v -4 -10 0
v -5 -11 0
v -6 -11 0
v -6 -10 0
v -5 -10 0
v -6 -11 0
v -7 -11 0
v -7 -10 0
v -6 -10 0
v -7 -11 0
v -8 -11 0
v -8 -10 0
v -7 -10 0
v -8 -11 0
v -9 -11 0
v -9 -10 0
v -8 -10 0
v -9 -11 0
v -10 -11 0
v -10 -10 0
v -9 -10 0
v -10 -11 0
v -11 -11 0
v -11 -10 0
v -10 -10 0
v -11 -11 0
v -12 -11 0
v -12 -10 0
v -11 -10 0
v -12 -11 0
v -13 -11 0
v -13 -10 0
v -12 -10 0
v -13 -11 0
v -14 -11 0
v -14 -10 0
v -13 -10 0
v -14 -11 0
v -15 -11 0
v -15 -10 0
v -14 -10 0
v -15 -11 0
v -16 -11 0
v -16 -10 0
v -15 -10 0
v 0 -12 0
v -1 -12 0
v -1 -11 0
v 0 -11 0
v -1 -12 0
v -2 -12 0
v -2 -11 0
v -1 -11 0
v -2 -12 0
v -3 -12 0
v -3 -11 0
v -2 -11 0
v -3 -12 0
v -4 -12 0
v -4 -11 0
v -3 -11 0
v -4 -12 0
v -5 -12 0
v -5 -11 0
v -4 -11 0
v -5 -12 0
v -6 -12 0
v -6 -11 0
v -5 -11 0
v -6 -12 0
v -7 -12 0
v -7 -11 0
v -6 -11 0
v -7 -12 0
v -8 -12 0
v -8 -11 0
v -7 -11 0
v -8 -12 0
v -9 -12 0
v -9 -11 0
v -8 -11 0
v -9 -12 0
v -10 -12 0
v -10 -11 0
v -9 -11 0
v -10 -12 0
v -11 -12 0
v -11 -11 0
v -10 -11 0
v -11 -12 0
v -12 -12 0
v -12 -11 0
v -11 -11 0
v -12 -12 0
v -13 -12 0
v -13 -11 0
v -12 -11 0
v -13 -12 0
v -14 -12 0
v -14 -11 0
v -13 -11 0
v -14 -12 0
v -15 -12 0
v -15 -11 0
v -14 -11 0
v -15 -12 0
v -16 -12 0
v -16 -11 0
v -15 -11 0
v 0 -13 0
v -1 -13 0
v -1 -12 0
v 0 -12 0
v -1 -13 0
v -2 -13 0
v -2 -12 0
v -1 -12 0
v -2 -13 0
v -3 -13 0
v -3 -12 0
v -2 -12 0
v -3 -13 0
v -4 -13 0
v -4 -12 0
v -3 -12 0
v -4 -13 0
v -5 -13 0
v -5 -12 0
v -4 -12 0
v -5 -13 0
v -6 -13 0
v -6 -12 0
v -5 -12 0
v -6 -13 0
v -7 -13 0
v -7 -12 0
v -6 -12 0
v -7 -13 0
v -8 -13 0
v -8 -12 0
v -7 -12 0
v -8 -13 0
v -9 -13 0
v -9 -12 0
v -8 -12 0
v -9 -13 0
v -10 -13 0
v -10 -12 0
v -9 -12 0
v -10 -13 0
v -11 -13 0
v -11 -12 0
v -10 -12 0
v -11 -13 0
v -12 -13 0
v -12 -12 0
v -11 -12 0
v -12 -13 0
v -13 -13 0
v -13 -12 0
v -12 -12 0
v -13 -13 0
v -14 -13 0
v -14 -12 0
v -13 -12 0
v -14 -13 0
v -15 -13 0
v -15 -12 0
v -14 -12 0
v -15 -13 0
v -16 -13 0
v -16 -12 0
v -15 -12 0
v 0 -14 0
v -1 -14 0
v -1 -13 0
v 0 -13 0
v -1 -14 0
v -2 -14 0
v -2 -13 0
v -1 -13 0
v -2 -14 0
v -3 -14 0
v -3 -13 0
v -2 -13 0
v -3 -14 0
v -4 -14 0
v -4 -13 0
v -3 -13 0
v -4 -14 0
v -5 -14 0
v -5 -13 0
v -4 -13 0
v -5 -14 0
v -6 -14 0
v -6 -13 0
v -5 -13 0
v -6 -14 0
v -7 -14 0
v -7 -13 0
v -6 -13 0
v -7 -14 0
v -8 -14 0
v -8 -13 0
v -7 -13 0
v -8 -14 0
v -9 -14 0
v -9 -13 0
v -8 -13 0
v -9 -14 0
v -10 -14 0
v -10 -13 0
v -9 -13 0
v -10 -14 0
v -11 -14 0
v -11 -13 0
v -10 -13 0
v -11 -14 0
v -12 -14 0
v -12 -13 0
v -11 -13 0
v -12 -14 0
v -13 -14 0
v -13 -13 0
v -12 -13 0
v -13 -14 0
v -14 -14 0
v -14 -13 0
v -13 -13 0
v -14 -14 0
v -15 -14 0
v -15 -13 0
v -14 -13 0
v -15 -14 0
v -16 -14 0
v -16 -13 0
v -15 -13 0
v 0 -15 0
v -1 -15 0
v -1 -14 0
v 0 -14 0
v -1 -15 0
v -2 -15 0
v -2 -14 0
v -1 -14 0
v -2 -15 0
v -3 -15 0
v -3 -14 0
v -2 -14 0
v -3 -15 0
v -4 -15 0
v -4 -14 0
v -3 -14 0
v -4 -15 0
v -5 -15 0
v -5 -14 0
v -4 -14 0
v -5 -15 0
v -6 -15 0
v -6 -14 0
v -5 -14 0
v -6 -15 0
v -7 -15 0
v -7 -14 0
v -6 -14 0
v -7 -15 0
v -8 -15 0
v -8 -14 0
v -7 -14 0
v -8 -15 0
v -9 -15 0
v -9 -14 0
v -8 -14 0
v -9 -15 0
v -10 -15 0
v -10 -14 0
v -9 -14 0
v -10 -15 0
v -11 -15 0
v -11 -14 0
v -10 -14 0
v -11 -15 0
v -12 -15 0
v -12 -14 0
v -11 -14 0
v -12 -15 0
v -13 -15 0
v -13 -14 0
v -12 -14 0
v -13 -15 0
v -14 -15 0
v -14 -14 0
v -13 -14 0
v -14 -15 0
v -15 -15 0
v -15 -14 0
v -14 -14 0
v -15 -15 0
v -16 -15 0
v -16 -14 0
v -15 -14 0
v 0 -16 0
v -1 -16 0
v -1 -15 0
v 0 -15 0
v -1 -16 0
v -2 -16 0
v -2 -15 0
v -1 -15 0
v -2 -16 0
v -3 -16 0
v -3 -15 0
v -2 -15 0
v -3 -16 0
v -4 -16 0
v -4 -15 0
v -3 -15 0
v -4 -16 0
v -5 -16 0
v -5 -15 0
v -4 -15 0
v -5 -16 0
v -6 -16 0
v -6 -15 0
v -5 -15 0
v -6 -16 0
v -7 -16 0
v -7 -15 0
v -6 -15 0
v -7 -16 0
v -8 -16 0
v -8 -15 0
v -7 -15 0
v -8 -16 0
v -9 -16 0
v -9 -15 0
v -8 -15 0
v -9 -16 0
v -10 -16 0
v -10 -15 0
v -9 -15 0
v -10 -16 0
v -11 -16 0
v -11 -15 0
v -10 -15 0
v -11 -16 0
v -12 -16 0
v -12 -15 0
v -11 -15 0
v -12 -16 0
v -13 -16 0
v -13 -15 0
v -12 -15 0
v -13 -16 0
v -14 -16 0
v -14 -15 0
v -13 -15 0
v -14 -16 0
v -15 -16 0
v -15 -15 0
v -14 -15 0
v -15 -16 0
v -16 -16 0
v -16 -15 0
v -15 -15 0

# Texture cooridinates (Count = 8)
vt 0.6875 0.8125
vt 0.71875 0.8125
vt 0.71875 0.84375
vt 0.6875 0.84375
vt 0.75 0.8125
vt 0.75 0.84375
vt 0.65625 0.8125
vt 0.65625 0.84375

# Normal
vn 0 0 -1

# Mesh description
g testmap1_mesh_0417

# Faces
f 1/1/1 2/2/1 3/3/1 4/4/1
f 5/1/1 6/2/1 7/3/1 8/4/1
f 9/2/1 10/5/1 11/6/1 12/3/1
f 13/1/1 14/2/1 15/3/1 16/4/1
f 17/2/1 18/5/1 19/6/1 20/3/1
f 21/2/1 22/5/1 23/6/1 24/3/1
f 25/1/1 26/2/1 27/3/1 28/4/1
f 29/1/1 30/2/1 31/3/1 32/4/1
f 33/1/1 34/2/1 35/3/1 36/4/1
f 37/2/1 38/5/1 39/6/1 40/3/1
f 41/2/1 42/5/1 43/6/1 44/3/1
f 45/1/1 46/2/1 47/3/1 48/4/1
f 49/2/1 50/5/1 51/6/1 52/3/1
f 53/1/1 54/2/1 55/3/1 56/4/1
f 57/2/1 58/5/1 59/6/1 60/3/1
f 61/2/1 62/5/1 63/6/1 64/3/1
f 65/2/1 66/5/1 67/6/1 68/3/1
f 69/2/1 70/5/1 71/6/1 72/3/1
f 73/7/1 74/1/1 75/4/1 76/8/1
f 77/2/1 78/5/1 79/6/1 80/3/1
f 81/1/1 82/2/1 83/3/1 84/4/1
f 85/7/1 86/1/1 87/4/1 88/8/1
f 89/1/1 90/2/1 91/3/1 92/4/1
f 93/2/1 94/5/1 95/6/1 96/3/1
f 97/2/1 98/5/1 99/6/1 100/3/1
f 101/1/1 102/2/1 103/3/1 104/4/1
f 105/1/1 106/2/1 107/3/1 108/4/1
f 109/2/1 110/5/1 111/6/1 112/3/1
f 113/2/1 114/5/1 115/6/1 116/3/1
f 117/1/1 118/2/1 119/3/1 120/4/1
f 121/1/1 122/2/1 123/3/1 124/4/1
f 125/7/1 126/1/1 127/4/1 128/8/1
f 129/2/1 130/5/1 131/6/1 132/3/1
f 133/7/1 134/1/1 135/4/1 136/8/1
f 137/1/1 138/2/1 139/3/1 140/4/1
f 141/7/1 142/1/1 143/4/1 144/8/1
f 145/2/1 146/5/1 147/6/1 148/3/1
f 149/7/1 150/1/1 151/4/1 152/8/1
f 153/1/1 154/2/1 155/3/1 156/4/1
f 157/7/1 158/1/1 159/4/1 160/8/1
f 161/1/1 162/2/1 163/3/1 164/4/1
f 165/7/1 166/1/1 167/4/1 168/8/1
f 169/2/1 170/5/1 171/6/1 172/3/1
f 173/1/1 174/2/1 175/3/1 176/4/1
f 177/1/1 178/2/1 179/3/1 180/4/1
f 181/7/1 182/1/1 183/4/1 184/8/1
f 185/1/1 186/2/1 187/3/1 188/4/1
f 189/7/1 190/1/1 191/4/1 192/8/1
f 193/1/1 194/2/1 195/3/1 196/4/1
f 197/1/1 198/2/1 199/3/1 200/4/1
f 201/2/1 202/5/1 203/6/1 204/3/1
f 205/7/1 206/1/1 207/4/1 208/8/1
f 209/1/1 210/2/1 211/3/1 212/4/1
f 213/7/1 214/1/1 215/4/1 216/8/1
f 217/2/1 218/5/1 219/6/1 220/3/1
f 221/7/1 222/1/1 223/4/1 224/8/1
f 225/1/1 226/2/1 227/3/1 228/4/1
f 229/2/1 230/5/1 231/6/1 232/3/1
f 233/7/1 234/1/1 235/4/1 236/8/1
f 237/7/1 238/1/1 239/4/1 240/8/1
f 241/1/1 242/2/1 243/3/1 244/4/1
f 245/2/1 246/5/1 247/6/1 248/3/1
f 249/1/1 250/2/1 251/3/1 252/4/1
f 253/7/1 254/1/1 255/4/1 256/8/1
f 257/2/1 258/5/1 259/6/1 260/3/1
f 261/2/1 262/5/1 263/6/1 264/3/1
f 265/2/1 266/5/1 267/6/1 268/3/1
f 269/7/1 270/1/1 271/4/1 272/8/1
f 273/2/1 274/5/1 275/6/1 276/3/1
f 277/2/1 278/5/1 279/6/1 280/3/1
f 281/1/1 282/2/1 283/3/1 284/4/1
f 285/7/1 286/1/1 287/4/1 288/8/1
f 289/2/1 290/5/1 291/6/1 292/3/1
f 293/2/1 294/5/1 295/6/1 296/3/1
f 297/1/1 298/2/1 299/3/1 300/4/1
f 301/1/1 302/2/1 303/3/1 304/4/1
f 305/7/1 306/1/1 307/4/1 308/8/1
f 309/2/1 310/5/1 311/6/1 312/3/1
f 313/1/1 314/2/1 315/3/1 316/4/1
f 317/1/1 318/2/1 319/3/1 320/4/1
f 321/7/1 322/1/1 323/4/1 324/8/1
f 325/1/1 326/2/1 327/3/1 328/4/1
f 329/2/1 330/5/1 331/6/1 332/3/1
f 333/2/1 334/5/1 335/6/1 336/3/1
f 337/1/1 338/2/1 339/3/1 340/4/1
f 341/7/1 342/1/1 343/4/1 344/8/1
f 345/2/1 346/5/1 347/6/1 348/3/1
f 349/7/1 350/1/1 351/4/1 352/8/1
f 353/7/1 354/1/1 355/4/1 356/8/1
f 357/2/1 358/5/1 359/6/1 360/3/1
f 361/7/1 362/1/1 363/4/1 364/8/1
f 365/7/1 366/1/1 367/4/1 368/8/1
f 369/1/1 370/2/1 371/3/1 372/4/1
f 373/2/1 374/5/1 375/6/1 376/3/1
f 377/2/1 378/5/1 379/6/1 380/3/1
f 381/7/1 382/1/1 383/4/1 384/8/1
f 385/7/1 386/1/1 387/4/1 388/8/1
f 389/1/1 390/2/1 391/3/1 392/4/1
f 393/7/1 394/1/1 395/4/1 396/8/1
f 397/7/1 398/1/1 399/4/1 400/8/1
f 401/1/1 402/2/1 403/3/1 404/4/1
f 405/1/1 406/2/1 407/3/1 408/4/1
f 409/7/1 410/1/1 411/4/1 412/8/1
f 413/7/1 414/1/1 415/4/1 416/8/1
f 417/7/1 418/1/1 419/4/1 420/8/1
f 421/7/1 422/1/1 423/4/1 424/8/1
f 425/1/1 426/2/1 427/3/1 428/4/1
f 429/1/1 430/2/1 431/3/1 432/4/1
f 433/2/1 434/5/1 435/6/1 436/3/1
f 437/1/1 438/2/1 439/3/1 440/4/1
f 441/7/1 442/1/1 443/4/1 444/8/1
f 445/1/1 446/2/1 447/3/1 448/4/1
f 449/2/1 450/5/1 451/6/1 452/3/1
f 453/7/1 454/1/1 455/4/1 456/8/1
f 457/2/1 458/5/1 459/6/1 460/3/1
f 461/2/1 462/5/1 463/6/1 464/3/1
f 465/7/1 466/1/1 467/4/1 468/8/1
f 469/2/1 470/5/1 471/6/1 472/3/1
f 473/1/1 474/2/1 475/3/1 476/4/1
f 477/7/1 478/1/1 479/4/1 480/8/1
f 481/7/1 482/1/1 483/4/1 484/8/1
f 485/2/1 486/5/1 487/6/1 488/3/1
f 489/7/1 490/1/1 491/4/1 492/8/1
f 493/7/1 494/1/1 495/4/1 496/8/1
f 497/1/1 498/2/1 499/3/1 500/4/1
f 501/1/1 502/2/1 503/3/1 504/4/1
f 505/7/1 506/1/1 507/4/1 508/8/1
f 509/7/1 510/1/1 511/4/1 512/8/1
f 513/2/1 514/5/1 515/6/1 516/3/1
f 517/7/1 518/1/1 519/4/1 520/8/1
f 521/7/1 522/1/1 523/4/1 524/8/1
f 525/2/1 526/5/1 527/6/1 528/3/1
f 529/2/1 530/5/1 531/6/1 532/3/1
f 533/1/1 534/2/1 535/3/1 536/4/1
f 537/1/1 538/2/1 539/3/1 540/4/1
f 541/7/1 542/1/1 543/4/1 544/8/1
f 545/1/1 546/2/1 547/3/1 548/4/1
f 549/1/1 550/2/1 551/3/1 552/4/1
f 553/7/1 554/1/1 555/4/1 556/8/1
f 557/1/1 558/2/1 559/3/1 560/4/1
f 561/2/1 562/5/1 563/6/1 564/3/1
f 565/2/1 566/5/1 567/6/1 568/3/1
f 569/7/1 570/1/1 571/4/1 572/8/1
f 573/7/1 574/1/1 575/4/1 576/8/1
f 577/2/1 578/5/1 579/6/1 580/3/1
f 581/1/1 582/2/1 583/3/1 584/4/1
f 585/2/1 586/5/1 587/6/1 588/3/1
f 589/7/1 590/1/1 591/4/1 592/8/1
f 593/2/1 594/5/1 595/6/1 596/3/1
f 597/2/1 598/5/1 599/6/1 600/3/1
f 601/1/1 602/2/1 603/3/1 604/4/1
f 605/1/1 606/2/1 607/3/1 608/4/1
f 609/1/1 610/2/1 611/3/1 612/4/1
f 613/2/1 614/5/1 615/6/1 616/3/1
f 617/1/1 618/2/1 619/3/1 620/4/1
f 621/2/1 622/5/1 623/6/1 624/3/1
f 625/2/1 626/5/1 627/6/1 628/3/1
f 629/7/1 630/1/1 631/4/1 632/8/1
f 633/1/1 634/2/1 635/3/1 636/4/1
f 637/1/1 638/2/1 639/3/1 640/4/1
f 641/2/1 642/5/1 643/6/1 644/3/1
f 645/1/1 646/2/1 647/3/1 648/4/1
f 649/1/1 650/2/1 651/3/1 652/4/1
f 653/7/1 654/1/1 655/4/1 656/8/1
f 657/7/1 658/1/1 659/4/1 660/8/1
f 661/7/1 662/1/1 663/4/1 664/8/1
f 665/1/1 666/2/1 667/3/1 668/4/1
f 669/7/1 670/1/1 671/4/1 672/8/1
f 673/2/1 674/5/1 675/6/1 676/3/1
f 677/2/1 678/5/1 679/6/1 680/3/1
f 681/2/1 682/5/1 683/6/1 684/3/1
f 685/7/1 686/1/1 687/4/1 688/8/1
f 689/7/1 690/1/1 691/4/1 692/8/1
f 693/1/1 694/2/1 695/3/1 696/4/1
f 697/1/1 698/2/1 699/3/1 700/4/1
f 701/7/1 702/1/1 703/4/1 704/8/1
f 705/7/1 706/1/1 707/4/1 708/8/1
f 709/7/1 710/1/1 711/4/1 712/8/1
f 713/2/1 714/5/1 715/6/1 716/3/1
f 717/1/1 718/2/1 719/3/1 720/4/1
f 721/2/1 722/5/1 723/6/1 724/3/1
f 725/1/1 726/2/1 727/3/1 728/4/1
f 729/7/1 730/1/1 731/4/1 732/8/1
f 733/2/1 734/5/1 735/6/1 736/3/1
f 737/1/1 738/2/1 739/3/1 740/4/1
f 741/7/1 742/1/1 743/4/1 744/8/1
f 745/1/1 746/2/1 747/3/1 748/4/1
f 749/7/1 750/1/1 751/4/1 752/8/1
f 753/2/1 754/5/1 755/6/1 756/3/1
f 757/1/1 758/2/1 759/3/1 760/4/1
f 761/2/1 762/5/1 763/6/1 764/3/1
f 765/7/1 766/1/1 767/4/1 768/8/1
f 769/7/1 770/1/1 771/4/1 772/8/1
f 773/2/1 774/5/1 775/6/1 776/3/1
f 777/7/1 778/1/1 779/4/1 780/8/1
f 781/7/1 782/1/1 783/4/1 784/8/1
f 785/7/1 786/1/1 787/4/1 788/8/1
f 789/2/1 790/5/1 791/6/1 792/3/1
f 793/2/1 794/5/1 795/6/1 796/3/1
f 797/1/1 798/2/1 799/3/1 800/4/1
f 801/7/1 802/1/1 803/4/1 804/8/1
f 805/2/1 806/5/1 807/6/1 808/3/1
f 809/1/1 810/2/1 811/3/1 812/4/1
f 813/2/1 814/5/1 815/6/1 816/3/1
f 817/2/1 818/5/1 819/6/1 820/3/1
f 821/2/1 822/5/1 823/6/1 824/3/1
f 825/7/1 826/1/1 827/4/1 828/8/1
f 829/1/1 830/2/1 831/3/1 832/4/1
f 833/7/1 834/1/1 835/4/1 836/8/1
f 837/7/1 838/1/1 839/4/1 840/8/1
f 841/2/1 842/5/1 843/6/1 844/3/1
f 845/2/1 846/5/1 847/6/1 848/3/1
f 849/1/1 850/2/1 851/3/1 852/4/1
f 853/7/1 854/1/1 855/4/1 856/8/1
f 857/2/1 858/5/1 859/6/1 860/3/1
f 861/1/1 862/2/1 863/3/1 864/4/1
f 865/2/1 866/5/1 867/6/1 868/3/1
f 869/7/1 870/1/1 871/4/1 872/8/1
f 873/7/1 874/1/1 875/4/1 876/8/1
f 877/7/1 878/1/1 879/4/1 880/8/1
f 881/7/1 882/1/1 883/4/1 884/8/1
f 885/2/1 886/5/1 887/6/1 888/3/1
f 889/2/1 890/5/1 891/6/1 892/3/1
f 893/7/1 894/1/1 895/4/1 896/8/1
f 897/2/1 898/5/1 899/6/1 900/3/1
f 901/7/1 902/1/1 903/4/1 904/8/1
f 905/1/1 906/2/1 907/3/1 908/4/1
f 909/2/1 910/5/1 911/6/1 912/3/1
f 913/2/1 914/5/1 915/6/1 916/3/1
f 917/2/1 918/5/1 919/6/1 920/3/1
f 921/2/1 922/5/1 923/6/1 924/3/1
f 925/7/1 926/1/1 927/4/1 928/8/1
f 929/2/1 930/5/1 931/6/1 932/3/1
f 933/1/1 934/2/1 935/3/1 936/4/1
f 937/2/1 938/5/1 939/6/1 940/3/1
f 941/2/1 942/5/1 943/6/1 944/3/1
f 945/7/1 946/1/1 947/4/1 948/8/1
f 949/1/1 950/2/1 951/3/1 952/4/1
f 953/1/1 954/2/1 955/3/1 956/4/1
f 957/2/1 958/5/1 959/6/1 960/3/1
f 961/2/1 962/5/1 963/6/1 964/3/1
f 965/1/1 966/2/1 967/3/1 968/4/1
f 969/1/1 970/2/1 971/3/1 972/4/1
f 973/2/1 974/5/1 975/6/1 976/3/1
f 977/2/1 978/5/1 979/6/1 980/3/1
f 981/2/1 982/5/1 983/6/1 984/3/1
f 985/1/1 986/2/1 987/3/1 988/4/1
f 989/1/1 990/2/1 991/3/1 992/4/1
f 993/7/1 994/1/1 995/4/1 996/8/1
f 997/7/1 998/1/1 999/4/1 1000/8/1
f 1001/1/1 1002/2/1 1003/3/1 1004/4/1
f 1005/7/1 1006/1/1 1007/4/1 1008/8/1
f 1009/2/1 1010/5/1 1011/6/1 1012/3/1
f 1013/1/1 1014/2/1 1015/3/1 1016/4/1
f 1017/1/1 1018/2/1 1019/3/1 1020/4/1
f 1021/2/1 1022/5/1 1023/6/1 1024/3/1

