# Tiled2Unity generated file. Do not modify by hand.
# Wavefront file for 'testmap1_mesh_0459.obj'

# Vertices (Count = 1024)
v 0 -1 0
v -1 -1 0
v -1 0 0
v 0 0 0
v -1 -1 0
v -2 -1 0
v -2 0 0
v -1 0 0
v -2 -1 0
v -3 -1 0
v -3 0 0
v -2 0 0
v -3 -1 0
v -4 -1 0
v -4 0 0
v -3 0 0
v -4 -1 0
v -5 -1 0
v -5 0 0
v -4 0 0
v -5 -1 0
v -6 -1 0
v -6 0 0
v -5 0 0
v -6 -1 0
v -7 -1 0
v -7 0 0
v -6 0 0
v -7 -1 0
v -8 -1 0
v -8 0 0
v -7 0 0
v -8 -1 0
v -9 -1 0
v -9 0 0
v -8 0 0
v -9 -1 0
v -10 -1 0
v -10 0 0
v -9 0 0
v -10 -1 0
v -11 -1 0
v -11 0 0
v -10 0 0
v -11 -1 0
v -12 -1 0
v -12 0 0
v -11 0 0
v -12 -1 0
v -13 -1 0
v -13 0 0
v -12 0 0
v -13 -1 0
v -14 -1 0
v -14 0 0
v -13 0 0
v -14 -1 0
v -15 -1 0
v -15 0 0
v -14 0 0
v -15 -1 0
v -16 -1 0
v -16 0 0
v -15 0 0
v 0 -2 0
v -1 -2 0
v -1 -1 0
v 0 -1 0
v -1 -2 0
v -2 -2 0
v -2 -1 0
v -1 -1 0
v -2 -2 0
v -3 -2 0
v -3 -1 0
v -2 -1 0
v -3 -2 0
v -4 -2 0
v -4 -1 0
v -3 -1 0
v -4 -2 0
v -5 -2 0
v -5 -1 0
v -4 -1 0
v -5 -2 0
v -6 -2 0
v -6 -1 0
v -5 -1 0
v -6 -2 0
v -7 -2 0
v -7 -1 0
v -6 -1 0
v -7 -2 0
v -8 -2 0
v -8 -1 0
v -7 -1 0
v -8 -2 0
v -9 -2 0
v -9 -1 0
v -8 -1 0
v -9 -2 0
v -10 -2 0
v -10 -1 0
v -9 -1 0
v -10 -2 0
v -11 -2 0
v -11 -1 0
v -10 -1 0
v -11 -2 0
v -12 -2 0
v -12 -1 0
v -11 -1 0
v -12 -2 0
v -13 -2 0
v -13 -1 0
v -12 -1 0
v -13 -2 0
v -14 -2 0
v -14 -1 0
v -13 -1 0
v -14 -2 0
v -15 -2 0
v -15 -1 0
v -14 -1 0
v -15 -2 0
v -16 -2 0
v -16 -1 0
v -15 -1 0
v 0 -3 0
v -1 -3 0
v -1 -2 0
v 0 -2 0
v -1 -3 0
v -2 -3 0
v -2 -2 0
v -1 -2 0
v -2 -3 0
v -3 -3 0
v -3 -2 0
v -2 -2 0
v -3 -3 0
v -4 -3 0
v -4 -2 0
v -3 -2 0
v -4 -3 0
v -5 -3 0
v -5 -2 0
v -4 -2 0
v -5 -3 0
v -6 -3 0
v -6 -2 0
v -5 -2 0
v -6 -3 0
v -7 -3 0
v -7 -2 0
v -6 -2 0
v -7 -3 0
v -8 -3 0
v -8 -2 0
v -7 -2 0
v -8 -3 0
v -9 -3 0
v -9 -2 0
v -8 -2 0
v -9 -3 0
v -10 -3 0
v -10 -2 0
v -9 -2 0
v -10 -3 0
v -11 -3 0
v -11 -2 0
v -10 -2 0
v -11 -3 0
v -12 -3 0
v -12 -2 0
v -11 -2 0
v -12 -3 0
v -13 -3 0
v -13 -2 0
v -12 -2 0
v -13 -3 0
v -14 -3 0
v -14 -2 0
v -13 -2 0
v -14 -3 0
v -15 -3 0
v -15 -2 0
v -14 -2 0
v -15 -3 0
v -16 -3 0
v -16 -2 0
v -15 -2 0
v 0 -4 0
v -1 -4 0
v -1 -3 0
v 0 -3 0
v -1 -4 0
v -2 -4 0
v -2 -3 0
v -1 -3 0
v -2 -4 0
v -3 -4 0
v -3 -3 0
v -2 -3 0
v -3 -4 0
v -4 -4 0
v -4 -3 0
v -3 -3 0
v -4 -4 0
v -5 -4 0
v -5 -3 0
v -4 -3 0
v -5 -4 0
v -6 -4 0
v -6 -3 0
v -5 -3 0
v -6 -4 0
v -7 -4 0
v -7 -3 0
v -6 -3 0
v -7 -4 0
v -8 -4 0
v -8 -3 0
v -7 -3 0
v -8 -4 0
v -9 -4 0
v -9 -3 0
v -8 -3 0
v -9 -4 0
v -10 -4 0
v -10 -3 0
v -9 -3 0
v -10 -4 0
v -11 -4 0
v -11 -3 0
v -10 -3 0
v -11 -4 0
v -12 -4 0
v -12 -3 0
v -11 -3 0
v -12 -4 0
v -13 -4 0
v -13 -3 0
v -12 -3 0
v -13 -4 0
v -14 -4 0
v -14 -3 0
v -13 -3 0
v -14 -4 0
v -15 -4 0
v -15 -3 0
v -14 -3 0
v -15 -4 0
v -16 -4 0
v -16 -3 0
v -15 -3 0
v 0 -5 0
v -1 -5 0
v -1 -4 0
v 0 -4 0
v -1 -5 0
v -2 -5 0
v -2 -4 0
v -1 -4 0
v -2 -5 0
v -3 -5 0
v -3 -4 0
v -2 -4 0
v -3 -5 0
v -4 -5 0
v -4 -4 0
v -3 -4 0
v -4 -5 0
v -5 -5 0
v -5 -4 0
v -4 -4 0
v -5 -5 0
v -6 -5 0
v -6 -4 0
v -5 -4 0
v -6 -5 0
v -7 -5 0
v -7 -4 0
v -6 -4 0
v -7 -5 0
v -8 -5 0
v -8 -4 0
v -7 -4 0
v -8 -5 0
v -9 -5 0
v -9 -4 0
v -8 -4 0
v -9 -5 0
v -10 -5 0
v -10 -4 0
v -9 -4 0
v -10 -5 0
v -11 -5 0
v -11 -4 0
v -10 -4 0
v -11 -5 0
v -12 -5 0
v -12 -4 0
v -11 -4 0
v -12 -5 0
v -13 -5 0
v -13 -4 0
v -12 -4 0
v -13 -5 0
v -14 -5 0
v -14 -4 0
v -13 -4 0
v -14 -5 0
v -15 -5 0
v -15 -4 0
v -14 -4 0
v -15 -5 0
v -16 -5 0
v -16 -4 0
v -15 -4 0
v 0 -6 0
v -1 -6 0
v -1 -5 0
v 0 -5 0
v -1 -6 0
v -2 -6 0
v -2 -5 0
v -1 -5 0
v -2 -6 0
v -3 -6 0
v -3 -5 0
v -2 -5 0
v -3 -6 0
v -4 -6 0
v -4 -5 0
v -3 -5 0
v -4 -6 0
v -5 -6 0
v -5 -5 0
v -4 -5 0
v -5 -6 0
v -6 -6 0
v -6 -5 0
v -5 -5 0
v -6 -6 0
v -7 -6 0
v -7 -5 0
v -6 -5 0
v -7 -6 0
v -8 -6 0
v -8 -5 0
v -7 -5 0
v -8 -6 0
v -9 -6 0
v -9 -5 0
v -8 -5 0
v -9 -6 0
v -10 -6 0
v -10 -5 0
v -9 -5 0
v -10 -6 0
v -11 -6 0
v -11 -5 0
v -10 -5 0
v -11 -6 0
v -12 -6 0
v -12 -5 0
v -11 -5 0
v -12 -6 0
v -13 -6 0
v -13 -5 0
v -12 -5 0
v -13 -6 0
v -14 -6 0
v -14 -5 0
v -13 -5 0
v -14 -6 0
v -15 -6 0
v -15 -5 0
v -14 -5 0
v -15 -6 0
v -16 -6 0
v -16 -5 0
v -15 -5 0
v 0 -7 0
v -1 -7 0
v -1 -6 0
v 0 -6 0
v -1 -7 0
v -2 -7 0
v -2 -6 0
v -1 -6 0
v -2 -7 0
v -3 -7 0
v -3 -6 0
v -2 -6 0
v -3 -7 0
v -4 -7 0
v -4 -6 0
v -3 -6 0
v -4 -7 0
v -5 -7 0
v -5 -6 0
v -4 -6 0
v -5 -7 0
v -6 -7 0
v -6 -6 0
v -5 -6 0
v -6 -7 0
v -7 -7 0
v -7 -6 0
v -6 -6 0
v -7 -7 0
v -8 -7 0
v -8 -6 0
v -7 -6 0
v -8 -7 0
v -9 -7 0
v -9 -6 0
v -8 -6 0
v -9 -7 0
v -10 -7 0
v -10 -6 0
v -9 -6 0
v -10 -7 0
v -11 -7 0
v -11 -6 0
v -10 -6 0
v -11 -7 0
v -12 -7 0
v -12 -6 0
v -11 -6 0
v -12 -7 0
v -13 -7 0
v -13 -6 0
v -12 -6 0
v -13 -7 0
v -14 -7 0
v -14 -6 0
v -13 -6 0
v -14 -7 0
v -15 -7 0
v -15 -6 0
v -14 -6 0
v -15 -7 0
v -16 -7 0
v -16 -6 0
v -15 -6 0
v 0 -8 0
v -1 -8 0
v -1 -7 0
v 0 -7 0
v -1 -8 0
v -2 -8 0
v -2 -7 0
v -1 -7 0
v -2 -8 0
v -3 -8 0
v -3 -7 0
v -2 -7 0
v -3 -8 0
v -4 -8 0
v -4 -7 0
v -3 -7 0
v -4 -8 0
v -5 -8 0
v -5 -7 0
v -4 -7 0
v -5 -8 0
v -6 -8 0
v -6 -7 0
v -5 -7 0
v -6 -8 0
v -7 -8 0
v -7 -7 0
v -6 -7 0
v -7 -8 0
v -8 -8 0
v -8 -7 0
v -7 -7 0
v -8 -8 0
v -9 -8 0
v -9 -7 0
v -8 -7 0
v -9 -8 0
v -10 -8 0
v -10 -7 0
v -9 -7 0
v -10 -8 0
v -11 -8 0
v -11 -7 0
v -10 -7 0
v -11 -8 0
v -12 -8 0
v -12 -7 0
v -11 -7 0
v -12 -8 0
v -13 -8 0
v -13 -7 0
v -12 -7 0
v -13 -8 0
v -14 -8 0
v -14 -7 0
v -13 -7 0
v -14 -8 0
v -15 -8 0
v -15 -7 0
v -14 -7 0
v -15 -8 0
v -16 -8 0
v -16 -7 0
v -15 -7 0
v 0 -9 0
v -1 -9 0
v -1 -8 0
v 0 -8 0
v -1 -9 0
v -2 -9 0
v -2 -8 0
v -1 -8 0
v -2 -9 0
v -3 -9 0
v -3 -8 0
v -2 -8 0
v -3 -9 0
v -4 -9 0
v -4 -8 0
v -3 -8 0
v -4 -9 0
v -5 -9 0
v -5 -8 0
v -4 -8 0
v -5 -9 0
v -6 -9 0
v -6 -8 0
v -5 -8 0
v -6 -9 0
v -7 -9 0
v -7 -8 0
v -6 -8 0
v -7 -9 0
v -8 -9 0
v -8 -8 0
v -7 -8 0
v -8 -9 0
v -9 -9 0
v -9 -8 0
v -8 -8 0
v -9 -9 0
v -10 -9 0
v -10 -8 0
v -9 -8 0
v -10 -9 0
v -11 -9 0
v -11 -8 0
v -10 -8 0
v -11 -9 0
v -12 -9 0
v -12 -8 0
v -11 -8 0
v -12 -9 0
v -13 -9 0
v -13 -8 0
v -12 -8 0
v -13 -9 0
v -14 -9 0
v -14 -8 0
v -13 -8 0
v -14 -9 0
v -15 -9 0
v -15 -8 0
v -14 -8 0
v -15 -9 0
v -16 -9 0
v -16 -8 0
v -15 -8 0
v 0 -10 0
v -1 -10 0
v -1 -9 0
v 0 -9 0
v -1 -10 0
v -2 -10 0
v -2 -9 0
v -1 -9 0
v -2 -10 0
v -3 -10 0
v -3 -9 0
v -2 -9 0
v -3 -10 0
v -4 -10 0
v -4 -9 0
v -3 -9 0
v -4 -10 0
v -5 -10 0
v -5 -9 0
v -4 -9 0
v -5 -10 0
v -6 -10 0
v -6 -9 0
v -5 -9 0
v -6 -10 0
v -7 -10 0
v -7 -9 0
v -6 -9 0
v -7 -10 0
v -8 -10 0
v -8 -9 0
v -7 -9 0
v -8 -10 0
v -9 -10 0
v -9 -9 0
v -8 -9 0
v -9 -10 0
v -10 -10 0
v -10 -9 0
v -9 -9 0
v -10 -10 0
v -11 -10 0
v -11 -9 0
v -10 -9 0
v -11 -10 0
v -12 -10 0
v -12 -9 0
v -11 -9 0
v -12 -10 0
v -13 -10 0
v -13 -9 0
v -12 -9 0
v -13 -10 0
v -14 -10 0
v -14 -9 0
v -13 -9 0
v -14 -10 0
v -15 -10 0
v -15 -9 0
v -14 -9 0
v -15 -10 0
v -16 -10 0
v -16 -9 0
v -15 -9 0
v 0 -11 0
v -1 -11 0
v -1 -10 0
v 0 -10 0
v -1 -11 0
v -2 -11 0
v -2 -10 0
v -1 -10 0
v -2 -11 0
v -3 -11 0
v -3 -10 0
v -2 -10 0
v -3 -11 0
v -4 -11 0
v -4 -10 0
v -3 -10 0
v -4 -11 0
v -5 -11 0
v -5 -10 0
v -4 -10 0
v -5 -11 0
v -6 -11 0
v -6 -10 0
v -5 -10 0
v -6 -11 0
v -7 -11 0
v -7 -10 0
v -6 -10 0
v -7 -11 0
v -8 -11 0
v -8 -10 0
v -7 -10 0
v -8 -11 0
v -9 -11 0
v -9 -10 0
v -8 -10 0
v -9 -11 0
v -10 -11 0
v -10 -10 0
v -9 -10 0
v -10 -11 0
v -11 -11 0
v -11 -10 0
v -10 -10 0
v -11 -11 0
v -12 -11 0
v -12 -10 0
v -11 -10 0
v -12 -11 0
v -13 -11 0
v -13 -10 0
v -12 -10 0
v -13 -11 0
v -14 -11 0
v -14 -10 0
v -13 -10 0
v -14 -11 0
v -15 -11 0
v -15 -10 0
v -14 -10 0
v -15 -11 0
v -16 -11 0
v -16 -10 0
v -15 -10 0
v 0 -12 0
v -1 -12 0
v -1 -11 0
v 0 -11 0
v -1 -12 0
v -2 -12 0
v -2 -11 0
v -1 -11 0
v -2 -12 0
v -3 -12 0
v -3 -11 0
v -2 -11 0
v -3 -12 0
v -4 -12 0
v -4 -11 0
v -3 -11 0
v -4 -12 0
v -5 -12 0
v -5 -11 0
v -4 -11 0
v -5 -12 0
v -6 -12 0
v -6 -11 0
v -5 -11 0
v -6 -12 0
v -7 -12 0
v -7 -11 0
v -6 -11 0
v -7 -12 0
v -8 -12 0
v -8 -11 0
v -7 -11 0
v -8 -12 0
v -9 -12 0
v -9 -11 0
v -8 -11 0
v -9 -12 0
v -10 -12 0
v -10 -11 0
v -9 -11 0
v -10 -12 0
v -11 -12 0
v -11 -11 0
v -10 -11 0
v -11 -12 0
v -12 -12 0
v -12 -11 0
v -11 -11 0
v -12 -12 0
v -13 -12 0
v -13 -11 0
v -12 -11 0
v -13 -12 0
v -14 -12 0
v -14 -11 0
v -13 -11 0
v -14 -12 0
v -15 -12 0
v -15 -11 0
v -14 -11 0
v -15 -12 0
v -16 -12 0
v -16 -11 0
v -15 -11 0
v 0 -13 0
v -1 -13 0
v -1 -12 0
v 0 -12 0
v -1 -13 0
v -2 -13 0
v -2 -12 0
v -1 -12 0
v -2 -13 0
v -3 -13 0
v -3 -12 0
v -2 -12 0
v -3 -13 0
v -4 -13 0
v -4 -12 0
v -3 -12 0
v -4 -13 0
v -5 -13 0
v -5 -12 0
v -4 -12 0
v -5 -13 0
v -6 -13 0
v -6 -12 0
v -5 -12 0
v -6 -13 0
v -7 -13 0
v -7 -12 0
v -6 -12 0
v -7 -13 0
v -8 -13 0
v -8 -12 0
v -7 -12 0
v -8 -13 0
v -9 -13 0
v -9 -12 0
v -8 -12 0
v -9 -13 0
v -10 -13 0
v -10 -12 0
v -9 -12 0
v -10 -13 0
v -11 -13 0
v -11 -12 0
v -10 -12 0
v -11 -13 0
v -12 -13 0
v -12 -12 0
v -11 -12 0
v -12 -13 0
v -13 -13 0
v -13 -12 0
v -12 -12 0
v -13 -13 0
v -14 -13 0
v -14 -12 0
v -13 -12 0
v -14 -13 0
v -15 -13 0
v -15 -12 0
v -14 -12 0
v -15 -13 0
v -16 -13 0
v -16 -12 0
v -15 -12 0
v 0 -14 0
v -1 -14 0
v -1 -13 0
v 0 -13 0
v -1 -14 0
v -2 -14 0
v -2 -13 0
v -1 -13 0
v -2 -14 0
v -3 -14 0
v -3 -13 0
v -2 -13 0
v -3 -14 0
v -4 -14 0
v -4 -13 0
v -3 -13 0
v -4 -14 0
v -5 -14 0
v -5 -13 0
v -4 -13 0
v -5 -14 0
v -6 -14 0
v -6 -13 0
v -5 -13 0
v -6 -14 0
v -7 -14 0
v -7 -13 0
v -6 -13 0
v -7 -14 0
v -8 -14 0
v -8 -13 0
v -7 -13 0
v -8 -14 0
v -9 -14 0
v -9 -13 0
v -8 -13 0
v -9 -14 0
v -10 -14 0
v -10 -13 0
v -9 -13 0
v -10 -14 0
v -11 -14 0
v -11 -13 0
v -10 -13 0
v -11 -14 0
v -12 -14 0
v -12 -13 0
v -11 -13 0
v -12 -14 0
v -13 -14 0
v -13 -13 0
v -12 -13 0
v -13 -14 0
v -14 -14 0
v -14 -13 0
v -13 -13 0
v -14 -14 0
v -15 -14 0
v -15 -13 0
v -14 -13 0
v -15 -14 0
v -16 -14 0
v -16 -13 0
v -15 -13 0
v 0 -15 0
v -1 -15 0
v -1 -14 0
v 0 -14 0
v -1 -15 0
v -2 -15 0
v -2 -14 0
v -1 -14 0
v -2 -15 0
v -3 -15 0
v -3 -14 0
v -2 -14 0
v -3 -15 0
v -4 -15 0
v -4 -14 0
v -3 -14 0
v -4 -15 0
v -5 -15 0
v -5 -14 0
v -4 -14 0
v -5 -15 0
v -6 -15 0
v -6 -14 0
v -5 -14 0
v -6 -15 0
v -7 -15 0
v -7 -14 0
v -6 -14 0
v -7 -15 0
v -8 -15 0
v -8 -14 0
v -7 -14 0
v -8 -15 0
v -9 -15 0
v -9 -14 0
v -8 -14 0
v -9 -15 0
v -10 -15 0
v -10 -14 0
v -9 -14 0
v -10 -15 0
v -11 -15 0
v -11 -14 0
v -10 -14 0
v -11 -15 0
v -12 -15 0
v -12 -14 0
v -11 -14 0
v -12 -15 0
v -13 -15 0
v -13 -14 0
v -12 -14 0
v -13 -15 0
v -14 -15 0
v -14 -14 0
v -13 -14 0
v -14 -15 0
v -15 -15 0
v -15 -14 0
v -14 -14 0
v -15 -15 0
v -16 -15 0
v -16 -14 0
v -15 -14 0
v 0 -16 0
v -1 -16 0
v -1 -15 0
v 0 -15 0
v -1 -16 0
v -2 -16 0
v -2 -15 0
v -1 -15 0
v -2 -16 0
v -3 -16 0
v -3 -15 0
v -2 -15 0
v -3 -16 0
v -4 -16 0
v -4 -15 0
v -3 -15 0
v -4 -16 0
v -5 -16 0
v -5 -15 0
v -4 -15 0
v -5 -16 0
v -6 -16 0
v -6 -15 0
v -5 -15 0
v -6 -16 0
v -7 -16 0
v -7 -15 0
v -6 -15 0
v -7 -16 0
v -8 -16 0
v -8 -15 0
v -7 -15 0
v -8 -16 0
v -9 -16 0
v -9 -15 0
v -8 -15 0
v -9 -16 0
v -10 -16 0
v -10 -15 0
v -9 -15 0
v -10 -16 0
v -11 -16 0
v -11 -15 0
v -10 -15 0
v -11 -16 0
v -12 -16 0
v -12 -15 0
v -11 -15 0
v -12 -16 0
v -13 -16 0
v -13 -15 0
v -12 -15 0
v -13 -16 0
v -14 -16 0
v -14 -15 0
v -13 -15 0
v -14 -16 0
v -15 -16 0
v -15 -15 0
v -14 -15 0
v -15 -16 0
v -16 -16 0
v -16 -15 0
v -15 -15 0

# Texture cooridinates (Count = 8)
vt 0.6875 0.8125
vt 0.71875 0.8125
vt 0.71875 0.84375
vt 0.6875 0.84375
vt 0.75 0.8125
vt 0.75 0.84375
vt 0.65625 0.8125
vt 0.65625 0.84375

# Normal
vn 0 0 -1

# Mesh description
g testmap1_mesh_0459

# Faces
f 1/1/1 2/2/1 3/3/1 4/4/1
f 5/1/1 6/2/1 7/3/1 8/4/1
f 9/2/1 10/5/1 11/6/1 12/3/1
f 13/7/1 14/1/1 15/4/1 16/8/1
f 17/1/1 18/2/1 19/3/1 20/4/1
f 21/1/1 22/2/1 23/3/1 24/4/1
f 25/1/1 26/2/1 27/3/1 28/4/1
f 29/2/1 30/5/1 31/6/1 32/3/1
f 33/1/1 34/2/1 35/3/1 36/4/1
f 37/7/1 38/1/1 39/4/1 40/8/1
f 41/7/1 42/1/1 43/4/1 44/8/1
f 45/7/1 46/1/1 47/4/1 48/8/1
f 49/1/1 50/2/1 51/3/1 52/4/1
f 53/1/1 54/2/1 55/3/1 56/4/1
f 57/1/1 58/2/1 59/3/1 60/4/1
f 61/1/1 62/2/1 63/3/1 64/4/1
f 65/2/1 66/5/1 67/6/1 68/3/1
f 69/1/1 70/2/1 71/3/1 72/4/1
f 73/1/1 74/2/1 75/3/1 76/4/1
f 77/7/1 78/1/1 79/4/1 80/8/1
f 81/7/1 82/1/1 83/4/1 84/8/1
f 85/7/1 86/1/1 87/4/1 88/8/1
f 89/7/1 90/1/1 91/4/1 92/8/1
f 93/2/1 94/5/1 95/6/1 96/3/1
f 97/1/1 98/2/1 99/3/1 100/4/1
f 101/7/1 102/1/1 103/4/1 104/8/1
f 105/7/1 106/1/1 107/4/1 108/8/1
f 109/7/1 110/1/1 111/4/1 112/8/1
f 113/2/1 114/5/1 115/6/1 116/3/1
f 117/7/1 118/1/1 119/4/1 120/8/1
f 121/2/1 122/5/1 123/6/1 124/3/1
f 125/1/1 126/2/1 127/3/1 128/4/1
f 129/1/1 130/2/1 131/3/1 132/4/1
f 133/7/1 134/1/1 135/4/1 136/8/1
f 137/1/1 138/2/1 139/3/1 140/4/1
f 141/7/1 142/1/1 143/4/1 144/8/1
f 145/1/1 146/2/1 147/3/1 148/4/1
f 149/7/1 150/1/1 151/4/1 152/8/1
f 153/7/1 154/1/1 155/4/1 156/8/1
f 157/1/1 158/2/1 159/3/1 160/4/1
f 161/2/1 162/5/1 163/6/1 164/3/1
f 165/1/1 166/2/1 167/3/1 168/4/1
f 169/7/1 170/1/1 171/4/1 172/8/1
f 173/7/1 174/1/1 175/4/1 176/8/1
f 177/2/1 178/5/1 179/6/1 180/3/1
f 181/1/1 182/2/1 183/3/1 184/4/1
f 185/2/1 186/5/1 187/6/1 188/3/1
f 189/1/1 190/2/1 191/3/1 192/4/1
f 193/2/1 194/5/1 195/6/1 196/3/1
f 197/2/1 198/5/1 199/6/1 200/3/1
f 201/2/1 202/5/1 203/6/1 204/3/1
f 205/7/1 206/1/1 207/4/1 208/8/1
f 209/7/1 210/1/1 211/4/1 212/8/1
f 213/2/1 214/5/1 215/6/1 216/3/1
f 217/1/1 218/2/1 219/3/1 220/4/1
f 221/2/1 222/5/1 223/6/1 224/3/1
f 225/1/1 226/2/1 227/3/1 228/4/1
f 229/2/1 230/5/1 231/6/1 232/3/1
f 233/2/1 234/5/1 235/6/1 236/3/1
f 237/2/1 238/5/1 239/6/1 240/3/1
f 241/1/1 242/2/1 243/3/1 244/4/1
f 245/1/1 246/2/1 247/3/1 248/4/1
f 249/1/1 250/2/1 251/3/1 252/4/1
f 253/1/1 254/2/1 255/3/1 256/4/1
f 257/7/1 258/1/1 259/4/1 260/8/1
f 261/1/1 262/2/1 263/3/1 264/4/1
f 265/7/1 266/1/1 267/4/1 268/8/1
f 269/1/1 270/2/1 271/3/1 272/4/1
f 273/7/1 274/1/1 275/4/1 276/8/1
f 277/7/1 278/1/1 279/4/1 280/8/1
f 281/1/1 282/2/1 283/3/1 284/4/1
f 285/2/1 286/5/1 287/6/1 288/3/1
f 289/7/1 290/1/1 291/4/1 292/8/1
f 293/2/1 294/5/1 295/6/1 296/3/1
f 297/1/1 298/2/1 299/3/1 300/4/1
f 301/1/1 302/2/1 303/3/1 304/4/1
f 305/2/1 306/5/1 307/6/1 308/3/1
f 309/1/1 310/2/1 311/3/1 312/4/1
f 313/2/1 314/5/1 315/6/1 316/3/1
f 317/7/1 318/1/1 319/4/1 320/8/1
f 321/1/1 322/2/1 323/3/1 324/4/1
f 325/7/1 326/1/1 327/4/1 328/8/1
f 329/7/1 330/1/1 331/4/1 332/8/1
f 333/1/1 334/2/1 335/3/1 336/4/1
f 337/1/1 338/2/1 339/3/1 340/4/1
f 341/2/1 342/5/1 343/6/1 344/3/1
f 345/7/1 346/1/1 347/4/1 348/8/1
f 349/7/1 350/1/1 351/4/1 352/8/1
f 353/7/1 354/1/1 355/4/1 356/8/1
f 357/7/1 358/1/1 359/4/1 360/8/1
f 361/2/1 362/5/1 363/6/1 364/3/1
f 365/7/1 366/1/1 367/4/1 368/8/1
f 369/7/1 370/1/1 371/4/1 372/8/1
f 373/1/1 374/2/1 375/3/1 376/4/1
f 377/1/1 378/2/1 379/3/1 380/4/1
f 381/1/1 382/2/1 383/3/1 384/4/1
f 385/2/1 386/5/1 387/6/1 388/3/1
f 389/2/1 390/5/1 391/6/1 392/3/1
f 393/1/1 394/2/1 395/3/1 396/4/1
f 397/7/1 398/1/1 399/4/1 400/8/1
f 401/7/1 402/1/1 403/4/1 404/8/1
f 405/1/1 406/2/1 407/3/1 408/4/1
f 409/2/1 410/5/1 411/6/1 412/3/1
f 413/1/1 414/2/1 415/3/1 416/4/1
f 417/2/1 418/5/1 419/6/1 420/3/1
f 421/7/1 422/1/1 423/4/1 424/8/1
f 425/2/1 426/5/1 427/6/1 428/3/1
f 429/2/1 430/5/1 431/6/1 432/3/1
f 433/7/1 434/1/1 435/4/1 436/8/1
f 437/1/1 438/2/1 439/3/1 440/4/1
f 441/1/1 442/2/1 443/3/1 444/4/1
f 445/2/1 446/5/1 447/6/1 448/3/1
f 449/1/1 450/2/1 451/3/1 452/4/1
f 453/7/1 454/1/1 455/4/1 456/8/1
f 457/2/1 458/5/1 459/6/1 460/3/1
f 461/7/1 462/1/1 463/4/1 464/8/1
f 465/7/1 466/1/1 467/4/1 468/8/1
f 469/1/1 470/2/1 471/3/1 472/4/1
f 473/1/1 474/2/1 475/3/1 476/4/1
f 477/2/1 478/5/1 479/6/1 480/3/1
f 481/7/1 482/1/1 483/4/1 484/8/1
f 485/2/1 486/5/1 487/6/1 488/3/1
f 489/1/1 490/2/1 491/3/1 492/4/1
f 493/2/1 494/5/1 495/6/1 496/3/1
f 497/1/1 498/2/1 499/3/1 500/4/1
f 501/1/1 502/2/1 503/3/1 504/4/1
f 505/2/1 506/5/1 507/6/1 508/3/1
f 509/2/1 510/5/1 511/6/1 512/3/1
f 513/2/1 514/5/1 515/6/1 516/3/1
f 517/1/1 518/2/1 519/3/1 520/4/1
f 521/1/1 522/2/1 523/3/1 524/4/1
f 525/2/1 526/5/1 527/6/1 528/3/1
f 529/7/1 530/1/1 531/4/1 532/8/1
f 533/2/1 534/5/1 535/6/1 536/3/1
f 537/2/1 538/5/1 539/6/1 540/3/1
f 541/1/1 542/2/1 543/3/1 544/4/1
f 545/2/1 546/5/1 547/6/1 548/3/1
f 549/2/1 550/5/1 551/6/1 552/3/1
f 553/1/1 554/2/1 555/3/1 556/4/1
f 557/7/1 558/1/1 559/4/1 560/8/1
f 561/7/1 562/1/1 563/4/1 564/8/1
f 565/7/1 566/1/1 567/4/1 568/8/1
f 569/1/1 570/2/1 571/3/1 572/4/1
f 573/7/1 574/1/1 575/4/1 576/8/1
f 577/7/1 578/1/1 579/4/1 580/8/1
f 581/2/1 582/5/1 583/6/1 584/3/1
f 585/1/1 586/2/1 587/3/1 588/4/1
f 589/1/1 590/2/1 591/3/1 592/4/1
f 593/1/1 594/2/1 595/3/1 596/4/1
f 597/1/1 598/2/1 599/3/1 600/4/1
f 601/7/1 602/1/1 603/4/1 604/8/1
f 605/1/1 606/2/1 607/3/1 608/4/1
f 609/1/1 610/2/1 611/3/1 612/4/1
f 613/7/1 614/1/1 615/4/1 616/8/1
f 617/1/1 618/2/1 619/3/1 620/4/1
f 621/2/1 622/5/1 623/6/1 624/3/1
f 625/7/1 626/1/1 627/4/1 628/8/1
f 629/2/1 630/5/1 631/6/1 632/3/1
f 633/2/1 634/5/1 635/6/1 636/3/1
f 637/1/1 638/2/1 639/3/1 640/4/1
f 641/2/1 642/5/1 643/6/1 644/3/1
f 645/1/1 646/2/1 647/3/1 648/4/1
f 649/2/1 650/5/1 651/6/1 652/3/1
f 653/7/1 654/1/1 655/4/1 656/8/1
f 657/7/1 658/1/1 659/4/1 660/8/1
f 661/1/1 662/2/1 663/3/1 664/4/1
f 665/1/1 666/2/1 667/3/1 668/4/1
f 669/7/1 670/1/1 671/4/1 672/8/1
f 673/2/1 674/5/1 675/6/1 676/3/1
f 677/7/1 678/1/1 679/4/1 680/8/1
f 681/7/1 682/1/1 683/4/1 684/8/1
f 685/7/1 686/1/1 687/4/1 688/8/1
f 689/7/1 690/1/1 691/4/1 692/8/1
f 693/7/1 694/1/1 695/4/1 696/8/1
f 697/1/1 698/2/1 699/3/1 700/4/1
f 701/2/1 702/5/1 703/6/1 704/3/1
f 705/1/1 706/2/1 707/3/1 708/4/1
f 709/1/1 710/2/1 711/3/1 712/4/1
f 713/2/1 714/5/1 715/6/1 716/3/1
f 717/7/1 718/1/1 719/4/1 720/8/1
f 721/2/1 722/5/1 723/6/1 724/3/1
f 725/2/1 726/5/1 727/6/1 728/3/1
f 729/7/1 730/1/1 731/4/1 732/8/1
f 733/1/1 734/2/1 735/3/1 736/4/1
f 737/2/1 738/5/1 739/6/1 740/3/1
f 741/7/1 742/1/1 743/4/1 744/8/1
f 745/2/1 746/5/1 747/6/1 748/3/1
f 749/1/1 750/2/1 751/3/1 752/4/1
f 753/1/1 754/2/1 755/3/1 756/4/1
f 757/2/1 758/5/1 759/6/1 760/3/1
f 761/2/1 762/5/1 763/6/1 764/3/1
f 765/1/1 766/2/1 767/3/1 768/4/1
f 769/1/1 770/2/1 771/3/1 772/4/1
f 773/1/1 774/2/1 775/3/1 776/4/1
f 777/1/1 778/2/1 779/3/1 780/4/1
f 781/7/1 782/1/1 783/4/1 784/8/1
f 785/2/1 786/5/1 787/6/1 788/3/1
f 789/2/1 790/5/1 791/6/1 792/3/1
f 793/2/1 794/5/1 795/6/1 796/3/1
f 797/1/1 798/2/1 799/3/1 800/4/1
f 801/7/1 802/1/1 803/4/1 804/8/1
f 805/1/1 806/2/1 807/3/1 808/4/1
f 809/1/1 810/2/1 811/3/1 812/4/1
f 813/1/1 814/2/1 815/3/1 816/4/1
f 817/2/1 818/5/1 819/6/1 820/3/1
f 821/1/1 822/2/1 823/3/1 824/4/1
f 825/1/1 826/2/1 827/3/1 828/4/1
f 829/1/1 830/2/1 831/3/1 832/4/1
f 833/1/1 834/2/1 835/3/1 836/4/1
f 837/1/1 838/2/1 839/3/1 840/4/1
f 841/1/1 842/2/1 843/3/1 844/4/1
f 845/7/1 846/1/1 847/4/1 848/8/1
f 849/1/1 850/2/1 851/3/1 852/4/1
f 853/2/1 854/5/1 855/6/1 856/3/1
f 857/7/1 858/1/1 859/4/1 860/8/1
f 861/2/1 862/5/1 863/6/1 864/3/1
f 865/2/1 866/5/1 867/6/1 868/3/1
f 869/7/1 870/1/1 871/4/1 872/8/1
f 873/2/1 874/5/1 875/6/1 876/3/1
f 877/2/1 878/5/1 879/6/1 880/3/1
f 881/7/1 882/1/1 883/4/1 884/8/1
f 885/7/1 886/1/1 887/4/1 888/8/1
f 889/2/1 890/5/1 891/6/1 892/3/1
f 893/2/1 894/5/1 895/6/1 896/3/1
f 897/7/1 898/1/1 899/4/1 900/8/1
f 901/7/1 902/1/1 903/4/1 904/8/1
f 905/7/1 906/1/1 907/4/1 908/8/1
f 909/1/1 910/2/1 911/3/1 912/4/1
f 913/7/1 914/1/1 915/4/1 916/8/1
f 917/1/1 918/2/1 919/3/1 920/4/1
f 921/2/1 922/5/1 923/6/1 924/3/1
f 925/7/1 926/1/1 927/4/1 928/8/1
f 929/2/1 930/5/1 931/6/1 932/3/1
f 933/2/1 934/5/1 935/6/1 936/3/1
f 937/2/1 938/5/1 939/6/1 940/3/1
f 941/2/1 942/5/1 943/6/1 944/3/1
f 945/7/1 946/1/1 947/4/1 948/8/1
f 949/7/1 950/1/1 951/4/1 952/8/1
f 953/7/1 954/1/1 955/4/1 956/8/1
f 957/2/1 958/5/1 959/6/1 960/3/1
f 961/7/1 962/1/1 963/4/1 964/8/1
f 965/2/1 966/5/1 967/6/1 968/3/1
f 969/7/1 970/1/1 971/4/1 972/8/1
f 973/1/1 974/2/1 975/3/1 976/4/1
f 977/7/1 978/1/1 979/4/1 980/8/1
f 981/7/1 982/1/1 983/4/1 984/8/1
f 985/1/1 986/2/1 987/3/1 988/4/1
f 989/2/1 990/5/1 991/6/1 992/3/1
f 993/7/1 994/1/1 995/4/1 996/8/1
f 997/7/1 998/1/1 999/4/1 1000/8/1
f 1001/1/1 1002/2/1 1003/3/1 1004/4/1
f 1005/7/1 1006/1/1 1007/4/1 1008/8/1
f 1009/2/1 1010/5/1 1011/6/1 1012/3/1
f 1013/7/1 1014/1/1 1015/4/1 1016/8/1
f 1017/2/1 1018/5/1 1019/6/1 1020/3/1
f 1021/7/1 1022/1/1 1023/4/1 1024/8/1

