# Tiled2Unity generated file. Do not modify by hand.
# Wavefront file for 'testmap1_mesh_0425.obj'

# Vertices (Count = 1024)
v 0 -1 0
v -1 -1 0
v -1 0 0
v 0 0 0
v -1 -1 0
v -2 -1 0
v -2 0 0
v -1 0 0
v -2 -1 0
v -3 -1 0
v -3 0 0
v -2 0 0
v -3 -1 0
v -4 -1 0
v -4 0 0
v -3 0 0
v -4 -1 0
v -5 -1 0
v -5 0 0
v -4 0 0
v -5 -1 0
v -6 -1 0
v -6 0 0
v -5 0 0
v -6 -1 0
v -7 -1 0
v -7 0 0
v -6 0 0
v -7 -1 0
v -8 -1 0
v -8 0 0
v -7 0 0
v -8 -1 0
v -9 -1 0
v -9 0 0
v -8 0 0
v -9 -1 0
v -10 -1 0
v -10 0 0
v -9 0 0
v -10 -1 0
v -11 -1 0
v -11 0 0
v -10 0 0
v -11 -1 0
v -12 -1 0
v -12 0 0
v -11 0 0
v -12 -1 0
v -13 -1 0
v -13 0 0
v -12 0 0
v -13 -1 0
v -14 -1 0
v -14 0 0
v -13 0 0
v -14 -1 0
v -15 -1 0
v -15 0 0
v -14 0 0
v -15 -1 0
v -16 -1 0
v -16 0 0
v -15 0 0
v 0 -2 0
v -1 -2 0
v -1 -1 0
v 0 -1 0
v -1 -2 0
v -2 -2 0
v -2 -1 0
v -1 -1 0
v -2 -2 0
v -3 -2 0
v -3 -1 0
v -2 -1 0
v -3 -2 0
v -4 -2 0
v -4 -1 0
v -3 -1 0
v -4 -2 0
v -5 -2 0
v -5 -1 0
v -4 -1 0
v -5 -2 0
v -6 -2 0
v -6 -1 0
v -5 -1 0
v -6 -2 0
v -7 -2 0
v -7 -1 0
v -6 -1 0
v -7 -2 0
v -8 -2 0
v -8 -1 0
v -7 -1 0
v -8 -2 0
v -9 -2 0
v -9 -1 0
v -8 -1 0
v -9 -2 0
v -10 -2 0
v -10 -1 0
v -9 -1 0
v -10 -2 0
v -11 -2 0
v -11 -1 0
v -10 -1 0
v -11 -2 0
v -12 -2 0
v -12 -1 0
v -11 -1 0
v -12 -2 0
v -13 -2 0
v -13 -1 0
v -12 -1 0
v -13 -2 0
v -14 -2 0
v -14 -1 0
v -13 -1 0
v -14 -2 0
v -15 -2 0
v -15 -1 0
v -14 -1 0
v -15 -2 0
v -16 -2 0
v -16 -1 0
v -15 -1 0
v 0 -3 0
v -1 -3 0
v -1 -2 0
v 0 -2 0
v -1 -3 0
v -2 -3 0
v -2 -2 0
v -1 -2 0
v -2 -3 0
v -3 -3 0
v -3 -2 0
v -2 -2 0
v -3 -3 0
v -4 -3 0
v -4 -2 0
v -3 -2 0
v -4 -3 0
v -5 -3 0
v -5 -2 0
v -4 -2 0
v -5 -3 0
v -6 -3 0
v -6 -2 0
v -5 -2 0
v -6 -3 0
v -7 -3 0
v -7 -2 0
v -6 -2 0
v -7 -3 0
v -8 -3 0
v -8 -2 0
v -7 -2 0
v -8 -3 0
v -9 -3 0
v -9 -2 0
v -8 -2 0
v -9 -3 0
v -10 -3 0
v -10 -2 0
v -9 -2 0
v -10 -3 0
v -11 -3 0
v -11 -2 0
v -10 -2 0
v -11 -3 0
v -12 -3 0
v -12 -2 0
v -11 -2 0
v -12 -3 0
v -13 -3 0
v -13 -2 0
v -12 -2 0
v -13 -3 0
v -14 -3 0
v -14 -2 0
v -13 -2 0
v -14 -3 0
v -15 -3 0
v -15 -2 0
v -14 -2 0
v -15 -3 0
v -16 -3 0
v -16 -2 0
v -15 -2 0
v 0 -4 0
v -1 -4 0
v -1 -3 0
v 0 -3 0
v -1 -4 0
v -2 -4 0
v -2 -3 0
v -1 -3 0
v -2 -4 0
v -3 -4 0
v -3 -3 0
v -2 -3 0
v -3 -4 0
v -4 -4 0
v -4 -3 0
v -3 -3 0
v -4 -4 0
v -5 -4 0
v -5 -3 0
v -4 -3 0
v -5 -4 0
v -6 -4 0
v -6 -3 0
v -5 -3 0
v -6 -4 0
v -7 -4 0
v -7 -3 0
v -6 -3 0
v -7 -4 0
v -8 -4 0
v -8 -3 0
v -7 -3 0
v -8 -4 0
v -9 -4 0
v -9 -3 0
v -8 -3 0
v -9 -4 0
v -10 -4 0
v -10 -3 0
v -9 -3 0
v -10 -4 0
v -11 -4 0
v -11 -3 0
v -10 -3 0
v -11 -4 0
v -12 -4 0
v -12 -3 0
v -11 -3 0
v -12 -4 0
v -13 -4 0
v -13 -3 0
v -12 -3 0
v -13 -4 0
v -14 -4 0
v -14 -3 0
v -13 -3 0
v -14 -4 0
v -15 -4 0
v -15 -3 0
v -14 -3 0
v -15 -4 0
v -16 -4 0
v -16 -3 0
v -15 -3 0
v 0 -5 0
v -1 -5 0
v -1 -4 0
v 0 -4 0
v -1 -5 0
v -2 -5 0
v -2 -4 0
v -1 -4 0
v -2 -5 0
v -3 -5 0
v -3 -4 0
v -2 -4 0
v -3 -5 0
v -4 -5 0
v -4 -4 0
v -3 -4 0
v -4 -5 0
v -5 -5 0
v -5 -4 0
v -4 -4 0
v -5 -5 0
v -6 -5 0
v -6 -4 0
v -5 -4 0
v -6 -5 0
v -7 -5 0
v -7 -4 0
v -6 -4 0
v -7 -5 0
v -8 -5 0
v -8 -4 0
v -7 -4 0
v -8 -5 0
v -9 -5 0
v -9 -4 0
v -8 -4 0
v -9 -5 0
v -10 -5 0
v -10 -4 0
v -9 -4 0
v -10 -5 0
v -11 -5 0
v -11 -4 0
v -10 -4 0
v -11 -5 0
v -12 -5 0
v -12 -4 0
v -11 -4 0
v -12 -5 0
v -13 -5 0
v -13 -4 0
v -12 -4 0
v -13 -5 0
v -14 -5 0
v -14 -4 0
v -13 -4 0
v -14 -5 0
v -15 -5 0
v -15 -4 0
v -14 -4 0
v -15 -5 0
v -16 -5 0
v -16 -4 0
v -15 -4 0
v 0 -6 0
v -1 -6 0
v -1 -5 0
v 0 -5 0
v -1 -6 0
v -2 -6 0
v -2 -5 0
v -1 -5 0
v -2 -6 0
v -3 -6 0
v -3 -5 0
v -2 -5 0
v -3 -6 0
v -4 -6 0
v -4 -5 0
v -3 -5 0
v -4 -6 0
v -5 -6 0
v -5 -5 0
v -4 -5 0
v -5 -6 0
v -6 -6 0
v -6 -5 0
v -5 -5 0
v -6 -6 0
v -7 -6 0
v -7 -5 0
v -6 -5 0
v -7 -6 0
v -8 -6 0
v -8 -5 0
v -7 -5 0
v -8 -6 0
v -9 -6 0
v -9 -5 0
v -8 -5 0
v -9 -6 0
v -10 -6 0
v -10 -5 0
v -9 -5 0
v -10 -6 0
v -11 -6 0
v -11 -5 0
v -10 -5 0
v -11 -6 0
v -12 -6 0
v -12 -5 0
v -11 -5 0
v -12 -6 0
v -13 -6 0
v -13 -5 0
v -12 -5 0
v -13 -6 0
v -14 -6 0
v -14 -5 0
v -13 -5 0
v -14 -6 0
v -15 -6 0
v -15 -5 0
v -14 -5 0
v -15 -6 0
v -16 -6 0
v -16 -5 0
v -15 -5 0
v 0 -7 0
v -1 -7 0
v -1 -6 0
v 0 -6 0
v -1 -7 0
v -2 -7 0
v -2 -6 0
v -1 -6 0
v -2 -7 0
v -3 -7 0
v -3 -6 0
v -2 -6 0
v -3 -7 0
v -4 -7 0
v -4 -6 0
v -3 -6 0
v -4 -7 0
v -5 -7 0
v -5 -6 0
v -4 -6 0
v -5 -7 0
v -6 -7 0
v -6 -6 0
v -5 -6 0
v -6 -7 0
v -7 -7 0
v -7 -6 0
v -6 -6 0
v -7 -7 0
v -8 -7 0
v -8 -6 0
v -7 -6 0
v -8 -7 0
v -9 -7 0
v -9 -6 0
v -8 -6 0
v -9 -7 0
v -10 -7 0
v -10 -6 0
v -9 -6 0
v -10 -7 0
v -11 -7 0
v -11 -6 0
v -10 -6 0
v -11 -7 0
v -12 -7 0
v -12 -6 0
v -11 -6 0
v -12 -7 0
v -13 -7 0
v -13 -6 0
v -12 -6 0
v -13 -7 0
v -14 -7 0
v -14 -6 0
v -13 -6 0
v -14 -7 0
v -15 -7 0
v -15 -6 0
v -14 -6 0
v -15 -7 0
v -16 -7 0
v -16 -6 0
v -15 -6 0
v 0 -8 0
v -1 -8 0
v -1 -7 0
v 0 -7 0
v -1 -8 0
v -2 -8 0
v -2 -7 0
v -1 -7 0
v -2 -8 0
v -3 -8 0
v -3 -7 0
v -2 -7 0
v -3 -8 0
v -4 -8 0
v -4 -7 0
v -3 -7 0
v -4 -8 0
v -5 -8 0
v -5 -7 0
v -4 -7 0
v -5 -8 0
v -6 -8 0
v -6 -7 0
v -5 -7 0
v -6 -8 0
v -7 -8 0
v -7 -7 0
v -6 -7 0
v -7 -8 0
v -8 -8 0
v -8 -7 0
v -7 -7 0
v -8 -8 0
v -9 -8 0
v -9 -7 0
v -8 -7 0
v -9 -8 0
v -10 -8 0
v -10 -7 0
v -9 -7 0
v -10 -8 0
v -11 -8 0
v -11 -7 0
v -10 -7 0
v -11 -8 0
v -12 -8 0
v -12 -7 0
v -11 -7 0
v -12 -8 0
v -13 -8 0
v -13 -7 0
v -12 -7 0
v -13 -8 0
v -14 -8 0
v -14 -7 0
v -13 -7 0
v -14 -8 0
v -15 -8 0
v -15 -7 0
v -14 -7 0
v -15 -8 0
v -16 -8 0
v -16 -7 0
v -15 -7 0
v 0 -9 0
v -1 -9 0
v -1 -8 0
v 0 -8 0
v -1 -9 0
v -2 -9 0
v -2 -8 0
v -1 -8 0
v -2 -9 0
v -3 -9 0
v -3 -8 0
v -2 -8 0
v -3 -9 0
v -4 -9 0
v -4 -8 0
v -3 -8 0
v -4 -9 0
v -5 -9 0
v -5 -8 0
v -4 -8 0
v -5 -9 0
v -6 -9 0
v -6 -8 0
v -5 -8 0
v -6 -9 0
v -7 -9 0
v -7 -8 0
v -6 -8 0
v -7 -9 0
v -8 -9 0
v -8 -8 0
v -7 -8 0
v -8 -9 0
v -9 -9 0
v -9 -8 0
v -8 -8 0
v -9 -9 0
v -10 -9 0
v -10 -8 0
v -9 -8 0
v -10 -9 0
v -11 -9 0
v -11 -8 0
v -10 -8 0
v -11 -9 0
v -12 -9 0
v -12 -8 0
v -11 -8 0
v -12 -9 0
v -13 -9 0
v -13 -8 0
v -12 -8 0
v -13 -9 0
v -14 -9 0
v -14 -8 0
v -13 -8 0
v -14 -9 0
v -15 -9 0
v -15 -8 0
v -14 -8 0
v -15 -9 0
v -16 -9 0
v -16 -8 0
v -15 -8 0
v 0 -10 0
v -1 -10 0
v -1 -9 0
v 0 -9 0
v -1 -10 0
v -2 -10 0
v -2 -9 0
v -1 -9 0
v -2 -10 0
v -3 -10 0
v -3 -9 0
v -2 -9 0
v -3 -10 0
v -4 -10 0
v -4 -9 0
v -3 -9 0
v -4 -10 0
v -5 -10 0
v -5 -9 0
v -4 -9 0
v -5 -10 0
v -6 -10 0
v -6 -9 0
v -5 -9 0
v -6 -10 0
v -7 -10 0
v -7 -9 0
v -6 -9 0
v -7 -10 0
v -8 -10 0
v -8 -9 0
v -7 -9 0
v -8 -10 0
v -9 -10 0
v -9 -9 0
v -8 -9 0
v -9 -10 0
v -10 -10 0
v -10 -9 0
v -9 -9 0
v -10 -10 0
v -11 -10 0
v -11 -9 0
v -10 -9 0
v -11 -10 0
v -12 -10 0
v -12 -9 0
v -11 -9 0
v -12 -10 0
v -13 -10 0
v -13 -9 0
v -12 -9 0
v -13 -10 0
v -14 -10 0
v -14 -9 0
v -13 -9 0
v -14 -10 0
v -15 -10 0
v -15 -9 0
v -14 -9 0
v -15 -10 0
v -16 -10 0
v -16 -9 0
v -15 -9 0
v 0 -11 0
v -1 -11 0
v -1 -10 0
v 0 -10 0
v -1 -11 0
v -2 -11 0
v -2 -10 0
v -1 -10 0
v -2 -11 0
v -3 -11 0
v -3 -10 0
v -2 -10 0
v -3 -11 0
v -4 -11 0
v -4 -10 0
v -3 -10 0
v -4 -11 0
v -5 -11 0
v -5 -10 0
v -4 -10 0
v -5 -11 0
v -6 -11 0
v -6 -10 0
v -5 -10 0
v -6 -11 0
v -7 -11 0
v -7 -10 0
v -6 -10 0
v -7 -11 0
v -8 -11 0
v -8 -10 0
v -7 -10 0
v -8 -11 0
v -9 -11 0
v -9 -10 0
v -8 -10 0
v -9 -11 0
v -10 -11 0
v -10 -10 0
v -9 -10 0
v -10 -11 0
v -11 -11 0
v -11 -10 0
v -10 -10 0
v -11 -11 0
v -12 -11 0
v -12 -10 0
v -11 -10 0
v -12 -11 0
v -13 -11 0
v -13 -10 0
v -12 -10 0
v -13 -11 0
v -14 -11 0
v -14 -10 0
v -13 -10 0
v -14 -11 0
v -15 -11 0
v -15 -10 0
v -14 -10 0
v -15 -11 0
v -16 -11 0
v -16 -10 0
v -15 -10 0
v 0 -12 0
v -1 -12 0
v -1 -11 0
v 0 -11 0
v -1 -12 0
v -2 -12 0
v -2 -11 0
v -1 -11 0
v -2 -12 0
v -3 -12 0
v -3 -11 0
v -2 -11 0
v -3 -12 0
v -4 -12 0
v -4 -11 0
v -3 -11 0
v -4 -12 0
v -5 -12 0
v -5 -11 0
v -4 -11 0
v -5 -12 0
v -6 -12 0
v -6 -11 0
v -5 -11 0
v -6 -12 0
v -7 -12 0
v -7 -11 0
v -6 -11 0
v -7 -12 0
v -8 -12 0
v -8 -11 0
v -7 -11 0
v -8 -12 0
v -9 -12 0
v -9 -11 0
v -8 -11 0
v -9 -12 0
v -10 -12 0
v -10 -11 0
v -9 -11 0
v -10 -12 0
v -11 -12 0
v -11 -11 0
v -10 -11 0
v -11 -12 0
v -12 -12 0
v -12 -11 0
v -11 -11 0
v -12 -12 0
v -13 -12 0
v -13 -11 0
v -12 -11 0
v -13 -12 0
v -14 -12 0
v -14 -11 0
v -13 -11 0
v -14 -12 0
v -15 -12 0
v -15 -11 0
v -14 -11 0
v -15 -12 0
v -16 -12 0
v -16 -11 0
v -15 -11 0
v 0 -13 0
v -1 -13 0
v -1 -12 0
v 0 -12 0
v -1 -13 0
v -2 -13 0
v -2 -12 0
v -1 -12 0
v -2 -13 0
v -3 -13 0
v -3 -12 0
v -2 -12 0
v -3 -13 0
v -4 -13 0
v -4 -12 0
v -3 -12 0
v -4 -13 0
v -5 -13 0
v -5 -12 0
v -4 -12 0
v -5 -13 0
v -6 -13 0
v -6 -12 0
v -5 -12 0
v -6 -13 0
v -7 -13 0
v -7 -12 0
v -6 -12 0
v -7 -13 0
v -8 -13 0
v -8 -12 0
v -7 -12 0
v -8 -13 0
v -9 -13 0
v -9 -12 0
v -8 -12 0
v -9 -13 0
v -10 -13 0
v -10 -12 0
v -9 -12 0
v -10 -13 0
v -11 -13 0
v -11 -12 0
v -10 -12 0
v -11 -13 0
v -12 -13 0
v -12 -12 0
v -11 -12 0
v -12 -13 0
v -13 -13 0
v -13 -12 0
v -12 -12 0
v -13 -13 0
v -14 -13 0
v -14 -12 0
v -13 -12 0
v -14 -13 0
v -15 -13 0
v -15 -12 0
v -14 -12 0
v -15 -13 0
v -16 -13 0
v -16 -12 0
v -15 -12 0
v 0 -14 0
v -1 -14 0
v -1 -13 0
v 0 -13 0
v -1 -14 0
v -2 -14 0
v -2 -13 0
v -1 -13 0
v -2 -14 0
v -3 -14 0
v -3 -13 0
v -2 -13 0
v -3 -14 0
v -4 -14 0
v -4 -13 0
v -3 -13 0
v -4 -14 0
v -5 -14 0
v -5 -13 0
v -4 -13 0
v -5 -14 0
v -6 -14 0
v -6 -13 0
v -5 -13 0
v -6 -14 0
v -7 -14 0
v -7 -13 0
v -6 -13 0
v -7 -14 0
v -8 -14 0
v -8 -13 0
v -7 -13 0
v -8 -14 0
v -9 -14 0
v -9 -13 0
v -8 -13 0
v -9 -14 0
v -10 -14 0
v -10 -13 0
v -9 -13 0
v -10 -14 0
v -11 -14 0
v -11 -13 0
v -10 -13 0
v -11 -14 0
v -12 -14 0
v -12 -13 0
v -11 -13 0
v -12 -14 0
v -13 -14 0
v -13 -13 0
v -12 -13 0
v -13 -14 0
v -14 -14 0
v -14 -13 0
v -13 -13 0
v -14 -14 0
v -15 -14 0
v -15 -13 0
v -14 -13 0
v -15 -14 0
v -16 -14 0
v -16 -13 0
v -15 -13 0
v 0 -15 0
v -1 -15 0
v -1 -14 0
v 0 -14 0
v -1 -15 0
v -2 -15 0
v -2 -14 0
v -1 -14 0
v -2 -15 0
v -3 -15 0
v -3 -14 0
v -2 -14 0
v -3 -15 0
v -4 -15 0
v -4 -14 0
v -3 -14 0
v -4 -15 0
v -5 -15 0
v -5 -14 0
v -4 -14 0
v -5 -15 0
v -6 -15 0
v -6 -14 0
v -5 -14 0
v -6 -15 0
v -7 -15 0
v -7 -14 0
v -6 -14 0
v -7 -15 0
v -8 -15 0
v -8 -14 0
v -7 -14 0
v -8 -15 0
v -9 -15 0
v -9 -14 0
v -8 -14 0
v -9 -15 0
v -10 -15 0
v -10 -14 0
v -9 -14 0
v -10 -15 0
v -11 -15 0
v -11 -14 0
v -10 -14 0
v -11 -15 0
v -12 -15 0
v -12 -14 0
v -11 -14 0
v -12 -15 0
v -13 -15 0
v -13 -14 0
v -12 -14 0
v -13 -15 0
v -14 -15 0
v -14 -14 0
v -13 -14 0
v -14 -15 0
v -15 -15 0
v -15 -14 0
v -14 -14 0
v -15 -15 0
v -16 -15 0
v -16 -14 0
v -15 -14 0
v 0 -16 0
v -1 -16 0
v -1 -15 0
v 0 -15 0
v -1 -16 0
v -2 -16 0
v -2 -15 0
v -1 -15 0
v -2 -16 0
v -3 -16 0
v -3 -15 0
v -2 -15 0
v -3 -16 0
v -4 -16 0
v -4 -15 0
v -3 -15 0
v -4 -16 0
v -5 -16 0
v -5 -15 0
v -4 -15 0
v -5 -16 0
v -6 -16 0
v -6 -15 0
v -5 -15 0
v -6 -16 0
v -7 -16 0
v -7 -15 0
v -6 -15 0
v -7 -16 0
v -8 -16 0
v -8 -15 0
v -7 -15 0
v -8 -16 0
v -9 -16 0
v -9 -15 0
v -8 -15 0
v -9 -16 0
v -10 -16 0
v -10 -15 0
v -9 -15 0
v -10 -16 0
v -11 -16 0
v -11 -15 0
v -10 -15 0
v -11 -16 0
v -12 -16 0
v -12 -15 0
v -11 -15 0
v -12 -16 0
v -13 -16 0
v -13 -15 0
v -12 -15 0
v -13 -16 0
v -14 -16 0
v -14 -15 0
v -13 -15 0
v -14 -16 0
v -15 -16 0
v -15 -15 0
v -14 -15 0
v -15 -16 0
v -16 -16 0
v -16 -15 0
v -15 -15 0

# Texture cooridinates (Count = 8)
vt 0.65625 0.8125
vt 0.6875 0.8125
vt 0.6875 0.84375
vt 0.65625 0.84375
vt 0.71875 0.8125
vt 0.71875 0.84375
vt 0.75 0.8125
vt 0.75 0.84375

# Normal
vn 0 0 -1

# Mesh description
g testmap1_mesh_0425

# Faces
f 1/1/1 2/2/1 3/3/1 4/4/1
f 5/2/1 6/5/1 7/6/1 8/3/1
f 9/2/1 10/5/1 11/6/1 12/3/1
f 13/2/1 14/5/1 15/6/1 16/3/1
f 17/5/1 18/7/1 19/8/1 20/6/1
f 21/2/1 22/5/1 23/6/1 24/3/1
f 25/1/1 26/2/1 27/3/1 28/4/1
f 29/5/1 30/7/1 31/8/1 32/6/1
f 33/5/1 34/7/1 35/8/1 36/6/1
f 37/5/1 38/7/1 39/8/1 40/6/1
f 41/5/1 42/7/1 43/8/1 44/6/1
f 45/1/1 46/2/1 47/3/1 48/4/1
f 49/5/1 50/7/1 51/8/1 52/6/1
f 53/1/1 54/2/1 55/3/1 56/4/1
f 57/5/1 58/7/1 59/8/1 60/6/1
f 61/1/1 62/2/1 63/3/1 64/4/1
f 65/2/1 66/5/1 67/6/1 68/3/1
f 69/5/1 70/7/1 71/8/1 72/6/1
f 73/1/1 74/2/1 75/3/1 76/4/1
f 77/5/1 78/7/1 79/8/1 80/6/1
f 81/2/1 82/5/1 83/6/1 84/3/1
f 85/1/1 86/2/1 87/3/1 88/4/1
f 89/2/1 90/5/1 91/6/1 92/3/1
f 93/5/1 94/7/1 95/8/1 96/6/1
f 97/5/1 98/7/1 99/8/1 100/6/1
f 101/2/1 102/5/1 103/6/1 104/3/1
f 105/5/1 106/7/1 107/8/1 108/6/1
f 109/2/1 110/5/1 111/6/1 112/3/1
f 113/2/1 114/5/1 115/6/1 116/3/1
f 117/2/1 118/5/1 119/6/1 120/3/1
f 121/2/1 122/5/1 123/6/1 124/3/1
f 125/1/1 126/2/1 127/3/1 128/4/1
f 129/1/1 130/2/1 131/3/1 132/4/1
f 133/5/1 134/7/1 135/8/1 136/6/1
f 137/5/1 138/7/1 139/8/1 140/6/1
f 141/2/1 142/5/1 143/6/1 144/3/1
f 145/1/1 146/2/1 147/3/1 148/4/1
f 149/2/1 150/5/1 151/6/1 152/3/1
f 153/2/1 154/5/1 155/6/1 156/3/1
f 157/2/1 158/5/1 159/6/1 160/3/1
f 161/1/1 162/2/1 163/3/1 164/4/1
f 165/2/1 166/5/1 167/6/1 168/3/1
f 169/2/1 170/5/1 171/6/1 172/3/1
f 173/2/1 174/5/1 175/6/1 176/3/1
f 177/1/1 178/2/1 179/3/1 180/4/1
f 181/2/1 182/5/1 183/6/1 184/3/1
f 185/5/1 186/7/1 187/8/1 188/6/1
f 189/1/1 190/2/1 191/3/1 192/4/1
f 193/2/1 194/5/1 195/6/1 196/3/1
f 197/2/1 198/5/1 199/6/1 200/3/1
f 201/5/1 202/7/1 203/8/1 204/6/1
f 205/2/1 206/5/1 207/6/1 208/3/1
f 209/2/1 210/5/1 211/6/1 212/3/1
f 213/1/1 214/2/1 215/3/1 216/4/1
f 217/2/1 218/5/1 219/6/1 220/3/1
f 221/5/1 222/7/1 223/8/1 224/6/1
f 225/2/1 226/5/1 227/6/1 228/3/1
f 229/5/1 230/7/1 231/8/1 232/6/1
f 233/5/1 234/7/1 235/8/1 236/6/1
f 237/5/1 238/7/1 239/8/1 240/6/1
f 241/1/1 242/2/1 243/3/1 244/4/1
f 245/5/1 246/7/1 247/8/1 248/6/1
f 249/1/1 250/2/1 251/3/1 252/4/1
f 253/5/1 254/7/1 255/8/1 256/6/1
f 257/2/1 258/5/1 259/6/1 260/3/1
f 261/5/1 262/7/1 263/8/1 264/6/1
f 265/5/1 266/7/1 267/8/1 268/6/1
f 269/1/1 270/2/1 271/3/1 272/4/1
f 273/1/1 274/2/1 275/3/1 276/4/1
f 277/2/1 278/5/1 279/6/1 280/3/1
f 281/2/1 282/5/1 283/6/1 284/3/1
f 285/5/1 286/7/1 287/8/1 288/6/1
f 289/2/1 290/5/1 291/6/1 292/3/1
f 293/2/1 294/5/1 295/6/1 296/3/1
f 297/1/1 298/2/1 299/3/1 300/4/1
f 301/2/1 302/5/1 303/6/1 304/3/1
f 305/5/1 306/7/1 307/8/1 308/6/1
f 309/1/1 310/2/1 311/3/1 312/4/1
f 313/1/1 314/2/1 315/3/1 316/4/1
f 317/5/1 318/7/1 319/8/1 320/6/1
f 321/5/1 322/7/1 323/8/1 324/6/1
f 325/2/1 326/5/1 327/6/1 328/3/1
f 329/2/1 330/5/1 331/6/1 332/3/1
f 333/5/1 334/7/1 335/8/1 336/6/1
f 337/1/1 338/2/1 339/3/1 340/4/1
f 341/1/1 342/2/1 343/3/1 344/4/1
f 345/1/1 346/2/1 347/3/1 348/4/1
f 349/2/1 350/5/1 351/6/1 352/3/1
f 353/1/1 354/2/1 355/3/1 356/4/1
f 357/2/1 358/5/1 359/6/1 360/3/1
f 361/5/1 362/7/1 363/8/1 364/6/1
f 365/5/1 366/7/1 367/8/1 368/6/1
f 369/1/1 370/2/1 371/3/1 372/4/1
f 373/1/1 374/2/1 375/3/1 376/4/1
f 377/1/1 378/2/1 379/3/1 380/4/1
f 381/2/1 382/5/1 383/6/1 384/3/1
f 385/2/1 386/5/1 387/6/1 388/3/1
f 389/1/1 390/2/1 391/3/1 392/4/1
f 393/5/1 394/7/1 395/8/1 396/6/1
f 397/1/1 398/2/1 399/3/1 400/4/1
f 401/2/1 402/5/1 403/6/1 404/3/1
f 405/5/1 406/7/1 407/8/1 408/6/1
f 409/1/1 410/2/1 411/3/1 412/4/1
f 413/2/1 414/5/1 415/6/1 416/3/1
f 417/5/1 418/7/1 419/8/1 420/6/1
f 421/5/1 422/7/1 423/8/1 424/6/1
f 425/2/1 426/5/1 427/6/1 428/3/1
f 429/1/1 430/2/1 431/3/1 432/4/1
f 433/2/1 434/5/1 435/6/1 436/3/1
f 437/1/1 438/2/1 439/3/1 440/4/1
f 441/5/1 442/7/1 443/8/1 444/6/1
f 445/2/1 446/5/1 447/6/1 448/3/1
f 449/5/1 450/7/1 451/8/1 452/6/1
f 453/5/1 454/7/1 455/8/1 456/6/1
f 457/1/1 458/2/1 459/3/1 460/4/1
f 461/5/1 462/7/1 463/8/1 464/6/1
f 465/5/1 466/7/1 467/8/1 468/6/1
f 469/1/1 470/2/1 471/3/1 472/4/1
f 473/5/1 474/7/1 475/8/1 476/6/1
f 477/5/1 478/7/1 479/8/1 480/6/1
f 481/1/1 482/2/1 483/3/1 484/4/1
f 485/1/1 486/2/1 487/3/1 488/4/1
f 489/1/1 490/2/1 491/3/1 492/4/1
f 493/2/1 494/5/1 495/6/1 496/3/1
f 497/5/1 498/7/1 499/8/1 500/6/1
f 501/5/1 502/7/1 503/8/1 504/6/1
f 505/2/1 506/5/1 507/6/1 508/3/1
f 509/2/1 510/5/1 511/6/1 512/3/1
f 513/2/1 514/5/1 515/6/1 516/3/1
f 517/5/1 518/7/1 519/8/1 520/6/1
f 521/1/1 522/2/1 523/3/1 524/4/1
f 525/2/1 526/5/1 527/6/1 528/3/1
f 529/1/1 530/2/1 531/3/1 532/4/1
f 533/5/1 534/7/1 535/8/1 536/6/1
f 537/2/1 538/5/1 539/6/1 540/3/1
f 541/1/1 542/2/1 543/3/1 544/4/1
f 545/2/1 546/5/1 547/6/1 548/3/1
f 549/5/1 550/7/1 551/8/1 552/6/1
f 553/1/1 554/2/1 555/3/1 556/4/1
f 557/2/1 558/5/1 559/6/1 560/3/1
f 561/5/1 562/7/1 563/8/1 564/6/1
f 565/2/1 566/5/1 567/6/1 568/3/1
f 569/5/1 570/7/1 571/8/1 572/6/1
f 573/1/1 574/2/1 575/3/1 576/4/1
f 577/1/1 578/2/1 579/3/1 580/4/1
f 581/1/1 582/2/1 583/3/1 584/4/1
f 585/5/1 586/7/1 587/8/1 588/6/1
f 589/5/1 590/7/1 591/8/1 592/6/1
f 593/5/1 594/7/1 595/8/1 596/6/1
f 597/1/1 598/2/1 599/3/1 600/4/1
f 601/5/1 602/7/1 603/8/1 604/6/1
f 605/2/1 606/5/1 607/6/1 608/3/1
f 609/1/1 610/2/1 611/3/1 612/4/1
f 613/2/1 614/5/1 615/6/1 616/3/1
f 617/5/1 618/7/1 619/8/1 620/6/1
f 621/2/1 622/5/1 623/6/1 624/3/1
f 625/5/1 626/7/1 627/8/1 628/6/1
f 629/2/1 630/5/1 631/6/1 632/3/1
f 633/1/1 634/2/1 635/3/1 636/4/1
f 637/5/1 638/7/1 639/8/1 640/6/1
f 641/1/1 642/2/1 643/3/1 644/4/1
f 645/2/1 646/5/1 647/6/1 648/3/1
f 649/5/1 650/7/1 651/8/1 652/6/1
f 653/1/1 654/2/1 655/3/1 656/4/1
f 657/1/1 658/2/1 659/3/1 660/4/1
f 661/1/1 662/2/1 663/3/1 664/4/1
f 665/5/1 666/7/1 667/8/1 668/6/1
f 669/2/1 670/5/1 671/6/1 672/3/1
f 673/2/1 674/5/1 675/6/1 676/3/1
f 677/5/1 678/7/1 679/8/1 680/6/1
f 681/5/1 682/7/1 683/8/1 684/6/1
f 685/2/1 686/5/1 687/6/1 688/3/1
f 689/5/1 690/7/1 691/8/1 692/6/1
f 693/5/1 694/7/1 695/8/1 696/6/1
f 697/1/1 698/2/1 699/3/1 700/4/1
f 701/1/1 702/2/1 703/3/1 704/4/1
f 705/5/1 706/7/1 707/8/1 708/6/1
f 709/2/1 710/5/1 711/6/1 712/3/1
f 713/1/1 714/2/1 715/3/1 716/4/1
f 717/5/1 718/7/1 719/8/1 720/6/1
f 721/1/1 722/2/1 723/3/1 724/4/1
f 725/5/1 726/7/1 727/8/1 728/6/1
f 729/5/1 730/7/1 731/8/1 732/6/1
f 733/2/1 734/5/1 735/6/1 736/3/1
f 737/1/1 738/2/1 739/3/1 740/4/1
f 741/2/1 742/5/1 743/6/1 744/3/1
f 745/1/1 746/2/1 747/3/1 748/4/1
f 749/5/1 750/7/1 751/8/1 752/6/1
f 753/2/1 754/5/1 755/6/1 756/3/1
f 757/1/1 758/2/1 759/3/1 760/4/1
f 761/5/1 762/7/1 763/8/1 764/6/1
f 765/5/1 766/7/1 767/8/1 768/6/1
f 769/5/1 770/7/1 771/8/1 772/6/1
f 773/5/1 774/7/1 775/8/1 776/6/1
f 777/2/1 778/5/1 779/6/1 780/3/1
f 781/1/1 782/2/1 783/3/1 784/4/1
f 785/5/1 786/7/1 787/8/1 788/6/1
f 789/2/1 790/5/1 791/6/1 792/3/1
f 793/1/1 794/2/1 795/3/1 796/4/1
f 797/5/1 798/7/1 799/8/1 800/6/1
f 801/2/1 802/5/1 803/6/1 804/3/1
f 805/1/1 806/2/1 807/3/1 808/4/1
f 809/1/1 810/2/1 811/3/1 812/4/1
f 813/5/1 814/7/1 815/8/1 816/6/1
f 817/1/1 818/2/1 819/3/1 820/4/1
f 821/5/1 822/7/1 823/8/1 824/6/1
f 825/1/1 826/2/1 827/3/1 828/4/1
f 829/1/1 830/2/1 831/3/1 832/4/1
f 833/5/1 834/7/1 835/8/1 836/6/1
f 837/5/1 838/7/1 839/8/1 840/6/1
f 841/2/1 842/5/1 843/6/1 844/3/1
f 845/5/1 846/7/1 847/8/1 848/6/1
f 849/2/1 850/5/1 851/6/1 852/3/1
f 853/1/1 854/2/1 855/3/1 856/4/1
f 857/1/1 858/2/1 859/3/1 860/4/1
f 861/5/1 862/7/1 863/8/1 864/6/1
f 865/5/1 866/7/1 867/8/1 868/6/1
f 869/1/1 870/2/1 871/3/1 872/4/1
f 873/5/1 874/7/1 875/8/1 876/6/1
f 877/2/1 878/5/1 879/6/1 880/3/1
f 881/5/1 882/7/1 883/8/1 884/6/1
f 885/1/1 886/2/1 887/3/1 888/4/1
f 889/2/1 890/5/1 891/6/1 892/3/1
f 893/2/1 894/5/1 895/6/1 896/3/1
f 897/2/1 898/5/1 899/6/1 900/3/1
f 901/1/1 902/2/1 903/3/1 904/4/1
f 905/5/1 906/7/1 907/8/1 908/6/1
f 909/1/1 910/2/1 911/3/1 912/4/1
f 913/1/1 914/2/1 915/3/1 916/4/1
f 917/1/1 918/2/1 919/3/1 920/4/1
f 921/5/1 922/7/1 923/8/1 924/6/1
f 925/2/1 926/5/1 927/6/1 928/3/1
f 929/1/1 930/2/1 931/3/1 932/4/1
f 933/1/1 934/2/1 935/3/1 936/4/1
f 937/5/1 938/7/1 939/8/1 940/6/1
f 941/1/1 942/2/1 943/3/1 944/4/1
f 945/5/1 946/7/1 947/8/1 948/6/1
f 949/2/1 950/5/1 951/6/1 952/3/1
f 953/2/1 954/5/1 955/6/1 956/3/1
f 957/5/1 958/7/1 959/8/1 960/6/1
f 961/2/1 962/5/1 963/6/1 964/3/1
f 965/1/1 966/2/1 967/3/1 968/4/1
f 969/5/1 970/7/1 971/8/1 972/6/1
f 973/1/1 974/2/1 975/3/1 976/4/1
f 977/1/1 978/2/1 979/3/1 980/4/1
f 981/5/1 982/7/1 983/8/1 984/6/1
f 985/1/1 986/2/1 987/3/1 988/4/1
f 989/5/1 990/7/1 991/8/1 992/6/1
f 993/5/1 994/7/1 995/8/1 996/6/1
f 997/2/1 998/5/1 999/6/1 1000/3/1
f 1001/2/1 1002/5/1 1003/6/1 1004/3/1
f 1005/5/1 1006/7/1 1007/8/1 1008/6/1
f 1009/2/1 1010/5/1 1011/6/1 1012/3/1
f 1013/1/1 1014/2/1 1015/3/1 1016/4/1
f 1017/1/1 1018/2/1 1019/3/1 1020/4/1
f 1021/1/1 1022/2/1 1023/3/1 1024/4/1

