# Tiled2Unity generated file. Do not modify by hand.
# Wavefront file for 'testmap1_mesh_0418.obj'

# Vertices (Count = 1024)
v 0 -1 0
v -1 -1 0
v -1 0 0
v 0 0 0
v -1 -1 0
v -2 -1 0
v -2 0 0
v -1 0 0
v -2 -1 0
v -3 -1 0
v -3 0 0
v -2 0 0
v -3 -1 0
v -4 -1 0
v -4 0 0
v -3 0 0
v -4 -1 0
v -5 -1 0
v -5 0 0
v -4 0 0
v -5 -1 0
v -6 -1 0
v -6 0 0
v -5 0 0
v -6 -1 0
v -7 -1 0
v -7 0 0
v -6 0 0
v -7 -1 0
v -8 -1 0
v -8 0 0
v -7 0 0
v -8 -1 0
v -9 -1 0
v -9 0 0
v -8 0 0
v -9 -1 0
v -10 -1 0
v -10 0 0
v -9 0 0
v -10 -1 0
v -11 -1 0
v -11 0 0
v -10 0 0
v -11 -1 0
v -12 -1 0
v -12 0 0
v -11 0 0
v -12 -1 0
v -13 -1 0
v -13 0 0
v -12 0 0
v -13 -1 0
v -14 -1 0
v -14 0 0
v -13 0 0
v -14 -1 0
v -15 -1 0
v -15 0 0
v -14 0 0
v -15 -1 0
v -16 -1 0
v -16 0 0
v -15 0 0
v 0 -2 0
v -1 -2 0
v -1 -1 0
v 0 -1 0
v -1 -2 0
v -2 -2 0
v -2 -1 0
v -1 -1 0
v -2 -2 0
v -3 -2 0
v -3 -1 0
v -2 -1 0
v -3 -2 0
v -4 -2 0
v -4 -1 0
v -3 -1 0
v -4 -2 0
v -5 -2 0
v -5 -1 0
v -4 -1 0
v -5 -2 0
v -6 -2 0
v -6 -1 0
v -5 -1 0
v -6 -2 0
v -7 -2 0
v -7 -1 0
v -6 -1 0
v -7 -2 0
v -8 -2 0
v -8 -1 0
v -7 -1 0
v -8 -2 0
v -9 -2 0
v -9 -1 0
v -8 -1 0
v -9 -2 0
v -10 -2 0
v -10 -1 0
v -9 -1 0
v -10 -2 0
v -11 -2 0
v -11 -1 0
v -10 -1 0
v -11 -2 0
v -12 -2 0
v -12 -1 0
v -11 -1 0
v -12 -2 0
v -13 -2 0
v -13 -1 0
v -12 -1 0
v -13 -2 0
v -14 -2 0
v -14 -1 0
v -13 -1 0
v -14 -2 0
v -15 -2 0
v -15 -1 0
v -14 -1 0
v -15 -2 0
v -16 -2 0
v -16 -1 0
v -15 -1 0
v 0 -3 0
v -1 -3 0
v -1 -2 0
v 0 -2 0
v -1 -3 0
v -2 -3 0
v -2 -2 0
v -1 -2 0
v -2 -3 0
v -3 -3 0
v -3 -2 0
v -2 -2 0
v -3 -3 0
v -4 -3 0
v -4 -2 0
v -3 -2 0
v -4 -3 0
v -5 -3 0
v -5 -2 0
v -4 -2 0
v -5 -3 0
v -6 -3 0
v -6 -2 0
v -5 -2 0
v -6 -3 0
v -7 -3 0
v -7 -2 0
v -6 -2 0
v -7 -3 0
v -8 -3 0
v -8 -2 0
v -7 -2 0
v -8 -3 0
v -9 -3 0
v -9 -2 0
v -8 -2 0
v -9 -3 0
v -10 -3 0
v -10 -2 0
v -9 -2 0
v -10 -3 0
v -11 -3 0
v -11 -2 0
v -10 -2 0
v -11 -3 0
v -12 -3 0
v -12 -2 0
v -11 -2 0
v -12 -3 0
v -13 -3 0
v -13 -2 0
v -12 -2 0
v -13 -3 0
v -14 -3 0
v -14 -2 0
v -13 -2 0
v -14 -3 0
v -15 -3 0
v -15 -2 0
v -14 -2 0
v -15 -3 0
v -16 -3 0
v -16 -2 0
v -15 -2 0
v 0 -4 0
v -1 -4 0
v -1 -3 0
v 0 -3 0
v -1 -4 0
v -2 -4 0
v -2 -3 0
v -1 -3 0
v -2 -4 0
v -3 -4 0
v -3 -3 0
v -2 -3 0
v -3 -4 0
v -4 -4 0
v -4 -3 0
v -3 -3 0
v -4 -4 0
v -5 -4 0
v -5 -3 0
v -4 -3 0
v -5 -4 0
v -6 -4 0
v -6 -3 0
v -5 -3 0
v -6 -4 0
v -7 -4 0
v -7 -3 0
v -6 -3 0
v -7 -4 0
v -8 -4 0
v -8 -3 0
v -7 -3 0
v -8 -4 0
v -9 -4 0
v -9 -3 0
v -8 -3 0
v -9 -4 0
v -10 -4 0
v -10 -3 0
v -9 -3 0
v -10 -4 0
v -11 -4 0
v -11 -3 0
v -10 -3 0
v -11 -4 0
v -12 -4 0
v -12 -3 0
v -11 -3 0
v -12 -4 0
v -13 -4 0
v -13 -3 0
v -12 -3 0
v -13 -4 0
v -14 -4 0
v -14 -3 0
v -13 -3 0
v -14 -4 0
v -15 -4 0
v -15 -3 0
v -14 -3 0
v -15 -4 0
v -16 -4 0
v -16 -3 0
v -15 -3 0
v 0 -5 0
v -1 -5 0
v -1 -4 0
v 0 -4 0
v -1 -5 0
v -2 -5 0
v -2 -4 0
v -1 -4 0
v -2 -5 0
v -3 -5 0
v -3 -4 0
v -2 -4 0
v -3 -5 0
v -4 -5 0
v -4 -4 0
v -3 -4 0
v -4 -5 0
v -5 -5 0
v -5 -4 0
v -4 -4 0
v -5 -5 0
v -6 -5 0
v -6 -4 0
v -5 -4 0
v -6 -5 0
v -7 -5 0
v -7 -4 0
v -6 -4 0
v -7 -5 0
v -8 -5 0
v -8 -4 0
v -7 -4 0
v -8 -5 0
v -9 -5 0
v -9 -4 0
v -8 -4 0
v -9 -5 0
v -10 -5 0
v -10 -4 0
v -9 -4 0
v -10 -5 0
v -11 -5 0
v -11 -4 0
v -10 -4 0
v -11 -5 0
v -12 -5 0
v -12 -4 0
v -11 -4 0
v -12 -5 0
v -13 -5 0
v -13 -4 0
v -12 -4 0
v -13 -5 0
v -14 -5 0
v -14 -4 0
v -13 -4 0
v -14 -5 0
v -15 -5 0
v -15 -4 0
v -14 -4 0
v -15 -5 0
v -16 -5 0
v -16 -4 0
v -15 -4 0
v 0 -6 0
v -1 -6 0
v -1 -5 0
v 0 -5 0
v -1 -6 0
v -2 -6 0
v -2 -5 0
v -1 -5 0
v -2 -6 0
v -3 -6 0
v -3 -5 0
v -2 -5 0
v -3 -6 0
v -4 -6 0
v -4 -5 0
v -3 -5 0
v -4 -6 0
v -5 -6 0
v -5 -5 0
v -4 -5 0
v -5 -6 0
v -6 -6 0
v -6 -5 0
v -5 -5 0
v -6 -6 0
v -7 -6 0
v -7 -5 0
v -6 -5 0
v -7 -6 0
v -8 -6 0
v -8 -5 0
v -7 -5 0
v -8 -6 0
v -9 -6 0
v -9 -5 0
v -8 -5 0
v -9 -6 0
v -10 -6 0
v -10 -5 0
v -9 -5 0
v -10 -6 0
v -11 -6 0
v -11 -5 0
v -10 -5 0
v -11 -6 0
v -12 -6 0
v -12 -5 0
v -11 -5 0
v -12 -6 0
v -13 -6 0
v -13 -5 0
v -12 -5 0
v -13 -6 0
v -14 -6 0
v -14 -5 0
v -13 -5 0
v -14 -6 0
v -15 -6 0
v -15 -5 0
v -14 -5 0
v -15 -6 0
v -16 -6 0
v -16 -5 0
v -15 -5 0
v 0 -7 0
v -1 -7 0
v -1 -6 0
v 0 -6 0
v -1 -7 0
v -2 -7 0
v -2 -6 0
v -1 -6 0
v -2 -7 0
v -3 -7 0
v -3 -6 0
v -2 -6 0
v -3 -7 0
v -4 -7 0
v -4 -6 0
v -3 -6 0
v -4 -7 0
v -5 -7 0
v -5 -6 0
v -4 -6 0
v -5 -7 0
v -6 -7 0
v -6 -6 0
v -5 -6 0
v -6 -7 0
v -7 -7 0
v -7 -6 0
v -6 -6 0
v -7 -7 0
v -8 -7 0
v -8 -6 0
v -7 -6 0
v -8 -7 0
v -9 -7 0
v -9 -6 0
v -8 -6 0
v -9 -7 0
v -10 -7 0
v -10 -6 0
v -9 -6 0
v -10 -7 0
v -11 -7 0
v -11 -6 0
v -10 -6 0
v -11 -7 0
v -12 -7 0
v -12 -6 0
v -11 -6 0
v -12 -7 0
v -13 -7 0
v -13 -6 0
v -12 -6 0
v -13 -7 0
v -14 -7 0
v -14 -6 0
v -13 -6 0
v -14 -7 0
v -15 -7 0
v -15 -6 0
v -14 -6 0
v -15 -7 0
v -16 -7 0
v -16 -6 0
v -15 -6 0
v 0 -8 0
v -1 -8 0
v -1 -7 0
v 0 -7 0
v -1 -8 0
v -2 -8 0
v -2 -7 0
v -1 -7 0
v -2 -8 0
v -3 -8 0
v -3 -7 0
v -2 -7 0
v -3 -8 0
v -4 -8 0
v -4 -7 0
v -3 -7 0
v -4 -8 0
v -5 -8 0
v -5 -7 0
v -4 -7 0
v -5 -8 0
v -6 -8 0
v -6 -7 0
v -5 -7 0
v -6 -8 0
v -7 -8 0
v -7 -7 0
v -6 -7 0
v -7 -8 0
v -8 -8 0
v -8 -7 0
v -7 -7 0
v -8 -8 0
v -9 -8 0
v -9 -7 0
v -8 -7 0
v -9 -8 0
v -10 -8 0
v -10 -7 0
v -9 -7 0
v -10 -8 0
v -11 -8 0
v -11 -7 0
v -10 -7 0
v -11 -8 0
v -12 -8 0
v -12 -7 0
v -11 -7 0
v -12 -8 0
v -13 -8 0
v -13 -7 0
v -12 -7 0
v -13 -8 0
v -14 -8 0
v -14 -7 0
v -13 -7 0
v -14 -8 0
v -15 -8 0
v -15 -7 0
v -14 -7 0
v -15 -8 0
v -16 -8 0
v -16 -7 0
v -15 -7 0
v 0 -9 0
v -1 -9 0
v -1 -8 0
v 0 -8 0
v -1 -9 0
v -2 -9 0
v -2 -8 0
v -1 -8 0
v -2 -9 0
v -3 -9 0
v -3 -8 0
v -2 -8 0
v -3 -9 0
v -4 -9 0
v -4 -8 0
v -3 -8 0
v -4 -9 0
v -5 -9 0
v -5 -8 0
v -4 -8 0
v -5 -9 0
v -6 -9 0
v -6 -8 0
v -5 -8 0
v -6 -9 0
v -7 -9 0
v -7 -8 0
v -6 -8 0
v -7 -9 0
v -8 -9 0
v -8 -8 0
v -7 -8 0
v -8 -9 0
v -9 -9 0
v -9 -8 0
v -8 -8 0
v -9 -9 0
v -10 -9 0
v -10 -8 0
v -9 -8 0
v -10 -9 0
v -11 -9 0
v -11 -8 0
v -10 -8 0
v -11 -9 0
v -12 -9 0
v -12 -8 0
v -11 -8 0
v -12 -9 0
v -13 -9 0
v -13 -8 0
v -12 -8 0
v -13 -9 0
v -14 -9 0
v -14 -8 0
v -13 -8 0
v -14 -9 0
v -15 -9 0
v -15 -8 0
v -14 -8 0
v -15 -9 0
v -16 -9 0
v -16 -8 0
v -15 -8 0
v 0 -10 0
v -1 -10 0
v -1 -9 0
v 0 -9 0
v -1 -10 0
v -2 -10 0
v -2 -9 0
v -1 -9 0
v -2 -10 0
v -3 -10 0
v -3 -9 0
v -2 -9 0
v -3 -10 0
v -4 -10 0
v -4 -9 0
v -3 -9 0
v -4 -10 0
v -5 -10 0
v -5 -9 0
v -4 -9 0
v -5 -10 0
v -6 -10 0
v -6 -9 0
v -5 -9 0
v -6 -10 0
v -7 -10 0
v -7 -9 0
v -6 -9 0
v -7 -10 0
v -8 -10 0
v -8 -9 0
v -7 -9 0
v -8 -10 0
v -9 -10 0
v -9 -9 0
v -8 -9 0
v -9 -10 0
v -10 -10 0
v -10 -9 0
v -9 -9 0
v -10 -10 0
v -11 -10 0
v -11 -9 0
v -10 -9 0
v -11 -10 0
v -12 -10 0
v -12 -9 0
v -11 -9 0
v -12 -10 0
v -13 -10 0
v -13 -9 0
v -12 -9 0
v -13 -10 0
v -14 -10 0
v -14 -9 0
v -13 -9 0
v -14 -10 0
v -15 -10 0
v -15 -9 0
v -14 -9 0
v -15 -10 0
v -16 -10 0
v -16 -9 0
v -15 -9 0
v 0 -11 0
v -1 -11 0
v -1 -10 0
v 0 -10 0
v -1 -11 0
v -2 -11 0
v -2 -10 0
v -1 -10 0
v -2 -11 0
v -3 -11 0
v -3 -10 0
v -2 -10 0
v -3 -11 0
v -4 -11 0
v -4 -10 0
v -3 -10 0
v -4 -11 0
v -5 -11 0
v -5 -10 0
v -4 -10 0
v -5 -11 0
v -6 -11 0
v -6 -10 0
v -5 -10 0
v -6 -11 0
v -7 -11 0
v -7 -10 0
v -6 -10 0
v -7 -11 0
v -8 -11 0
v -8 -10 0
v -7 -10 0
v -8 -11 0
v -9 -11 0
v -9 -10 0
v -8 -10 0
v -9 -11 0
v -10 -11 0
v -10 -10 0
v -9 -10 0
v -10 -11 0
v -11 -11 0
v -11 -10 0
v -10 -10 0
v -11 -11 0
v -12 -11 0
v -12 -10 0
v -11 -10 0
v -12 -11 0
v -13 -11 0
v -13 -10 0
v -12 -10 0
v -13 -11 0
v -14 -11 0
v -14 -10 0
v -13 -10 0
v -14 -11 0
v -15 -11 0
v -15 -10 0
v -14 -10 0
v -15 -11 0
v -16 -11 0
v -16 -10 0
v -15 -10 0
v 0 -12 0
v -1 -12 0
v -1 -11 0
v 0 -11 0
v -1 -12 0
v -2 -12 0
v -2 -11 0
v -1 -11 0
v -2 -12 0
v -3 -12 0
v -3 -11 0
v -2 -11 0
v -3 -12 0
v -4 -12 0
v -4 -11 0
v -3 -11 0
v -4 -12 0
v -5 -12 0
v -5 -11 0
v -4 -11 0
v -5 -12 0
v -6 -12 0
v -6 -11 0
v -5 -11 0
v -6 -12 0
v -7 -12 0
v -7 -11 0
v -6 -11 0
v -7 -12 0
v -8 -12 0
v -8 -11 0
v -7 -11 0
v -8 -12 0
v -9 -12 0
v -9 -11 0
v -8 -11 0
v -9 -12 0
v -10 -12 0
v -10 -11 0
v -9 -11 0
v -10 -12 0
v -11 -12 0
v -11 -11 0
v -10 -11 0
v -11 -12 0
v -12 -12 0
v -12 -11 0
v -11 -11 0
v -12 -12 0
v -13 -12 0
v -13 -11 0
v -12 -11 0
v -13 -12 0
v -14 -12 0
v -14 -11 0
v -13 -11 0
v -14 -12 0
v -15 -12 0
v -15 -11 0
v -14 -11 0
v -15 -12 0
v -16 -12 0
v -16 -11 0
v -15 -11 0
v 0 -13 0
v -1 -13 0
v -1 -12 0
v 0 -12 0
v -1 -13 0
v -2 -13 0
v -2 -12 0
v -1 -12 0
v -2 -13 0
v -3 -13 0
v -3 -12 0
v -2 -12 0
v -3 -13 0
v -4 -13 0
v -4 -12 0
v -3 -12 0
v -4 -13 0
v -5 -13 0
v -5 -12 0
v -4 -12 0
v -5 -13 0
v -6 -13 0
v -6 -12 0
v -5 -12 0
v -6 -13 0
v -7 -13 0
v -7 -12 0
v -6 -12 0
v -7 -13 0
v -8 -13 0
v -8 -12 0
v -7 -12 0
v -8 -13 0
v -9 -13 0
v -9 -12 0
v -8 -12 0
v -9 -13 0
v -10 -13 0
v -10 -12 0
v -9 -12 0
v -10 -13 0
v -11 -13 0
v -11 -12 0
v -10 -12 0
v -11 -13 0
v -12 -13 0
v -12 -12 0
v -11 -12 0
v -12 -13 0
v -13 -13 0
v -13 -12 0
v -12 -12 0
v -13 -13 0
v -14 -13 0
v -14 -12 0
v -13 -12 0
v -14 -13 0
v -15 -13 0
v -15 -12 0
v -14 -12 0
v -15 -13 0
v -16 -13 0
v -16 -12 0
v -15 -12 0
v 0 -14 0
v -1 -14 0
v -1 -13 0
v 0 -13 0
v -1 -14 0
v -2 -14 0
v -2 -13 0
v -1 -13 0
v -2 -14 0
v -3 -14 0
v -3 -13 0
v -2 -13 0
v -3 -14 0
v -4 -14 0
v -4 -13 0
v -3 -13 0
v -4 -14 0
v -5 -14 0
v -5 -13 0
v -4 -13 0
v -5 -14 0
v -6 -14 0
v -6 -13 0
v -5 -13 0
v -6 -14 0
v -7 -14 0
v -7 -13 0
v -6 -13 0
v -7 -14 0
v -8 -14 0
v -8 -13 0
v -7 -13 0
v -8 -14 0
v -9 -14 0
v -9 -13 0
v -8 -13 0
v -9 -14 0
v -10 -14 0
v -10 -13 0
v -9 -13 0
v -10 -14 0
v -11 -14 0
v -11 -13 0
v -10 -13 0
v -11 -14 0
v -12 -14 0
v -12 -13 0
v -11 -13 0
v -12 -14 0
v -13 -14 0
v -13 -13 0
v -12 -13 0
v -13 -14 0
v -14 -14 0
v -14 -13 0
v -13 -13 0
v -14 -14 0
v -15 -14 0
v -15 -13 0
v -14 -13 0
v -15 -14 0
v -16 -14 0
v -16 -13 0
v -15 -13 0
v 0 -15 0
v -1 -15 0
v -1 -14 0
v 0 -14 0
v -1 -15 0
v -2 -15 0
v -2 -14 0
v -1 -14 0
v -2 -15 0
v -3 -15 0
v -3 -14 0
v -2 -14 0
v -3 -15 0
v -4 -15 0
v -4 -14 0
v -3 -14 0
v -4 -15 0
v -5 -15 0
v -5 -14 0
v -4 -14 0
v -5 -15 0
v -6 -15 0
v -6 -14 0
v -5 -14 0
v -6 -15 0
v -7 -15 0
v -7 -14 0
v -6 -14 0
v -7 -15 0
v -8 -15 0
v -8 -14 0
v -7 -14 0
v -8 -15 0
v -9 -15 0
v -9 -14 0
v -8 -14 0
v -9 -15 0
v -10 -15 0
v -10 -14 0
v -9 -14 0
v -10 -15 0
v -11 -15 0
v -11 -14 0
v -10 -14 0
v -11 -15 0
v -12 -15 0
v -12 -14 0
v -11 -14 0
v -12 -15 0
v -13 -15 0
v -13 -14 0
v -12 -14 0
v -13 -15 0
v -14 -15 0
v -14 -14 0
v -13 -14 0
v -14 -15 0
v -15 -15 0
v -15 -14 0
v -14 -14 0
v -15 -15 0
v -16 -15 0
v -16 -14 0
v -15 -14 0
v 0 -16 0
v -1 -16 0
v -1 -15 0
v 0 -15 0
v -1 -16 0
v -2 -16 0
v -2 -15 0
v -1 -15 0
v -2 -16 0
v -3 -16 0
v -3 -15 0
v -2 -15 0
v -3 -16 0
v -4 -16 0
v -4 -15 0
v -3 -15 0
v -4 -16 0
v -5 -16 0
v -5 -15 0
v -4 -15 0
v -5 -16 0
v -6 -16 0
v -6 -15 0
v -5 -15 0
v -6 -16 0
v -7 -16 0
v -7 -15 0
v -6 -15 0
v -7 -16 0
v -8 -16 0
v -8 -15 0
v -7 -15 0
v -8 -16 0
v -9 -16 0
v -9 -15 0
v -8 -15 0
v -9 -16 0
v -10 -16 0
v -10 -15 0
v -9 -15 0
v -10 -16 0
v -11 -16 0
v -11 -15 0
v -10 -15 0
v -11 -16 0
v -12 -16 0
v -12 -15 0
v -11 -15 0
v -12 -16 0
v -13 -16 0
v -13 -15 0
v -12 -15 0
v -13 -16 0
v -14 -16 0
v -14 -15 0
v -13 -15 0
v -14 -16 0
v -15 -16 0
v -15 -15 0
v -14 -15 0
v -15 -16 0
v -16 -16 0
v -16 -15 0
v -15 -15 0

# Texture cooridinates (Count = 8)
vt 0.71875 0.8125
vt 0.75 0.8125
vt 0.75 0.84375
vt 0.71875 0.84375
vt 0.6875 0.8125
vt 0.6875 0.84375
vt 0.65625 0.8125
vt 0.65625 0.84375

# Normal
vn 0 0 -1

# Mesh description
g testmap1_mesh_0418

# Faces
f 1/1/1 2/2/1 3/3/1 4/4/1
f 5/5/1 6/1/1 7/4/1 8/6/1
f 9/1/1 10/2/1 11/3/1 12/4/1
f 13/7/1 14/5/1 15/6/1 16/8/1
f 17/1/1 18/2/1 19/3/1 20/4/1
f 21/5/1 22/1/1 23/4/1 24/6/1
f 25/7/1 26/5/1 27/6/1 28/8/1
f 29/5/1 30/1/1 31/4/1 32/6/1
f 33/7/1 34/5/1 35/6/1 36/8/1
f 37/5/1 38/1/1 39/4/1 40/6/1
f 41/7/1 42/5/1 43/6/1 44/8/1
f 45/1/1 46/2/1 47/3/1 48/4/1
f 49/5/1 50/1/1 51/4/1 52/6/1
f 53/1/1 54/2/1 55/3/1 56/4/1
f 57/1/1 58/2/1 59/3/1 60/4/1
f 61/1/1 62/2/1 63/3/1 64/4/1
f 65/5/1 66/1/1 67/4/1 68/6/1
f 69/5/1 70/1/1 71/4/1 72/6/1
f 73/5/1 74/1/1 75/4/1 76/6/1
f 77/1/1 78/2/1 79/3/1 80/4/1
f 81/5/1 82/1/1 83/4/1 84/6/1
f 85/1/1 86/2/1 87/3/1 88/4/1
f 89/5/1 90/1/1 91/4/1 92/6/1
f 93/5/1 94/1/1 95/4/1 96/6/1
f 97/1/1 98/2/1 99/3/1 100/4/1
f 101/1/1 102/2/1 103/3/1 104/4/1
f 105/5/1 106/1/1 107/4/1 108/6/1
f 109/7/1 110/5/1 111/6/1 112/8/1
f 113/7/1 114/5/1 115/6/1 116/8/1
f 117/5/1 118/1/1 119/4/1 120/6/1
f 121/5/1 122/1/1 123/4/1 124/6/1
f 125/7/1 126/5/1 127/6/1 128/8/1
f 129/7/1 130/5/1 131/6/1 132/8/1
f 133/1/1 134/2/1 135/3/1 136/4/1
f 137/5/1 138/1/1 139/4/1 140/6/1
f 141/7/1 142/5/1 143/6/1 144/8/1
f 145/7/1 146/5/1 147/6/1 148/8/1
f 149/1/1 150/2/1 151/3/1 152/4/1
f 153/1/1 154/2/1 155/3/1 156/4/1
f 157/7/1 158/5/1 159/6/1 160/8/1
f 161/1/1 162/2/1 163/3/1 164/4/1
f 165/7/1 166/5/1 167/6/1 168/8/1
f 169/5/1 170/1/1 171/4/1 172/6/1
f 173/5/1 174/1/1 175/4/1 176/6/1
f 177/5/1 178/1/1 179/4/1 180/6/1
f 181/5/1 182/1/1 183/4/1 184/6/1
f 185/7/1 186/5/1 187/6/1 188/8/1
f 189/1/1 190/2/1 191/3/1 192/4/1
f 193/1/1 194/2/1 195/3/1 196/4/1
f 197/7/1 198/5/1 199/6/1 200/8/1
f 201/7/1 202/5/1 203/6/1 204/8/1
f 205/1/1 206/2/1 207/3/1 208/4/1
f 209/1/1 210/2/1 211/3/1 212/4/1
f 213/5/1 214/1/1 215/4/1 216/6/1
f 217/5/1 218/1/1 219/4/1 220/6/1
f 221/1/1 222/2/1 223/3/1 224/4/1
f 225/5/1 226/1/1 227/4/1 228/6/1
f 229/1/1 230/2/1 231/3/1 232/4/1
f 233/5/1 234/1/1 235/4/1 236/6/1
f 237/7/1 238/5/1 239/6/1 240/8/1
f 241/5/1 242/1/1 243/4/1 244/6/1
f 245/1/1 246/2/1 247/3/1 248/4/1
f 249/7/1 250/5/1 251/6/1 252/8/1
f 253/7/1 254/5/1 255/6/1 256/8/1
f 257/7/1 258/5/1 259/6/1 260/8/1
f 261/1/1 262/2/1 263/3/1 264/4/1
f 265/7/1 266/5/1 267/6/1 268/8/1
f 269/5/1 270/1/1 271/4/1 272/6/1
f 273/5/1 274/1/1 275/4/1 276/6/1
f 277/5/1 278/1/1 279/4/1 280/6/1
f 281/7/1 282/5/1 283/6/1 284/8/1
f 285/1/1 286/2/1 287/3/1 288/4/1
f 289/5/1 290/1/1 291/4/1 292/6/1
f 293/7/1 294/5/1 295/6/1 296/8/1
f 297/7/1 298/5/1 299/6/1 300/8/1
f 301/7/1 302/5/1 303/6/1 304/8/1
f 305/5/1 306/1/1 307/4/1 308/6/1
f 309/5/1 310/1/1 311/4/1 312/6/1
f 313/5/1 314/1/1 315/4/1 316/6/1
f 317/7/1 318/5/1 319/6/1 320/8/1
f 321/7/1 322/5/1 323/6/1 324/8/1
f 325/1/1 326/2/1 327/3/1 328/4/1
f 329/7/1 330/5/1 331/6/1 332/8/1
f 333/1/1 334/2/1 335/3/1 336/4/1
f 337/1/1 338/2/1 339/3/1 340/4/1
f 341/1/1 342/2/1 343/3/1 344/4/1
f 345/7/1 346/5/1 347/6/1 348/8/1
f 349/7/1 350/5/1 351/6/1 352/8/1
f 353/5/1 354/1/1 355/4/1 356/6/1
f 357/7/1 358/5/1 359/6/1 360/8/1
f 361/7/1 362/5/1 363/6/1 364/8/1
f 365/1/1 366/2/1 367/3/1 368/4/1
f 369/7/1 370/5/1 371/6/1 372/8/1
f 373/7/1 374/5/1 375/6/1 376/8/1
f 377/5/1 378/1/1 379/4/1 380/6/1
f 381/1/1 382/2/1 383/3/1 384/4/1
f 385/7/1 386/5/1 387/6/1 388/8/1
f 389/5/1 390/1/1 391/4/1 392/6/1
f 393/7/1 394/5/1 395/6/1 396/8/1
f 397/5/1 398/1/1 399/4/1 400/6/1
f 401/1/1 402/2/1 403/3/1 404/4/1
f 405/5/1 406/1/1 407/4/1 408/6/1
f 409/5/1 410/1/1 411/4/1 412/6/1
f 413/7/1 414/5/1 415/6/1 416/8/1
f 417/7/1 418/5/1 419/6/1 420/8/1
f 421/1/1 422/2/1 423/3/1 424/4/1
f 425/5/1 426/1/1 427/4/1 428/6/1
f 429/7/1 430/5/1 431/6/1 432/8/1
f 433/7/1 434/5/1 435/6/1 436/8/1
f 437/1/1 438/2/1 439/3/1 440/4/1
f 441/7/1 442/5/1 443/6/1 444/8/1
f 445/1/1 446/2/1 447/3/1 448/4/1
f 449/7/1 450/5/1 451/6/1 452/8/1
f 453/5/1 454/1/1 455/4/1 456/6/1
f 457/5/1 458/1/1 459/4/1 460/6/1
f 461/5/1 462/1/1 463/4/1 464/6/1
f 465/7/1 466/5/1 467/6/1 468/8/1
f 469/1/1 470/2/1 471/3/1 472/4/1
f 473/1/1 474/2/1 475/3/1 476/4/1
f 477/7/1 478/5/1 479/6/1 480/8/1
f 481/7/1 482/5/1 483/6/1 484/8/1
f 485/7/1 486/5/1 487/6/1 488/8/1
f 489/1/1 490/2/1 491/3/1 492/4/1
f 493/7/1 494/5/1 495/6/1 496/8/1
f 497/7/1 498/5/1 499/6/1 500/8/1
f 501/1/1 502/2/1 503/3/1 504/4/1
f 505/7/1 506/5/1 507/6/1 508/8/1
f 509/7/1 510/5/1 511/6/1 512/8/1
f 513/1/1 514/2/1 515/3/1 516/4/1
f 517/7/1 518/5/1 519/6/1 520/8/1
f 521/1/1 522/2/1 523/3/1 524/4/1
f 525/7/1 526/5/1 527/6/1 528/8/1
f 529/7/1 530/5/1 531/6/1 532/8/1
f 533/1/1 534/2/1 535/3/1 536/4/1
f 537/5/1 538/1/1 539/4/1 540/6/1
f 541/1/1 542/2/1 543/3/1 544/4/1
f 545/1/1 546/2/1 547/3/1 548/4/1
f 549/5/1 550/1/1 551/4/1 552/6/1
f 553/5/1 554/1/1 555/4/1 556/6/1
f 557/1/1 558/2/1 559/3/1 560/4/1
f 561/1/1 562/2/1 563/3/1 564/4/1
f 565/7/1 566/5/1 567/6/1 568/8/1
f 569/7/1 570/5/1 571/6/1 572/8/1
f 573/5/1 574/1/1 575/4/1 576/6/1
f 577/1/1 578/2/1 579/3/1 580/4/1
f 581/5/1 582/1/1 583/4/1 584/6/1
f 585/5/1 586/1/1 587/4/1 588/6/1
f 589/1/1 590/2/1 591/3/1 592/4/1
f 593/1/1 594/2/1 595/3/1 596/4/1
f 597/7/1 598/5/1 599/6/1 600/8/1
f 601/7/1 602/5/1 603/6/1 604/8/1
f 605/7/1 606/5/1 607/6/1 608/8/1
f 609/1/1 610/2/1 611/3/1 612/4/1
f 613/7/1 614/5/1 615/6/1 616/8/1
f 617/1/1 618/2/1 619/3/1 620/4/1
f 621/7/1 622/5/1 623/6/1 624/8/1
f 625/1/1 626/2/1 627/3/1 628/4/1
f 629/7/1 630/5/1 631/6/1 632/8/1
f 633/7/1 634/5/1 635/6/1 636/8/1
f 637/1/1 638/2/1 639/3/1 640/4/1
f 641/5/1 642/1/1 643/4/1 644/6/1
f 645/1/1 646/2/1 647/3/1 648/4/1
f 649/5/1 650/1/1 651/4/1 652/6/1
f 653/7/1 654/5/1 655/6/1 656/8/1
f 657/1/1 658/2/1 659/3/1 660/4/1
f 661/1/1 662/2/1 663/3/1 664/4/1
f 665/1/1 666/2/1 667/3/1 668/4/1
f 669/7/1 670/5/1 671/6/1 672/8/1
f 673/7/1 674/5/1 675/6/1 676/8/1
f 677/7/1 678/5/1 679/6/1 680/8/1
f 681/5/1 682/1/1 683/4/1 684/6/1
f 685/5/1 686/1/1 687/4/1 688/6/1
f 689/1/1 690/2/1 691/3/1 692/4/1
f 693/1/1 694/2/1 695/3/1 696/4/1
f 697/1/1 698/2/1 699/3/1 700/4/1
f 701/1/1 702/2/1 703/3/1 704/4/1
f 705/5/1 706/1/1 707/4/1 708/6/1
f 709/5/1 710/1/1 711/4/1 712/6/1
f 713/1/1 714/2/1 715/3/1 716/4/1
f 717/1/1 718/2/1 719/3/1 720/4/1
f 721/5/1 722/1/1 723/4/1 724/6/1
f 725/5/1 726/1/1 727/4/1 728/6/1
f 729/1/1 730/2/1 731/3/1 732/4/1
f 733/5/1 734/1/1 735/4/1 736/6/1
f 737/5/1 738/1/1 739/4/1 740/6/1
f 741/5/1 742/1/1 743/4/1 744/6/1
f 745/5/1 746/1/1 747/4/1 748/6/1
f 749/5/1 750/1/1 751/4/1 752/6/1
f 753/5/1 754/1/1 755/4/1 756/6/1
f 757/5/1 758/1/1 759/4/1 760/6/1
f 761/5/1 762/1/1 763/4/1 764/6/1
f 765/1/1 766/2/1 767/3/1 768/4/1
f 769/7/1 770/5/1 771/6/1 772/8/1
f 773/5/1 774/1/1 775/4/1 776/6/1
f 777/1/1 778/2/1 779/3/1 780/4/1
f 781/5/1 782/1/1 783/4/1 784/6/1
f 785/7/1 786/5/1 787/6/1 788/8/1
f 789/7/1 790/5/1 791/6/1 792/8/1
f 793/7/1 794/5/1 795/6/1 796/8/1
f 797/5/1 798/1/1 799/4/1 800/6/1
f 801/1/1 802/2/1 803/3/1 804/4/1
f 805/1/1 806/2/1 807/3/1 808/4/1
f 809/1/1 810/2/1 811/3/1 812/4/1
f 813/7/1 814/5/1 815/6/1 816/8/1
f 817/1/1 818/2/1 819/3/1 820/4/1
f 821/7/1 822/5/1 823/6/1 824/8/1
f 825/5/1 826/1/1 827/4/1 828/6/1
f 829/7/1 830/5/1 831/6/1 832/8/1
f 833/7/1 834/5/1 835/6/1 836/8/1
f 837/1/1 838/2/1 839/3/1 840/4/1
f 841/1/1 842/2/1 843/3/1 844/4/1
f 845/7/1 846/5/1 847/6/1 848/8/1
f 849/7/1 850/5/1 851/6/1 852/8/1
f 853/5/1 854/1/1 855/4/1 856/6/1
f 857/5/1 858/1/1 859/4/1 860/6/1
f 861/7/1 862/5/1 863/6/1 864/8/1
f 865/7/1 866/5/1 867/6/1 868/8/1
f 869/7/1 870/5/1 871/6/1 872/8/1
f 873/1/1 874/2/1 875/3/1 876/4/1
f 877/1/1 878/2/1 879/3/1 880/4/1
f 881/5/1 882/1/1 883/4/1 884/6/1
f 885/7/1 886/5/1 887/6/1 888/8/1
f 889/5/1 890/1/1 891/4/1 892/6/1
f 893/7/1 894/5/1 895/6/1 896/8/1
f 897/1/1 898/2/1 899/3/1 900/4/1
f 901/5/1 902/1/1 903/4/1 904/6/1
f 905/7/1 906/5/1 907/6/1 908/8/1
f 909/5/1 910/1/1 911/4/1 912/6/1
f 913/5/1 914/1/1 915/4/1 916/6/1
f 917/5/1 918/1/1 919/4/1 920/6/1
f 921/1/1 922/2/1 923/3/1 924/4/1
f 925/7/1 926/5/1 927/6/1 928/8/1
f 929/7/1 930/5/1 931/6/1 932/8/1
f 933/7/1 934/5/1 935/6/1 936/8/1
f 937/5/1 938/1/1 939/4/1 940/6/1
f 941/5/1 942/1/1 943/4/1 944/6/1
f 945/1/1 946/2/1 947/3/1 948/4/1
f 949/5/1 950/1/1 951/4/1 952/6/1
f 953/1/1 954/2/1 955/3/1 956/4/1
f 957/1/1 958/2/1 959/3/1 960/4/1
f 961/5/1 962/1/1 963/4/1 964/6/1
f 965/1/1 966/2/1 967/3/1 968/4/1
f 969/5/1 970/1/1 971/4/1 972/6/1
f 973/7/1 974/5/1 975/6/1 976/8/1
f 977/1/1 978/2/1 979/3/1 980/4/1
f 981/7/1 982/5/1 983/6/1 984/8/1
f 985/1/1 986/2/1 987/3/1 988/4/1
f 989/5/1 990/1/1 991/4/1 992/6/1
f 993/7/1 994/5/1 995/6/1 996/8/1
f 997/5/1 998/1/1 999/4/1 1000/6/1
f 1001/5/1 1002/1/1 1003/4/1 1004/6/1
f 1005/5/1 1006/1/1 1007/4/1 1008/6/1
f 1009/7/1 1010/5/1 1011/6/1 1012/8/1
f 1013/5/1 1014/1/1 1015/4/1 1016/6/1
f 1017/7/1 1018/5/1 1019/6/1 1020/8/1
f 1021/1/1 1022/2/1 1023/3/1 1024/4/1

