# Tiled2Unity generated file. Do not modify by hand.
# Wavefront file for 'testmap1_mesh_0768.obj'

# Vertices (Count = 60)
v 0 -11 0
v -1 -11 0
v -1 -10 0
v 0 -10 0
v -1 -11 0
v -2 -11 0
v -2 -10 0
v -1 -10 0
v -2 -11 0
v -3 -11 0
v -3 -10 0
v -2 -10 0
v 0 -12 0
v -1 -12 0
v -1 -11 0
v 0 -11 0
v -1 -12 0
v -2 -12 0
v -2 -11 0
v -1 -11 0
v -2 -12 0
v -3 -12 0
v -3 -11 0
v -2 -11 0
v 0 -13 0
v -1 -13 0
v -1 -12 0
v 0 -12 0
v -1 -13 0
v -2 -13 0
v -2 -12 0
v -1 -12 0
v -2 -13 0
v -3 -13 0
v -3 -12 0
v -2 -12 0
v 0 -14 0
v -1 -14 0
v -1 -13 0
v 0 -13 0
v -1 -14 0
v -2 -14 0
v -2 -13 0
v -1 -13 0
v -2 -14 0
v -3 -14 0
v -3 -13 0
v -2 -13 0
v 0 -15 0
v -1 -15 0
v -1 -14 0
v 0 -14 0
v -1 -15 0
v -2 -15 0
v -2 -14 0
v -1 -14 0
v -2 -15 0
v -3 -15 0
v -3 -14 0
v -2 -14 0

# Texture cooridinates (Count = 18)
vt 0.9375 0.96875
vt 0.96875 0.96875
vt 0.96875 1
vt 0.9375 1
vt 1 0.96875
vt 1 1
vt 0.9375 0.9375
vt 0.96875 0.9375
vt 1 0.9375
vt 0.9375 0.90625
vt 0.96875 0.90625
vt 1 0.90625
vt 0.9375 0.875
vt 0.96875 0.875
vt 1 0.875
vt 0.9375 0.84375
vt 0.96875 0.84375
vt 1 0.84375

# Normal
vn 0 0 -1

# Mesh description
g testmap1_mesh_0768

# Faces
f 1/1/1 2/2/1 3/3/1 4/4/1
f 5/1/1 6/2/1 7/3/1 8/4/1
f 9/2/1 10/5/1 11/6/1 12/3/1
f 13/7/1 14/8/1 15/2/1 16/1/1
f 17/7/1 18/8/1 19/2/1 20/1/1
f 21/8/1 22/9/1 23/5/1 24/2/1
f 25/10/1 26/11/1 27/8/1 28/7/1
f 29/10/1 30/11/1 31/8/1 32/7/1
f 33/11/1 34/12/1 35/9/1 36/8/1
f 37/13/1 38/14/1 39/11/1 40/10/1
f 41/13/1 42/14/1 43/11/1 44/10/1
f 45/14/1 46/15/1 47/12/1 48/11/1
f 49/16/1 50/17/1 51/14/1 52/13/1
f 53/16/1 54/17/1 55/14/1 56/13/1
f 57/17/1 58/18/1 59/15/1 60/14/1

