# Tiled2Unity generated file. Do not modify by hand.
# Wavefront file for 'untitled2_mesh_0002.obj'

# Vertices (Count = 220)
v 0 -1 0
v -1 -1 0
v -1 0 0
v 0 0 0
v -1 -1 0
v -2 -1 0
v -2 0 0
v -1 0 0
v -2 -1 0
v -3 -1 0
v -3 0 0
v -2 0 0
v -3 -1 0
v -4 -1 0
v -4 0 0
v -3 0 0
v -4 -1 0
v -5 -1 0
v -5 0 0
v -4 0 0
v -5 -1 0
v -6 -1 0
v -6 0 0
v -5 0 0
v -6 -1 0
v -7 -1 0
v -7 0 0
v -6 0 0
v -7 -1 0
v -8 -1 0
v -8 0 0
v -7 0 0
v -8 -1 0
v -9 -1 0
v -9 0 0
v -8 0 0
v -9 -1 0
v -10 -1 0
v -10 0 0
v -9 0 0
v -10 -1 0
v -11 -1 0
v -11 0 0
v -10 0 0
v -11 -1 0
v -12 -1 0
v -12 0 0
v -11 0 0
v -12 -1 0
v -13 -1 0
v -13 0 0
v -12 0 0
v -13 -1 0
v -14 -1 0
v -14 0 0
v -13 0 0
v 0 -2 0
v -1 -2 0
v -1 -1 0
v 0 -1 0
v -1 -2 0
v -2 -2 0
v -2 -1 0
v -1 -1 0
v -2 -2 0
v -3 -2 0
v -3 -1 0
v -2 -1 0
v -13 -2 0
v -14 -2 0
v -14 -1 0
v -13 -1 0
v 0 -3 0
v -1 -3 0
v -1 -2 0
v 0 -2 0
v -1 -3 0
v -2 -3 0
v -2 -2 0
v -1 -2 0
v -2 -3 0
v -3 -3 0
v -3 -2 0
v -2 -2 0
v -13 -3 0
v -14 -3 0
v -14 -2 0
v -13 -2 0
v 0 -4 0
v -1 -4 0
v -1 -3 0
v 0 -3 0
v -13 -4 0
v -14 -4 0
v -14 -3 0
v -13 -3 0
v 0 -5 0
v -1 -5 0
v -1 -4 0
v 0 -4 0
v -1 -5 0
v -2 -5 0
v -2 -4 0
v -1 -4 0
v -2 -5 0
v -3 -5 0
v -3 -4 0
v -2 -4 0
v -3 -5 0
v -4 -5 0
v -4 -4 0
v -3 -4 0
v -13 -5 0
v -14 -5 0
v -14 -4 0
v -13 -4 0
v 0 -6 0
v -1 -6 0
v -1 -5 0
v 0 -5 0
v -1 -6 0
v -2 -6 0
v -2 -5 0
v -1 -5 0
v -2 -6 0
v -3 -6 0
v -3 -5 0
v -2 -5 0
v -3 -6 0
v -4 -6 0
v -4 -5 0
v -3 -5 0
v -10 -6 0
v -11 -6 0
v -11 -5 0
v -10 -5 0
v -11 -6 0
v -12 -6 0
v -12 -5 0
v -11 -5 0
v -13 -6 0
v -14 -6 0
v -14 -5 0
v -13 -5 0
v 0 -7 0
v -1 -7 0
v -1 -6 0
v 0 -6 0
v -1 -7 0
v -2 -7 0
v -2 -6 0
v -1 -6 0
v -2 -7 0
v -3 -7 0
v -3 -6 0
v -2 -6 0
v -3 -7 0
v -4 -7 0
v -4 -6 0
v -3 -6 0
v -13 -7 0
v -14 -7 0
v -14 -6 0
v -13 -6 0
v 0 -8 0
v -1 -8 0
v -1 -7 0
v 0 -7 0
v -1 -8 0
v -2 -8 0
v -2 -7 0
v -1 -7 0
v -2 -8 0
v -3 -8 0
v -3 -7 0
v -2 -7 0
v -3 -8 0
v -4 -8 0
v -4 -7 0
v -3 -7 0
v -4 -8 0
v -5 -8 0
v -5 -7 0
v -4 -7 0
v -5 -8 0
v -6 -8 0
v -6 -7 0
v -5 -7 0
v -6 -8 0
v -7 -8 0
v -7 -7 0
v -6 -7 0
v -7 -8 0
v -8 -8 0
v -8 -7 0
v -7 -7 0
v -8 -8 0
v -9 -8 0
v -9 -7 0
v -8 -7 0
v -9 -8 0
v -10 -8 0
v -10 -7 0
v -9 -7 0
v -10 -8 0
v -11 -8 0
v -11 -7 0
v -10 -7 0
v -11 -8 0
v -12 -8 0
v -12 -7 0
v -11 -7 0
v -12 -8 0
v -13 -8 0
v -13 -7 0
v -12 -7 0
v -13 -8 0
v -14 -8 0
v -14 -7 0
v -13 -7 0

# Texture cooridinates (Count = 41)
vt 0.875 0.9375
vt 0.9375 0.9375
vt 0.9375 1
vt 0.875 1
vt 0.6875 0.8125
vt 0.75 0.8125
vt 0.75 0.875
vt 0.6875 0.875
vt 0.8125 0.8125
vt 0.8125 0.875
vt 0.875 0.875
vt 0.9375 0.875
vt 0.875 0.8125
vt 0.9375 0.8125
vt 1 0.8125
vt 1 0.875
vt 0.875 0.75
vt 0.9375 0.75
vt 1 0.75
vt 0.25 0.5
vt 0.3125 0.5
vt 0.3125 0.5625
vt 0.25 0.5625
vt 0.375 0.5
vt 0.375 0.5625
vt 0.4375 0.5
vt 0.4375 0.5625
vt 0.25 0.4375
vt 0.3125 0.4375
vt 0.375 0.4375
vt 0.4375 0.4375
vt 0.4375 0.75
vt 0.5 0.75
vt 0.5 0.8125
vt 0.4375 0.8125
vt 0.5625 0.75
vt 0.5625 0.8125
vt 0.25 0.375
vt 0.3125 0.375
vt 0.375 0.375
vt 0.4375 0.375

# Normal
vn 0 0 -1

# Mesh description
g untitled2_mesh_0002

# Faces
f 1/1/1 2/2/1 3/3/1 4/4/1
f 5/5/1 6/6/1 7/7/1 8/8/1
f 9/6/1 10/9/1 11/10/1 12/7/1
f 13/5/1 14/6/1 15/7/1 16/8/1
f 17/6/1 18/9/1 19/10/1 20/7/1
f 21/5/1 22/6/1 23/7/1 24/8/1
f 25/6/1 26/9/1 27/10/1 28/7/1
f 29/5/1 30/6/1 31/7/1 32/8/1
f 33/6/1 34/9/1 35/10/1 36/7/1
f 37/5/1 38/6/1 39/7/1 40/8/1
f 41/6/1 42/9/1 43/10/1 44/7/1
f 45/5/1 46/6/1 47/7/1 48/8/1
f 49/6/1 50/9/1 51/10/1 52/7/1
f 53/1/1 54/2/1 55/3/1 56/4/1
f 57/11/1 58/12/1 59/2/1 60/1/1
f 61/13/1 62/14/1 63/12/1 64/11/1
f 65/14/1 66/15/1 67/16/1 68/12/1
f 69/11/1 70/12/1 71/2/1 72/1/1
f 73/1/1 74/2/1 75/3/1 76/4/1
f 77/17/1 78/18/1 79/14/1 80/13/1
f 81/18/1 82/19/1 83/15/1 84/14/1
f 85/1/1 86/2/1 87/3/1 88/4/1
f 89/11/1 90/12/1 91/2/1 92/1/1
f 93/11/1 94/12/1 95/2/1 96/1/1
f 97/1/1 98/2/1 99/3/1 100/4/1
f 101/20/1 102/21/1 103/22/1 104/23/1
f 105/21/1 106/24/1 107/25/1 108/22/1
f 109/24/1 110/26/1 111/27/1 112/25/1
f 113/1/1 114/2/1 115/3/1 116/4/1
f 117/11/1 118/12/1 119/2/1 120/1/1
f 121/28/1 122/29/1 123/21/1 124/20/1
f 125/29/1 126/30/1 127/24/1 128/21/1
f 129/30/1 130/31/1 131/26/1 132/24/1
f 133/32/1 134/33/1 135/34/1 136/35/1
f 137/33/1 138/36/1 139/37/1 140/34/1
f 141/11/1 142/12/1 143/2/1 144/1/1
f 145/1/1 146/2/1 147/3/1 148/4/1
f 149/38/1 150/39/1 151/29/1 152/28/1
f 153/39/1 154/40/1 155/30/1 156/29/1
f 157/40/1 158/41/1 159/31/1 160/30/1
f 161/1/1 162/2/1 163/3/1 164/4/1
f 165/11/1 166/12/1 167/2/1 168/1/1
f 169/5/1 170/6/1 171/7/1 172/8/1
f 173/6/1 174/9/1 175/10/1 176/7/1
f 177/5/1 178/6/1 179/7/1 180/8/1
f 181/6/1 182/9/1 183/10/1 184/7/1
f 185/5/1 186/6/1 187/7/1 188/8/1
f 189/6/1 190/9/1 191/10/1 192/7/1
f 193/5/1 194/6/1 195/7/1 196/8/1
f 197/6/1 198/9/1 199/10/1 200/7/1
f 201/5/1 202/6/1 203/7/1 204/8/1
f 205/6/1 206/9/1 207/10/1 208/7/1
f 209/5/1 210/6/1 211/7/1 212/8/1
f 213/6/1 214/9/1 215/10/1 216/7/1
f 217/11/1 218/12/1 219/2/1 220/1/1

