# Tiled2Unity generated file. Do not modify by hand.
# Wavefront file for 'arty_mesh_0024.obj'

# Vertices (Count = 96)
v 0 -1 0
v -2 -1 0
v -2 1 0
v 0 1 0
v -1 -1 0
v -3 -1 0
v -3 1 0
v -1 1 0
v 0 -2 0
v -2 -2 0
v -2 0 0
v 0 0 0
v -1 -2 0
v -3 -2 0
v -3 0 0
v -1 0 0
v 0 -3 0
v -2 -3 0
v -2 -1 0
v 0 -1 0
v -1 -3 0
v -3 -3 0
v -3 -1 0
v -1 -1 0
v 0 -4 0
v -2 -4 0
v -2 -2 0
v 0 -2 0
v -1 -4 0
v -3 -4 0
v -3 -2 0
v -1 -2 0
v 0 -5 0
v -2 -5 0
v -2 -3 0
v 0 -3 0
v -1 -5 0
v -3 -5 0
v -3 -3 0
v -1 -3 0
v 0 -6 0
v -2 -6 0
v -2 -4 0
v 0 -4 0
v -1 -6 0
v -3 -6 0
v -3 -4 0
v -1 -4 0
v 0 -7 0
v -2 -7 0
v -2 -5 0
v 0 -5 0
v -1 -7 0
v -3 -7 0
v -3 -5 0
v -1 -5 0
v 0 -8 0
v -2 -8 0
v -2 -6 0
v 0 -6 0
v -1 -8 0
v -3 -8 0
v -3 -6 0
v -1 -6 0
v 0 -9 0
v -2 -9 0
v -2 -7 0
v 0 -7 0
v -1 -9 0
v -3 -9 0
v -3 -7 0
v -1 -7 0
v 0 -10 0
v -2 -10 0
v -2 -8 0
v 0 -8 0
v -1 -10 0
v -3 -10 0
v -3 -8 0
v -1 -8 0
v 0 -11 0
v -2 -11 0
v -2 -9 0
v 0 -9 0
v -1 -11 0
v -3 -11 0
v -3 -9 0
v -1 -9 0
v 0 -12 0
v -2 -12 0
v -2 -10 0
v 0 -10 0
v -1 -12 0
v -3 -12 0
v -3 -10 0
v -1 -10 0

# Texture cooridinates (Count = 12)
vt 0.125 0.875
vt 0.25 0.875
vt 0.25 1
vt 0.125 1
vt 0.125 0.75
vt 0.25 0.75
vt 0 0.5
vt 0.125 0.5
vt 0.125 0.625
vt 0 0.625
vt 0.25 0.5
vt 0.25 0.625

# Normal
vn 0 0 -1

# Mesh description
g arty_mesh_0024

# Faces
f 1/1/1 2/2/1 3/3/1 4/4/1
f 5/5/1 6/6/1 7/2/1 8/1/1
f 9/7/1 10/8/1 11/9/1 12/10/1
f 13/1/1 14/2/1 15/3/1 16/4/1
f 17/5/1 18/6/1 19/2/1 20/1/1
f 21/1/1 22/2/1 23/3/1 24/4/1
f 25/7/1 26/8/1 27/9/1 28/10/1
f 29/7/1 30/8/1 31/9/1 32/10/1
f 33/1/1 34/2/1 35/3/1 36/4/1
f 37/7/1 38/8/1 39/9/1 40/10/1
f 41/8/1 42/11/1 43/12/1 44/9/1
f 45/1/1 46/2/1 47/3/1 48/4/1
f 49/7/1 50/8/1 51/9/1 52/10/1
f 53/1/1 54/2/1 55/3/1 56/4/1
f 57/7/1 58/8/1 59/9/1 60/10/1
f 61/1/1 62/2/1 63/3/1 64/4/1
f 65/7/1 66/8/1 67/9/1 68/10/1
f 69/7/1 70/8/1 71/9/1 72/10/1
f 73/1/1 74/2/1 75/3/1 76/4/1
f 77/8/1 78/11/1 79/12/1 80/9/1
f 81/5/1 82/6/1 83/2/1 84/1/1
f 85/5/1 86/6/1 87/2/1 88/1/1
f 89/8/1 90/11/1 91/12/1 92/9/1
f 93/1/1 94/2/1 95/3/1 96/4/1

